G04 #@! TF.GenerationSoftware,KiCad,Pcbnew,(5.1.10)-1*
G04 #@! TF.CreationDate,2021-09-08T10:41:52-04:00*
G04 #@! TF.ProjectId,SharpDisplayPcb,53686172-7044-4697-9370-6c6179506362,rev?*
G04 #@! TF.SameCoordinates,Original*
G04 #@! TF.FileFunction,Copper,L1,Top*
G04 #@! TF.FilePolarity,Positive*
%FSLAX46Y46*%
G04 Gerber Fmt 4.6, Leading zero omitted, Abs format (unit mm)*
G04 Created by KiCad (PCBNEW (5.1.10)-1) date 2021-09-08 10:41:52*
%MOMM*%
%LPD*%
G01*
G04 APERTURE LIST*
G04 #@! TA.AperFunction,EtchedComponent*
%ADD10C,0.100000*%
G04 #@! TD*
G04 #@! TA.AperFunction,SMDPad,CuDef*
%ADD11R,1.600000X2.200000*%
G04 #@! TD*
G04 #@! TA.AperFunction,SMDPad,CuDef*
%ADD12R,0.250000X1.400000*%
G04 #@! TD*
G04 #@! TA.AperFunction,ComponentPad*
%ADD13O,1.700000X1.700000*%
G04 #@! TD*
G04 #@! TA.AperFunction,ComponentPad*
%ADD14R,1.700000X1.700000*%
G04 #@! TD*
G04 #@! TA.AperFunction,ComponentPad*
%ADD15C,1.700000*%
G04 #@! TD*
G04 #@! TA.AperFunction,SMDPad,CuDef*
%ADD16R,1.500000X1.000000*%
G04 #@! TD*
G04 #@! TA.AperFunction,ComponentPad*
%ADD17C,4.000000*%
G04 #@! TD*
G04 #@! TA.AperFunction,ViaPad*
%ADD18C,0.800000*%
G04 #@! TD*
G04 #@! TA.AperFunction,Conductor*
%ADD19C,0.250000*%
G04 #@! TD*
G04 #@! TA.AperFunction,Conductor*
%ADD20C,0.500000*%
G04 #@! TD*
G04 #@! TA.AperFunction,Conductor*
%ADD21C,0.254000*%
G04 #@! TD*
G04 #@! TA.AperFunction,Conductor*
%ADD22C,0.100000*%
G04 #@! TD*
G04 APERTURE END LIST*
D10*
G04 #@! TO.C,JP1*
G36*
X104750000Y-93125000D02*
G01*
X104750000Y-92625000D01*
X105350000Y-92625000D01*
X105350000Y-93125000D01*
X104750000Y-93125000D01*
G37*
G04 #@! TD*
D11*
G04 #@! TO.P,IC1,SUPPORT2*
G04 #@! TO.N,GND*
X102686780Y-74822920D03*
G04 #@! TO.P,IC1,SUPPORT1*
X112486780Y-74822920D03*
D12*
G04 #@! TO.P,IC1,VSSA*
G04 #@! TO.N,GNDA*
X105336780Y-77972920D03*
G04 #@! TO.P,IC1,VSS*
G04 #@! TO.N,GND*
X105836780Y-77972920D03*
G04 #@! TO.P,IC1,EXTMODE*
G04 #@! TO.N,Net-(IC1-PadEXTMODE)*
X106336780Y-77972920D03*
G04 #@! TO.P,IC1,VDD*
G04 #@! TO.N,+3V3*
X106836780Y-77972920D03*
G04 #@! TO.P,IC1,VDDA*
G04 #@! TO.N,+3.3VA*
X107336780Y-77972920D03*
G04 #@! TO.P,IC1,DISP*
G04 #@! TO.N,BLANK*
X107836780Y-77972920D03*
G04 #@! TO.P,IC1,EXTCOMIN*
G04 #@! TO.N,Net-(IC1-PadEXTCOMIN)*
X108336780Y-77972920D03*
G04 #@! TO.P,IC1,SCS*
G04 #@! TO.N,CS*
X108836780Y-77972920D03*
G04 #@! TO.P,IC1,SI*
G04 #@! TO.N,SDI*
X109336780Y-77972920D03*
G04 #@! TO.P,IC1,SCLK*
G04 #@! TO.N,SCLK*
X109836780Y-77972920D03*
G04 #@! TD*
D13*
G04 #@! TO.P,J1,8*
G04 #@! TO.N,N/C*
X117749100Y-103856100D03*
G04 #@! TO.P,J1,7*
G04 #@! TO.N,BLANK*
X115209100Y-103856100D03*
G04 #@! TO.P,J1,6*
G04 #@! TO.N,N/C*
X112669100Y-103856100D03*
G04 #@! TO.P,J1,5*
G04 #@! TO.N,CS*
X110129100Y-103856100D03*
G04 #@! TO.P,J1,4*
G04 #@! TO.N,SDI*
X107589100Y-103856100D03*
G04 #@! TO.P,J1,3*
G04 #@! TO.N,SCLK*
X105049100Y-103856100D03*
D14*
G04 #@! TO.P,J1,2*
G04 #@! TO.N,GND*
X102509100Y-103856100D03*
D15*
G04 #@! TO.P,J1,1*
G04 #@! TO.N,+3V3*
X99969100Y-103856100D03*
G04 #@! TD*
D16*
G04 #@! TO.P,JP1,2*
G04 #@! TO.N,Net-(JP1-Pad2)*
X105050000Y-92225000D03*
G04 #@! TO.P,JP1,1*
G04 #@! TO.N,BLANK*
X105050000Y-93525000D03*
G04 #@! TD*
G04 #@! TO.P,R3,2*
G04 #@! TO.N,Net-(JP1-Pad2)*
G04 #@! TA.AperFunction,SMDPad,CuDef*
G36*
G01*
X108800000Y-87325001D02*
X108800000Y-86424999D01*
G75*
G02*
X109049999Y-86175000I249999J0D01*
G01*
X109750001Y-86175000D01*
G75*
G02*
X110000000Y-86424999I0J-249999D01*
G01*
X110000000Y-87325001D01*
G75*
G02*
X109750001Y-87575000I-249999J0D01*
G01*
X109049999Y-87575000D01*
G75*
G02*
X108800000Y-87325001I0J249999D01*
G01*
G37*
G04 #@! TD.AperFunction*
G04 #@! TO.P,R3,1*
G04 #@! TO.N,+3V3*
G04 #@! TA.AperFunction,SMDPad,CuDef*
G36*
G01*
X106800000Y-87325001D02*
X106800000Y-86424999D01*
G75*
G02*
X107049999Y-86175000I249999J0D01*
G01*
X107750001Y-86175000D01*
G75*
G02*
X108000000Y-86424999I0J-249999D01*
G01*
X108000000Y-87325001D01*
G75*
G02*
X107750001Y-87575000I-249999J0D01*
G01*
X107049999Y-87575000D01*
G75*
G02*
X106800000Y-87325001I0J249999D01*
G01*
G37*
G04 #@! TD.AperFunction*
G04 #@! TD*
G04 #@! TO.P,R2,2*
G04 #@! TO.N,GND*
G04 #@! TA.AperFunction,SMDPad,CuDef*
G36*
G01*
X101400000Y-78674999D02*
X101400000Y-79575001D01*
G75*
G02*
X101150001Y-79825000I-249999J0D01*
G01*
X100449999Y-79825000D01*
G75*
G02*
X100200000Y-79575001I0J249999D01*
G01*
X100200000Y-78674999D01*
G75*
G02*
X100449999Y-78425000I249999J0D01*
G01*
X101150001Y-78425000D01*
G75*
G02*
X101400000Y-78674999I0J-249999D01*
G01*
G37*
G04 #@! TD.AperFunction*
G04 #@! TO.P,R2,1*
G04 #@! TO.N,Net-(IC1-PadEXTMODE)*
G04 #@! TA.AperFunction,SMDPad,CuDef*
G36*
G01*
X103400000Y-78674999D02*
X103400000Y-79575001D01*
G75*
G02*
X103150001Y-79825000I-249999J0D01*
G01*
X102449999Y-79825000D01*
G75*
G02*
X102200000Y-79575001I0J249999D01*
G01*
X102200000Y-78674999D01*
G75*
G02*
X102449999Y-78425000I249999J0D01*
G01*
X103150001Y-78425000D01*
G75*
G02*
X103400000Y-78674999I0J-249999D01*
G01*
G37*
G04 #@! TD.AperFunction*
G04 #@! TD*
G04 #@! TO.P,R1,2*
G04 #@! TO.N,Net-(IC1-PadEXTCOMIN)*
G04 #@! TA.AperFunction,SMDPad,CuDef*
G36*
G01*
X113525000Y-78524999D02*
X113525000Y-79425001D01*
G75*
G02*
X113275001Y-79675000I-249999J0D01*
G01*
X112574999Y-79675000D01*
G75*
G02*
X112325000Y-79425001I0J249999D01*
G01*
X112325000Y-78524999D01*
G75*
G02*
X112574999Y-78275000I249999J0D01*
G01*
X113275001Y-78275000D01*
G75*
G02*
X113525000Y-78524999I0J-249999D01*
G01*
G37*
G04 #@! TD.AperFunction*
G04 #@! TO.P,R1,1*
G04 #@! TO.N,GND*
G04 #@! TA.AperFunction,SMDPad,CuDef*
G36*
G01*
X115525000Y-78524999D02*
X115525000Y-79425001D01*
G75*
G02*
X115275001Y-79675000I-249999J0D01*
G01*
X114574999Y-79675000D01*
G75*
G02*
X114325000Y-79425001I0J249999D01*
G01*
X114325000Y-78524999D01*
G75*
G02*
X114574999Y-78275000I249999J0D01*
G01*
X115275001Y-78275000D01*
G75*
G02*
X115525000Y-78524999I0J-249999D01*
G01*
G37*
G04 #@! TD.AperFunction*
G04 #@! TD*
G04 #@! TO.P,C4,2*
G04 #@! TO.N,GNDA*
G04 #@! TA.AperFunction,SMDPad,CuDef*
G36*
G01*
X98850000Y-75975000D02*
X98850000Y-76925000D01*
G75*
G02*
X98600000Y-77175000I-250000J0D01*
G01*
X97925000Y-77175000D01*
G75*
G02*
X97675000Y-76925000I0J250000D01*
G01*
X97675000Y-75975000D01*
G75*
G02*
X97925000Y-75725000I250000J0D01*
G01*
X98600000Y-75725000D01*
G75*
G02*
X98850000Y-75975000I0J-250000D01*
G01*
G37*
G04 #@! TD.AperFunction*
G04 #@! TO.P,C4,1*
G04 #@! TO.N,+3.3VA*
G04 #@! TA.AperFunction,SMDPad,CuDef*
G36*
G01*
X100925000Y-75975000D02*
X100925000Y-76925000D01*
G75*
G02*
X100675000Y-77175000I-250000J0D01*
G01*
X100000000Y-77175000D01*
G75*
G02*
X99750000Y-76925000I0J250000D01*
G01*
X99750000Y-75975000D01*
G75*
G02*
X100000000Y-75725000I250000J0D01*
G01*
X100675000Y-75725000D01*
G75*
G02*
X100925000Y-75975000I0J-250000D01*
G01*
G37*
G04 #@! TD.AperFunction*
G04 #@! TD*
G04 #@! TO.P,C3,2*
G04 #@! TO.N,+3V3*
G04 #@! TA.AperFunction,SMDPad,CuDef*
G36*
G01*
X106378500Y-82024200D02*
X106378500Y-82974200D01*
G75*
G02*
X106128500Y-83224200I-250000J0D01*
G01*
X105453500Y-83224200D01*
G75*
G02*
X105203500Y-82974200I0J250000D01*
G01*
X105203500Y-82024200D01*
G75*
G02*
X105453500Y-81774200I250000J0D01*
G01*
X106128500Y-81774200D01*
G75*
G02*
X106378500Y-82024200I0J-250000D01*
G01*
G37*
G04 #@! TD.AperFunction*
G04 #@! TO.P,C3,1*
G04 #@! TO.N,GND*
G04 #@! TA.AperFunction,SMDPad,CuDef*
G36*
G01*
X108453500Y-82024200D02*
X108453500Y-82974200D01*
G75*
G02*
X108203500Y-83224200I-250000J0D01*
G01*
X107528500Y-83224200D01*
G75*
G02*
X107278500Y-82974200I0J250000D01*
G01*
X107278500Y-82024200D01*
G75*
G02*
X107528500Y-81774200I250000J0D01*
G01*
X108203500Y-81774200D01*
G75*
G02*
X108453500Y-82024200I0J-250000D01*
G01*
G37*
G04 #@! TD.AperFunction*
G04 #@! TD*
G04 #@! TO.P,C2,2*
G04 #@! TO.N,BLANK*
G04 #@! TA.AperFunction,SMDPad,CuDef*
G36*
G01*
X109712000Y-85196700D02*
X109712000Y-84246700D01*
G75*
G02*
X109962000Y-83996700I250000J0D01*
G01*
X110637000Y-83996700D01*
G75*
G02*
X110887000Y-84246700I0J-250000D01*
G01*
X110887000Y-85196700D01*
G75*
G02*
X110637000Y-85446700I-250000J0D01*
G01*
X109962000Y-85446700D01*
G75*
G02*
X109712000Y-85196700I0J250000D01*
G01*
G37*
G04 #@! TD.AperFunction*
G04 #@! TO.P,C2,1*
G04 #@! TO.N,GND*
G04 #@! TA.AperFunction,SMDPad,CuDef*
G36*
G01*
X107637000Y-85196700D02*
X107637000Y-84246700D01*
G75*
G02*
X107887000Y-83996700I250000J0D01*
G01*
X108562000Y-83996700D01*
G75*
G02*
X108812000Y-84246700I0J-250000D01*
G01*
X108812000Y-85196700D01*
G75*
G02*
X108562000Y-85446700I-250000J0D01*
G01*
X107887000Y-85446700D01*
G75*
G02*
X107637000Y-85196700I0J250000D01*
G01*
G37*
G04 #@! TD.AperFunction*
G04 #@! TD*
G04 #@! TO.P,C1,2*
G04 #@! TO.N,GND*
G04 #@! TA.AperFunction,SMDPad,CuDef*
G36*
G01*
X96300000Y-95575000D02*
X96300000Y-96525000D01*
G75*
G02*
X96050000Y-96775000I-250000J0D01*
G01*
X95375000Y-96775000D01*
G75*
G02*
X95125000Y-96525000I0J250000D01*
G01*
X95125000Y-95575000D01*
G75*
G02*
X95375000Y-95325000I250000J0D01*
G01*
X96050000Y-95325000D01*
G75*
G02*
X96300000Y-95575000I0J-250000D01*
G01*
G37*
G04 #@! TD.AperFunction*
G04 #@! TO.P,C1,1*
G04 #@! TO.N,+3V3*
G04 #@! TA.AperFunction,SMDPad,CuDef*
G36*
G01*
X98375000Y-95575000D02*
X98375000Y-96525000D01*
G75*
G02*
X98125000Y-96775000I-250000J0D01*
G01*
X97450000Y-96775000D01*
G75*
G02*
X97200000Y-96525000I0J250000D01*
G01*
X97200000Y-95575000D01*
G75*
G02*
X97450000Y-95325000I250000J0D01*
G01*
X98125000Y-95325000D01*
G75*
G02*
X98375000Y-95575000I0J-250000D01*
G01*
G37*
G04 #@! TD.AperFunction*
G04 #@! TD*
G04 #@! TO.P,FB2,2*
G04 #@! TO.N,+3V3*
G04 #@! TA.AperFunction,SMDPad,CuDef*
G36*
G01*
X103367100Y-85082801D02*
X103367100Y-84182799D01*
G75*
G02*
X103617099Y-83932800I249999J0D01*
G01*
X104267101Y-83932800D01*
G75*
G02*
X104517100Y-84182799I0J-249999D01*
G01*
X104517100Y-85082801D01*
G75*
G02*
X104267101Y-85332800I-249999J0D01*
G01*
X103617099Y-85332800D01*
G75*
G02*
X103367100Y-85082801I0J249999D01*
G01*
G37*
G04 #@! TD.AperFunction*
G04 #@! TO.P,FB2,1*
G04 #@! TO.N,+3.3VA*
G04 #@! TA.AperFunction,SMDPad,CuDef*
G36*
G01*
X101317100Y-85082801D02*
X101317100Y-84182799D01*
G75*
G02*
X101567099Y-83932800I249999J0D01*
G01*
X102217101Y-83932800D01*
G75*
G02*
X102467100Y-84182799I0J-249999D01*
G01*
X102467100Y-85082801D01*
G75*
G02*
X102217101Y-85332800I-249999J0D01*
G01*
X101567099Y-85332800D01*
G75*
G02*
X101317100Y-85082801I0J249999D01*
G01*
G37*
G04 #@! TD.AperFunction*
G04 #@! TD*
G04 #@! TO.P,FB1,2*
G04 #@! TO.N,GND*
G04 #@! TA.AperFunction,SMDPad,CuDef*
G36*
G01*
X103320000Y-82936501D02*
X103320000Y-82036499D01*
G75*
G02*
X103569999Y-81786500I249999J0D01*
G01*
X104220001Y-81786500D01*
G75*
G02*
X104470000Y-82036499I0J-249999D01*
G01*
X104470000Y-82936501D01*
G75*
G02*
X104220001Y-83186500I-249999J0D01*
G01*
X103569999Y-83186500D01*
G75*
G02*
X103320000Y-82936501I0J249999D01*
G01*
G37*
G04 #@! TD.AperFunction*
G04 #@! TO.P,FB1,1*
G04 #@! TO.N,GNDA*
G04 #@! TA.AperFunction,SMDPad,CuDef*
G36*
G01*
X101270000Y-82936501D02*
X101270000Y-82036499D01*
G75*
G02*
X101519999Y-81786500I249999J0D01*
G01*
X102170001Y-81786500D01*
G75*
G02*
X102420000Y-82036499I0J-249999D01*
G01*
X102420000Y-82936501D01*
G75*
G02*
X102170001Y-83186500I-249999J0D01*
G01*
X101519999Y-83186500D01*
G75*
G02*
X101270000Y-82936501I0J249999D01*
G01*
G37*
G04 #@! TD.AperFunction*
G04 #@! TD*
D17*
G04 #@! TO.P,M3,1*
G04 #@! TO.N,N/C*
X124589100Y-103396100D03*
G04 #@! TD*
G04 #@! TO.P,M3,1*
G04 #@! TO.N,N/C*
X90589100Y-103396100D03*
G04 #@! TD*
G04 #@! TO.P,M3,1*
G04 #@! TO.N,N/C*
X90589100Y-70396100D03*
G04 #@! TD*
G04 #@! TO.P,M3,1*
G04 #@! TO.N,N/C*
X124589100Y-70396100D03*
G04 #@! TD*
D18*
G04 #@! TO.N,GND*
X95350000Y-94400000D03*
X95727520Y-69956680D03*
X119590820Y-69656960D03*
X120091200Y-103784400D03*
X95610680Y-103875840D03*
X116350000Y-78950000D03*
X101488240Y-77851000D03*
X105562400Y-80467200D03*
X107175300Y-83769200D03*
G04 #@! TO.N,BLANK*
X110413800Y-98145600D03*
G04 #@! TD*
D19*
G04 #@! TO.N,GND*
X105836780Y-77972920D02*
X105836780Y-77988220D01*
X105836780Y-80192820D02*
X105562400Y-80467200D01*
X105836780Y-77972920D02*
X105836780Y-80192820D01*
D20*
G04 #@! TO.N,GNDA*
X98262500Y-78904000D02*
X101845000Y-82486500D01*
X98262500Y-76450000D02*
X98262500Y-78904000D01*
D19*
X105336780Y-77972920D02*
X105336780Y-78884340D01*
X105336780Y-78884340D02*
X104566720Y-79654400D01*
D20*
X101845000Y-82376120D02*
X104566720Y-79654400D01*
X101845000Y-82486500D02*
X101845000Y-82376120D01*
D19*
G04 #@! TO.N,+3V3*
X107400000Y-86875000D02*
X107281140Y-86875000D01*
X99969100Y-98293400D02*
X100025000Y-98237500D01*
D20*
X99969100Y-103856100D02*
X99969100Y-98293400D01*
X97787500Y-96111800D02*
X99969100Y-98293400D01*
D19*
X97787500Y-96050000D02*
X97787500Y-96111800D01*
D20*
X97787500Y-88737500D02*
X97787500Y-96050000D01*
X99650000Y-86875000D02*
X97787500Y-88737500D01*
X103879000Y-86875000D02*
X99650000Y-86875000D01*
X107400000Y-86875000D02*
X103879000Y-86875000D01*
X105791000Y-82499200D02*
X106836780Y-81453420D01*
X103942100Y-84632800D02*
X104876600Y-84632800D01*
X105791000Y-83718400D02*
X105791000Y-82499200D01*
X104876600Y-84632800D02*
X105791000Y-83718400D01*
D19*
X106836780Y-77972920D02*
X106836780Y-79417480D01*
D20*
X106836780Y-81453420D02*
X106836780Y-79417480D01*
D19*
X103942100Y-86811900D02*
X103879000Y-86875000D01*
D20*
X103942100Y-84632800D02*
X103942100Y-86811900D01*
G04 #@! TO.N,+3.3VA*
X99733100Y-74307700D02*
X100337500Y-74912100D01*
X96481900Y-75082400D02*
X97256600Y-74307700D01*
X97256600Y-74307700D02*
X99733100Y-74307700D01*
X100337500Y-74912100D02*
X100337500Y-76450000D01*
X96481900Y-79222600D02*
X101892100Y-84632800D01*
X96481900Y-75082400D02*
X96481900Y-79222600D01*
X100483740Y-76596240D02*
X100337500Y-76450000D01*
X103977251Y-76372909D02*
X103753920Y-76596240D01*
X103753920Y-76596240D02*
X100483740Y-76596240D01*
X103977251Y-76372909D02*
X106646771Y-76372909D01*
D19*
X107336780Y-77062918D02*
X107336780Y-77972920D01*
X106646771Y-76372909D02*
X107336780Y-77062918D01*
G04 #@! TO.N,Net-(IC1-PadEXTMODE)*
X106221781Y-76947919D02*
X104951779Y-76947919D01*
X106336780Y-77062918D02*
X106221781Y-76947919D01*
X106336780Y-77972920D02*
X106336780Y-77062918D01*
X102800000Y-79099698D02*
X104951779Y-76947919D01*
X102800000Y-79125000D02*
X102800000Y-79099698D01*
G04 #@! TO.N,Net-(IC1-PadEXTCOMIN)*
X108765379Y-76497909D02*
X110447909Y-76497909D01*
X108336780Y-76926508D02*
X108765379Y-76497909D01*
X110447909Y-76497909D02*
X112925000Y-78975000D01*
X108336780Y-77972920D02*
X108336780Y-76926508D01*
G04 #@! TO.N,CS*
X108836780Y-77062918D02*
X108836780Y-77972920D01*
X110286781Y-80100371D02*
X110286781Y-77012919D01*
X110221781Y-76947919D02*
X108951779Y-76947919D01*
X110286781Y-77012919D02*
X110221781Y-76947919D01*
X112204120Y-82017710D02*
X110286781Y-80100371D01*
X112204120Y-98868700D02*
X112204120Y-82017710D01*
X108951779Y-76947919D02*
X108836780Y-77062918D01*
X110129100Y-100943720D02*
X112204120Y-98868700D01*
X110129100Y-103856100D02*
X110129100Y-100943720D01*
G04 #@! TO.N,SDI*
X109336780Y-80525370D02*
X109336780Y-77972920D01*
X111304101Y-82492691D02*
X109336780Y-80525370D01*
X107589100Y-103856100D02*
X107589100Y-102185900D01*
X111304101Y-98495899D02*
X111304101Y-82492691D01*
X111279101Y-98495899D02*
X107589100Y-102185900D01*
X111304101Y-98495899D02*
X111279101Y-98495899D01*
G04 #@! TO.N,SCLK*
X109836780Y-80286780D02*
X109836780Y-77972920D01*
X111754111Y-82204111D02*
X109836780Y-80286780D01*
X105049100Y-103856100D02*
X106618000Y-105425000D01*
X106618000Y-105425000D02*
X107925000Y-105425000D01*
X107925000Y-105425000D02*
X108850000Y-104500000D01*
X108850000Y-101586410D02*
X111754111Y-98682299D01*
X108850000Y-104500000D02*
X108850000Y-101586410D01*
X111754111Y-98682299D02*
X111754111Y-98479111D01*
X111754111Y-98479111D02*
X111754111Y-82204111D01*
G04 #@! TO.N,BLANK*
X110854091Y-91839319D02*
X110854091Y-91296091D01*
X110515400Y-98145600D02*
X110854091Y-97806909D01*
X110413800Y-98145600D02*
X110515400Y-98145600D01*
X107836780Y-79661780D02*
X107836780Y-77972920D01*
X110299500Y-82124500D02*
X107836780Y-79661780D01*
X110299500Y-84721700D02*
X110299500Y-82124500D01*
X110854091Y-85276291D02*
X110299500Y-84721700D01*
X105050000Y-93525000D02*
X105489080Y-93525000D01*
X105489080Y-93525000D02*
X106029760Y-92984320D01*
X106029760Y-92984320D02*
X106339070Y-92675010D01*
X106339070Y-92675010D02*
X108391960Y-92675010D01*
X110018401Y-92675009D02*
X110854091Y-91839319D01*
X108391960Y-92675010D02*
X110018401Y-92675009D01*
X110854091Y-91655029D02*
X110854091Y-85276291D01*
X110854091Y-97806909D02*
X110854091Y-91839319D01*
G04 #@! TO.N,Net-(JP1-Pad2)*
X110000000Y-86875000D02*
X110404081Y-87279081D01*
X109400000Y-86875000D02*
X110000000Y-86875000D01*
X110404081Y-87279081D02*
X110404081Y-91652919D01*
X109832000Y-92225000D02*
X105050000Y-92225000D01*
X110404081Y-91652919D02*
X109832000Y-92225000D01*
G04 #@! TD*
D21*
G04 #@! TO.N,GND*
X121818400Y-105740602D02*
X108684199Y-105740602D01*
X109321997Y-105102805D01*
X109425689Y-105172090D01*
X109695942Y-105284032D01*
X109982840Y-105341100D01*
X110275360Y-105341100D01*
X110562258Y-105284032D01*
X110832511Y-105172090D01*
X111075732Y-105009575D01*
X111282575Y-104802732D01*
X111399100Y-104628340D01*
X111515625Y-104802732D01*
X111722468Y-105009575D01*
X111965689Y-105172090D01*
X112235942Y-105284032D01*
X112522840Y-105341100D01*
X112815360Y-105341100D01*
X113102258Y-105284032D01*
X113372511Y-105172090D01*
X113615732Y-105009575D01*
X113822575Y-104802732D01*
X113939100Y-104628340D01*
X114055625Y-104802732D01*
X114262468Y-105009575D01*
X114505689Y-105172090D01*
X114775942Y-105284032D01*
X115062840Y-105341100D01*
X115355360Y-105341100D01*
X115642258Y-105284032D01*
X115912511Y-105172090D01*
X116155732Y-105009575D01*
X116362575Y-104802732D01*
X116479100Y-104628340D01*
X116595625Y-104802732D01*
X116802468Y-105009575D01*
X117045689Y-105172090D01*
X117315942Y-105284032D01*
X117602840Y-105341100D01*
X117895360Y-105341100D01*
X118182258Y-105284032D01*
X118452511Y-105172090D01*
X118695732Y-105009575D01*
X118902575Y-104802732D01*
X119065090Y-104559511D01*
X119177032Y-104289258D01*
X119234100Y-104002360D01*
X119234100Y-103709840D01*
X119177032Y-103422942D01*
X119065090Y-103152689D01*
X118902575Y-102909468D01*
X118695732Y-102702625D01*
X118452511Y-102540110D01*
X118182258Y-102428168D01*
X117895360Y-102371100D01*
X117602840Y-102371100D01*
X117315942Y-102428168D01*
X117045689Y-102540110D01*
X116802468Y-102702625D01*
X116595625Y-102909468D01*
X116479100Y-103083860D01*
X116362575Y-102909468D01*
X116155732Y-102702625D01*
X115912511Y-102540110D01*
X115642258Y-102428168D01*
X115355360Y-102371100D01*
X115062840Y-102371100D01*
X114775942Y-102428168D01*
X114505689Y-102540110D01*
X114262468Y-102702625D01*
X114055625Y-102909468D01*
X113939100Y-103083860D01*
X113822575Y-102909468D01*
X113615732Y-102702625D01*
X113372511Y-102540110D01*
X113102258Y-102428168D01*
X112815360Y-102371100D01*
X112522840Y-102371100D01*
X112235942Y-102428168D01*
X111965689Y-102540110D01*
X111722468Y-102702625D01*
X111515625Y-102909468D01*
X111399100Y-103083860D01*
X111282575Y-102909468D01*
X111075732Y-102702625D01*
X110889100Y-102577922D01*
X110889100Y-101258521D01*
X112715129Y-99432494D01*
X112744121Y-99408701D01*
X112767915Y-99379708D01*
X112767919Y-99379704D01*
X112839093Y-99292977D01*
X112839094Y-99292976D01*
X112909666Y-99160947D01*
X112953123Y-99017686D01*
X112964120Y-98906033D01*
X112964120Y-98906024D01*
X112967796Y-98868701D01*
X112964120Y-98831378D01*
X112964120Y-82055033D01*
X112967796Y-82017710D01*
X112964120Y-81980387D01*
X112964120Y-81980377D01*
X112953123Y-81868724D01*
X112909666Y-81725463D01*
X112839094Y-81593434D01*
X112744121Y-81477709D01*
X112715123Y-81453911D01*
X111046781Y-79785570D01*
X111046781Y-78171582D01*
X111686928Y-78811730D01*
X111686928Y-79425001D01*
X111703992Y-79598255D01*
X111754528Y-79764851D01*
X111836595Y-79918387D01*
X111947038Y-80052962D01*
X112081613Y-80163405D01*
X112235149Y-80245472D01*
X112401745Y-80296008D01*
X112574999Y-80313072D01*
X113275001Y-80313072D01*
X113448255Y-80296008D01*
X113614851Y-80245472D01*
X113768387Y-80163405D01*
X113902962Y-80052962D01*
X114013405Y-79918387D01*
X114095472Y-79764851D01*
X114146008Y-79598255D01*
X114163072Y-79425001D01*
X114163072Y-78524999D01*
X114146008Y-78351745D01*
X114095472Y-78185149D01*
X114013405Y-78031613D01*
X113902962Y-77897038D01*
X113768387Y-77786595D01*
X113614851Y-77704528D01*
X113448255Y-77653992D01*
X113275001Y-77636928D01*
X112661730Y-77636928D01*
X111011713Y-75986912D01*
X110987910Y-75957908D01*
X110872185Y-75862935D01*
X110740156Y-75792363D01*
X110596895Y-75748906D01*
X110485242Y-75737909D01*
X110485231Y-75737909D01*
X110447909Y-75734233D01*
X110410587Y-75737909D01*
X108802712Y-75737909D01*
X108765379Y-75734232D01*
X108728046Y-75737909D01*
X108616393Y-75748906D01*
X108473132Y-75792363D01*
X108341103Y-75862935D01*
X108225378Y-75957908D01*
X108201575Y-75986912D01*
X107825778Y-76362709D01*
X107796780Y-76386507D01*
X107772982Y-76415505D01*
X107772981Y-76415506D01*
X107769009Y-76420345D01*
X107506287Y-76157624D01*
X107468360Y-76032596D01*
X107386182Y-75878850D01*
X107275588Y-75744092D01*
X107140830Y-75633498D01*
X106987084Y-75551320D01*
X106820261Y-75500714D01*
X106690248Y-75487909D01*
X104020720Y-75487909D01*
X103977251Y-75483628D01*
X103933782Y-75487909D01*
X103933774Y-75487909D01*
X103803761Y-75500714D01*
X103636938Y-75551320D01*
X103483192Y-75633498D01*
X103388464Y-75711240D01*
X101518553Y-75711240D01*
X101495472Y-75635150D01*
X101413405Y-75481614D01*
X101302962Y-75347038D01*
X101222500Y-75281005D01*
X101222500Y-74955569D01*
X101226781Y-74912100D01*
X101222500Y-74868631D01*
X101222500Y-74868623D01*
X101209695Y-74738610D01*
X101164111Y-74588341D01*
X101159089Y-74571786D01*
X101076911Y-74418041D01*
X100994032Y-74317053D01*
X100994030Y-74317051D01*
X100966317Y-74283283D01*
X100932550Y-74255571D01*
X100389634Y-73712656D01*
X100361917Y-73678883D01*
X100227159Y-73568289D01*
X100073413Y-73486111D01*
X99906590Y-73435505D01*
X99776577Y-73422700D01*
X99776569Y-73422700D01*
X99733100Y-73418419D01*
X99689631Y-73422700D01*
X97300065Y-73422700D01*
X97256599Y-73418419D01*
X97213133Y-73422700D01*
X97213123Y-73422700D01*
X97083110Y-73435505D01*
X96916287Y-73486111D01*
X96762541Y-73568289D01*
X96762539Y-73568290D01*
X96762540Y-73568290D01*
X96661553Y-73651168D01*
X96661551Y-73651170D01*
X96627783Y-73678883D01*
X96600070Y-73712651D01*
X95886856Y-74425866D01*
X95853083Y-74453583D01*
X95742489Y-74588342D01*
X95660311Y-74742088D01*
X95609705Y-74908911D01*
X95596900Y-75038924D01*
X95596900Y-75038931D01*
X95592619Y-75082400D01*
X95596900Y-75125869D01*
X95596901Y-79179121D01*
X95592619Y-79222600D01*
X95609705Y-79396090D01*
X95660312Y-79562913D01*
X95742490Y-79716659D01*
X95825368Y-79817646D01*
X95825371Y-79817649D01*
X95853084Y-79851417D01*
X95886852Y-79879130D01*
X100679028Y-84671307D01*
X100679028Y-85082801D01*
X100696092Y-85256055D01*
X100746628Y-85422651D01*
X100828695Y-85576187D01*
X100939138Y-85710762D01*
X101073713Y-85821205D01*
X101227249Y-85903272D01*
X101393845Y-85953808D01*
X101567099Y-85970872D01*
X102217101Y-85970872D01*
X102390355Y-85953808D01*
X102556951Y-85903272D01*
X102710487Y-85821205D01*
X102845062Y-85710762D01*
X102917100Y-85622984D01*
X102989138Y-85710762D01*
X103057101Y-85766537D01*
X103057101Y-85990000D01*
X99693469Y-85990000D01*
X99650000Y-85985719D01*
X99606531Y-85990000D01*
X99606523Y-85990000D01*
X99476510Y-86002805D01*
X99309687Y-86053411D01*
X99201338Y-86111324D01*
X99155941Y-86135589D01*
X99054953Y-86218468D01*
X99054951Y-86218470D01*
X99021183Y-86246183D01*
X98993470Y-86279951D01*
X97192456Y-88080966D01*
X97158683Y-88108683D01*
X97048089Y-88243442D01*
X96965911Y-88397188D01*
X96915305Y-88564011D01*
X96902500Y-88694024D01*
X96902500Y-88694031D01*
X96898219Y-88737500D01*
X96902500Y-88780969D01*
X96902501Y-94881004D01*
X96822038Y-94947038D01*
X96711595Y-95081614D01*
X96629528Y-95235150D01*
X96578992Y-95401746D01*
X96561928Y-95575000D01*
X96561928Y-96525000D01*
X96578992Y-96698254D01*
X96629528Y-96864850D01*
X96711595Y-97018386D01*
X96822038Y-97152962D01*
X96956614Y-97263405D01*
X97110150Y-97345472D01*
X97276746Y-97396008D01*
X97450000Y-97413072D01*
X97837194Y-97413072D01*
X99084101Y-98659980D01*
X99084100Y-102661444D01*
X99022468Y-102702625D01*
X98815625Y-102909468D01*
X98653110Y-103152689D01*
X98541168Y-103422942D01*
X98484100Y-103709840D01*
X98484100Y-104002360D01*
X98541168Y-104289258D01*
X98653110Y-104559511D01*
X98815625Y-104802732D01*
X99022468Y-105009575D01*
X99265689Y-105172090D01*
X99535942Y-105284032D01*
X99822840Y-105341100D01*
X100115360Y-105341100D01*
X100402258Y-105284032D01*
X100672511Y-105172090D01*
X100915732Y-105009575D01*
X101122575Y-104802732D01*
X101285090Y-104559511D01*
X101397032Y-104289258D01*
X101454100Y-104002360D01*
X101454100Y-103709840D01*
X101397032Y-103422942D01*
X101285090Y-103152689D01*
X101122575Y-102909468D01*
X100915732Y-102702625D01*
X100854100Y-102661444D01*
X100854100Y-98336865D01*
X100858381Y-98293399D01*
X100854100Y-98249933D01*
X100854100Y-98249923D01*
X100841295Y-98119910D01*
X100790689Y-97953087D01*
X100708511Y-97799341D01*
X100653428Y-97732223D01*
X100625632Y-97698353D01*
X100625630Y-97698351D01*
X100597917Y-97664583D01*
X100564149Y-97636870D01*
X99013072Y-96085794D01*
X99013072Y-95575000D01*
X98996008Y-95401746D01*
X98945472Y-95235150D01*
X98863405Y-95081614D01*
X98752962Y-94947038D01*
X98672500Y-94881005D01*
X98672500Y-89104078D01*
X100016579Y-87760000D01*
X106280386Y-87760000D01*
X106311595Y-87818387D01*
X106422038Y-87952962D01*
X106556613Y-88063405D01*
X106710149Y-88145472D01*
X106876745Y-88196008D01*
X107049999Y-88213072D01*
X107750001Y-88213072D01*
X107923255Y-88196008D01*
X108089851Y-88145472D01*
X108243387Y-88063405D01*
X108377962Y-87952962D01*
X108400000Y-87926109D01*
X108422038Y-87952962D01*
X108556613Y-88063405D01*
X108710149Y-88145472D01*
X108876745Y-88196008D01*
X109049999Y-88213072D01*
X109644081Y-88213072D01*
X109644082Y-91338116D01*
X109517199Y-91465000D01*
X106381046Y-91465000D01*
X106330537Y-91370506D01*
X106251185Y-91273815D01*
X106154494Y-91194463D01*
X106044180Y-91135498D01*
X105924482Y-91099188D01*
X105800000Y-91086928D01*
X104300000Y-91086928D01*
X104175518Y-91099188D01*
X104055820Y-91135498D01*
X103945506Y-91194463D01*
X103848815Y-91273815D01*
X103769463Y-91370506D01*
X103710498Y-91480820D01*
X103674188Y-91600518D01*
X103661928Y-91725000D01*
X103661928Y-92725000D01*
X103674188Y-92849482D01*
X103681929Y-92875000D01*
X103674188Y-92900518D01*
X103661928Y-93025000D01*
X103661928Y-94025000D01*
X103674188Y-94149482D01*
X103710498Y-94269180D01*
X103769463Y-94379494D01*
X103848815Y-94476185D01*
X103945506Y-94555537D01*
X104055820Y-94614502D01*
X104175518Y-94650812D01*
X104300000Y-94663072D01*
X105800000Y-94663072D01*
X105924482Y-94650812D01*
X106044180Y-94614502D01*
X106154494Y-94555537D01*
X106251185Y-94476185D01*
X106330537Y-94379494D01*
X106389502Y-94269180D01*
X106425812Y-94149482D01*
X106438072Y-94025000D01*
X106438072Y-93650810D01*
X106593559Y-93495323D01*
X106593563Y-93495318D01*
X106653871Y-93435010D01*
X108429294Y-93435010D01*
X109981069Y-93435008D01*
X110018401Y-93438685D01*
X110055734Y-93435008D01*
X110094092Y-93431230D01*
X110094091Y-97157752D01*
X109923544Y-97228395D01*
X109754026Y-97341663D01*
X109609863Y-97485826D01*
X109496595Y-97655344D01*
X109418574Y-97843702D01*
X109378800Y-98043661D01*
X109378800Y-98247539D01*
X109418574Y-98447498D01*
X109496595Y-98635856D01*
X109609863Y-98805374D01*
X109752343Y-98947854D01*
X107078098Y-101622101D01*
X107049100Y-101645899D01*
X107025302Y-101674897D01*
X107025301Y-101674898D01*
X106954126Y-101761624D01*
X106883554Y-101893654D01*
X106840098Y-102036915D01*
X106825424Y-102185900D01*
X106829101Y-102223232D01*
X106829101Y-102577921D01*
X106642468Y-102702625D01*
X106435625Y-102909468D01*
X106319100Y-103083860D01*
X106202575Y-102909468D01*
X105995732Y-102702625D01*
X105752511Y-102540110D01*
X105482258Y-102428168D01*
X105195360Y-102371100D01*
X104902840Y-102371100D01*
X104615942Y-102428168D01*
X104345689Y-102540110D01*
X104102468Y-102702625D01*
X103895625Y-102909468D01*
X103733110Y-103152689D01*
X103621168Y-103422942D01*
X103564100Y-103709840D01*
X103564100Y-104002360D01*
X103621168Y-104289258D01*
X103733110Y-104559511D01*
X103895625Y-104802732D01*
X104102468Y-105009575D01*
X104345689Y-105172090D01*
X104615942Y-105284032D01*
X104902840Y-105341100D01*
X105195360Y-105341100D01*
X105415508Y-105297310D01*
X105858800Y-105740602D01*
X93382885Y-105740602D01*
X93370615Y-68058900D01*
X121818400Y-68058900D01*
X121818400Y-105740602D01*
G04 #@! TA.AperFunction,Conductor*
D22*
G36*
X121818400Y-105740602D02*
G01*
X108684199Y-105740602D01*
X109321997Y-105102805D01*
X109425689Y-105172090D01*
X109695942Y-105284032D01*
X109982840Y-105341100D01*
X110275360Y-105341100D01*
X110562258Y-105284032D01*
X110832511Y-105172090D01*
X111075732Y-105009575D01*
X111282575Y-104802732D01*
X111399100Y-104628340D01*
X111515625Y-104802732D01*
X111722468Y-105009575D01*
X111965689Y-105172090D01*
X112235942Y-105284032D01*
X112522840Y-105341100D01*
X112815360Y-105341100D01*
X113102258Y-105284032D01*
X113372511Y-105172090D01*
X113615732Y-105009575D01*
X113822575Y-104802732D01*
X113939100Y-104628340D01*
X114055625Y-104802732D01*
X114262468Y-105009575D01*
X114505689Y-105172090D01*
X114775942Y-105284032D01*
X115062840Y-105341100D01*
X115355360Y-105341100D01*
X115642258Y-105284032D01*
X115912511Y-105172090D01*
X116155732Y-105009575D01*
X116362575Y-104802732D01*
X116479100Y-104628340D01*
X116595625Y-104802732D01*
X116802468Y-105009575D01*
X117045689Y-105172090D01*
X117315942Y-105284032D01*
X117602840Y-105341100D01*
X117895360Y-105341100D01*
X118182258Y-105284032D01*
X118452511Y-105172090D01*
X118695732Y-105009575D01*
X118902575Y-104802732D01*
X119065090Y-104559511D01*
X119177032Y-104289258D01*
X119234100Y-104002360D01*
X119234100Y-103709840D01*
X119177032Y-103422942D01*
X119065090Y-103152689D01*
X118902575Y-102909468D01*
X118695732Y-102702625D01*
X118452511Y-102540110D01*
X118182258Y-102428168D01*
X117895360Y-102371100D01*
X117602840Y-102371100D01*
X117315942Y-102428168D01*
X117045689Y-102540110D01*
X116802468Y-102702625D01*
X116595625Y-102909468D01*
X116479100Y-103083860D01*
X116362575Y-102909468D01*
X116155732Y-102702625D01*
X115912511Y-102540110D01*
X115642258Y-102428168D01*
X115355360Y-102371100D01*
X115062840Y-102371100D01*
X114775942Y-102428168D01*
X114505689Y-102540110D01*
X114262468Y-102702625D01*
X114055625Y-102909468D01*
X113939100Y-103083860D01*
X113822575Y-102909468D01*
X113615732Y-102702625D01*
X113372511Y-102540110D01*
X113102258Y-102428168D01*
X112815360Y-102371100D01*
X112522840Y-102371100D01*
X112235942Y-102428168D01*
X111965689Y-102540110D01*
X111722468Y-102702625D01*
X111515625Y-102909468D01*
X111399100Y-103083860D01*
X111282575Y-102909468D01*
X111075732Y-102702625D01*
X110889100Y-102577922D01*
X110889100Y-101258521D01*
X112715129Y-99432494D01*
X112744121Y-99408701D01*
X112767915Y-99379708D01*
X112767919Y-99379704D01*
X112839093Y-99292977D01*
X112839094Y-99292976D01*
X112909666Y-99160947D01*
X112953123Y-99017686D01*
X112964120Y-98906033D01*
X112964120Y-98906024D01*
X112967796Y-98868701D01*
X112964120Y-98831378D01*
X112964120Y-82055033D01*
X112967796Y-82017710D01*
X112964120Y-81980387D01*
X112964120Y-81980377D01*
X112953123Y-81868724D01*
X112909666Y-81725463D01*
X112839094Y-81593434D01*
X112744121Y-81477709D01*
X112715123Y-81453911D01*
X111046781Y-79785570D01*
X111046781Y-78171582D01*
X111686928Y-78811730D01*
X111686928Y-79425001D01*
X111703992Y-79598255D01*
X111754528Y-79764851D01*
X111836595Y-79918387D01*
X111947038Y-80052962D01*
X112081613Y-80163405D01*
X112235149Y-80245472D01*
X112401745Y-80296008D01*
X112574999Y-80313072D01*
X113275001Y-80313072D01*
X113448255Y-80296008D01*
X113614851Y-80245472D01*
X113768387Y-80163405D01*
X113902962Y-80052962D01*
X114013405Y-79918387D01*
X114095472Y-79764851D01*
X114146008Y-79598255D01*
X114163072Y-79425001D01*
X114163072Y-78524999D01*
X114146008Y-78351745D01*
X114095472Y-78185149D01*
X114013405Y-78031613D01*
X113902962Y-77897038D01*
X113768387Y-77786595D01*
X113614851Y-77704528D01*
X113448255Y-77653992D01*
X113275001Y-77636928D01*
X112661730Y-77636928D01*
X111011713Y-75986912D01*
X110987910Y-75957908D01*
X110872185Y-75862935D01*
X110740156Y-75792363D01*
X110596895Y-75748906D01*
X110485242Y-75737909D01*
X110485231Y-75737909D01*
X110447909Y-75734233D01*
X110410587Y-75737909D01*
X108802712Y-75737909D01*
X108765379Y-75734232D01*
X108728046Y-75737909D01*
X108616393Y-75748906D01*
X108473132Y-75792363D01*
X108341103Y-75862935D01*
X108225378Y-75957908D01*
X108201575Y-75986912D01*
X107825778Y-76362709D01*
X107796780Y-76386507D01*
X107772982Y-76415505D01*
X107772981Y-76415506D01*
X107769009Y-76420345D01*
X107506287Y-76157624D01*
X107468360Y-76032596D01*
X107386182Y-75878850D01*
X107275588Y-75744092D01*
X107140830Y-75633498D01*
X106987084Y-75551320D01*
X106820261Y-75500714D01*
X106690248Y-75487909D01*
X104020720Y-75487909D01*
X103977251Y-75483628D01*
X103933782Y-75487909D01*
X103933774Y-75487909D01*
X103803761Y-75500714D01*
X103636938Y-75551320D01*
X103483192Y-75633498D01*
X103388464Y-75711240D01*
X101518553Y-75711240D01*
X101495472Y-75635150D01*
X101413405Y-75481614D01*
X101302962Y-75347038D01*
X101222500Y-75281005D01*
X101222500Y-74955569D01*
X101226781Y-74912100D01*
X101222500Y-74868631D01*
X101222500Y-74868623D01*
X101209695Y-74738610D01*
X101164111Y-74588341D01*
X101159089Y-74571786D01*
X101076911Y-74418041D01*
X100994032Y-74317053D01*
X100994030Y-74317051D01*
X100966317Y-74283283D01*
X100932550Y-74255571D01*
X100389634Y-73712656D01*
X100361917Y-73678883D01*
X100227159Y-73568289D01*
X100073413Y-73486111D01*
X99906590Y-73435505D01*
X99776577Y-73422700D01*
X99776569Y-73422700D01*
X99733100Y-73418419D01*
X99689631Y-73422700D01*
X97300065Y-73422700D01*
X97256599Y-73418419D01*
X97213133Y-73422700D01*
X97213123Y-73422700D01*
X97083110Y-73435505D01*
X96916287Y-73486111D01*
X96762541Y-73568289D01*
X96762539Y-73568290D01*
X96762540Y-73568290D01*
X96661553Y-73651168D01*
X96661551Y-73651170D01*
X96627783Y-73678883D01*
X96600070Y-73712651D01*
X95886856Y-74425866D01*
X95853083Y-74453583D01*
X95742489Y-74588342D01*
X95660311Y-74742088D01*
X95609705Y-74908911D01*
X95596900Y-75038924D01*
X95596900Y-75038931D01*
X95592619Y-75082400D01*
X95596900Y-75125869D01*
X95596901Y-79179121D01*
X95592619Y-79222600D01*
X95609705Y-79396090D01*
X95660312Y-79562913D01*
X95742490Y-79716659D01*
X95825368Y-79817646D01*
X95825371Y-79817649D01*
X95853084Y-79851417D01*
X95886852Y-79879130D01*
X100679028Y-84671307D01*
X100679028Y-85082801D01*
X100696092Y-85256055D01*
X100746628Y-85422651D01*
X100828695Y-85576187D01*
X100939138Y-85710762D01*
X101073713Y-85821205D01*
X101227249Y-85903272D01*
X101393845Y-85953808D01*
X101567099Y-85970872D01*
X102217101Y-85970872D01*
X102390355Y-85953808D01*
X102556951Y-85903272D01*
X102710487Y-85821205D01*
X102845062Y-85710762D01*
X102917100Y-85622984D01*
X102989138Y-85710762D01*
X103057101Y-85766537D01*
X103057101Y-85990000D01*
X99693469Y-85990000D01*
X99650000Y-85985719D01*
X99606531Y-85990000D01*
X99606523Y-85990000D01*
X99476510Y-86002805D01*
X99309687Y-86053411D01*
X99201338Y-86111324D01*
X99155941Y-86135589D01*
X99054953Y-86218468D01*
X99054951Y-86218470D01*
X99021183Y-86246183D01*
X98993470Y-86279951D01*
X97192456Y-88080966D01*
X97158683Y-88108683D01*
X97048089Y-88243442D01*
X96965911Y-88397188D01*
X96915305Y-88564011D01*
X96902500Y-88694024D01*
X96902500Y-88694031D01*
X96898219Y-88737500D01*
X96902500Y-88780969D01*
X96902501Y-94881004D01*
X96822038Y-94947038D01*
X96711595Y-95081614D01*
X96629528Y-95235150D01*
X96578992Y-95401746D01*
X96561928Y-95575000D01*
X96561928Y-96525000D01*
X96578992Y-96698254D01*
X96629528Y-96864850D01*
X96711595Y-97018386D01*
X96822038Y-97152962D01*
X96956614Y-97263405D01*
X97110150Y-97345472D01*
X97276746Y-97396008D01*
X97450000Y-97413072D01*
X97837194Y-97413072D01*
X99084101Y-98659980D01*
X99084100Y-102661444D01*
X99022468Y-102702625D01*
X98815625Y-102909468D01*
X98653110Y-103152689D01*
X98541168Y-103422942D01*
X98484100Y-103709840D01*
X98484100Y-104002360D01*
X98541168Y-104289258D01*
X98653110Y-104559511D01*
X98815625Y-104802732D01*
X99022468Y-105009575D01*
X99265689Y-105172090D01*
X99535942Y-105284032D01*
X99822840Y-105341100D01*
X100115360Y-105341100D01*
X100402258Y-105284032D01*
X100672511Y-105172090D01*
X100915732Y-105009575D01*
X101122575Y-104802732D01*
X101285090Y-104559511D01*
X101397032Y-104289258D01*
X101454100Y-104002360D01*
X101454100Y-103709840D01*
X101397032Y-103422942D01*
X101285090Y-103152689D01*
X101122575Y-102909468D01*
X100915732Y-102702625D01*
X100854100Y-102661444D01*
X100854100Y-98336865D01*
X100858381Y-98293399D01*
X100854100Y-98249933D01*
X100854100Y-98249923D01*
X100841295Y-98119910D01*
X100790689Y-97953087D01*
X100708511Y-97799341D01*
X100653428Y-97732223D01*
X100625632Y-97698353D01*
X100625630Y-97698351D01*
X100597917Y-97664583D01*
X100564149Y-97636870D01*
X99013072Y-96085794D01*
X99013072Y-95575000D01*
X98996008Y-95401746D01*
X98945472Y-95235150D01*
X98863405Y-95081614D01*
X98752962Y-94947038D01*
X98672500Y-94881005D01*
X98672500Y-89104078D01*
X100016579Y-87760000D01*
X106280386Y-87760000D01*
X106311595Y-87818387D01*
X106422038Y-87952962D01*
X106556613Y-88063405D01*
X106710149Y-88145472D01*
X106876745Y-88196008D01*
X107049999Y-88213072D01*
X107750001Y-88213072D01*
X107923255Y-88196008D01*
X108089851Y-88145472D01*
X108243387Y-88063405D01*
X108377962Y-87952962D01*
X108400000Y-87926109D01*
X108422038Y-87952962D01*
X108556613Y-88063405D01*
X108710149Y-88145472D01*
X108876745Y-88196008D01*
X109049999Y-88213072D01*
X109644081Y-88213072D01*
X109644082Y-91338116D01*
X109517199Y-91465000D01*
X106381046Y-91465000D01*
X106330537Y-91370506D01*
X106251185Y-91273815D01*
X106154494Y-91194463D01*
X106044180Y-91135498D01*
X105924482Y-91099188D01*
X105800000Y-91086928D01*
X104300000Y-91086928D01*
X104175518Y-91099188D01*
X104055820Y-91135498D01*
X103945506Y-91194463D01*
X103848815Y-91273815D01*
X103769463Y-91370506D01*
X103710498Y-91480820D01*
X103674188Y-91600518D01*
X103661928Y-91725000D01*
X103661928Y-92725000D01*
X103674188Y-92849482D01*
X103681929Y-92875000D01*
X103674188Y-92900518D01*
X103661928Y-93025000D01*
X103661928Y-94025000D01*
X103674188Y-94149482D01*
X103710498Y-94269180D01*
X103769463Y-94379494D01*
X103848815Y-94476185D01*
X103945506Y-94555537D01*
X104055820Y-94614502D01*
X104175518Y-94650812D01*
X104300000Y-94663072D01*
X105800000Y-94663072D01*
X105924482Y-94650812D01*
X106044180Y-94614502D01*
X106154494Y-94555537D01*
X106251185Y-94476185D01*
X106330537Y-94379494D01*
X106389502Y-94269180D01*
X106425812Y-94149482D01*
X106438072Y-94025000D01*
X106438072Y-93650810D01*
X106593559Y-93495323D01*
X106593563Y-93495318D01*
X106653871Y-93435010D01*
X108429294Y-93435010D01*
X109981069Y-93435008D01*
X110018401Y-93438685D01*
X110055734Y-93435008D01*
X110094092Y-93431230D01*
X110094091Y-97157752D01*
X109923544Y-97228395D01*
X109754026Y-97341663D01*
X109609863Y-97485826D01*
X109496595Y-97655344D01*
X109418574Y-97843702D01*
X109378800Y-98043661D01*
X109378800Y-98247539D01*
X109418574Y-98447498D01*
X109496595Y-98635856D01*
X109609863Y-98805374D01*
X109752343Y-98947854D01*
X107078098Y-101622101D01*
X107049100Y-101645899D01*
X107025302Y-101674897D01*
X107025301Y-101674898D01*
X106954126Y-101761624D01*
X106883554Y-101893654D01*
X106840098Y-102036915D01*
X106825424Y-102185900D01*
X106829101Y-102223232D01*
X106829101Y-102577921D01*
X106642468Y-102702625D01*
X106435625Y-102909468D01*
X106319100Y-103083860D01*
X106202575Y-102909468D01*
X105995732Y-102702625D01*
X105752511Y-102540110D01*
X105482258Y-102428168D01*
X105195360Y-102371100D01*
X104902840Y-102371100D01*
X104615942Y-102428168D01*
X104345689Y-102540110D01*
X104102468Y-102702625D01*
X103895625Y-102909468D01*
X103733110Y-103152689D01*
X103621168Y-103422942D01*
X103564100Y-103709840D01*
X103564100Y-104002360D01*
X103621168Y-104289258D01*
X103733110Y-104559511D01*
X103895625Y-104802732D01*
X104102468Y-105009575D01*
X104345689Y-105172090D01*
X104615942Y-105284032D01*
X104902840Y-105341100D01*
X105195360Y-105341100D01*
X105415508Y-105297310D01*
X105858800Y-105740602D01*
X93382885Y-105740602D01*
X93370615Y-68058900D01*
X121818400Y-68058900D01*
X121818400Y-105740602D01*
G37*
G04 #@! TD.AperFunction*
D21*
X109539501Y-82439303D02*
X109539500Y-83470405D01*
X109468614Y-83508295D01*
X109334038Y-83618738D01*
X109223595Y-83753314D01*
X109141528Y-83906850D01*
X109090992Y-84073446D01*
X109073928Y-84246700D01*
X109073928Y-85196700D01*
X109090992Y-85369954D01*
X109141528Y-85536550D01*
X109141730Y-85536928D01*
X109049999Y-85536928D01*
X108876745Y-85553992D01*
X108710149Y-85604528D01*
X108556613Y-85686595D01*
X108422038Y-85797038D01*
X108400000Y-85823891D01*
X108377962Y-85797038D01*
X108243387Y-85686595D01*
X108089851Y-85604528D01*
X107923255Y-85553992D01*
X107750001Y-85536928D01*
X107049999Y-85536928D01*
X106876745Y-85553992D01*
X106710149Y-85604528D01*
X106556613Y-85686595D01*
X106422038Y-85797038D01*
X106311595Y-85931613D01*
X106280386Y-85990000D01*
X104827100Y-85990000D01*
X104827100Y-85766537D01*
X104895062Y-85710762D01*
X105005505Y-85576187D01*
X105043195Y-85505674D01*
X105050090Y-85504995D01*
X105216913Y-85454389D01*
X105370659Y-85372211D01*
X105505417Y-85261617D01*
X105533134Y-85227844D01*
X106386050Y-84374929D01*
X106419817Y-84347217D01*
X106460682Y-84297424D01*
X106530411Y-84212459D01*
X106546852Y-84181699D01*
X106612589Y-84058713D01*
X106663195Y-83891890D01*
X106676000Y-83761877D01*
X106676000Y-83761869D01*
X106680281Y-83718400D01*
X106676000Y-83674931D01*
X106676000Y-83668195D01*
X106756462Y-83602162D01*
X106866905Y-83467586D01*
X106948972Y-83314050D01*
X106999508Y-83147454D01*
X107016572Y-82974200D01*
X107016572Y-82525207D01*
X107431830Y-82109949D01*
X107465597Y-82082237D01*
X107503702Y-82035807D01*
X107576190Y-81947480D01*
X107576191Y-81947479D01*
X107658369Y-81793733D01*
X107708975Y-81626910D01*
X107721780Y-81496897D01*
X107721780Y-81496887D01*
X107726061Y-81453421D01*
X107721780Y-81409955D01*
X107721780Y-80621581D01*
X109539501Y-82439303D01*
G04 #@! TA.AperFunction,Conductor*
D22*
G36*
X109539501Y-82439303D02*
G01*
X109539500Y-83470405D01*
X109468614Y-83508295D01*
X109334038Y-83618738D01*
X109223595Y-83753314D01*
X109141528Y-83906850D01*
X109090992Y-84073446D01*
X109073928Y-84246700D01*
X109073928Y-85196700D01*
X109090992Y-85369954D01*
X109141528Y-85536550D01*
X109141730Y-85536928D01*
X109049999Y-85536928D01*
X108876745Y-85553992D01*
X108710149Y-85604528D01*
X108556613Y-85686595D01*
X108422038Y-85797038D01*
X108400000Y-85823891D01*
X108377962Y-85797038D01*
X108243387Y-85686595D01*
X108089851Y-85604528D01*
X107923255Y-85553992D01*
X107750001Y-85536928D01*
X107049999Y-85536928D01*
X106876745Y-85553992D01*
X106710149Y-85604528D01*
X106556613Y-85686595D01*
X106422038Y-85797038D01*
X106311595Y-85931613D01*
X106280386Y-85990000D01*
X104827100Y-85990000D01*
X104827100Y-85766537D01*
X104895062Y-85710762D01*
X105005505Y-85576187D01*
X105043195Y-85505674D01*
X105050090Y-85504995D01*
X105216913Y-85454389D01*
X105370659Y-85372211D01*
X105505417Y-85261617D01*
X105533134Y-85227844D01*
X106386050Y-84374929D01*
X106419817Y-84347217D01*
X106460682Y-84297424D01*
X106530411Y-84212459D01*
X106546852Y-84181699D01*
X106612589Y-84058713D01*
X106663195Y-83891890D01*
X106676000Y-83761877D01*
X106676000Y-83761869D01*
X106680281Y-83718400D01*
X106676000Y-83674931D01*
X106676000Y-83668195D01*
X106756462Y-83602162D01*
X106866905Y-83467586D01*
X106948972Y-83314050D01*
X106999508Y-83147454D01*
X107016572Y-82974200D01*
X107016572Y-82525207D01*
X107431830Y-82109949D01*
X107465597Y-82082237D01*
X107503702Y-82035807D01*
X107576190Y-81947480D01*
X107576191Y-81947479D01*
X107658369Y-81793733D01*
X107708975Y-81626910D01*
X107721780Y-81496897D01*
X107721780Y-81496887D01*
X107726061Y-81453421D01*
X107721780Y-81409955D01*
X107721780Y-80621581D01*
X109539501Y-82439303D01*
G37*
G04 #@! TD.AperFunction*
D21*
X105951781Y-79374003D02*
X105951780Y-81086841D01*
X105902493Y-81136128D01*
X105453500Y-81136128D01*
X105280246Y-81153192D01*
X105113650Y-81203728D01*
X104960114Y-81285795D01*
X104825538Y-81396238D01*
X104715095Y-81530814D01*
X104633028Y-81684350D01*
X104582492Y-81850946D01*
X104565428Y-82024200D01*
X104565428Y-82974200D01*
X104582492Y-83147454D01*
X104633028Y-83314050D01*
X104679585Y-83401152D01*
X104606951Y-83362328D01*
X104440355Y-83311792D01*
X104267101Y-83294728D01*
X103617099Y-83294728D01*
X103443845Y-83311792D01*
X103277249Y-83362328D01*
X103123713Y-83444395D01*
X102989138Y-83554838D01*
X102917100Y-83642616D01*
X102845062Y-83554838D01*
X102821637Y-83535614D01*
X102908405Y-83429887D01*
X102990472Y-83276351D01*
X103041008Y-83109755D01*
X103058072Y-82936501D01*
X103058072Y-82414626D01*
X105223252Y-80249447D01*
X105306130Y-80148460D01*
X105388308Y-79994714D01*
X105426235Y-79869686D01*
X105847782Y-79448139D01*
X105876781Y-79424341D01*
X105956375Y-79327355D01*
X105951781Y-79374003D01*
G04 #@! TA.AperFunction,Conductor*
D22*
G36*
X105951781Y-79374003D02*
G01*
X105951780Y-81086841D01*
X105902493Y-81136128D01*
X105453500Y-81136128D01*
X105280246Y-81153192D01*
X105113650Y-81203728D01*
X104960114Y-81285795D01*
X104825538Y-81396238D01*
X104715095Y-81530814D01*
X104633028Y-81684350D01*
X104582492Y-81850946D01*
X104565428Y-82024200D01*
X104565428Y-82974200D01*
X104582492Y-83147454D01*
X104633028Y-83314050D01*
X104679585Y-83401152D01*
X104606951Y-83362328D01*
X104440355Y-83311792D01*
X104267101Y-83294728D01*
X103617099Y-83294728D01*
X103443845Y-83311792D01*
X103277249Y-83362328D01*
X103123713Y-83444395D01*
X102989138Y-83554838D01*
X102917100Y-83642616D01*
X102845062Y-83554838D01*
X102821637Y-83535614D01*
X102908405Y-83429887D01*
X102990472Y-83276351D01*
X103041008Y-83109755D01*
X103058072Y-82936501D01*
X103058072Y-82414626D01*
X105223252Y-80249447D01*
X105306130Y-80148460D01*
X105388308Y-79994714D01*
X105426235Y-79869686D01*
X105847782Y-79448139D01*
X105876781Y-79424341D01*
X105956375Y-79327355D01*
X105951781Y-79374003D01*
G37*
G04 #@! TD.AperFunction*
D21*
X99372038Y-77552962D02*
X99506614Y-77663405D01*
X99660150Y-77745472D01*
X99826746Y-77796008D01*
X100000000Y-77813072D01*
X100675000Y-77813072D01*
X100848254Y-77796008D01*
X101014850Y-77745472D01*
X101168386Y-77663405D01*
X101302962Y-77552962D01*
X101361822Y-77481240D01*
X103343656Y-77481240D01*
X103037969Y-77786928D01*
X102449999Y-77786928D01*
X102276745Y-77803992D01*
X102110149Y-77854528D01*
X101956613Y-77936595D01*
X101822038Y-78047038D01*
X101711595Y-78181613D01*
X101629528Y-78335149D01*
X101578992Y-78501745D01*
X101561928Y-78674999D01*
X101561928Y-79575001D01*
X101578992Y-79748255D01*
X101629528Y-79914851D01*
X101711595Y-80068387D01*
X101822038Y-80202962D01*
X101956613Y-80313405D01*
X102110149Y-80395472D01*
X102276745Y-80446008D01*
X102449999Y-80463072D01*
X102506470Y-80463072D01*
X101821114Y-81148428D01*
X101758507Y-81148428D01*
X99147500Y-78537422D01*
X99147500Y-77618995D01*
X99227962Y-77552962D01*
X99300000Y-77465183D01*
X99372038Y-77552962D01*
G04 #@! TA.AperFunction,Conductor*
D22*
G36*
X99372038Y-77552962D02*
G01*
X99506614Y-77663405D01*
X99660150Y-77745472D01*
X99826746Y-77796008D01*
X100000000Y-77813072D01*
X100675000Y-77813072D01*
X100848254Y-77796008D01*
X101014850Y-77745472D01*
X101168386Y-77663405D01*
X101302962Y-77552962D01*
X101361822Y-77481240D01*
X103343656Y-77481240D01*
X103037969Y-77786928D01*
X102449999Y-77786928D01*
X102276745Y-77803992D01*
X102110149Y-77854528D01*
X101956613Y-77936595D01*
X101822038Y-78047038D01*
X101711595Y-78181613D01*
X101629528Y-78335149D01*
X101578992Y-78501745D01*
X101561928Y-78674999D01*
X101561928Y-79575001D01*
X101578992Y-79748255D01*
X101629528Y-79914851D01*
X101711595Y-80068387D01*
X101822038Y-80202962D01*
X101956613Y-80313405D01*
X102110149Y-80395472D01*
X102276745Y-80446008D01*
X102449999Y-80463072D01*
X102506470Y-80463072D01*
X101821114Y-81148428D01*
X101758507Y-81148428D01*
X99147500Y-78537422D01*
X99147500Y-77618995D01*
X99227962Y-77552962D01*
X99300000Y-77465183D01*
X99372038Y-77552962D01*
G37*
G04 #@! TD.AperFunction*
G04 #@! TD*
M02*
