G04 #@! TF.GenerationSoftware,KiCad,Pcbnew,(5.1.10)-1*
G04 #@! TF.CreationDate,2021-09-08T01:48:55-04:00*
G04 #@! TF.ProjectId,SharpDisplayPcb,53686172-7044-4697-9370-6c6179506362,rev?*
G04 #@! TF.SameCoordinates,Original*
G04 #@! TF.FileFunction,Soldermask,Top*
G04 #@! TF.FilePolarity,Negative*
%FSLAX46Y46*%
G04 Gerber Fmt 4.6, Leading zero omitted, Abs format (unit mm)*
G04 Created by KiCad (PCBNEW (5.1.10)-1) date 2021-09-08 01:48:55*
%MOMM*%
%LPD*%
G01*
G04 APERTURE LIST*
%ADD10C,0.100000*%
%ADD11O,1.700000X1.700000*%
%ADD12R,1.700000X1.700000*%
%ADD13C,1.700000*%
%ADD14R,1.500000X1.000000*%
%ADD15C,4.000000*%
G04 APERTURE END LIST*
D10*
G36*
X105351580Y-93027500D02*
G01*
X104749600Y-93027500D01*
X104749600Y-92722700D01*
X105351580Y-92722700D01*
X105351580Y-93027500D01*
G37*
X105351580Y-93027500D02*
X104749600Y-93027500D01*
X104749600Y-92722700D01*
X105351580Y-92722700D01*
X105351580Y-93027500D01*
G04 #@! TO.C,IC1*
G36*
G01*
X103562980Y-73722920D02*
X103562980Y-75922920D01*
G75*
G02*
X103486780Y-75999120I-76200J0D01*
G01*
X101886780Y-75999120D01*
G75*
G02*
X101810580Y-75922920I0J76200D01*
G01*
X101810580Y-73722920D01*
G75*
G02*
X101886780Y-73646720I76200J0D01*
G01*
X103486780Y-73646720D01*
G75*
G02*
X103562980Y-73722920I0J-76200D01*
G01*
G37*
G36*
G01*
X113362980Y-73722920D02*
X113362980Y-75922920D01*
G75*
G02*
X113286780Y-75999120I-76200J0D01*
G01*
X111686780Y-75999120D01*
G75*
G02*
X111610580Y-75922920I0J76200D01*
G01*
X111610580Y-73722920D01*
G75*
G02*
X111686780Y-73646720I76200J0D01*
G01*
X113286780Y-73646720D01*
G75*
G02*
X113362980Y-73722920I0J-76200D01*
G01*
G37*
G36*
G01*
X105537980Y-77272920D02*
X105537980Y-78672920D01*
G75*
G02*
X105461780Y-78749120I-76200J0D01*
G01*
X105211780Y-78749120D01*
G75*
G02*
X105135580Y-78672920I0J76200D01*
G01*
X105135580Y-77272920D01*
G75*
G02*
X105211780Y-77196720I76200J0D01*
G01*
X105461780Y-77196720D01*
G75*
G02*
X105537980Y-77272920I0J-76200D01*
G01*
G37*
G36*
G01*
X106037980Y-77272920D02*
X106037980Y-78672920D01*
G75*
G02*
X105961780Y-78749120I-76200J0D01*
G01*
X105711780Y-78749120D01*
G75*
G02*
X105635580Y-78672920I0J76200D01*
G01*
X105635580Y-77272920D01*
G75*
G02*
X105711780Y-77196720I76200J0D01*
G01*
X105961780Y-77196720D01*
G75*
G02*
X106037980Y-77272920I0J-76200D01*
G01*
G37*
G36*
G01*
X106537980Y-77272920D02*
X106537980Y-78672920D01*
G75*
G02*
X106461780Y-78749120I-76200J0D01*
G01*
X106211780Y-78749120D01*
G75*
G02*
X106135580Y-78672920I0J76200D01*
G01*
X106135580Y-77272920D01*
G75*
G02*
X106211780Y-77196720I76200J0D01*
G01*
X106461780Y-77196720D01*
G75*
G02*
X106537980Y-77272920I0J-76200D01*
G01*
G37*
G36*
G01*
X107037980Y-77272920D02*
X107037980Y-78672920D01*
G75*
G02*
X106961780Y-78749120I-76200J0D01*
G01*
X106711780Y-78749120D01*
G75*
G02*
X106635580Y-78672920I0J76200D01*
G01*
X106635580Y-77272920D01*
G75*
G02*
X106711780Y-77196720I76200J0D01*
G01*
X106961780Y-77196720D01*
G75*
G02*
X107037980Y-77272920I0J-76200D01*
G01*
G37*
G36*
G01*
X107537980Y-77272920D02*
X107537980Y-78672920D01*
G75*
G02*
X107461780Y-78749120I-76200J0D01*
G01*
X107211780Y-78749120D01*
G75*
G02*
X107135580Y-78672920I0J76200D01*
G01*
X107135580Y-77272920D01*
G75*
G02*
X107211780Y-77196720I76200J0D01*
G01*
X107461780Y-77196720D01*
G75*
G02*
X107537980Y-77272920I0J-76200D01*
G01*
G37*
G36*
G01*
X108037980Y-77272920D02*
X108037980Y-78672920D01*
G75*
G02*
X107961780Y-78749120I-76200J0D01*
G01*
X107711780Y-78749120D01*
G75*
G02*
X107635580Y-78672920I0J76200D01*
G01*
X107635580Y-77272920D01*
G75*
G02*
X107711780Y-77196720I76200J0D01*
G01*
X107961780Y-77196720D01*
G75*
G02*
X108037980Y-77272920I0J-76200D01*
G01*
G37*
G36*
G01*
X108537980Y-77272920D02*
X108537980Y-78672920D01*
G75*
G02*
X108461780Y-78749120I-76200J0D01*
G01*
X108211780Y-78749120D01*
G75*
G02*
X108135580Y-78672920I0J76200D01*
G01*
X108135580Y-77272920D01*
G75*
G02*
X108211780Y-77196720I76200J0D01*
G01*
X108461780Y-77196720D01*
G75*
G02*
X108537980Y-77272920I0J-76200D01*
G01*
G37*
G36*
G01*
X109037980Y-77272920D02*
X109037980Y-78672920D01*
G75*
G02*
X108961780Y-78749120I-76200J0D01*
G01*
X108711780Y-78749120D01*
G75*
G02*
X108635580Y-78672920I0J76200D01*
G01*
X108635580Y-77272920D01*
G75*
G02*
X108711780Y-77196720I76200J0D01*
G01*
X108961780Y-77196720D01*
G75*
G02*
X109037980Y-77272920I0J-76200D01*
G01*
G37*
G36*
G01*
X109537980Y-77272920D02*
X109537980Y-78672920D01*
G75*
G02*
X109461780Y-78749120I-76200J0D01*
G01*
X109211780Y-78749120D01*
G75*
G02*
X109135580Y-78672920I0J76200D01*
G01*
X109135580Y-77272920D01*
G75*
G02*
X109211780Y-77196720I76200J0D01*
G01*
X109461780Y-77196720D01*
G75*
G02*
X109537980Y-77272920I0J-76200D01*
G01*
G37*
G36*
G01*
X110037980Y-77272920D02*
X110037980Y-78672920D01*
G75*
G02*
X109961780Y-78749120I-76200J0D01*
G01*
X109711780Y-78749120D01*
G75*
G02*
X109635580Y-78672920I0J76200D01*
G01*
X109635580Y-77272920D01*
G75*
G02*
X109711780Y-77196720I76200J0D01*
G01*
X109961780Y-77196720D01*
G75*
G02*
X110037980Y-77272920I0J-76200D01*
G01*
G37*
G04 #@! TD*
D11*
G04 #@! TO.C,J1*
X117749100Y-103856100D03*
X115209100Y-103856100D03*
X112669100Y-103856100D03*
X110129100Y-103856100D03*
X107589100Y-103856100D03*
X105049100Y-103856100D03*
D12*
X102509100Y-103856100D03*
D13*
X99969100Y-103856100D03*
G04 #@! TD*
D14*
G04 #@! TO.C,JP1*
X105050000Y-92225000D03*
X105050000Y-93525000D03*
G04 #@! TD*
G04 #@! TO.C,R3*
G36*
G01*
X108800000Y-87325001D02*
X108800000Y-86424999D01*
G75*
G02*
X109049999Y-86175000I249999J0D01*
G01*
X109750001Y-86175000D01*
G75*
G02*
X110000000Y-86424999I0J-249999D01*
G01*
X110000000Y-87325001D01*
G75*
G02*
X109750001Y-87575000I-249999J0D01*
G01*
X109049999Y-87575000D01*
G75*
G02*
X108800000Y-87325001I0J249999D01*
G01*
G37*
G36*
G01*
X106800000Y-87325001D02*
X106800000Y-86424999D01*
G75*
G02*
X107049999Y-86175000I249999J0D01*
G01*
X107750001Y-86175000D01*
G75*
G02*
X108000000Y-86424999I0J-249999D01*
G01*
X108000000Y-87325001D01*
G75*
G02*
X107750001Y-87575000I-249999J0D01*
G01*
X107049999Y-87575000D01*
G75*
G02*
X106800000Y-87325001I0J249999D01*
G01*
G37*
G04 #@! TD*
G04 #@! TO.C,R2*
G36*
G01*
X101400000Y-78674999D02*
X101400000Y-79575001D01*
G75*
G02*
X101150001Y-79825000I-249999J0D01*
G01*
X100449999Y-79825000D01*
G75*
G02*
X100200000Y-79575001I0J249999D01*
G01*
X100200000Y-78674999D01*
G75*
G02*
X100449999Y-78425000I249999J0D01*
G01*
X101150001Y-78425000D01*
G75*
G02*
X101400000Y-78674999I0J-249999D01*
G01*
G37*
G36*
G01*
X103400000Y-78674999D02*
X103400000Y-79575001D01*
G75*
G02*
X103150001Y-79825000I-249999J0D01*
G01*
X102449999Y-79825000D01*
G75*
G02*
X102200000Y-79575001I0J249999D01*
G01*
X102200000Y-78674999D01*
G75*
G02*
X102449999Y-78425000I249999J0D01*
G01*
X103150001Y-78425000D01*
G75*
G02*
X103400000Y-78674999I0J-249999D01*
G01*
G37*
G04 #@! TD*
G04 #@! TO.C,R1*
G36*
G01*
X113525000Y-78524999D02*
X113525000Y-79425001D01*
G75*
G02*
X113275001Y-79675000I-249999J0D01*
G01*
X112574999Y-79675000D01*
G75*
G02*
X112325000Y-79425001I0J249999D01*
G01*
X112325000Y-78524999D01*
G75*
G02*
X112574999Y-78275000I249999J0D01*
G01*
X113275001Y-78275000D01*
G75*
G02*
X113525000Y-78524999I0J-249999D01*
G01*
G37*
G36*
G01*
X115525000Y-78524999D02*
X115525000Y-79425001D01*
G75*
G02*
X115275001Y-79675000I-249999J0D01*
G01*
X114574999Y-79675000D01*
G75*
G02*
X114325000Y-79425001I0J249999D01*
G01*
X114325000Y-78524999D01*
G75*
G02*
X114574999Y-78275000I249999J0D01*
G01*
X115275001Y-78275000D01*
G75*
G02*
X115525000Y-78524999I0J-249999D01*
G01*
G37*
G04 #@! TD*
G04 #@! TO.C,C4*
G36*
G01*
X98850000Y-75975000D02*
X98850000Y-76925000D01*
G75*
G02*
X98600000Y-77175000I-250000J0D01*
G01*
X97925000Y-77175000D01*
G75*
G02*
X97675000Y-76925000I0J250000D01*
G01*
X97675000Y-75975000D01*
G75*
G02*
X97925000Y-75725000I250000J0D01*
G01*
X98600000Y-75725000D01*
G75*
G02*
X98850000Y-75975000I0J-250000D01*
G01*
G37*
G36*
G01*
X100925000Y-75975000D02*
X100925000Y-76925000D01*
G75*
G02*
X100675000Y-77175000I-250000J0D01*
G01*
X100000000Y-77175000D01*
G75*
G02*
X99750000Y-76925000I0J250000D01*
G01*
X99750000Y-75975000D01*
G75*
G02*
X100000000Y-75725000I250000J0D01*
G01*
X100675000Y-75725000D01*
G75*
G02*
X100925000Y-75975000I0J-250000D01*
G01*
G37*
G04 #@! TD*
G04 #@! TO.C,C3*
G36*
G01*
X103350000Y-85050000D02*
X103350000Y-84100000D01*
G75*
G02*
X103600000Y-83850000I250000J0D01*
G01*
X104275000Y-83850000D01*
G75*
G02*
X104525000Y-84100000I0J-250000D01*
G01*
X104525000Y-85050000D01*
G75*
G02*
X104275000Y-85300000I-250000J0D01*
G01*
X103600000Y-85300000D01*
G75*
G02*
X103350000Y-85050000I0J250000D01*
G01*
G37*
G36*
G01*
X101275000Y-85050000D02*
X101275000Y-84100000D01*
G75*
G02*
X101525000Y-83850000I250000J0D01*
G01*
X102200000Y-83850000D01*
G75*
G02*
X102450000Y-84100000I0J-250000D01*
G01*
X102450000Y-85050000D01*
G75*
G02*
X102200000Y-85300000I-250000J0D01*
G01*
X101525000Y-85300000D01*
G75*
G02*
X101275000Y-85050000I0J250000D01*
G01*
G37*
G04 #@! TD*
G04 #@! TO.C,C2*
G36*
G01*
X108800000Y-85150000D02*
X108800000Y-84200000D01*
G75*
G02*
X109050000Y-83950000I250000J0D01*
G01*
X109725000Y-83950000D01*
G75*
G02*
X109975000Y-84200000I0J-250000D01*
G01*
X109975000Y-85150000D01*
G75*
G02*
X109725000Y-85400000I-250000J0D01*
G01*
X109050000Y-85400000D01*
G75*
G02*
X108800000Y-85150000I0J250000D01*
G01*
G37*
G36*
G01*
X106725000Y-85150000D02*
X106725000Y-84200000D01*
G75*
G02*
X106975000Y-83950000I250000J0D01*
G01*
X107650000Y-83950000D01*
G75*
G02*
X107900000Y-84200000I0J-250000D01*
G01*
X107900000Y-85150000D01*
G75*
G02*
X107650000Y-85400000I-250000J0D01*
G01*
X106975000Y-85400000D01*
G75*
G02*
X106725000Y-85150000I0J250000D01*
G01*
G37*
G04 #@! TD*
G04 #@! TO.C,C1*
G36*
G01*
X96300000Y-95575000D02*
X96300000Y-96525000D01*
G75*
G02*
X96050000Y-96775000I-250000J0D01*
G01*
X95375000Y-96775000D01*
G75*
G02*
X95125000Y-96525000I0J250000D01*
G01*
X95125000Y-95575000D01*
G75*
G02*
X95375000Y-95325000I250000J0D01*
G01*
X96050000Y-95325000D01*
G75*
G02*
X96300000Y-95575000I0J-250000D01*
G01*
G37*
G36*
G01*
X98375000Y-95575000D02*
X98375000Y-96525000D01*
G75*
G02*
X98125000Y-96775000I-250000J0D01*
G01*
X97450000Y-96775000D01*
G75*
G02*
X97200000Y-96525000I0J250000D01*
G01*
X97200000Y-95575000D01*
G75*
G02*
X97450000Y-95325000I250000J0D01*
G01*
X98125000Y-95325000D01*
G75*
G02*
X98375000Y-95575000I0J-250000D01*
G01*
G37*
G04 #@! TD*
G04 #@! TO.C,FB2*
G36*
G01*
X106748160Y-81894259D02*
X106748160Y-82794261D01*
G75*
G02*
X106498161Y-83044260I-249999J0D01*
G01*
X105848159Y-83044260D01*
G75*
G02*
X105598160Y-82794261I0J249999D01*
G01*
X105598160Y-81894259D01*
G75*
G02*
X105848159Y-81644260I249999J0D01*
G01*
X106498161Y-81644260D01*
G75*
G02*
X106748160Y-81894259I0J-249999D01*
G01*
G37*
G36*
G01*
X108798160Y-81894259D02*
X108798160Y-82794261D01*
G75*
G02*
X108548161Y-83044260I-249999J0D01*
G01*
X107898159Y-83044260D01*
G75*
G02*
X107648160Y-82794261I0J249999D01*
G01*
X107648160Y-81894259D01*
G75*
G02*
X107898159Y-81644260I249999J0D01*
G01*
X108548161Y-81644260D01*
G75*
G02*
X108798160Y-81894259I0J-249999D01*
G01*
G37*
G04 #@! TD*
G04 #@! TO.C,FB1*
G36*
G01*
X103320000Y-82936501D02*
X103320000Y-82036499D01*
G75*
G02*
X103569999Y-81786500I249999J0D01*
G01*
X104220001Y-81786500D01*
G75*
G02*
X104470000Y-82036499I0J-249999D01*
G01*
X104470000Y-82936501D01*
G75*
G02*
X104220001Y-83186500I-249999J0D01*
G01*
X103569999Y-83186500D01*
G75*
G02*
X103320000Y-82936501I0J249999D01*
G01*
G37*
G36*
G01*
X101270000Y-82936501D02*
X101270000Y-82036499D01*
G75*
G02*
X101519999Y-81786500I249999J0D01*
G01*
X102170001Y-81786500D01*
G75*
G02*
X102420000Y-82036499I0J-249999D01*
G01*
X102420000Y-82936501D01*
G75*
G02*
X102170001Y-83186500I-249999J0D01*
G01*
X101519999Y-83186500D01*
G75*
G02*
X101270000Y-82936501I0J249999D01*
G01*
G37*
G04 #@! TD*
D15*
G04 #@! TO.C,M3*
X124589100Y-103396100D03*
G04 #@! TD*
G04 #@! TO.C,M3*
X90589100Y-103396100D03*
G04 #@! TD*
G04 #@! TO.C,M3*
X90589100Y-70396100D03*
G04 #@! TD*
G04 #@! TO.C,M3*
X124589100Y-70396100D03*
G04 #@! TD*
M02*
