%TF.GenerationSoftware,KiCad,Pcbnew,(5.1.10)-1*%
%TF.CreationDate,2021-10-19T03:26:11-04:00*%
%TF.ProjectId,SharpDisplayPcb,53686172-7044-4697-9370-6c6179506362,rev?*%
%TF.SameCoordinates,Original*%
%TF.FileFunction,Legend,Top*%
%TF.FilePolarity,Positive*%
%FSLAX46Y46*%
G04 Gerber Fmt 4.6, Leading zero omitted, Abs format (unit mm)*
G04 Created by KiCad (PCBNEW (5.1.10)-1) date 2021-10-19 03:26:11*
%MOMM*%
%LPD*%
G01*
G04 APERTURE LIST*
%ADD10C,0.150000*%
%ADD11C,0.300000*%
%ADD12C,0.200000*%
%ADD13C,0.100000*%
%ADD14C,0.010000*%
%ADD15C,0.120000*%
%ADD16C,0.153000*%
%ADD17O,1.800000X1.800000*%
%ADD18C,1.800000*%
%ADD19C,4.100000*%
G04 APERTURE END LIST*
D10*
X103477320Y-95865913D02*
X102477320Y-95865913D01*
X102477320Y-95484960D01*
X102524940Y-95389722D01*
X102572559Y-95342103D01*
X102667797Y-95294484D01*
X102810654Y-95294484D01*
X102905892Y-95342103D01*
X102953511Y-95389722D01*
X103001130Y-95484960D01*
X103001130Y-95865913D01*
X102810654Y-94437341D02*
X103477320Y-94437341D01*
X102810654Y-94865913D02*
X103334463Y-94865913D01*
X103429701Y-94818294D01*
X103477320Y-94723056D01*
X103477320Y-94580199D01*
X103429701Y-94484960D01*
X103382082Y-94437341D01*
X103477320Y-93818294D02*
X103429701Y-93913532D01*
X103334463Y-93961151D01*
X102477320Y-93961151D01*
X103477320Y-93294484D02*
X103429701Y-93389722D01*
X103334463Y-93437341D01*
X102477320Y-93437341D01*
X103096368Y-92913532D02*
X103096368Y-92151627D01*
X102477320Y-91675437D02*
X103286844Y-91675437D01*
X103382082Y-91627818D01*
X103429701Y-91580199D01*
X103477320Y-91484960D01*
X103477320Y-91294484D01*
X103429701Y-91199246D01*
X103382082Y-91151627D01*
X103286844Y-91104008D01*
X102477320Y-91104008D01*
X102810654Y-90627818D02*
X103810654Y-90627818D01*
X102858273Y-90627818D02*
X102810654Y-90532580D01*
X102810654Y-90342103D01*
X102858273Y-90246865D01*
X102905892Y-90199246D01*
X103001130Y-90151627D01*
X103286844Y-90151627D01*
X103382082Y-90199246D01*
X103429701Y-90246865D01*
X103477320Y-90342103D01*
X103477320Y-90532580D01*
X103429701Y-90627818D01*
X105510247Y-75433180D02*
X105510247Y-74433180D01*
X105843580Y-75147466D01*
X106176914Y-74433180D01*
X106176914Y-75433180D01*
X106795961Y-75433180D02*
X106700723Y-75385561D01*
X106653104Y-75337942D01*
X106605485Y-75242704D01*
X106605485Y-74956990D01*
X106653104Y-74861752D01*
X106700723Y-74814133D01*
X106795961Y-74766514D01*
X106938819Y-74766514D01*
X107034057Y-74814133D01*
X107081676Y-74861752D01*
X107129295Y-74956990D01*
X107129295Y-75242704D01*
X107081676Y-75337942D01*
X107034057Y-75385561D01*
X106938819Y-75433180D01*
X106795961Y-75433180D01*
X107700723Y-75433180D02*
X107605485Y-75385561D01*
X107557866Y-75290323D01*
X107557866Y-74433180D01*
X108462628Y-75385561D02*
X108367390Y-75433180D01*
X108176914Y-75433180D01*
X108081676Y-75385561D01*
X108034057Y-75290323D01*
X108034057Y-74909371D01*
X108081676Y-74814133D01*
X108176914Y-74766514D01*
X108367390Y-74766514D01*
X108462628Y-74814133D01*
X108510247Y-74909371D01*
X108510247Y-75004609D01*
X108034057Y-75099847D01*
X108843580Y-75433180D02*
X109367390Y-74766514D01*
X108843580Y-74766514D02*
X109367390Y-75433180D01*
D11*
X101488761Y-95870660D02*
X99488761Y-95870660D01*
X99488761Y-95394470D01*
X99584000Y-95108756D01*
X99774476Y-94918280D01*
X99964952Y-94823041D01*
X100345904Y-94727803D01*
X100631619Y-94727803D01*
X101012571Y-94823041D01*
X101203047Y-94918280D01*
X101393523Y-95108756D01*
X101488761Y-95394470D01*
X101488761Y-95870660D01*
X101488761Y-93870660D02*
X99488761Y-93870660D01*
X101393523Y-93013518D02*
X101488761Y-92727803D01*
X101488761Y-92251613D01*
X101393523Y-92061137D01*
X101298285Y-91965899D01*
X101107809Y-91870660D01*
X100917333Y-91870660D01*
X100726857Y-91965899D01*
X100631619Y-92061137D01*
X100536380Y-92251613D01*
X100441142Y-92632565D01*
X100345904Y-92823041D01*
X100250666Y-92918280D01*
X100060190Y-93013518D01*
X99869714Y-93013518D01*
X99679238Y-92918280D01*
X99584000Y-92823041D01*
X99488761Y-92632565D01*
X99488761Y-92156375D01*
X99584000Y-91870660D01*
X101488761Y-91013518D02*
X99488761Y-91013518D01*
X99488761Y-90251613D01*
X99584000Y-90061137D01*
X99679238Y-89965899D01*
X99869714Y-89870660D01*
X100155428Y-89870660D01*
X100345904Y-89965899D01*
X100441142Y-90061137D01*
X100536380Y-90251613D01*
X100536380Y-91013518D01*
D10*
X93908571Y-85612809D02*
X93956190Y-85469952D01*
X94003809Y-85422333D01*
X94099047Y-85374714D01*
X94241904Y-85374714D01*
X94337142Y-85422333D01*
X94384761Y-85469952D01*
X94432380Y-85565190D01*
X94432380Y-85946142D01*
X93432380Y-85946142D01*
X93432380Y-85612809D01*
X93480000Y-85517571D01*
X93527619Y-85469952D01*
X93622857Y-85422333D01*
X93718095Y-85422333D01*
X93813333Y-85469952D01*
X93860952Y-85517571D01*
X93908571Y-85612809D01*
X93908571Y-85946142D01*
X94432380Y-84517571D02*
X93908571Y-84517571D01*
X93813333Y-84565190D01*
X93765714Y-84660428D01*
X93765714Y-84850904D01*
X93813333Y-84946142D01*
X94384761Y-84517571D02*
X94432380Y-84612809D01*
X94432380Y-84850904D01*
X94384761Y-84946142D01*
X94289523Y-84993761D01*
X94194285Y-84993761D01*
X94099047Y-84946142D01*
X94051428Y-84850904D01*
X94051428Y-84612809D01*
X94003809Y-84517571D01*
X94384761Y-84089000D02*
X94432380Y-83993761D01*
X94432380Y-83803285D01*
X94384761Y-83708047D01*
X94289523Y-83660428D01*
X94241904Y-83660428D01*
X94146666Y-83708047D01*
X94099047Y-83803285D01*
X94099047Y-83946142D01*
X94051428Y-84041380D01*
X93956190Y-84089000D01*
X93908571Y-84089000D01*
X93813333Y-84041380D01*
X93765714Y-83946142D01*
X93765714Y-83803285D01*
X93813333Y-83708047D01*
X94384761Y-82850904D02*
X94432380Y-82946142D01*
X94432380Y-83136619D01*
X94384761Y-83231857D01*
X94289523Y-83279476D01*
X93908571Y-83279476D01*
X93813333Y-83231857D01*
X93765714Y-83136619D01*
X93765714Y-82946142D01*
X93813333Y-82850904D01*
X93908571Y-82803285D01*
X94003809Y-82803285D01*
X94099047Y-83279476D01*
X94432380Y-81946142D02*
X93432380Y-81946142D01*
X94384761Y-81946142D02*
X94432380Y-82041380D01*
X94432380Y-82231857D01*
X94384761Y-82327095D01*
X94337142Y-82374714D01*
X94241904Y-82422333D01*
X93956190Y-82422333D01*
X93860952Y-82374714D01*
X93813333Y-82327095D01*
X93765714Y-82231857D01*
X93765714Y-82041380D01*
X93813333Y-81946142D01*
X94432380Y-80565190D02*
X94384761Y-80660428D01*
X94337142Y-80708047D01*
X94241904Y-80755666D01*
X93956190Y-80755666D01*
X93860952Y-80708047D01*
X93813333Y-80660428D01*
X93765714Y-80565190D01*
X93765714Y-80422333D01*
X93813333Y-80327095D01*
X93860952Y-80279476D01*
X93956190Y-80231857D01*
X94241904Y-80231857D01*
X94337142Y-80279476D01*
X94384761Y-80327095D01*
X94432380Y-80422333D01*
X94432380Y-80565190D01*
X93765714Y-79803285D02*
X94432380Y-79803285D01*
X93860952Y-79803285D02*
X93813333Y-79755666D01*
X93765714Y-79660428D01*
X93765714Y-79517571D01*
X93813333Y-79422333D01*
X93908571Y-79374714D01*
X94432380Y-79374714D01*
X94146666Y-78184238D02*
X94146666Y-77708047D01*
X94432380Y-78279476D02*
X93432380Y-77946142D01*
X94432380Y-77612809D01*
X94432380Y-76850904D02*
X93432380Y-76850904D01*
X94384761Y-76850904D02*
X94432380Y-76946142D01*
X94432380Y-77136619D01*
X94384761Y-77231857D01*
X94337142Y-77279476D01*
X94241904Y-77327095D01*
X93956190Y-77327095D01*
X93860952Y-77279476D01*
X93813333Y-77231857D01*
X93765714Y-77136619D01*
X93765714Y-76946142D01*
X93813333Y-76850904D01*
X94432380Y-75946142D02*
X93908571Y-75946142D01*
X93813333Y-75993761D01*
X93765714Y-76089000D01*
X93765714Y-76279476D01*
X93813333Y-76374714D01*
X94384761Y-75946142D02*
X94432380Y-76041380D01*
X94432380Y-76279476D01*
X94384761Y-76374714D01*
X94289523Y-76422333D01*
X94194285Y-76422333D01*
X94099047Y-76374714D01*
X94051428Y-76279476D01*
X94051428Y-76041380D01*
X94003809Y-75946142D01*
X93765714Y-75612809D02*
X93765714Y-75231857D01*
X94432380Y-75469952D02*
X93575238Y-75469952D01*
X93480000Y-75422333D01*
X93432380Y-75327095D01*
X93432380Y-75231857D01*
X94432380Y-74898523D02*
X93765714Y-74898523D01*
X93956190Y-74898523D02*
X93860952Y-74850904D01*
X93813333Y-74803285D01*
X93765714Y-74708047D01*
X93765714Y-74612809D01*
X93765714Y-73850904D02*
X94432380Y-73850904D01*
X93765714Y-74279476D02*
X94289523Y-74279476D01*
X94384761Y-74231857D01*
X94432380Y-74136619D01*
X94432380Y-73993761D01*
X94384761Y-73898523D01*
X94337142Y-73850904D01*
X94432380Y-73374714D02*
X93765714Y-73374714D01*
X93432380Y-73374714D02*
X93480000Y-73422333D01*
X93527619Y-73374714D01*
X93480000Y-73327095D01*
X93432380Y-73374714D01*
X93527619Y-73374714D01*
X93765714Y-73041380D02*
X93765714Y-72660428D01*
X93432380Y-72898523D02*
X94289523Y-72898523D01*
X94384761Y-72850904D01*
X94432380Y-72755666D01*
X94432380Y-72660428D01*
X93432380Y-71660428D02*
X93432380Y-71041380D01*
X93813333Y-71374714D01*
X93813333Y-71231857D01*
X93860952Y-71136619D01*
X93908571Y-71089000D01*
X94003809Y-71041380D01*
X94241904Y-71041380D01*
X94337142Y-71089000D01*
X94384761Y-71136619D01*
X94432380Y-71231857D01*
X94432380Y-71517571D01*
X94384761Y-71612809D01*
X94337142Y-71660428D01*
X93432380Y-70136619D02*
X93432380Y-70612809D01*
X93908571Y-70660428D01*
X93860952Y-70612809D01*
X93813333Y-70517571D01*
X93813333Y-70279476D01*
X93860952Y-70184238D01*
X93908571Y-70136619D01*
X94003809Y-70089000D01*
X94241904Y-70089000D01*
X94337142Y-70136619D01*
X94384761Y-70184238D01*
X94432380Y-70279476D01*
X94432380Y-70517571D01*
X94384761Y-70612809D01*
X94337142Y-70660428D01*
X93432380Y-69469952D02*
X93432380Y-69374714D01*
X93480000Y-69279476D01*
X93527619Y-69231857D01*
X93622857Y-69184238D01*
X93813333Y-69136619D01*
X94051428Y-69136619D01*
X94241904Y-69184238D01*
X94337142Y-69231857D01*
X94384761Y-69279476D01*
X94432380Y-69374714D01*
X94432380Y-69469952D01*
X94384761Y-69565190D01*
X94337142Y-69612809D01*
X94241904Y-69660428D01*
X94051428Y-69708047D01*
X93813333Y-69708047D01*
X93622857Y-69660428D01*
X93527619Y-69612809D01*
X93480000Y-69565190D01*
X93432380Y-69469952D01*
X93527619Y-68755666D02*
X93480000Y-68708047D01*
X93432380Y-68612809D01*
X93432380Y-68374714D01*
X93480000Y-68279476D01*
X93527619Y-68231857D01*
X93622857Y-68184238D01*
X93718095Y-68184238D01*
X93860952Y-68231857D01*
X94432380Y-68803285D01*
X94432380Y-68184238D01*
X118262660Y-101948834D02*
X117262660Y-101948834D01*
X118262660Y-101377405D01*
X117262660Y-101377405D01*
X118167422Y-100329786D02*
X118215041Y-100377405D01*
X118262660Y-100520262D01*
X118262660Y-100615500D01*
X118215041Y-100758358D01*
X118119803Y-100853596D01*
X118024565Y-100901215D01*
X117834089Y-100948834D01*
X117691232Y-100948834D01*
X117500756Y-100901215D01*
X117405518Y-100853596D01*
X117310280Y-100758358D01*
X117262660Y-100615500D01*
X117262660Y-100520262D01*
X117310280Y-100377405D01*
X117357899Y-100329786D01*
X115717580Y-101933190D02*
X114717580Y-101933190D01*
X114717580Y-101695095D01*
X114765200Y-101552238D01*
X114860438Y-101457000D01*
X114955676Y-101409380D01*
X115146152Y-101361761D01*
X115289009Y-101361761D01*
X115479485Y-101409380D01*
X115574723Y-101457000D01*
X115669961Y-101552238D01*
X115717580Y-101695095D01*
X115717580Y-101933190D01*
X115717580Y-100933190D02*
X114717580Y-100933190D01*
X115669961Y-100504619D02*
X115717580Y-100361761D01*
X115717580Y-100123666D01*
X115669961Y-100028428D01*
X115622342Y-99980809D01*
X115527104Y-99933190D01*
X115431866Y-99933190D01*
X115336628Y-99980809D01*
X115289009Y-100028428D01*
X115241390Y-100123666D01*
X115193771Y-100314142D01*
X115146152Y-100409380D01*
X115098533Y-100457000D01*
X115003295Y-100504619D01*
X114908057Y-100504619D01*
X114812819Y-100457000D01*
X114765200Y-100409380D01*
X114717580Y-100314142D01*
X114717580Y-100076047D01*
X114765200Y-99933190D01*
X115717580Y-99504619D02*
X114717580Y-99504619D01*
X114717580Y-99123666D01*
X114765200Y-99028428D01*
X114812819Y-98980809D01*
X114908057Y-98933190D01*
X115050914Y-98933190D01*
X115146152Y-98980809D01*
X115193771Y-99028428D01*
X115241390Y-99123666D01*
X115241390Y-99504619D01*
X113055660Y-101943754D02*
X112055660Y-101943754D01*
X113055660Y-101372325D01*
X112055660Y-101372325D01*
X112960422Y-100324706D02*
X113008041Y-100372325D01*
X113055660Y-100515182D01*
X113055660Y-100610420D01*
X113008041Y-100753278D01*
X112912803Y-100848516D01*
X112817565Y-100896135D01*
X112627089Y-100943754D01*
X112484232Y-100943754D01*
X112293756Y-100896135D01*
X112198518Y-100848516D01*
X112103280Y-100753278D01*
X112055660Y-100610420D01*
X112055660Y-100515182D01*
X112103280Y-100372325D01*
X112150899Y-100324706D01*
D11*
X116456961Y-98675494D02*
X116456961Y-97437398D01*
X117218866Y-98199303D01*
X117218866Y-97913589D01*
X117314104Y-97735017D01*
X117409342Y-97651684D01*
X117599819Y-97580255D01*
X118076009Y-97639779D01*
X118266485Y-97758827D01*
X118361723Y-97865970D01*
X118456961Y-98068351D01*
X118456961Y-98639779D01*
X118361723Y-98818351D01*
X118266485Y-98901684D01*
X118266485Y-96806446D02*
X118361723Y-96723113D01*
X118456961Y-96830255D01*
X118361723Y-96913589D01*
X118266485Y-96806446D01*
X118456961Y-96830255D01*
X116456961Y-95818351D02*
X116456961Y-94580255D01*
X117218866Y-95342160D01*
X117218866Y-95056446D01*
X117314104Y-94877875D01*
X117409342Y-94794541D01*
X117599819Y-94723113D01*
X118076009Y-94782636D01*
X118266485Y-94901684D01*
X118361723Y-95008827D01*
X118456961Y-95211208D01*
X118456961Y-95782636D01*
X118361723Y-95961208D01*
X118266485Y-96044541D01*
X116456961Y-94008827D02*
X118456961Y-93592160D01*
X116456961Y-92675494D01*
X118456961Y-90735017D02*
X116456961Y-90485017D01*
X116456961Y-89723113D01*
X116552200Y-89544541D01*
X116647438Y-89461208D01*
X116837914Y-89389779D01*
X117123628Y-89425494D01*
X117314104Y-89544541D01*
X117409342Y-89651684D01*
X117504580Y-89854065D01*
X117504580Y-90615970D01*
X116456961Y-88104065D02*
X116456961Y-87723113D01*
X116552200Y-87544541D01*
X116742676Y-87377875D01*
X117123628Y-87330255D01*
X117790295Y-87413589D01*
X118171247Y-87556446D01*
X118361723Y-87770732D01*
X118456961Y-87973113D01*
X118456961Y-88354065D01*
X118361723Y-88532636D01*
X118171247Y-88699303D01*
X117790295Y-88746922D01*
X117123628Y-88663589D01*
X116742676Y-88520732D01*
X116552200Y-88306446D01*
X116456961Y-88104065D01*
X116456961Y-86580255D02*
X118456961Y-86354065D01*
X117028390Y-85794541D01*
X118456961Y-85592160D01*
X116456961Y-84865970D01*
X117409342Y-84223113D02*
X117409342Y-83556446D01*
X118456961Y-83401684D02*
X118456961Y-84354065D01*
X116456961Y-84104065D01*
X116456961Y-83151684D01*
X118456961Y-81401684D02*
X117504580Y-81949303D01*
X118456961Y-82544541D02*
X116456961Y-82294541D01*
X116456961Y-81532636D01*
X116552200Y-81354065D01*
X116647438Y-81270732D01*
X116837914Y-81199303D01*
X117123628Y-81235017D01*
X117314104Y-81354065D01*
X117409342Y-81461208D01*
X117504580Y-81663589D01*
X117504580Y-82425494D01*
X119756961Y-97913589D02*
X119756961Y-96675494D01*
X120518866Y-97437398D01*
X120518866Y-97151684D01*
X120614104Y-96973113D01*
X120709342Y-96889779D01*
X120899819Y-96818351D01*
X121376009Y-96877875D01*
X121566485Y-96996922D01*
X121661723Y-97104065D01*
X121756961Y-97306446D01*
X121756961Y-97877875D01*
X121661723Y-98056446D01*
X121566485Y-98139779D01*
X121566485Y-96044541D02*
X121661723Y-95961208D01*
X121756961Y-96068351D01*
X121661723Y-96151684D01*
X121566485Y-96044541D01*
X121756961Y-96068351D01*
X119756961Y-95056446D02*
X119756961Y-93818351D01*
X120518866Y-94580255D01*
X120518866Y-94294541D01*
X120614104Y-94115970D01*
X120709342Y-94032636D01*
X120899819Y-93961208D01*
X121376009Y-94020732D01*
X121566485Y-94139779D01*
X121661723Y-94246922D01*
X121756961Y-94449303D01*
X121756961Y-95020732D01*
X121661723Y-95199303D01*
X121566485Y-95282636D01*
X119756961Y-93246922D02*
X121756961Y-92830255D01*
X119756961Y-91913589D01*
X121756961Y-89020732D02*
X121756961Y-89973113D01*
X119756961Y-89723113D01*
X119756961Y-87723113D02*
X119756961Y-87342160D01*
X119852200Y-87163589D01*
X120042676Y-86996922D01*
X120423628Y-86949303D01*
X121090295Y-87032636D01*
X121471247Y-87175494D01*
X121661723Y-87389779D01*
X121756961Y-87592160D01*
X121756961Y-87973113D01*
X121661723Y-88151684D01*
X121471247Y-88318351D01*
X121090295Y-88365970D01*
X120423628Y-88282636D01*
X120042676Y-88139779D01*
X119852200Y-87925494D01*
X119756961Y-87723113D01*
X119852200Y-84973113D02*
X119756961Y-85151684D01*
X119756961Y-85437398D01*
X119852200Y-85735017D01*
X120042676Y-85949303D01*
X120233152Y-86068351D01*
X120614104Y-86211208D01*
X120899819Y-86246922D01*
X121280771Y-86199303D01*
X121471247Y-86127875D01*
X121661723Y-85961208D01*
X121756961Y-85687398D01*
X121756961Y-85496922D01*
X121661723Y-85199303D01*
X121566485Y-85092160D01*
X120899819Y-85008827D01*
X120899819Y-85389779D01*
X121756961Y-84258827D02*
X119756961Y-84008827D01*
X121566485Y-82139779D02*
X121661723Y-82246922D01*
X121756961Y-82544541D01*
X121756961Y-82735017D01*
X121661723Y-83008827D01*
X121471247Y-83175494D01*
X121280771Y-83246922D01*
X120899819Y-83294541D01*
X120614104Y-83258827D01*
X120233152Y-83115970D01*
X120042676Y-82996922D01*
X119852200Y-82782636D01*
X119756961Y-82485017D01*
X119756961Y-82294541D01*
X119852200Y-82020732D01*
X119947438Y-81937398D01*
D10*
X110608382Y-101314546D02*
X110656001Y-101362165D01*
X110703620Y-101505022D01*
X110703620Y-101600260D01*
X110656001Y-101743118D01*
X110560763Y-101838356D01*
X110465525Y-101885975D01*
X110275049Y-101933594D01*
X110132192Y-101933594D01*
X109941716Y-101885975D01*
X109846478Y-101838356D01*
X109751240Y-101743118D01*
X109703620Y-101600260D01*
X109703620Y-101505022D01*
X109751240Y-101362165D01*
X109798859Y-101314546D01*
X110656001Y-100933594D02*
X110703620Y-100790737D01*
X110703620Y-100552641D01*
X110656001Y-100457403D01*
X110608382Y-100409784D01*
X110513144Y-100362165D01*
X110417906Y-100362165D01*
X110322668Y-100409784D01*
X110275049Y-100457403D01*
X110227430Y-100552641D01*
X110179811Y-100743118D01*
X110132192Y-100838356D01*
X110084573Y-100885975D01*
X109989335Y-100933594D01*
X109894097Y-100933594D01*
X109798859Y-100885975D01*
X109751240Y-100838356D01*
X109703620Y-100743118D01*
X109703620Y-100505022D01*
X109751240Y-100362165D01*
X108100761Y-101963409D02*
X108148380Y-101820552D01*
X108148380Y-101582457D01*
X108100761Y-101487219D01*
X108053142Y-101439600D01*
X107957904Y-101391980D01*
X107862666Y-101391980D01*
X107767428Y-101439600D01*
X107719809Y-101487219D01*
X107672190Y-101582457D01*
X107624571Y-101772933D01*
X107576952Y-101868171D01*
X107529333Y-101915790D01*
X107434095Y-101963409D01*
X107338857Y-101963409D01*
X107243619Y-101915790D01*
X107196000Y-101868171D01*
X107148380Y-101772933D01*
X107148380Y-101534838D01*
X107196000Y-101391980D01*
X108148380Y-100963409D02*
X107148380Y-100963409D01*
X107148380Y-100725314D01*
X107196000Y-100582457D01*
X107291238Y-100487219D01*
X107386476Y-100439600D01*
X107576952Y-100391980D01*
X107719809Y-100391980D01*
X107910285Y-100439600D01*
X108005523Y-100487219D01*
X108100761Y-100582457D01*
X108148380Y-100725314D01*
X108148380Y-100963409D01*
X108148380Y-99963409D02*
X107148380Y-99963409D01*
X105550601Y-101949356D02*
X105598220Y-101806499D01*
X105598220Y-101568403D01*
X105550601Y-101473165D01*
X105502982Y-101425546D01*
X105407744Y-101377927D01*
X105312506Y-101377927D01*
X105217268Y-101425546D01*
X105169649Y-101473165D01*
X105122030Y-101568403D01*
X105074411Y-101758880D01*
X105026792Y-101854118D01*
X104979173Y-101901737D01*
X104883935Y-101949356D01*
X104788697Y-101949356D01*
X104693459Y-101901737D01*
X104645840Y-101854118D01*
X104598220Y-101758880D01*
X104598220Y-101520784D01*
X104645840Y-101377927D01*
X105502982Y-100377927D02*
X105550601Y-100425546D01*
X105598220Y-100568403D01*
X105598220Y-100663641D01*
X105550601Y-100806499D01*
X105455363Y-100901737D01*
X105360125Y-100949356D01*
X105169649Y-100996975D01*
X105026792Y-100996975D01*
X104836316Y-100949356D01*
X104741078Y-100901737D01*
X104645840Y-100806499D01*
X104598220Y-100663641D01*
X104598220Y-100568403D01*
X104645840Y-100425546D01*
X104693459Y-100377927D01*
X105598220Y-99473165D02*
X105598220Y-99949356D01*
X104598220Y-99949356D01*
X105598220Y-99139832D02*
X104598220Y-99139832D01*
X105598220Y-98568403D02*
X105026792Y-98996975D01*
X104598220Y-98568403D02*
X105169649Y-99139832D01*
X102014400Y-101371304D02*
X101966780Y-101466542D01*
X101966780Y-101609400D01*
X102014400Y-101752257D01*
X102109638Y-101847495D01*
X102204876Y-101895114D01*
X102395352Y-101942733D01*
X102538209Y-101942733D01*
X102728685Y-101895114D01*
X102823923Y-101847495D01*
X102919161Y-101752257D01*
X102966780Y-101609400D01*
X102966780Y-101514161D01*
X102919161Y-101371304D01*
X102871542Y-101323685D01*
X102538209Y-101323685D01*
X102538209Y-101514161D01*
X102966780Y-100895114D02*
X101966780Y-100895114D01*
X102966780Y-100323685D01*
X101966780Y-100323685D01*
X102966780Y-99847495D02*
X101966780Y-99847495D01*
X101966780Y-99609400D01*
X102014400Y-99466542D01*
X102109638Y-99371304D01*
X102204876Y-99323685D01*
X102395352Y-99276066D01*
X102538209Y-99276066D01*
X102728685Y-99323685D01*
X102823923Y-99371304D01*
X102919161Y-99466542D01*
X102966780Y-99609400D01*
X102966780Y-99847495D01*
X99553780Y-101952276D02*
X99553780Y-101333228D01*
X99934733Y-101666561D01*
X99934733Y-101523704D01*
X99982352Y-101428466D01*
X100029971Y-101380847D01*
X100125209Y-101333228D01*
X100363304Y-101333228D01*
X100458542Y-101380847D01*
X100506161Y-101428466D01*
X100553780Y-101523704D01*
X100553780Y-101809419D01*
X100506161Y-101904657D01*
X100458542Y-101952276D01*
X99887114Y-100999895D02*
X100553780Y-100761800D01*
X99887114Y-100523704D01*
X99553780Y-100237990D02*
X99553780Y-99618942D01*
X99934733Y-99952276D01*
X99934733Y-99809419D01*
X99982352Y-99714180D01*
X100029971Y-99666561D01*
X100125209Y-99618942D01*
X100363304Y-99618942D01*
X100458542Y-99666561D01*
X100506161Y-99714180D01*
X100553780Y-99809419D01*
X100553780Y-100095133D01*
X100506161Y-100190371D01*
X100458542Y-100237990D01*
D12*
%TO.C,J2*%
X102735700Y-73105800D02*
X102735700Y-74330800D01*
X112435700Y-73130800D02*
X102735700Y-73105800D01*
X112435700Y-74330800D02*
X112435700Y-73130800D01*
D13*
X109835700Y-79030800D02*
X109835700Y-79030800D01*
X109835700Y-78930800D02*
X109835700Y-78930800D01*
X109835700Y-78930800D02*
G75*
G02*
X109835700Y-79030800I0J-50000D01*
G01*
X109835700Y-79030800D02*
G75*
G02*
X109835700Y-78930800I0J50000D01*
G01*
D14*
%TO.C,G\u002A\u002A\u002A*%
G36*
X111332767Y-89926876D02*
G01*
X111410202Y-89946733D01*
X111482802Y-89979359D01*
X111549063Y-90024218D01*
X111553533Y-90027893D01*
X111580214Y-90051613D01*
X111604379Y-90076837D01*
X111627816Y-90105925D01*
X111652311Y-90141236D01*
X111679649Y-90185129D01*
X111703868Y-90226444D01*
X111718228Y-90251371D01*
X111739107Y-90287592D01*
X111765970Y-90334180D01*
X111798281Y-90390205D01*
X111835506Y-90454742D01*
X111877108Y-90526862D01*
X111922554Y-90605638D01*
X111971307Y-90690141D01*
X112022832Y-90779446D01*
X112076595Y-90872622D01*
X112132059Y-90968745D01*
X112188690Y-91066884D01*
X112245953Y-91166114D01*
X112303311Y-91265506D01*
X112360231Y-91364133D01*
X112416177Y-91461067D01*
X112470613Y-91555380D01*
X112523004Y-91646146D01*
X112560810Y-91711638D01*
X112608396Y-91794077D01*
X112658772Y-91881364D01*
X112710702Y-91971354D01*
X112762947Y-92061901D01*
X112814270Y-92150861D01*
X112863432Y-92236087D01*
X112909197Y-92315433D01*
X112950325Y-92386754D01*
X112984146Y-92445416D01*
X113019690Y-92507068D01*
X113061052Y-92578795D01*
X113106994Y-92658451D01*
X113156279Y-92743891D01*
X113207669Y-92832968D01*
X113259925Y-92923537D01*
X113311810Y-93013453D01*
X113362086Y-93100569D01*
X113407468Y-93179194D01*
X113450875Y-93254398D01*
X113493852Y-93328870D01*
X113535616Y-93401253D01*
X113575383Y-93470185D01*
X113612368Y-93534309D01*
X113645789Y-93592266D01*
X113674861Y-93642696D01*
X113698801Y-93684241D01*
X113716824Y-93715541D01*
X113722841Y-93726000D01*
X113742411Y-93760008D01*
X113767686Y-93803879D01*
X113797305Y-93855258D01*
X113829913Y-93911793D01*
X113864151Y-93971127D01*
X113898661Y-94030908D01*
X113925207Y-94076875D01*
X113956371Y-94131235D01*
X113985912Y-94183546D01*
X114012920Y-94232136D01*
X114036483Y-94275334D01*
X114055691Y-94311469D01*
X114069632Y-94338868D01*
X114077395Y-94355861D01*
X114077629Y-94356470D01*
X114098862Y-94432634D01*
X114106581Y-94511460D01*
X114100770Y-94591504D01*
X114081416Y-94671322D01*
X114080732Y-94673379D01*
X114049469Y-94745064D01*
X114006349Y-94810177D01*
X113952502Y-94867661D01*
X113889060Y-94916458D01*
X113817152Y-94955514D01*
X113753195Y-94979368D01*
X113748969Y-94980532D01*
X113743902Y-94981623D01*
X113737548Y-94982645D01*
X113729461Y-94983601D01*
X113719197Y-94984492D01*
X113706308Y-94985322D01*
X113690351Y-94986092D01*
X113670880Y-94986805D01*
X113647448Y-94987465D01*
X113619612Y-94988072D01*
X113586924Y-94988630D01*
X113548941Y-94989142D01*
X113505216Y-94989609D01*
X113455304Y-94990035D01*
X113398760Y-94990421D01*
X113335138Y-94990770D01*
X113263993Y-94991086D01*
X113184879Y-94991369D01*
X113097351Y-94991624D01*
X113000963Y-94991852D01*
X112895270Y-94992055D01*
X112779827Y-94992237D01*
X112654188Y-94992400D01*
X112517908Y-94992546D01*
X112370541Y-94992677D01*
X112211641Y-94992798D01*
X112040764Y-94992908D01*
X111857464Y-94993013D01*
X111661296Y-94993113D01*
X111451813Y-94993211D01*
X111276695Y-94993289D01*
X111091796Y-94993354D01*
X110910333Y-94993383D01*
X110732826Y-94993380D01*
X110559794Y-94993343D01*
X110391756Y-94993275D01*
X110229233Y-94993177D01*
X110072744Y-94993049D01*
X109922809Y-94992893D01*
X109779948Y-94992709D01*
X109644680Y-94992498D01*
X109517524Y-94992262D01*
X109399002Y-94992002D01*
X109289631Y-94991718D01*
X109189933Y-94991412D01*
X109100426Y-94991084D01*
X109021630Y-94990736D01*
X108954066Y-94990369D01*
X108898252Y-94989983D01*
X108854708Y-94989579D01*
X108823955Y-94989160D01*
X108806511Y-94988725D01*
X108802802Y-94988483D01*
X108746236Y-94975976D01*
X108687681Y-94955904D01*
X108634872Y-94930923D01*
X108634389Y-94930652D01*
X108605718Y-94911160D01*
X108572411Y-94883310D01*
X108537771Y-94850406D01*
X108505105Y-94815752D01*
X108477717Y-94782654D01*
X108459848Y-94756111D01*
X108426498Y-94683100D01*
X108405807Y-94606232D01*
X108397925Y-94527498D01*
X108398539Y-94517986D01*
X108869527Y-94517986D01*
X108876255Y-94518391D01*
X108896580Y-94518788D01*
X108929990Y-94519176D01*
X108975972Y-94519554D01*
X109034012Y-94519920D01*
X109103596Y-94520273D01*
X109184213Y-94520612D01*
X109275347Y-94520937D01*
X109376488Y-94521245D01*
X109487120Y-94521537D01*
X109606731Y-94521809D01*
X109734807Y-94522063D01*
X109870836Y-94522295D01*
X110014304Y-94522506D01*
X110164698Y-94522694D01*
X110321505Y-94522858D01*
X110484211Y-94522996D01*
X110652303Y-94523109D01*
X110825268Y-94523193D01*
X111002593Y-94523249D01*
X111183765Y-94523275D01*
X111248056Y-94523277D01*
X111486379Y-94523262D01*
X111710811Y-94523215D01*
X111921574Y-94523137D01*
X112118888Y-94523026D01*
X112302974Y-94522882D01*
X112474052Y-94522704D01*
X112632344Y-94522492D01*
X112778070Y-94522244D01*
X112911450Y-94521960D01*
X113032706Y-94521639D01*
X113142059Y-94521280D01*
X113239728Y-94520884D01*
X113325935Y-94520449D01*
X113400901Y-94519974D01*
X113464846Y-94519458D01*
X113517990Y-94518902D01*
X113560556Y-94518304D01*
X113592763Y-94517664D01*
X113614832Y-94516981D01*
X113626984Y-94516253D01*
X113629723Y-94515674D01*
X113626300Y-94507963D01*
X113616582Y-94489541D01*
X113601390Y-94461881D01*
X113581550Y-94426457D01*
X113557883Y-94384741D01*
X113531213Y-94338207D01*
X113510438Y-94302244D01*
X113483403Y-94255557D01*
X113449688Y-94197271D01*
X113409655Y-94128012D01*
X113363667Y-94048408D01*
X113312086Y-93959089D01*
X113255275Y-93860680D01*
X113193595Y-93753811D01*
X113127409Y-93639109D01*
X113057081Y-93517202D01*
X112982971Y-93388718D01*
X112905442Y-93254285D01*
X112824857Y-93114530D01*
X112760444Y-93002805D01*
X112734303Y-92957471D01*
X112707874Y-92911653D01*
X112682870Y-92868319D01*
X112661006Y-92830441D01*
X112643994Y-92800989D01*
X112640339Y-92794666D01*
X112625727Y-92769369D01*
X112605603Y-92734491D01*
X112581492Y-92692682D01*
X112554923Y-92646590D01*
X112527423Y-92598864D01*
X112510156Y-92568888D01*
X112476728Y-92510856D01*
X112443593Y-92453352D01*
X112409967Y-92395019D01*
X112375067Y-92334499D01*
X112338109Y-92270435D01*
X112298310Y-92201467D01*
X112254886Y-92126239D01*
X112207054Y-92043391D01*
X112154030Y-91951568D01*
X112095031Y-91849409D01*
X112070472Y-91806888D01*
X112013533Y-91708299D01*
X111962121Y-91619264D01*
X111914701Y-91537122D01*
X111869738Y-91459212D01*
X111825696Y-91382872D01*
X111781039Y-91305442D01*
X111734232Y-91224259D01*
X111683739Y-91136661D01*
X111647113Y-91073111D01*
X111620783Y-91027435D01*
X111589680Y-90973498D01*
X111556087Y-90915256D01*
X111522286Y-90856668D01*
X111490560Y-90801691D01*
X111480252Y-90783833D01*
X111450638Y-90732522D01*
X111418906Y-90677526D01*
X111387129Y-90622438D01*
X111357380Y-90570852D01*
X111331730Y-90526361D01*
X111322549Y-90510430D01*
X111301571Y-90474440D01*
X111282830Y-90443079D01*
X111267503Y-90418248D01*
X111256762Y-90401848D01*
X111251782Y-90395780D01*
X111251746Y-90395777D01*
X111248053Y-90400576D01*
X111238842Y-90415120D01*
X111223983Y-90439628D01*
X111203350Y-90474319D01*
X111176814Y-90519413D01*
X111144247Y-90575129D01*
X111105523Y-90641687D01*
X111060513Y-90719306D01*
X111009089Y-90808205D01*
X110951123Y-90908605D01*
X110886489Y-91020723D01*
X110815057Y-91144781D01*
X110779161Y-91207166D01*
X110750874Y-91256312D01*
X110719366Y-91311004D01*
X110687333Y-91366570D01*
X110657466Y-91418338D01*
X110636809Y-91454111D01*
X110616959Y-91488481D01*
X110591455Y-91532666D01*
X110561687Y-91584256D01*
X110529047Y-91640839D01*
X110494925Y-91700004D01*
X110460712Y-91759340D01*
X110437369Y-91799833D01*
X110404657Y-91856576D01*
X110371700Y-91913734D01*
X110339758Y-91969120D01*
X110310093Y-92020546D01*
X110283967Y-92065825D01*
X110262642Y-92102770D01*
X110250155Y-92124388D01*
X110231394Y-92156868D01*
X110207224Y-92198730D01*
X110179284Y-92247133D01*
X110149215Y-92299235D01*
X110118658Y-92352195D01*
X110093372Y-92396027D01*
X110029804Y-92506230D01*
X109972568Y-92605451D01*
X109920947Y-92694935D01*
X109874224Y-92775925D01*
X109831680Y-92849664D01*
X109792600Y-92917395D01*
X109756265Y-92980362D01*
X109721959Y-93039807D01*
X109688963Y-93096975D01*
X109656561Y-93153108D01*
X109653721Y-93158027D01*
X109619820Y-93216763D01*
X109582658Y-93281162D01*
X109544317Y-93347618D01*
X109506877Y-93412524D01*
X109472419Y-93472275D01*
X109444102Y-93521388D01*
X109362628Y-93662731D01*
X109288036Y-93792132D01*
X109220162Y-93909875D01*
X109158844Y-94016246D01*
X109103916Y-94111529D01*
X109055214Y-94196007D01*
X109012576Y-94269966D01*
X108975836Y-94333689D01*
X108944832Y-94387462D01*
X108919398Y-94431567D01*
X108899372Y-94466290D01*
X108884589Y-94491916D01*
X108874885Y-94508727D01*
X108870096Y-94517009D01*
X108869527Y-94517986D01*
X108398539Y-94517986D01*
X108403003Y-94448889D01*
X108421192Y-94372396D01*
X108429127Y-94350416D01*
X108436058Y-94335607D01*
X108449432Y-94309813D01*
X108468578Y-94274238D01*
X108492826Y-94230085D01*
X108521506Y-94178557D01*
X108553947Y-94120857D01*
X108589480Y-94058189D01*
X108627433Y-93991755D01*
X108667138Y-93922759D01*
X108672793Y-93912972D01*
X108716979Y-93836538D01*
X108762988Y-93756935D01*
X108809656Y-93676179D01*
X108855820Y-93596286D01*
X108900313Y-93519272D01*
X108941972Y-93447153D01*
X108979631Y-93381943D01*
X109012127Y-93325660D01*
X109029470Y-93295611D01*
X109123128Y-93133312D01*
X109210064Y-92982660D01*
X109290610Y-92843080D01*
X109365096Y-92713997D01*
X109433856Y-92594835D01*
X109497220Y-92485019D01*
X109555520Y-92383976D01*
X109609088Y-92291129D01*
X109658255Y-92205903D01*
X109703354Y-92127724D01*
X109744716Y-92056017D01*
X109782671Y-91990206D01*
X109817554Y-91929717D01*
X109849693Y-91873975D01*
X109879423Y-91822404D01*
X109907073Y-91774430D01*
X109932976Y-91729477D01*
X109957464Y-91686971D01*
X109980867Y-91646337D01*
X110003519Y-91606999D01*
X110025749Y-91568383D01*
X110036698Y-91549361D01*
X110070590Y-91490510D01*
X110108303Y-91425084D01*
X110147572Y-91357006D01*
X110186133Y-91290200D01*
X110221723Y-91228591D01*
X110246350Y-91186000D01*
X110273151Y-91139651D01*
X110305472Y-91083720D01*
X110341788Y-91020848D01*
X110380571Y-90953680D01*
X110420297Y-90884858D01*
X110459438Y-90817024D01*
X110496470Y-90752823D01*
X110496896Y-90752083D01*
X110555032Y-90651277D01*
X110606551Y-90561972D01*
X110651876Y-90483440D01*
X110691432Y-90414953D01*
X110725643Y-90355783D01*
X110754934Y-90305202D01*
X110779729Y-90262483D01*
X110800452Y-90226898D01*
X110817529Y-90197718D01*
X110831382Y-90174217D01*
X110842437Y-90155667D01*
X110851118Y-90141339D01*
X110857849Y-90130506D01*
X110863054Y-90122440D01*
X110867159Y-90116413D01*
X110869209Y-90113555D01*
X110922546Y-90052232D01*
X110984293Y-90001857D01*
X111053275Y-89963025D01*
X111128314Y-89936329D01*
X111208235Y-89922362D01*
X111252000Y-89920325D01*
X111332767Y-89926876D01*
G37*
X111332767Y-89926876D02*
X111410202Y-89946733D01*
X111482802Y-89979359D01*
X111549063Y-90024218D01*
X111553533Y-90027893D01*
X111580214Y-90051613D01*
X111604379Y-90076837D01*
X111627816Y-90105925D01*
X111652311Y-90141236D01*
X111679649Y-90185129D01*
X111703868Y-90226444D01*
X111718228Y-90251371D01*
X111739107Y-90287592D01*
X111765970Y-90334180D01*
X111798281Y-90390205D01*
X111835506Y-90454742D01*
X111877108Y-90526862D01*
X111922554Y-90605638D01*
X111971307Y-90690141D01*
X112022832Y-90779446D01*
X112076595Y-90872622D01*
X112132059Y-90968745D01*
X112188690Y-91066884D01*
X112245953Y-91166114D01*
X112303311Y-91265506D01*
X112360231Y-91364133D01*
X112416177Y-91461067D01*
X112470613Y-91555380D01*
X112523004Y-91646146D01*
X112560810Y-91711638D01*
X112608396Y-91794077D01*
X112658772Y-91881364D01*
X112710702Y-91971354D01*
X112762947Y-92061901D01*
X112814270Y-92150861D01*
X112863432Y-92236087D01*
X112909197Y-92315433D01*
X112950325Y-92386754D01*
X112984146Y-92445416D01*
X113019690Y-92507068D01*
X113061052Y-92578795D01*
X113106994Y-92658451D01*
X113156279Y-92743891D01*
X113207669Y-92832968D01*
X113259925Y-92923537D01*
X113311810Y-93013453D01*
X113362086Y-93100569D01*
X113407468Y-93179194D01*
X113450875Y-93254398D01*
X113493852Y-93328870D01*
X113535616Y-93401253D01*
X113575383Y-93470185D01*
X113612368Y-93534309D01*
X113645789Y-93592266D01*
X113674861Y-93642696D01*
X113698801Y-93684241D01*
X113716824Y-93715541D01*
X113722841Y-93726000D01*
X113742411Y-93760008D01*
X113767686Y-93803879D01*
X113797305Y-93855258D01*
X113829913Y-93911793D01*
X113864151Y-93971127D01*
X113898661Y-94030908D01*
X113925207Y-94076875D01*
X113956371Y-94131235D01*
X113985912Y-94183546D01*
X114012920Y-94232136D01*
X114036483Y-94275334D01*
X114055691Y-94311469D01*
X114069632Y-94338868D01*
X114077395Y-94355861D01*
X114077629Y-94356470D01*
X114098862Y-94432634D01*
X114106581Y-94511460D01*
X114100770Y-94591504D01*
X114081416Y-94671322D01*
X114080732Y-94673379D01*
X114049469Y-94745064D01*
X114006349Y-94810177D01*
X113952502Y-94867661D01*
X113889060Y-94916458D01*
X113817152Y-94955514D01*
X113753195Y-94979368D01*
X113748969Y-94980532D01*
X113743902Y-94981623D01*
X113737548Y-94982645D01*
X113729461Y-94983601D01*
X113719197Y-94984492D01*
X113706308Y-94985322D01*
X113690351Y-94986092D01*
X113670880Y-94986805D01*
X113647448Y-94987465D01*
X113619612Y-94988072D01*
X113586924Y-94988630D01*
X113548941Y-94989142D01*
X113505216Y-94989609D01*
X113455304Y-94990035D01*
X113398760Y-94990421D01*
X113335138Y-94990770D01*
X113263993Y-94991086D01*
X113184879Y-94991369D01*
X113097351Y-94991624D01*
X113000963Y-94991852D01*
X112895270Y-94992055D01*
X112779827Y-94992237D01*
X112654188Y-94992400D01*
X112517908Y-94992546D01*
X112370541Y-94992677D01*
X112211641Y-94992798D01*
X112040764Y-94992908D01*
X111857464Y-94993013D01*
X111661296Y-94993113D01*
X111451813Y-94993211D01*
X111276695Y-94993289D01*
X111091796Y-94993354D01*
X110910333Y-94993383D01*
X110732826Y-94993380D01*
X110559794Y-94993343D01*
X110391756Y-94993275D01*
X110229233Y-94993177D01*
X110072744Y-94993049D01*
X109922809Y-94992893D01*
X109779948Y-94992709D01*
X109644680Y-94992498D01*
X109517524Y-94992262D01*
X109399002Y-94992002D01*
X109289631Y-94991718D01*
X109189933Y-94991412D01*
X109100426Y-94991084D01*
X109021630Y-94990736D01*
X108954066Y-94990369D01*
X108898252Y-94989983D01*
X108854708Y-94989579D01*
X108823955Y-94989160D01*
X108806511Y-94988725D01*
X108802802Y-94988483D01*
X108746236Y-94975976D01*
X108687681Y-94955904D01*
X108634872Y-94930923D01*
X108634389Y-94930652D01*
X108605718Y-94911160D01*
X108572411Y-94883310D01*
X108537771Y-94850406D01*
X108505105Y-94815752D01*
X108477717Y-94782654D01*
X108459848Y-94756111D01*
X108426498Y-94683100D01*
X108405807Y-94606232D01*
X108397925Y-94527498D01*
X108398539Y-94517986D01*
X108869527Y-94517986D01*
X108876255Y-94518391D01*
X108896580Y-94518788D01*
X108929990Y-94519176D01*
X108975972Y-94519554D01*
X109034012Y-94519920D01*
X109103596Y-94520273D01*
X109184213Y-94520612D01*
X109275347Y-94520937D01*
X109376488Y-94521245D01*
X109487120Y-94521537D01*
X109606731Y-94521809D01*
X109734807Y-94522063D01*
X109870836Y-94522295D01*
X110014304Y-94522506D01*
X110164698Y-94522694D01*
X110321505Y-94522858D01*
X110484211Y-94522996D01*
X110652303Y-94523109D01*
X110825268Y-94523193D01*
X111002593Y-94523249D01*
X111183765Y-94523275D01*
X111248056Y-94523277D01*
X111486379Y-94523262D01*
X111710811Y-94523215D01*
X111921574Y-94523137D01*
X112118888Y-94523026D01*
X112302974Y-94522882D01*
X112474052Y-94522704D01*
X112632344Y-94522492D01*
X112778070Y-94522244D01*
X112911450Y-94521960D01*
X113032706Y-94521639D01*
X113142059Y-94521280D01*
X113239728Y-94520884D01*
X113325935Y-94520449D01*
X113400901Y-94519974D01*
X113464846Y-94519458D01*
X113517990Y-94518902D01*
X113560556Y-94518304D01*
X113592763Y-94517664D01*
X113614832Y-94516981D01*
X113626984Y-94516253D01*
X113629723Y-94515674D01*
X113626300Y-94507963D01*
X113616582Y-94489541D01*
X113601390Y-94461881D01*
X113581550Y-94426457D01*
X113557883Y-94384741D01*
X113531213Y-94338207D01*
X113510438Y-94302244D01*
X113483403Y-94255557D01*
X113449688Y-94197271D01*
X113409655Y-94128012D01*
X113363667Y-94048408D01*
X113312086Y-93959089D01*
X113255275Y-93860680D01*
X113193595Y-93753811D01*
X113127409Y-93639109D01*
X113057081Y-93517202D01*
X112982971Y-93388718D01*
X112905442Y-93254285D01*
X112824857Y-93114530D01*
X112760444Y-93002805D01*
X112734303Y-92957471D01*
X112707874Y-92911653D01*
X112682870Y-92868319D01*
X112661006Y-92830441D01*
X112643994Y-92800989D01*
X112640339Y-92794666D01*
X112625727Y-92769369D01*
X112605603Y-92734491D01*
X112581492Y-92692682D01*
X112554923Y-92646590D01*
X112527423Y-92598864D01*
X112510156Y-92568888D01*
X112476728Y-92510856D01*
X112443593Y-92453352D01*
X112409967Y-92395019D01*
X112375067Y-92334499D01*
X112338109Y-92270435D01*
X112298310Y-92201467D01*
X112254886Y-92126239D01*
X112207054Y-92043391D01*
X112154030Y-91951568D01*
X112095031Y-91849409D01*
X112070472Y-91806888D01*
X112013533Y-91708299D01*
X111962121Y-91619264D01*
X111914701Y-91537122D01*
X111869738Y-91459212D01*
X111825696Y-91382872D01*
X111781039Y-91305442D01*
X111734232Y-91224259D01*
X111683739Y-91136661D01*
X111647113Y-91073111D01*
X111620783Y-91027435D01*
X111589680Y-90973498D01*
X111556087Y-90915256D01*
X111522286Y-90856668D01*
X111490560Y-90801691D01*
X111480252Y-90783833D01*
X111450638Y-90732522D01*
X111418906Y-90677526D01*
X111387129Y-90622438D01*
X111357380Y-90570852D01*
X111331730Y-90526361D01*
X111322549Y-90510430D01*
X111301571Y-90474440D01*
X111282830Y-90443079D01*
X111267503Y-90418248D01*
X111256762Y-90401848D01*
X111251782Y-90395780D01*
X111251746Y-90395777D01*
X111248053Y-90400576D01*
X111238842Y-90415120D01*
X111223983Y-90439628D01*
X111203350Y-90474319D01*
X111176814Y-90519413D01*
X111144247Y-90575129D01*
X111105523Y-90641687D01*
X111060513Y-90719306D01*
X111009089Y-90808205D01*
X110951123Y-90908605D01*
X110886489Y-91020723D01*
X110815057Y-91144781D01*
X110779161Y-91207166D01*
X110750874Y-91256312D01*
X110719366Y-91311004D01*
X110687333Y-91366570D01*
X110657466Y-91418338D01*
X110636809Y-91454111D01*
X110616959Y-91488481D01*
X110591455Y-91532666D01*
X110561687Y-91584256D01*
X110529047Y-91640839D01*
X110494925Y-91700004D01*
X110460712Y-91759340D01*
X110437369Y-91799833D01*
X110404657Y-91856576D01*
X110371700Y-91913734D01*
X110339758Y-91969120D01*
X110310093Y-92020546D01*
X110283967Y-92065825D01*
X110262642Y-92102770D01*
X110250155Y-92124388D01*
X110231394Y-92156868D01*
X110207224Y-92198730D01*
X110179284Y-92247133D01*
X110149215Y-92299235D01*
X110118658Y-92352195D01*
X110093372Y-92396027D01*
X110029804Y-92506230D01*
X109972568Y-92605451D01*
X109920947Y-92694935D01*
X109874224Y-92775925D01*
X109831680Y-92849664D01*
X109792600Y-92917395D01*
X109756265Y-92980362D01*
X109721959Y-93039807D01*
X109688963Y-93096975D01*
X109656561Y-93153108D01*
X109653721Y-93158027D01*
X109619820Y-93216763D01*
X109582658Y-93281162D01*
X109544317Y-93347618D01*
X109506877Y-93412524D01*
X109472419Y-93472275D01*
X109444102Y-93521388D01*
X109362628Y-93662731D01*
X109288036Y-93792132D01*
X109220162Y-93909875D01*
X109158844Y-94016246D01*
X109103916Y-94111529D01*
X109055214Y-94196007D01*
X109012576Y-94269966D01*
X108975836Y-94333689D01*
X108944832Y-94387462D01*
X108919398Y-94431567D01*
X108899372Y-94466290D01*
X108884589Y-94491916D01*
X108874885Y-94508727D01*
X108870096Y-94517009D01*
X108869527Y-94517986D01*
X108398539Y-94517986D01*
X108403003Y-94448889D01*
X108421192Y-94372396D01*
X108429127Y-94350416D01*
X108436058Y-94335607D01*
X108449432Y-94309813D01*
X108468578Y-94274238D01*
X108492826Y-94230085D01*
X108521506Y-94178557D01*
X108553947Y-94120857D01*
X108589480Y-94058189D01*
X108627433Y-93991755D01*
X108667138Y-93922759D01*
X108672793Y-93912972D01*
X108716979Y-93836538D01*
X108762988Y-93756935D01*
X108809656Y-93676179D01*
X108855820Y-93596286D01*
X108900313Y-93519272D01*
X108941972Y-93447153D01*
X108979631Y-93381943D01*
X109012127Y-93325660D01*
X109029470Y-93295611D01*
X109123128Y-93133312D01*
X109210064Y-92982660D01*
X109290610Y-92843080D01*
X109365096Y-92713997D01*
X109433856Y-92594835D01*
X109497220Y-92485019D01*
X109555520Y-92383976D01*
X109609088Y-92291129D01*
X109658255Y-92205903D01*
X109703354Y-92127724D01*
X109744716Y-92056017D01*
X109782671Y-91990206D01*
X109817554Y-91929717D01*
X109849693Y-91873975D01*
X109879423Y-91822404D01*
X109907073Y-91774430D01*
X109932976Y-91729477D01*
X109957464Y-91686971D01*
X109980867Y-91646337D01*
X110003519Y-91606999D01*
X110025749Y-91568383D01*
X110036698Y-91549361D01*
X110070590Y-91490510D01*
X110108303Y-91425084D01*
X110147572Y-91357006D01*
X110186133Y-91290200D01*
X110221723Y-91228591D01*
X110246350Y-91186000D01*
X110273151Y-91139651D01*
X110305472Y-91083720D01*
X110341788Y-91020848D01*
X110380571Y-90953680D01*
X110420297Y-90884858D01*
X110459438Y-90817024D01*
X110496470Y-90752823D01*
X110496896Y-90752083D01*
X110555032Y-90651277D01*
X110606551Y-90561972D01*
X110651876Y-90483440D01*
X110691432Y-90414953D01*
X110725643Y-90355783D01*
X110754934Y-90305202D01*
X110779729Y-90262483D01*
X110800452Y-90226898D01*
X110817529Y-90197718D01*
X110831382Y-90174217D01*
X110842437Y-90155667D01*
X110851118Y-90141339D01*
X110857849Y-90130506D01*
X110863054Y-90122440D01*
X110867159Y-90116413D01*
X110869209Y-90113555D01*
X110922546Y-90052232D01*
X110984293Y-90001857D01*
X111053275Y-89963025D01*
X111128314Y-89936329D01*
X111208235Y-89922362D01*
X111252000Y-89920325D01*
X111332767Y-89926876D01*
G36*
X111299625Y-93415066D02*
G01*
X111362384Y-93432189D01*
X111418375Y-93460342D01*
X111466732Y-93497952D01*
X111506589Y-93543446D01*
X111537080Y-93595251D01*
X111557338Y-93651792D01*
X111566497Y-93711497D01*
X111563692Y-93772793D01*
X111548056Y-93834106D01*
X111540553Y-93852678D01*
X111508695Y-93908094D01*
X111466673Y-93955192D01*
X111416399Y-93992954D01*
X111359784Y-94020363D01*
X111298739Y-94036402D01*
X111235178Y-94040053D01*
X111196413Y-94035837D01*
X111136235Y-94018589D01*
X111081744Y-93989752D01*
X111034158Y-93951050D01*
X110994696Y-93904203D01*
X110964578Y-93850935D01*
X110945021Y-93792969D01*
X110937246Y-93732026D01*
X110941419Y-93675539D01*
X110958801Y-93613722D01*
X110987456Y-93557974D01*
X111025778Y-93509463D01*
X111072165Y-93469355D01*
X111125013Y-93438815D01*
X111182718Y-93419009D01*
X111243677Y-93411104D01*
X111299625Y-93415066D01*
G37*
X111299625Y-93415066D02*
X111362384Y-93432189D01*
X111418375Y-93460342D01*
X111466732Y-93497952D01*
X111506589Y-93543446D01*
X111537080Y-93595251D01*
X111557338Y-93651792D01*
X111566497Y-93711497D01*
X111563692Y-93772793D01*
X111548056Y-93834106D01*
X111540553Y-93852678D01*
X111508695Y-93908094D01*
X111466673Y-93955192D01*
X111416399Y-93992954D01*
X111359784Y-94020363D01*
X111298739Y-94036402D01*
X111235178Y-94040053D01*
X111196413Y-94035837D01*
X111136235Y-94018589D01*
X111081744Y-93989752D01*
X111034158Y-93951050D01*
X110994696Y-93904203D01*
X110964578Y-93850935D01*
X110945021Y-93792969D01*
X110937246Y-93732026D01*
X110941419Y-93675539D01*
X110958801Y-93613722D01*
X110987456Y-93557974D01*
X111025778Y-93509463D01*
X111072165Y-93469355D01*
X111125013Y-93438815D01*
X111182718Y-93419009D01*
X111243677Y-93411104D01*
X111299625Y-93415066D01*
G36*
X111316455Y-91672475D02*
G01*
X111376588Y-91691738D01*
X111430982Y-91722322D01*
X111478219Y-91762985D01*
X111516879Y-91812483D01*
X111545545Y-91869570D01*
X111562799Y-91933005D01*
X111563773Y-91939177D01*
X111565038Y-91949032D01*
X111565801Y-91959482D01*
X111565911Y-91971585D01*
X111565222Y-91986397D01*
X111563585Y-92004978D01*
X111560852Y-92028383D01*
X111556876Y-92057672D01*
X111551507Y-92093901D01*
X111544598Y-92138128D01*
X111536000Y-92191410D01*
X111525567Y-92254806D01*
X111513149Y-92329373D01*
X111498598Y-92416168D01*
X111488937Y-92473638D01*
X111475075Y-92555540D01*
X111461639Y-92633963D01*
X111448844Y-92707700D01*
X111436909Y-92775545D01*
X111426050Y-92836289D01*
X111416484Y-92888726D01*
X111408429Y-92931649D01*
X111402102Y-92963849D01*
X111397720Y-92984120D01*
X111396016Y-92990328D01*
X111377483Y-93022733D01*
X111349030Y-93051646D01*
X111314845Y-93073505D01*
X111286496Y-93083453D01*
X111265436Y-93087639D01*
X111250411Y-93090019D01*
X111246361Y-93090244D01*
X111236935Y-93088347D01*
X111219270Y-93084505D01*
X111212104Y-93082906D01*
X111181713Y-93070356D01*
X111151360Y-93048320D01*
X111125462Y-93020727D01*
X111108437Y-92991504D01*
X111107993Y-92990328D01*
X111104992Y-92978464D01*
X111099904Y-92953885D01*
X111092945Y-92917800D01*
X111084332Y-92871414D01*
X111074284Y-92815936D01*
X111063016Y-92752573D01*
X111050747Y-92682532D01*
X111037694Y-92607021D01*
X111024074Y-92527245D01*
X111015013Y-92473638D01*
X110999123Y-92379142D01*
X110985454Y-92297500D01*
X110973858Y-92227652D01*
X110964187Y-92168543D01*
X110956293Y-92119114D01*
X110950027Y-92078307D01*
X110945242Y-92045066D01*
X110941789Y-92018331D01*
X110939520Y-91997047D01*
X110938288Y-91980154D01*
X110937944Y-91966595D01*
X110938339Y-91955314D01*
X110939327Y-91945251D01*
X110940169Y-91939177D01*
X110956373Y-91875141D01*
X110984098Y-91817370D01*
X111021930Y-91767103D01*
X111068459Y-91725577D01*
X111122270Y-91694031D01*
X111181953Y-91673703D01*
X111246094Y-91665832D01*
X111252000Y-91665777D01*
X111316455Y-91672475D01*
G37*
X111316455Y-91672475D02*
X111376588Y-91691738D01*
X111430982Y-91722322D01*
X111478219Y-91762985D01*
X111516879Y-91812483D01*
X111545545Y-91869570D01*
X111562799Y-91933005D01*
X111563773Y-91939177D01*
X111565038Y-91949032D01*
X111565801Y-91959482D01*
X111565911Y-91971585D01*
X111565222Y-91986397D01*
X111563585Y-92004978D01*
X111560852Y-92028383D01*
X111556876Y-92057672D01*
X111551507Y-92093901D01*
X111544598Y-92138128D01*
X111536000Y-92191410D01*
X111525567Y-92254806D01*
X111513149Y-92329373D01*
X111498598Y-92416168D01*
X111488937Y-92473638D01*
X111475075Y-92555540D01*
X111461639Y-92633963D01*
X111448844Y-92707700D01*
X111436909Y-92775545D01*
X111426050Y-92836289D01*
X111416484Y-92888726D01*
X111408429Y-92931649D01*
X111402102Y-92963849D01*
X111397720Y-92984120D01*
X111396016Y-92990328D01*
X111377483Y-93022733D01*
X111349030Y-93051646D01*
X111314845Y-93073505D01*
X111286496Y-93083453D01*
X111265436Y-93087639D01*
X111250411Y-93090019D01*
X111246361Y-93090244D01*
X111236935Y-93088347D01*
X111219270Y-93084505D01*
X111212104Y-93082906D01*
X111181713Y-93070356D01*
X111151360Y-93048320D01*
X111125462Y-93020727D01*
X111108437Y-92991504D01*
X111107993Y-92990328D01*
X111104992Y-92978464D01*
X111099904Y-92953885D01*
X111092945Y-92917800D01*
X111084332Y-92871414D01*
X111074284Y-92815936D01*
X111063016Y-92752573D01*
X111050747Y-92682532D01*
X111037694Y-92607021D01*
X111024074Y-92527245D01*
X111015013Y-92473638D01*
X110999123Y-92379142D01*
X110985454Y-92297500D01*
X110973858Y-92227652D01*
X110964187Y-92168543D01*
X110956293Y-92119114D01*
X110950027Y-92078307D01*
X110945242Y-92045066D01*
X110941789Y-92018331D01*
X110939520Y-91997047D01*
X110938288Y-91980154D01*
X110937944Y-91966595D01*
X110938339Y-91955314D01*
X110939327Y-91945251D01*
X110940169Y-91939177D01*
X110956373Y-91875141D01*
X110984098Y-91817370D01*
X111021930Y-91767103D01*
X111068459Y-91725577D01*
X111122270Y-91694031D01*
X111181953Y-91673703D01*
X111246094Y-91665832D01*
X111252000Y-91665777D01*
X111316455Y-91672475D01*
D15*
%TO.C,J1*%
X98639100Y-105186100D02*
X98648300Y-102526100D01*
X98648300Y-102526100D02*
X119079100Y-102526100D01*
X98639100Y-105186100D02*
X119079100Y-105186100D01*
X119079100Y-105186100D02*
X119079100Y-102526100D01*
%TO.C,JP1*%
X104050000Y-94275000D02*
X104050000Y-91475000D01*
X104050000Y-91475000D02*
X106050000Y-91475000D01*
X106050000Y-91475000D02*
X106050000Y-94275000D01*
X106050000Y-94275000D02*
X104050000Y-94275000D01*
%TO.C,R1*%
X108172936Y-86140000D02*
X108627064Y-86140000D01*
X108172936Y-87610000D02*
X108627064Y-87610000D01*
%TO.C,C4*%
X96912888Y-75891720D02*
X97435392Y-75891720D01*
X96912888Y-77361720D02*
X97435392Y-77361720D01*
%TO.C,C3*%
X102469620Y-82764908D02*
X102469620Y-83287412D01*
X100999620Y-82764908D02*
X100999620Y-83287412D01*
%TO.C,C2*%
X109000748Y-83986700D02*
X109523252Y-83986700D01*
X109000748Y-85456700D02*
X109523252Y-85456700D01*
%TO.C,C1*%
X95381268Y-97121040D02*
X95903772Y-97121040D01*
X95381268Y-98591040D02*
X95903772Y-98591040D01*
%TO.C,FB2*%
X97123728Y-84766220D02*
X97646232Y-84766220D01*
X97123728Y-83346220D02*
X97646232Y-83346220D01*
%TO.C,FB1*%
X97093248Y-82490380D02*
X97615752Y-82490380D01*
X97093248Y-81070380D02*
X97615752Y-81070380D01*
%TO.C,J2*%
D10*
X103470580Y-76427080D02*
X102994390Y-76427080D01*
X102946771Y-76903271D01*
X102994390Y-76855652D01*
X103089628Y-76808033D01*
X103327723Y-76808033D01*
X103422961Y-76855652D01*
X103470580Y-76903271D01*
X103518200Y-76998509D01*
X103518200Y-77236604D01*
X103470580Y-77331842D01*
X103422961Y-77379461D01*
X103327723Y-77427080D01*
X103089628Y-77427080D01*
X102994390Y-77379461D01*
X102946771Y-77331842D01*
X104137247Y-76427080D02*
X104232485Y-76427080D01*
X104327723Y-76474700D01*
X104375342Y-76522319D01*
X104422961Y-76617557D01*
X104470580Y-76808033D01*
X104470580Y-77046128D01*
X104422961Y-77236604D01*
X104375342Y-77331842D01*
X104327723Y-77379461D01*
X104232485Y-77427080D01*
X104137247Y-77427080D01*
X104042009Y-77379461D01*
X103994390Y-77331842D01*
X103946771Y-77236604D01*
X103899152Y-77046128D01*
X103899152Y-76808033D01*
X103946771Y-76617557D01*
X103994390Y-76522319D01*
X104042009Y-76474700D01*
X104137247Y-76427080D01*
X105375342Y-76427080D02*
X104899152Y-76427080D01*
X104851533Y-76903271D01*
X104899152Y-76855652D01*
X104994390Y-76808033D01*
X105232485Y-76808033D01*
X105327723Y-76855652D01*
X105375342Y-76903271D01*
X105422961Y-76998509D01*
X105422961Y-77236604D01*
X105375342Y-77331842D01*
X105327723Y-77379461D01*
X105232485Y-77427080D01*
X104994390Y-77427080D01*
X104899152Y-77379461D01*
X104851533Y-77331842D01*
X105803914Y-76522319D02*
X105851533Y-76474700D01*
X105946771Y-76427080D01*
X106184866Y-76427080D01*
X106280104Y-76474700D01*
X106327723Y-76522319D01*
X106375342Y-76617557D01*
X106375342Y-76712795D01*
X106327723Y-76855652D01*
X105756295Y-77427080D01*
X106375342Y-77427080D01*
X106708676Y-76427080D02*
X107375342Y-76427080D01*
X106946771Y-77427080D01*
X107899152Y-76855652D02*
X107803914Y-76808033D01*
X107756295Y-76760414D01*
X107708676Y-76665176D01*
X107708676Y-76617557D01*
X107756295Y-76522319D01*
X107803914Y-76474700D01*
X107899152Y-76427080D01*
X108089628Y-76427080D01*
X108184866Y-76474700D01*
X108232485Y-76522319D01*
X108280104Y-76617557D01*
X108280104Y-76665176D01*
X108232485Y-76760414D01*
X108184866Y-76808033D01*
X108089628Y-76855652D01*
X107899152Y-76855652D01*
X107803914Y-76903271D01*
X107756295Y-76950890D01*
X107708676Y-77046128D01*
X107708676Y-77236604D01*
X107756295Y-77331842D01*
X107803914Y-77379461D01*
X107899152Y-77427080D01*
X108089628Y-77427080D01*
X108184866Y-77379461D01*
X108232485Y-77331842D01*
X108280104Y-77236604D01*
X108280104Y-77046128D01*
X108232485Y-76950890D01*
X108184866Y-76903271D01*
X108089628Y-76855652D01*
X109232485Y-77427080D02*
X108661057Y-77427080D01*
X108946771Y-77427080D02*
X108946771Y-76427080D01*
X108851533Y-76569938D01*
X108756295Y-76665176D01*
X108661057Y-76712795D01*
X109851533Y-76427080D02*
X109946771Y-76427080D01*
X110042009Y-76474700D01*
X110089628Y-76522319D01*
X110137247Y-76617557D01*
X110184866Y-76808033D01*
X110184866Y-77046128D01*
X110137247Y-77236604D01*
X110089628Y-77331842D01*
X110042009Y-77379461D01*
X109946771Y-77427080D01*
X109851533Y-77427080D01*
X109756295Y-77379461D01*
X109708676Y-77331842D01*
X109661057Y-77236604D01*
X109613438Y-77046128D01*
X109613438Y-76808033D01*
X109661057Y-76617557D01*
X109708676Y-76522319D01*
X109756295Y-76474700D01*
X109851533Y-76427080D01*
X110518200Y-76427080D02*
X111137247Y-76427080D01*
X110803914Y-76808033D01*
X110946771Y-76808033D01*
X111042009Y-76855652D01*
X111089628Y-76903271D01*
X111137247Y-76998509D01*
X111137247Y-77236604D01*
X111089628Y-77331842D01*
X111042009Y-77379461D01*
X110946771Y-77427080D01*
X110661057Y-77427080D01*
X110565819Y-77379461D01*
X110518200Y-77331842D01*
X111470580Y-76427080D02*
X112089628Y-76427080D01*
X111756295Y-76808033D01*
X111899152Y-76808033D01*
X111994390Y-76855652D01*
X112042009Y-76903271D01*
X112089628Y-76998509D01*
X112089628Y-77236604D01*
X112042009Y-77331842D01*
X111994390Y-77379461D01*
X111899152Y-77427080D01*
X111613438Y-77427080D01*
X111518200Y-77379461D01*
X111470580Y-77331842D01*
%TO.C,JP1*%
D16*
X106132380Y-94978266D02*
X106846666Y-94978266D01*
X106989523Y-95025885D01*
X107084761Y-95121123D01*
X107132380Y-95263980D01*
X107132380Y-95359219D01*
X106465714Y-94073504D02*
X107132380Y-94073504D01*
X106465714Y-94502076D02*
X106989523Y-94502076D01*
X107084761Y-94454457D01*
X107132380Y-94359219D01*
X107132380Y-94216361D01*
X107084761Y-94121123D01*
X107037142Y-94073504D01*
X107132380Y-93597314D02*
X106465714Y-93597314D01*
X106560952Y-93597314D02*
X106513333Y-93549695D01*
X106465714Y-93454457D01*
X106465714Y-93311600D01*
X106513333Y-93216361D01*
X106608571Y-93168742D01*
X107132380Y-93168742D01*
X106608571Y-93168742D02*
X106513333Y-93121123D01*
X106465714Y-93025885D01*
X106465714Y-92883028D01*
X106513333Y-92787790D01*
X106608571Y-92740171D01*
X107132380Y-92740171D01*
X106465714Y-92263980D02*
X107465714Y-92263980D01*
X106513333Y-92263980D02*
X106465714Y-92168742D01*
X106465714Y-91978266D01*
X106513333Y-91883028D01*
X106560952Y-91835409D01*
X106656190Y-91787790D01*
X106941904Y-91787790D01*
X107037142Y-91835409D01*
X107084761Y-91883028D01*
X107132380Y-91978266D01*
X107132380Y-92168742D01*
X107084761Y-92263980D01*
X107084761Y-90978266D02*
X107132380Y-91073504D01*
X107132380Y-91263980D01*
X107084761Y-91359219D01*
X106989523Y-91406838D01*
X106608571Y-91406838D01*
X106513333Y-91359219D01*
X106465714Y-91263980D01*
X106465714Y-91073504D01*
X106513333Y-90978266D01*
X106608571Y-90930647D01*
X106703809Y-90930647D01*
X106799047Y-91406838D01*
X107132380Y-90502076D02*
X106465714Y-90502076D01*
X106656190Y-90502076D02*
X106560952Y-90454457D01*
X106513333Y-90406838D01*
X106465714Y-90311600D01*
X106465714Y-90216361D01*
%TO.C,R1*%
D10*
X110798809Y-86377380D02*
X110322619Y-86377380D01*
X110275000Y-86853571D01*
X110322619Y-86805952D01*
X110417857Y-86758333D01*
X110655952Y-86758333D01*
X110751190Y-86805952D01*
X110798809Y-86853571D01*
X110846428Y-86948809D01*
X110846428Y-87186904D01*
X110798809Y-87282142D01*
X110751190Y-87329761D01*
X110655952Y-87377380D01*
X110417857Y-87377380D01*
X110322619Y-87329761D01*
X110275000Y-87282142D01*
X111275000Y-87282142D02*
X111322619Y-87329761D01*
X111275000Y-87377380D01*
X111227380Y-87329761D01*
X111275000Y-87282142D01*
X111275000Y-87377380D01*
X112275000Y-87377380D02*
X111703571Y-87377380D01*
X111989285Y-87377380D02*
X111989285Y-86377380D01*
X111894047Y-86520238D01*
X111798809Y-86615476D01*
X111703571Y-86663095D01*
X112703571Y-87377380D02*
X112703571Y-86377380D01*
X113275000Y-87377380D02*
X112846428Y-86805952D01*
X113275000Y-86377380D02*
X112703571Y-86948809D01*
%TO.C,C4*%
X96534979Y-75417940D02*
X95963550Y-75417940D01*
X96249264Y-75417940D02*
X96249264Y-74417940D01*
X96154026Y-74560798D01*
X96058788Y-74656036D01*
X95963550Y-74703655D01*
X97392121Y-74751274D02*
X97392121Y-75417940D01*
X96963550Y-74751274D02*
X96963550Y-75275083D01*
X97011169Y-75370321D01*
X97106407Y-75417940D01*
X97249264Y-75417940D01*
X97344502Y-75370321D01*
X97392121Y-75322702D01*
X97725455Y-74751274D02*
X98106407Y-74751274D01*
X97868312Y-75417940D02*
X97868312Y-74560798D01*
X97915931Y-74465560D01*
X98011169Y-74417940D01*
X98106407Y-74417940D01*
%TO.C,C3*%
X100612200Y-83207940D02*
X100612200Y-83779369D01*
X100612200Y-83493655D02*
X99612200Y-83493655D01*
X99755058Y-83588893D01*
X99850296Y-83684131D01*
X99897915Y-83779369D01*
X99945534Y-82350798D02*
X100612200Y-82350798D01*
X99945534Y-82779369D02*
X100469343Y-82779369D01*
X100564581Y-82731750D01*
X100612200Y-82636512D01*
X100612200Y-82493655D01*
X100564581Y-82398417D01*
X100516962Y-82350798D01*
X99945534Y-82017464D02*
X99945534Y-81636512D01*
X100612200Y-81874607D02*
X99755058Y-81874607D01*
X99659820Y-81826988D01*
X99612200Y-81731750D01*
X99612200Y-81636512D01*
%TO.C,C2*%
X111737000Y-84124080D02*
X111832238Y-84124080D01*
X111927476Y-84171700D01*
X111975095Y-84219319D01*
X112022714Y-84314557D01*
X112070333Y-84505033D01*
X112070333Y-84743128D01*
X112022714Y-84933604D01*
X111975095Y-85028842D01*
X111927476Y-85076461D01*
X111832238Y-85124080D01*
X111737000Y-85124080D01*
X111641761Y-85076461D01*
X111594142Y-85028842D01*
X111546523Y-84933604D01*
X111498904Y-84743128D01*
X111498904Y-84505033D01*
X111546523Y-84314557D01*
X111594142Y-84219319D01*
X111641761Y-84171700D01*
X111737000Y-84124080D01*
X112498904Y-85028842D02*
X112546523Y-85076461D01*
X112498904Y-85124080D01*
X112451285Y-85076461D01*
X112498904Y-85028842D01*
X112498904Y-85124080D01*
X113498904Y-85124080D02*
X112927476Y-85124080D01*
X113213190Y-85124080D02*
X113213190Y-84124080D01*
X113117952Y-84266938D01*
X113022714Y-84362176D01*
X112927476Y-84409795D01*
X114356047Y-84457414D02*
X114356047Y-85124080D01*
X113927476Y-84457414D02*
X113927476Y-84981223D01*
X113975095Y-85076461D01*
X114070333Y-85124080D01*
X114213190Y-85124080D01*
X114308428Y-85076461D01*
X114356047Y-85028842D01*
X114689380Y-84457414D02*
X115070333Y-84457414D01*
X114832238Y-85124080D02*
X114832238Y-84266938D01*
X114879857Y-84171700D01*
X114975095Y-84124080D01*
X115070333Y-84124080D01*
%TO.C,C1*%
X94921048Y-96347540D02*
X94349620Y-96347540D01*
X94635334Y-96347540D02*
X94635334Y-95347540D01*
X94540096Y-95490398D01*
X94444858Y-95585636D01*
X94349620Y-95633255D01*
X95540096Y-95347540D02*
X95635334Y-95347540D01*
X95730572Y-95395160D01*
X95778191Y-95442779D01*
X95825810Y-95538017D01*
X95873429Y-95728493D01*
X95873429Y-95966588D01*
X95825810Y-96157064D01*
X95778191Y-96252302D01*
X95730572Y-96299921D01*
X95635334Y-96347540D01*
X95540096Y-96347540D01*
X95444858Y-96299921D01*
X95397239Y-96252302D01*
X95349620Y-96157064D01*
X95302000Y-95966588D01*
X95302000Y-95728493D01*
X95349620Y-95538017D01*
X95397239Y-95442779D01*
X95444858Y-95395160D01*
X95540096Y-95347540D01*
X96730572Y-95680874D02*
X96730572Y-96347540D01*
X96302000Y-95680874D02*
X96302000Y-96204683D01*
X96349620Y-96299921D01*
X96444858Y-96347540D01*
X96587715Y-96347540D01*
X96682953Y-96299921D01*
X96730572Y-96252302D01*
X97063905Y-95680874D02*
X97444858Y-95680874D01*
X97206762Y-96347540D02*
X97206762Y-95490398D01*
X97254381Y-95395160D01*
X97349620Y-95347540D01*
X97444858Y-95347540D01*
%TO.C,FB2*%
X97027837Y-85634791D02*
X96694503Y-85634791D01*
X96694503Y-86158600D02*
X96694503Y-85158600D01*
X97170694Y-85158600D01*
X97884980Y-85634791D02*
X98027837Y-85682410D01*
X98075456Y-85730029D01*
X98123075Y-85825267D01*
X98123075Y-85968124D01*
X98075456Y-86063362D01*
X98027837Y-86110981D01*
X97932599Y-86158600D01*
X97551646Y-86158600D01*
X97551646Y-85158600D01*
X97884980Y-85158600D01*
X97980218Y-85206220D01*
X98027837Y-85253839D01*
X98075456Y-85349077D01*
X98075456Y-85444315D01*
X98027837Y-85539553D01*
X97980218Y-85587172D01*
X97884980Y-85634791D01*
X97551646Y-85634791D01*
%TO.C,FB1*%
X96977357Y-80072451D02*
X96644023Y-80072451D01*
X96644023Y-80596260D02*
X96644023Y-79596260D01*
X97120214Y-79596260D01*
X97834500Y-80072451D02*
X97977357Y-80120070D01*
X98024976Y-80167689D01*
X98072595Y-80262927D01*
X98072595Y-80405784D01*
X98024976Y-80501022D01*
X97977357Y-80548641D01*
X97882119Y-80596260D01*
X97501166Y-80596260D01*
X97501166Y-79596260D01*
X97834500Y-79596260D01*
X97929738Y-79643880D01*
X97977357Y-79691499D01*
X98024976Y-79786737D01*
X98024976Y-79881975D01*
X97977357Y-79977213D01*
X97929738Y-80024832D01*
X97834500Y-80072451D01*
X97501166Y-80072451D01*
%TD*%
%LPC*%
D13*
G36*
X105351580Y-93027500D02*
G01*
X104749600Y-93027500D01*
X104749600Y-92722700D01*
X105351580Y-92722700D01*
X105351580Y-93027500D01*
G37*
X105351580Y-93027500D02*
X104749600Y-93027500D01*
X104749600Y-92722700D01*
X105351580Y-92722700D01*
X105351580Y-93027500D01*
%TO.C,J2*%
G36*
G01*
X102035700Y-74755800D02*
X104035700Y-74755800D01*
G75*
G02*
X104085700Y-74805800I0J-50000D01*
G01*
X104085700Y-76105800D01*
G75*
G02*
X104035700Y-76155800I-50000J0D01*
G01*
X102035700Y-76155800D01*
G75*
G02*
X101985700Y-76105800I0J50000D01*
G01*
X101985700Y-74805800D01*
G75*
G02*
X102035700Y-74755800I50000J0D01*
G01*
G37*
G36*
G01*
X111135700Y-74755800D02*
X113135700Y-74755800D01*
G75*
G02*
X113185700Y-74805800I0J-50000D01*
G01*
X113185700Y-76105800D01*
G75*
G02*
X113135700Y-76155800I-50000J0D01*
G01*
X111135700Y-76155800D01*
G75*
G02*
X111085700Y-76105800I0J50000D01*
G01*
X111085700Y-74805800D01*
G75*
G02*
X111135700Y-74755800I50000J0D01*
G01*
G37*
G36*
G01*
X105535700Y-77655800D02*
X105535700Y-78655800D01*
G75*
G02*
X105485700Y-78705800I-50000J0D01*
G01*
X105185700Y-78705800D01*
G75*
G02*
X105135700Y-78655800I0J50000D01*
G01*
X105135700Y-77655800D01*
G75*
G02*
X105185700Y-77605800I50000J0D01*
G01*
X105485700Y-77605800D01*
G75*
G02*
X105535700Y-77655800I0J-50000D01*
G01*
G37*
G36*
G01*
X106035700Y-77655800D02*
X106035700Y-78655800D01*
G75*
G02*
X105985700Y-78705800I-50000J0D01*
G01*
X105685700Y-78705800D01*
G75*
G02*
X105635700Y-78655800I0J50000D01*
G01*
X105635700Y-77655800D01*
G75*
G02*
X105685700Y-77605800I50000J0D01*
G01*
X105985700Y-77605800D01*
G75*
G02*
X106035700Y-77655800I0J-50000D01*
G01*
G37*
G36*
G01*
X106535700Y-77655800D02*
X106535700Y-78655800D01*
G75*
G02*
X106485700Y-78705800I-50000J0D01*
G01*
X106185700Y-78705800D01*
G75*
G02*
X106135700Y-78655800I0J50000D01*
G01*
X106135700Y-77655800D01*
G75*
G02*
X106185700Y-77605800I50000J0D01*
G01*
X106485700Y-77605800D01*
G75*
G02*
X106535700Y-77655800I0J-50000D01*
G01*
G37*
G36*
G01*
X107035700Y-77655800D02*
X107035700Y-78655800D01*
G75*
G02*
X106985700Y-78705800I-50000J0D01*
G01*
X106685700Y-78705800D01*
G75*
G02*
X106635700Y-78655800I0J50000D01*
G01*
X106635700Y-77655800D01*
G75*
G02*
X106685700Y-77605800I50000J0D01*
G01*
X106985700Y-77605800D01*
G75*
G02*
X107035700Y-77655800I0J-50000D01*
G01*
G37*
G36*
G01*
X107535700Y-77655800D02*
X107535700Y-78655800D01*
G75*
G02*
X107485700Y-78705800I-50000J0D01*
G01*
X107185700Y-78705800D01*
G75*
G02*
X107135700Y-78655800I0J50000D01*
G01*
X107135700Y-77655800D01*
G75*
G02*
X107185700Y-77605800I50000J0D01*
G01*
X107485700Y-77605800D01*
G75*
G02*
X107535700Y-77655800I0J-50000D01*
G01*
G37*
G36*
G01*
X108035700Y-77655800D02*
X108035700Y-78655800D01*
G75*
G02*
X107985700Y-78705800I-50000J0D01*
G01*
X107685700Y-78705800D01*
G75*
G02*
X107635700Y-78655800I0J50000D01*
G01*
X107635700Y-77655800D01*
G75*
G02*
X107685700Y-77605800I50000J0D01*
G01*
X107985700Y-77605800D01*
G75*
G02*
X108035700Y-77655800I0J-50000D01*
G01*
G37*
G36*
G01*
X108535700Y-77655800D02*
X108535700Y-78655800D01*
G75*
G02*
X108485700Y-78705800I-50000J0D01*
G01*
X108185700Y-78705800D01*
G75*
G02*
X108135700Y-78655800I0J50000D01*
G01*
X108135700Y-77655800D01*
G75*
G02*
X108185700Y-77605800I50000J0D01*
G01*
X108485700Y-77605800D01*
G75*
G02*
X108535700Y-77655800I0J-50000D01*
G01*
G37*
G36*
G01*
X109035700Y-77655800D02*
X109035700Y-78655800D01*
G75*
G02*
X108985700Y-78705800I-50000J0D01*
G01*
X108685700Y-78705800D01*
G75*
G02*
X108635700Y-78655800I0J50000D01*
G01*
X108635700Y-77655800D01*
G75*
G02*
X108685700Y-77605800I50000J0D01*
G01*
X108985700Y-77605800D01*
G75*
G02*
X109035700Y-77655800I0J-50000D01*
G01*
G37*
G36*
G01*
X109535700Y-77655800D02*
X109535700Y-78655800D01*
G75*
G02*
X109485700Y-78705800I-50000J0D01*
G01*
X109185700Y-78705800D01*
G75*
G02*
X109135700Y-78655800I0J50000D01*
G01*
X109135700Y-77655800D01*
G75*
G02*
X109185700Y-77605800I50000J0D01*
G01*
X109485700Y-77605800D01*
G75*
G02*
X109535700Y-77655800I0J-50000D01*
G01*
G37*
G36*
G01*
X110035700Y-77655800D02*
X110035700Y-78655800D01*
G75*
G02*
X109985700Y-78705800I-50000J0D01*
G01*
X109685700Y-78705800D01*
G75*
G02*
X109635700Y-78655800I0J50000D01*
G01*
X109635700Y-77655800D01*
G75*
G02*
X109685700Y-77605800I50000J0D01*
G01*
X109985700Y-77605800D01*
G75*
G02*
X110035700Y-77655800I0J-50000D01*
G01*
G37*
%TD*%
D17*
%TO.C,J1*%
X117749100Y-103856100D03*
X115209100Y-103856100D03*
X112669100Y-103856100D03*
X110129100Y-103856100D03*
X107589100Y-103856100D03*
X105049100Y-103856100D03*
G36*
G01*
X103359100Y-104756100D02*
X101659100Y-104756100D01*
G75*
G02*
X101609100Y-104706100I0J50000D01*
G01*
X101609100Y-103006100D01*
G75*
G02*
X101659100Y-102956100I50000J0D01*
G01*
X103359100Y-102956100D01*
G75*
G02*
X103409100Y-103006100I0J-50000D01*
G01*
X103409100Y-104706100D01*
G75*
G02*
X103359100Y-104756100I-50000J0D01*
G01*
G37*
D18*
X99969100Y-103856100D03*
%TD*%
%TO.C,JP1*%
G36*
G01*
X105800000Y-92775000D02*
X104300000Y-92775000D01*
G75*
G02*
X104250000Y-92725000I0J50000D01*
G01*
X104250000Y-91725000D01*
G75*
G02*
X104300000Y-91675000I50000J0D01*
G01*
X105800000Y-91675000D01*
G75*
G02*
X105850000Y-91725000I0J-50000D01*
G01*
X105850000Y-92725000D01*
G75*
G02*
X105800000Y-92775000I-50000J0D01*
G01*
G37*
G36*
G01*
X105800000Y-94075000D02*
X104300000Y-94075000D01*
G75*
G02*
X104250000Y-94025000I0J50000D01*
G01*
X104250000Y-93025000D01*
G75*
G02*
X104300000Y-92975000I50000J0D01*
G01*
X105800000Y-92975000D01*
G75*
G02*
X105850000Y-93025000I0J-50000D01*
G01*
X105850000Y-94025000D01*
G75*
G02*
X105800000Y-94075000I-50000J0D01*
G01*
G37*
%TD*%
%TO.C,R1*%
G36*
G01*
X108750000Y-87354168D02*
X108750000Y-86395832D01*
G75*
G02*
X109020832Y-86125000I270832J0D01*
G01*
X109779168Y-86125000D01*
G75*
G02*
X110050000Y-86395832I0J-270832D01*
G01*
X110050000Y-87354168D01*
G75*
G02*
X109779168Y-87625000I-270832J0D01*
G01*
X109020832Y-87625000D01*
G75*
G02*
X108750000Y-87354168I0J270832D01*
G01*
G37*
G36*
G01*
X106750000Y-87354168D02*
X106750000Y-86395832D01*
G75*
G02*
X107020832Y-86125000I270832J0D01*
G01*
X107779168Y-86125000D01*
G75*
G02*
X108050000Y-86395832I0J-270832D01*
G01*
X108050000Y-87354168D01*
G75*
G02*
X107779168Y-87625000I-270832J0D01*
G01*
X107020832Y-87625000D01*
G75*
G02*
X106750000Y-87354168I0J270832D01*
G01*
G37*
%TD*%
%TO.C,C4*%
G36*
G01*
X97574140Y-77130444D02*
X97574140Y-76122996D01*
G75*
G02*
X97845416Y-75851720I271276J0D01*
G01*
X98577864Y-75851720D01*
G75*
G02*
X98849140Y-76122996I0J-271276D01*
G01*
X98849140Y-77130444D01*
G75*
G02*
X98577864Y-77401720I-271276J0D01*
G01*
X97845416Y-77401720D01*
G75*
G02*
X97574140Y-77130444I0J271276D01*
G01*
G37*
G36*
G01*
X95499140Y-77130444D02*
X95499140Y-76122996D01*
G75*
G02*
X95770416Y-75851720I271276J0D01*
G01*
X96502864Y-75851720D01*
G75*
G02*
X96774140Y-76122996I0J-271276D01*
G01*
X96774140Y-77130444D01*
G75*
G02*
X96502864Y-77401720I-271276J0D01*
G01*
X95770416Y-77401720D01*
G75*
G02*
X95499140Y-77130444I0J271276D01*
G01*
G37*
%TD*%
%TO.C,C3*%
G36*
G01*
X101230896Y-83426160D02*
X102238344Y-83426160D01*
G75*
G02*
X102509620Y-83697436I0J-271276D01*
G01*
X102509620Y-84429884D01*
G75*
G02*
X102238344Y-84701160I-271276J0D01*
G01*
X101230896Y-84701160D01*
G75*
G02*
X100959620Y-84429884I0J271276D01*
G01*
X100959620Y-83697436D01*
G75*
G02*
X101230896Y-83426160I271276J0D01*
G01*
G37*
G36*
G01*
X101230896Y-81351160D02*
X102238344Y-81351160D01*
G75*
G02*
X102509620Y-81622436I0J-271276D01*
G01*
X102509620Y-82354884D01*
G75*
G02*
X102238344Y-82626160I-271276J0D01*
G01*
X101230896Y-82626160D01*
G75*
G02*
X100959620Y-82354884I0J271276D01*
G01*
X100959620Y-81622436D01*
G75*
G02*
X101230896Y-81351160I271276J0D01*
G01*
G37*
%TD*%
%TO.C,C2*%
G36*
G01*
X109662000Y-85225424D02*
X109662000Y-84217976D01*
G75*
G02*
X109933276Y-83946700I271276J0D01*
G01*
X110665724Y-83946700D01*
G75*
G02*
X110937000Y-84217976I0J-271276D01*
G01*
X110937000Y-85225424D01*
G75*
G02*
X110665724Y-85496700I-271276J0D01*
G01*
X109933276Y-85496700D01*
G75*
G02*
X109662000Y-85225424I0J271276D01*
G01*
G37*
G36*
G01*
X107587000Y-85225424D02*
X107587000Y-84217976D01*
G75*
G02*
X107858276Y-83946700I271276J0D01*
G01*
X108590724Y-83946700D01*
G75*
G02*
X108862000Y-84217976I0J-271276D01*
G01*
X108862000Y-85225424D01*
G75*
G02*
X108590724Y-85496700I-271276J0D01*
G01*
X107858276Y-85496700D01*
G75*
G02*
X107587000Y-85225424I0J271276D01*
G01*
G37*
%TD*%
%TO.C,C1*%
G36*
G01*
X96042520Y-98359764D02*
X96042520Y-97352316D01*
G75*
G02*
X96313796Y-97081040I271276J0D01*
G01*
X97046244Y-97081040D01*
G75*
G02*
X97317520Y-97352316I0J-271276D01*
G01*
X97317520Y-98359764D01*
G75*
G02*
X97046244Y-98631040I-271276J0D01*
G01*
X96313796Y-98631040D01*
G75*
G02*
X96042520Y-98359764I0J271276D01*
G01*
G37*
G36*
G01*
X93967520Y-98359764D02*
X93967520Y-97352316D01*
G75*
G02*
X94238796Y-97081040I271276J0D01*
G01*
X94971244Y-97081040D01*
G75*
G02*
X95242520Y-97352316I0J-271276D01*
G01*
X95242520Y-98359764D01*
G75*
G02*
X94971244Y-98631040I-271276J0D01*
G01*
X94238796Y-98631040D01*
G75*
G02*
X93967520Y-98359764I0J271276D01*
G01*
G37*
%TD*%
%TO.C,FB2*%
G36*
G01*
X97784980Y-84534482D02*
X97784980Y-83577958D01*
G75*
G02*
X98056718Y-83306220I271738J0D01*
G01*
X98763242Y-83306220D01*
G75*
G02*
X99034980Y-83577958I0J-271738D01*
G01*
X99034980Y-84534482D01*
G75*
G02*
X98763242Y-84806220I-271738J0D01*
G01*
X98056718Y-84806220D01*
G75*
G02*
X97784980Y-84534482I0J271738D01*
G01*
G37*
G36*
G01*
X95734980Y-84534482D02*
X95734980Y-83577958D01*
G75*
G02*
X96006718Y-83306220I271738J0D01*
G01*
X96713242Y-83306220D01*
G75*
G02*
X96984980Y-83577958I0J-271738D01*
G01*
X96984980Y-84534482D01*
G75*
G02*
X96713242Y-84806220I-271738J0D01*
G01*
X96006718Y-84806220D01*
G75*
G02*
X95734980Y-84534482I0J271738D01*
G01*
G37*
%TD*%
%TO.C,FB1*%
G36*
G01*
X97754500Y-82258642D02*
X97754500Y-81302118D01*
G75*
G02*
X98026238Y-81030380I271738J0D01*
G01*
X98732762Y-81030380D01*
G75*
G02*
X99004500Y-81302118I0J-271738D01*
G01*
X99004500Y-82258642D01*
G75*
G02*
X98732762Y-82530380I-271738J0D01*
G01*
X98026238Y-82530380D01*
G75*
G02*
X97754500Y-82258642I0J271738D01*
G01*
G37*
G36*
G01*
X95704500Y-82258642D02*
X95704500Y-81302118D01*
G75*
G02*
X95976238Y-81030380I271738J0D01*
G01*
X96682762Y-81030380D01*
G75*
G02*
X96954500Y-81302118I0J-271738D01*
G01*
X96954500Y-82258642D01*
G75*
G02*
X96682762Y-82530380I-271738J0D01*
G01*
X95976238Y-82530380D01*
G75*
G02*
X95704500Y-82258642I0J271738D01*
G01*
G37*
%TD*%
D19*
%TO.C,M3*%
X124589100Y-103396100D03*
%TD*%
%TO.C,M3*%
X90589100Y-103396100D03*
%TD*%
%TO.C,M3*%
X90589100Y-70396100D03*
%TD*%
%TO.C,M3*%
X124589100Y-70396100D03*
%TD*%
M02*
