G04 #@! TF.GenerationSoftware,KiCad,Pcbnew,(5.1.10)-1*
G04 #@! TF.CreationDate,2021-09-21T10:03:01-04:00*
G04 #@! TF.ProjectId,SharpDisplayPcb,53686172-7044-4697-9370-6c6179506362,rev?*
G04 #@! TF.SameCoordinates,Original*
G04 #@! TF.FileFunction,Soldermask,Top*
G04 #@! TF.FilePolarity,Negative*
%FSLAX46Y46*%
G04 Gerber Fmt 4.6, Leading zero omitted, Abs format (unit mm)*
G04 Created by KiCad (PCBNEW (5.1.10)-1) date 2021-09-21 10:03:01*
%MOMM*%
%LPD*%
G01*
G04 APERTURE LIST*
%ADD10C,0.100000*%
%ADD11O,1.700000X1.700000*%
%ADD12R,1.700000X1.700000*%
%ADD13C,1.700000*%
%ADD14R,1.500000X1.000000*%
%ADD15C,4.000000*%
G04 APERTURE END LIST*
D10*
G36*
X105351580Y-93027500D02*
G01*
X104749600Y-93027500D01*
X104749600Y-92722700D01*
X105351580Y-92722700D01*
X105351580Y-93027500D01*
G37*
X105351580Y-93027500D02*
X104749600Y-93027500D01*
X104749600Y-92722700D01*
X105351580Y-92722700D01*
X105351580Y-93027500D01*
G04 #@! TO.C,IC1*
G36*
G01*
X103562980Y-73722920D02*
X103562980Y-75922920D01*
G75*
G02*
X103486780Y-75999120I-76200J0D01*
G01*
X101886780Y-75999120D01*
G75*
G02*
X101810580Y-75922920I0J76200D01*
G01*
X101810580Y-73722920D01*
G75*
G02*
X101886780Y-73646720I76200J0D01*
G01*
X103486780Y-73646720D01*
G75*
G02*
X103562980Y-73722920I0J-76200D01*
G01*
G37*
G36*
G01*
X113362980Y-73722920D02*
X113362980Y-75922920D01*
G75*
G02*
X113286780Y-75999120I-76200J0D01*
G01*
X111686780Y-75999120D01*
G75*
G02*
X111610580Y-75922920I0J76200D01*
G01*
X111610580Y-73722920D01*
G75*
G02*
X111686780Y-73646720I76200J0D01*
G01*
X113286780Y-73646720D01*
G75*
G02*
X113362980Y-73722920I0J-76200D01*
G01*
G37*
G36*
G01*
X105537980Y-77272920D02*
X105537980Y-78672920D01*
G75*
G02*
X105461780Y-78749120I-76200J0D01*
G01*
X105211780Y-78749120D01*
G75*
G02*
X105135580Y-78672920I0J76200D01*
G01*
X105135580Y-77272920D01*
G75*
G02*
X105211780Y-77196720I76200J0D01*
G01*
X105461780Y-77196720D01*
G75*
G02*
X105537980Y-77272920I0J-76200D01*
G01*
G37*
G36*
G01*
X106037980Y-77272920D02*
X106037980Y-78672920D01*
G75*
G02*
X105961780Y-78749120I-76200J0D01*
G01*
X105711780Y-78749120D01*
G75*
G02*
X105635580Y-78672920I0J76200D01*
G01*
X105635580Y-77272920D01*
G75*
G02*
X105711780Y-77196720I76200J0D01*
G01*
X105961780Y-77196720D01*
G75*
G02*
X106037980Y-77272920I0J-76200D01*
G01*
G37*
G36*
G01*
X106537980Y-77272920D02*
X106537980Y-78672920D01*
G75*
G02*
X106461780Y-78749120I-76200J0D01*
G01*
X106211780Y-78749120D01*
G75*
G02*
X106135580Y-78672920I0J76200D01*
G01*
X106135580Y-77272920D01*
G75*
G02*
X106211780Y-77196720I76200J0D01*
G01*
X106461780Y-77196720D01*
G75*
G02*
X106537980Y-77272920I0J-76200D01*
G01*
G37*
G36*
G01*
X107037980Y-77272920D02*
X107037980Y-78672920D01*
G75*
G02*
X106961780Y-78749120I-76200J0D01*
G01*
X106711780Y-78749120D01*
G75*
G02*
X106635580Y-78672920I0J76200D01*
G01*
X106635580Y-77272920D01*
G75*
G02*
X106711780Y-77196720I76200J0D01*
G01*
X106961780Y-77196720D01*
G75*
G02*
X107037980Y-77272920I0J-76200D01*
G01*
G37*
G36*
G01*
X107537980Y-77272920D02*
X107537980Y-78672920D01*
G75*
G02*
X107461780Y-78749120I-76200J0D01*
G01*
X107211780Y-78749120D01*
G75*
G02*
X107135580Y-78672920I0J76200D01*
G01*
X107135580Y-77272920D01*
G75*
G02*
X107211780Y-77196720I76200J0D01*
G01*
X107461780Y-77196720D01*
G75*
G02*
X107537980Y-77272920I0J-76200D01*
G01*
G37*
G36*
G01*
X108037980Y-77272920D02*
X108037980Y-78672920D01*
G75*
G02*
X107961780Y-78749120I-76200J0D01*
G01*
X107711780Y-78749120D01*
G75*
G02*
X107635580Y-78672920I0J76200D01*
G01*
X107635580Y-77272920D01*
G75*
G02*
X107711780Y-77196720I76200J0D01*
G01*
X107961780Y-77196720D01*
G75*
G02*
X108037980Y-77272920I0J-76200D01*
G01*
G37*
G36*
G01*
X108537980Y-77272920D02*
X108537980Y-78672920D01*
G75*
G02*
X108461780Y-78749120I-76200J0D01*
G01*
X108211780Y-78749120D01*
G75*
G02*
X108135580Y-78672920I0J76200D01*
G01*
X108135580Y-77272920D01*
G75*
G02*
X108211780Y-77196720I76200J0D01*
G01*
X108461780Y-77196720D01*
G75*
G02*
X108537980Y-77272920I0J-76200D01*
G01*
G37*
G36*
G01*
X109037980Y-77272920D02*
X109037980Y-78672920D01*
G75*
G02*
X108961780Y-78749120I-76200J0D01*
G01*
X108711780Y-78749120D01*
G75*
G02*
X108635580Y-78672920I0J76200D01*
G01*
X108635580Y-77272920D01*
G75*
G02*
X108711780Y-77196720I76200J0D01*
G01*
X108961780Y-77196720D01*
G75*
G02*
X109037980Y-77272920I0J-76200D01*
G01*
G37*
G36*
G01*
X109537980Y-77272920D02*
X109537980Y-78672920D01*
G75*
G02*
X109461780Y-78749120I-76200J0D01*
G01*
X109211780Y-78749120D01*
G75*
G02*
X109135580Y-78672920I0J76200D01*
G01*
X109135580Y-77272920D01*
G75*
G02*
X109211780Y-77196720I76200J0D01*
G01*
X109461780Y-77196720D01*
G75*
G02*
X109537980Y-77272920I0J-76200D01*
G01*
G37*
G36*
G01*
X110037980Y-77272920D02*
X110037980Y-78672920D01*
G75*
G02*
X109961780Y-78749120I-76200J0D01*
G01*
X109711780Y-78749120D01*
G75*
G02*
X109635580Y-78672920I0J76200D01*
G01*
X109635580Y-77272920D01*
G75*
G02*
X109711780Y-77196720I76200J0D01*
G01*
X109961780Y-77196720D01*
G75*
G02*
X110037980Y-77272920I0J-76200D01*
G01*
G37*
G04 #@! TD*
D11*
G04 #@! TO.C,J1*
X117749100Y-103856100D03*
X115209100Y-103856100D03*
X112669100Y-103856100D03*
X110129100Y-103856100D03*
X107589100Y-103856100D03*
X105049100Y-103856100D03*
D12*
X102509100Y-103856100D03*
D13*
X99969100Y-103856100D03*
G04 #@! TD*
D14*
G04 #@! TO.C,JP1*
X105050000Y-92225000D03*
X105050000Y-93525000D03*
G04 #@! TD*
G04 #@! TO.C,R1*
G36*
G01*
X108800000Y-87325001D02*
X108800000Y-86424999D01*
G75*
G02*
X109049999Y-86175000I249999J0D01*
G01*
X109750001Y-86175000D01*
G75*
G02*
X110000000Y-86424999I0J-249999D01*
G01*
X110000000Y-87325001D01*
G75*
G02*
X109750001Y-87575000I-249999J0D01*
G01*
X109049999Y-87575000D01*
G75*
G02*
X108800000Y-87325001I0J249999D01*
G01*
G37*
G36*
G01*
X106800000Y-87325001D02*
X106800000Y-86424999D01*
G75*
G02*
X107049999Y-86175000I249999J0D01*
G01*
X107750001Y-86175000D01*
G75*
G02*
X108000000Y-86424999I0J-249999D01*
G01*
X108000000Y-87325001D01*
G75*
G02*
X107750001Y-87575000I-249999J0D01*
G01*
X107049999Y-87575000D01*
G75*
G02*
X106800000Y-87325001I0J249999D01*
G01*
G37*
G04 #@! TD*
G04 #@! TO.C,C4*
G36*
G01*
X98850000Y-75975000D02*
X98850000Y-76925000D01*
G75*
G02*
X98600000Y-77175000I-250000J0D01*
G01*
X97925000Y-77175000D01*
G75*
G02*
X97675000Y-76925000I0J250000D01*
G01*
X97675000Y-75975000D01*
G75*
G02*
X97925000Y-75725000I250000J0D01*
G01*
X98600000Y-75725000D01*
G75*
G02*
X98850000Y-75975000I0J-250000D01*
G01*
G37*
G36*
G01*
X100925000Y-75975000D02*
X100925000Y-76925000D01*
G75*
G02*
X100675000Y-77175000I-250000J0D01*
G01*
X100000000Y-77175000D01*
G75*
G02*
X99750000Y-76925000I0J250000D01*
G01*
X99750000Y-75975000D01*
G75*
G02*
X100000000Y-75725000I250000J0D01*
G01*
X100675000Y-75725000D01*
G75*
G02*
X100925000Y-75975000I0J-250000D01*
G01*
G37*
G04 #@! TD*
G04 #@! TO.C,C3*
G36*
G01*
X106378500Y-82024200D02*
X106378500Y-82974200D01*
G75*
G02*
X106128500Y-83224200I-250000J0D01*
G01*
X105453500Y-83224200D01*
G75*
G02*
X105203500Y-82974200I0J250000D01*
G01*
X105203500Y-82024200D01*
G75*
G02*
X105453500Y-81774200I250000J0D01*
G01*
X106128500Y-81774200D01*
G75*
G02*
X106378500Y-82024200I0J-250000D01*
G01*
G37*
G36*
G01*
X108453500Y-82024200D02*
X108453500Y-82974200D01*
G75*
G02*
X108203500Y-83224200I-250000J0D01*
G01*
X107528500Y-83224200D01*
G75*
G02*
X107278500Y-82974200I0J250000D01*
G01*
X107278500Y-82024200D01*
G75*
G02*
X107528500Y-81774200I250000J0D01*
G01*
X108203500Y-81774200D01*
G75*
G02*
X108453500Y-82024200I0J-250000D01*
G01*
G37*
G04 #@! TD*
G04 #@! TO.C,C2*
G36*
G01*
X109712000Y-85196700D02*
X109712000Y-84246700D01*
G75*
G02*
X109962000Y-83996700I250000J0D01*
G01*
X110637000Y-83996700D01*
G75*
G02*
X110887000Y-84246700I0J-250000D01*
G01*
X110887000Y-85196700D01*
G75*
G02*
X110637000Y-85446700I-250000J0D01*
G01*
X109962000Y-85446700D01*
G75*
G02*
X109712000Y-85196700I0J250000D01*
G01*
G37*
G36*
G01*
X107637000Y-85196700D02*
X107637000Y-84246700D01*
G75*
G02*
X107887000Y-83996700I250000J0D01*
G01*
X108562000Y-83996700D01*
G75*
G02*
X108812000Y-84246700I0J-250000D01*
G01*
X108812000Y-85196700D01*
G75*
G02*
X108562000Y-85446700I-250000J0D01*
G01*
X107887000Y-85446700D01*
G75*
G02*
X107637000Y-85196700I0J250000D01*
G01*
G37*
G04 #@! TD*
G04 #@! TO.C,C1*
G36*
G01*
X94618300Y-98950760D02*
X94618300Y-99900760D01*
G75*
G02*
X94368300Y-100150760I-250000J0D01*
G01*
X93693300Y-100150760D01*
G75*
G02*
X93443300Y-99900760I0J250000D01*
G01*
X93443300Y-98950760D01*
G75*
G02*
X93693300Y-98700760I250000J0D01*
G01*
X94368300Y-98700760D01*
G75*
G02*
X94618300Y-98950760I0J-250000D01*
G01*
G37*
G36*
G01*
X96693300Y-98950760D02*
X96693300Y-99900760D01*
G75*
G02*
X96443300Y-100150760I-250000J0D01*
G01*
X95768300Y-100150760D01*
G75*
G02*
X95518300Y-99900760I0J250000D01*
G01*
X95518300Y-98950760D01*
G75*
G02*
X95768300Y-98700760I250000J0D01*
G01*
X96443300Y-98700760D01*
G75*
G02*
X96693300Y-98950760I0J-250000D01*
G01*
G37*
G04 #@! TD*
G04 #@! TO.C,FB2*
G36*
G01*
X103367100Y-85082801D02*
X103367100Y-84182799D01*
G75*
G02*
X103617099Y-83932800I249999J0D01*
G01*
X104267101Y-83932800D01*
G75*
G02*
X104517100Y-84182799I0J-249999D01*
G01*
X104517100Y-85082801D01*
G75*
G02*
X104267101Y-85332800I-249999J0D01*
G01*
X103617099Y-85332800D01*
G75*
G02*
X103367100Y-85082801I0J249999D01*
G01*
G37*
G36*
G01*
X101317100Y-85082801D02*
X101317100Y-84182799D01*
G75*
G02*
X101567099Y-83932800I249999J0D01*
G01*
X102217101Y-83932800D01*
G75*
G02*
X102467100Y-84182799I0J-249999D01*
G01*
X102467100Y-85082801D01*
G75*
G02*
X102217101Y-85332800I-249999J0D01*
G01*
X101567099Y-85332800D01*
G75*
G02*
X101317100Y-85082801I0J249999D01*
G01*
G37*
G04 #@! TD*
G04 #@! TO.C,FB1*
G36*
G01*
X103320000Y-82936501D02*
X103320000Y-82036499D01*
G75*
G02*
X103569999Y-81786500I249999J0D01*
G01*
X104220001Y-81786500D01*
G75*
G02*
X104470000Y-82036499I0J-249999D01*
G01*
X104470000Y-82936501D01*
G75*
G02*
X104220001Y-83186500I-249999J0D01*
G01*
X103569999Y-83186500D01*
G75*
G02*
X103320000Y-82936501I0J249999D01*
G01*
G37*
G36*
G01*
X101270000Y-82936501D02*
X101270000Y-82036499D01*
G75*
G02*
X101519999Y-81786500I249999J0D01*
G01*
X102170001Y-81786500D01*
G75*
G02*
X102420000Y-82036499I0J-249999D01*
G01*
X102420000Y-82936501D01*
G75*
G02*
X102170001Y-83186500I-249999J0D01*
G01*
X101519999Y-83186500D01*
G75*
G02*
X101270000Y-82936501I0J249999D01*
G01*
G37*
G04 #@! TD*
D15*
G04 #@! TO.C,M3*
X124589100Y-103396100D03*
G04 #@! TD*
G04 #@! TO.C,M3*
X90589100Y-103396100D03*
G04 #@! TD*
G04 #@! TO.C,M3*
X90589100Y-70396100D03*
G04 #@! TD*
G04 #@! TO.C,M3*
X124589100Y-70396100D03*
G04 #@! TD*
M02*
