G04 #@! TF.GenerationSoftware,KiCad,Pcbnew,(5.1.10)-1*
G04 #@! TF.CreationDate,2021-09-08T01:48:55-04:00*
G04 #@! TF.ProjectId,SharpDisplayPcb,53686172-7044-4697-9370-6c6179506362,rev?*
G04 #@! TF.SameCoordinates,Original*
G04 #@! TF.FileFunction,Legend,Top*
G04 #@! TF.FilePolarity,Positive*
%FSLAX46Y46*%
G04 Gerber Fmt 4.6, Leading zero omitted, Abs format (unit mm)*
G04 Created by KiCad (PCBNEW (5.1.10)-1) date 2021-09-08 01:48:55*
%MOMM*%
%LPD*%
G01*
G04 APERTURE LIST*
%ADD10C,0.150000*%
%ADD11C,0.300000*%
%ADD12C,0.127000*%
%ADD13C,0.010000*%
%ADD14C,0.120000*%
%ADD15C,0.200000*%
%ADD16C,0.100000*%
G04 APERTURE END LIST*
D10*
X93908571Y-85612809D02*
X93956190Y-85469952D01*
X94003809Y-85422333D01*
X94099047Y-85374714D01*
X94241904Y-85374714D01*
X94337142Y-85422333D01*
X94384761Y-85469952D01*
X94432380Y-85565190D01*
X94432380Y-85946142D01*
X93432380Y-85946142D01*
X93432380Y-85612809D01*
X93480000Y-85517571D01*
X93527619Y-85469952D01*
X93622857Y-85422333D01*
X93718095Y-85422333D01*
X93813333Y-85469952D01*
X93860952Y-85517571D01*
X93908571Y-85612809D01*
X93908571Y-85946142D01*
X94432380Y-84517571D02*
X93908571Y-84517571D01*
X93813333Y-84565190D01*
X93765714Y-84660428D01*
X93765714Y-84850904D01*
X93813333Y-84946142D01*
X94384761Y-84517571D02*
X94432380Y-84612809D01*
X94432380Y-84850904D01*
X94384761Y-84946142D01*
X94289523Y-84993761D01*
X94194285Y-84993761D01*
X94099047Y-84946142D01*
X94051428Y-84850904D01*
X94051428Y-84612809D01*
X94003809Y-84517571D01*
X94384761Y-84089000D02*
X94432380Y-83993761D01*
X94432380Y-83803285D01*
X94384761Y-83708047D01*
X94289523Y-83660428D01*
X94241904Y-83660428D01*
X94146666Y-83708047D01*
X94099047Y-83803285D01*
X94099047Y-83946142D01*
X94051428Y-84041380D01*
X93956190Y-84089000D01*
X93908571Y-84089000D01*
X93813333Y-84041380D01*
X93765714Y-83946142D01*
X93765714Y-83803285D01*
X93813333Y-83708047D01*
X94384761Y-82850904D02*
X94432380Y-82946142D01*
X94432380Y-83136619D01*
X94384761Y-83231857D01*
X94289523Y-83279476D01*
X93908571Y-83279476D01*
X93813333Y-83231857D01*
X93765714Y-83136619D01*
X93765714Y-82946142D01*
X93813333Y-82850904D01*
X93908571Y-82803285D01*
X94003809Y-82803285D01*
X94099047Y-83279476D01*
X94432380Y-81946142D02*
X93432380Y-81946142D01*
X94384761Y-81946142D02*
X94432380Y-82041380D01*
X94432380Y-82231857D01*
X94384761Y-82327095D01*
X94337142Y-82374714D01*
X94241904Y-82422333D01*
X93956190Y-82422333D01*
X93860952Y-82374714D01*
X93813333Y-82327095D01*
X93765714Y-82231857D01*
X93765714Y-82041380D01*
X93813333Y-81946142D01*
X94432380Y-80565190D02*
X94384761Y-80660428D01*
X94337142Y-80708047D01*
X94241904Y-80755666D01*
X93956190Y-80755666D01*
X93860952Y-80708047D01*
X93813333Y-80660428D01*
X93765714Y-80565190D01*
X93765714Y-80422333D01*
X93813333Y-80327095D01*
X93860952Y-80279476D01*
X93956190Y-80231857D01*
X94241904Y-80231857D01*
X94337142Y-80279476D01*
X94384761Y-80327095D01*
X94432380Y-80422333D01*
X94432380Y-80565190D01*
X93765714Y-79803285D02*
X94432380Y-79803285D01*
X93860952Y-79803285D02*
X93813333Y-79755666D01*
X93765714Y-79660428D01*
X93765714Y-79517571D01*
X93813333Y-79422333D01*
X93908571Y-79374714D01*
X94432380Y-79374714D01*
X94146666Y-78184238D02*
X94146666Y-77708047D01*
X94432380Y-78279476D02*
X93432380Y-77946142D01*
X94432380Y-77612809D01*
X94432380Y-76850904D02*
X93432380Y-76850904D01*
X94384761Y-76850904D02*
X94432380Y-76946142D01*
X94432380Y-77136619D01*
X94384761Y-77231857D01*
X94337142Y-77279476D01*
X94241904Y-77327095D01*
X93956190Y-77327095D01*
X93860952Y-77279476D01*
X93813333Y-77231857D01*
X93765714Y-77136619D01*
X93765714Y-76946142D01*
X93813333Y-76850904D01*
X94432380Y-75946142D02*
X93908571Y-75946142D01*
X93813333Y-75993761D01*
X93765714Y-76089000D01*
X93765714Y-76279476D01*
X93813333Y-76374714D01*
X94384761Y-75946142D02*
X94432380Y-76041380D01*
X94432380Y-76279476D01*
X94384761Y-76374714D01*
X94289523Y-76422333D01*
X94194285Y-76422333D01*
X94099047Y-76374714D01*
X94051428Y-76279476D01*
X94051428Y-76041380D01*
X94003809Y-75946142D01*
X93765714Y-75612809D02*
X93765714Y-75231857D01*
X94432380Y-75469952D02*
X93575238Y-75469952D01*
X93480000Y-75422333D01*
X93432380Y-75327095D01*
X93432380Y-75231857D01*
X94432380Y-74898523D02*
X93765714Y-74898523D01*
X93956190Y-74898523D02*
X93860952Y-74850904D01*
X93813333Y-74803285D01*
X93765714Y-74708047D01*
X93765714Y-74612809D01*
X93765714Y-73850904D02*
X94432380Y-73850904D01*
X93765714Y-74279476D02*
X94289523Y-74279476D01*
X94384761Y-74231857D01*
X94432380Y-74136619D01*
X94432380Y-73993761D01*
X94384761Y-73898523D01*
X94337142Y-73850904D01*
X94432380Y-73374714D02*
X93765714Y-73374714D01*
X93432380Y-73374714D02*
X93480000Y-73422333D01*
X93527619Y-73374714D01*
X93480000Y-73327095D01*
X93432380Y-73374714D01*
X93527619Y-73374714D01*
X93765714Y-73041380D02*
X93765714Y-72660428D01*
X93432380Y-72898523D02*
X94289523Y-72898523D01*
X94384761Y-72850904D01*
X94432380Y-72755666D01*
X94432380Y-72660428D01*
X93432380Y-71660428D02*
X93432380Y-71041380D01*
X93813333Y-71374714D01*
X93813333Y-71231857D01*
X93860952Y-71136619D01*
X93908571Y-71089000D01*
X94003809Y-71041380D01*
X94241904Y-71041380D01*
X94337142Y-71089000D01*
X94384761Y-71136619D01*
X94432380Y-71231857D01*
X94432380Y-71517571D01*
X94384761Y-71612809D01*
X94337142Y-71660428D01*
X93432380Y-70136619D02*
X93432380Y-70612809D01*
X93908571Y-70660428D01*
X93860952Y-70612809D01*
X93813333Y-70517571D01*
X93813333Y-70279476D01*
X93860952Y-70184238D01*
X93908571Y-70136619D01*
X94003809Y-70089000D01*
X94241904Y-70089000D01*
X94337142Y-70136619D01*
X94384761Y-70184238D01*
X94432380Y-70279476D01*
X94432380Y-70517571D01*
X94384761Y-70612809D01*
X94337142Y-70660428D01*
X93432380Y-69469952D02*
X93432380Y-69374714D01*
X93480000Y-69279476D01*
X93527619Y-69231857D01*
X93622857Y-69184238D01*
X93813333Y-69136619D01*
X94051428Y-69136619D01*
X94241904Y-69184238D01*
X94337142Y-69231857D01*
X94384761Y-69279476D01*
X94432380Y-69374714D01*
X94432380Y-69469952D01*
X94384761Y-69565190D01*
X94337142Y-69612809D01*
X94241904Y-69660428D01*
X94051428Y-69708047D01*
X93813333Y-69708047D01*
X93622857Y-69660428D01*
X93527619Y-69612809D01*
X93480000Y-69565190D01*
X93432380Y-69469952D01*
X93527619Y-68755666D02*
X93480000Y-68708047D01*
X93432380Y-68612809D01*
X93432380Y-68374714D01*
X93480000Y-68279476D01*
X93527619Y-68231857D01*
X93622857Y-68184238D01*
X93718095Y-68184238D01*
X93860952Y-68231857D01*
X94432380Y-68803285D01*
X94432380Y-68184238D01*
X117438514Y-102217457D02*
X118105180Y-102217457D01*
X117533752Y-102217457D02*
X117486133Y-102169838D01*
X117438514Y-102074600D01*
X117438514Y-101931742D01*
X117486133Y-101836504D01*
X117581371Y-101788885D01*
X118105180Y-101788885D01*
X118057561Y-100884123D02*
X118105180Y-100979361D01*
X118105180Y-101169838D01*
X118057561Y-101265076D01*
X118009942Y-101312695D01*
X117914704Y-101360314D01*
X117628990Y-101360314D01*
X117533752Y-101312695D01*
X117486133Y-101265076D01*
X117438514Y-101169838D01*
X117438514Y-100979361D01*
X117486133Y-100884123D01*
X115742980Y-101907790D02*
X114742980Y-101907790D01*
X114742980Y-101669695D01*
X114790600Y-101526838D01*
X114885838Y-101431600D01*
X114981076Y-101383980D01*
X115171552Y-101336361D01*
X115314409Y-101336361D01*
X115504885Y-101383980D01*
X115600123Y-101431600D01*
X115695361Y-101526838D01*
X115742980Y-101669695D01*
X115742980Y-101907790D01*
X115742980Y-100907790D02*
X114742980Y-100907790D01*
X115695361Y-100479219D02*
X115742980Y-100336361D01*
X115742980Y-100098266D01*
X115695361Y-100003028D01*
X115647742Y-99955409D01*
X115552504Y-99907790D01*
X115457266Y-99907790D01*
X115362028Y-99955409D01*
X115314409Y-100003028D01*
X115266790Y-100098266D01*
X115219171Y-100288742D01*
X115171552Y-100383980D01*
X115123933Y-100431600D01*
X115028695Y-100479219D01*
X114933457Y-100479219D01*
X114838219Y-100431600D01*
X114790600Y-100383980D01*
X114742980Y-100288742D01*
X114742980Y-100050647D01*
X114790600Y-99907790D01*
X115742980Y-99479219D02*
X114742980Y-99479219D01*
X114742980Y-99098266D01*
X114790600Y-99003028D01*
X114838219Y-98955409D01*
X114933457Y-98907790D01*
X115076314Y-98907790D01*
X115171552Y-98955409D01*
X115219171Y-99003028D01*
X115266790Y-99098266D01*
X115266790Y-99479219D01*
X112333114Y-102319057D02*
X112999780Y-102319057D01*
X112428352Y-102319057D02*
X112380733Y-102271438D01*
X112333114Y-102176200D01*
X112333114Y-102033342D01*
X112380733Y-101938104D01*
X112475971Y-101890485D01*
X112999780Y-101890485D01*
X112952161Y-100985723D02*
X112999780Y-101080961D01*
X112999780Y-101271438D01*
X112952161Y-101366676D01*
X112904542Y-101414295D01*
X112809304Y-101461914D01*
X112523590Y-101461914D01*
X112428352Y-101414295D01*
X112380733Y-101366676D01*
X112333114Y-101271438D01*
X112333114Y-101080961D01*
X112380733Y-100985723D01*
D11*
X116456961Y-98675494D02*
X116456961Y-97437398D01*
X117218866Y-98199303D01*
X117218866Y-97913589D01*
X117314104Y-97735017D01*
X117409342Y-97651684D01*
X117599819Y-97580255D01*
X118076009Y-97639779D01*
X118266485Y-97758827D01*
X118361723Y-97865970D01*
X118456961Y-98068351D01*
X118456961Y-98639779D01*
X118361723Y-98818351D01*
X118266485Y-98901684D01*
X118266485Y-96806446D02*
X118361723Y-96723113D01*
X118456961Y-96830255D01*
X118361723Y-96913589D01*
X118266485Y-96806446D01*
X118456961Y-96830255D01*
X116456961Y-95818351D02*
X116456961Y-94580255D01*
X117218866Y-95342160D01*
X117218866Y-95056446D01*
X117314104Y-94877875D01*
X117409342Y-94794541D01*
X117599819Y-94723113D01*
X118076009Y-94782636D01*
X118266485Y-94901684D01*
X118361723Y-95008827D01*
X118456961Y-95211208D01*
X118456961Y-95782636D01*
X118361723Y-95961208D01*
X118266485Y-96044541D01*
X116456961Y-94008827D02*
X118456961Y-93592160D01*
X116456961Y-92675494D01*
X118456961Y-90735017D02*
X116456961Y-90485017D01*
X116456961Y-89723113D01*
X116552200Y-89544541D01*
X116647438Y-89461208D01*
X116837914Y-89389779D01*
X117123628Y-89425494D01*
X117314104Y-89544541D01*
X117409342Y-89651684D01*
X117504580Y-89854065D01*
X117504580Y-90615970D01*
X116456961Y-88104065D02*
X116456961Y-87723113D01*
X116552200Y-87544541D01*
X116742676Y-87377875D01*
X117123628Y-87330255D01*
X117790295Y-87413589D01*
X118171247Y-87556446D01*
X118361723Y-87770732D01*
X118456961Y-87973113D01*
X118456961Y-88354065D01*
X118361723Y-88532636D01*
X118171247Y-88699303D01*
X117790295Y-88746922D01*
X117123628Y-88663589D01*
X116742676Y-88520732D01*
X116552200Y-88306446D01*
X116456961Y-88104065D01*
X116456961Y-86580255D02*
X118456961Y-86354065D01*
X117028390Y-85794541D01*
X118456961Y-85592160D01*
X116456961Y-84865970D01*
X117409342Y-84223113D02*
X117409342Y-83556446D01*
X118456961Y-83401684D02*
X118456961Y-84354065D01*
X116456961Y-84104065D01*
X116456961Y-83151684D01*
X118456961Y-81401684D02*
X117504580Y-81949303D01*
X118456961Y-82544541D02*
X116456961Y-82294541D01*
X116456961Y-81532636D01*
X116552200Y-81354065D01*
X116647438Y-81270732D01*
X116837914Y-81199303D01*
X117123628Y-81235017D01*
X117314104Y-81354065D01*
X117409342Y-81461208D01*
X117504580Y-81663589D01*
X117504580Y-82425494D01*
X119756961Y-97913589D02*
X119756961Y-96675494D01*
X120518866Y-97437398D01*
X120518866Y-97151684D01*
X120614104Y-96973113D01*
X120709342Y-96889779D01*
X120899819Y-96818351D01*
X121376009Y-96877875D01*
X121566485Y-96996922D01*
X121661723Y-97104065D01*
X121756961Y-97306446D01*
X121756961Y-97877875D01*
X121661723Y-98056446D01*
X121566485Y-98139779D01*
X121566485Y-96044541D02*
X121661723Y-95961208D01*
X121756961Y-96068351D01*
X121661723Y-96151684D01*
X121566485Y-96044541D01*
X121756961Y-96068351D01*
X119756961Y-95056446D02*
X119756961Y-93818351D01*
X120518866Y-94580255D01*
X120518866Y-94294541D01*
X120614104Y-94115970D01*
X120709342Y-94032636D01*
X120899819Y-93961208D01*
X121376009Y-94020732D01*
X121566485Y-94139779D01*
X121661723Y-94246922D01*
X121756961Y-94449303D01*
X121756961Y-95020732D01*
X121661723Y-95199303D01*
X121566485Y-95282636D01*
X119756961Y-93246922D02*
X121756961Y-92830255D01*
X119756961Y-91913589D01*
X121756961Y-89020732D02*
X121756961Y-89973113D01*
X119756961Y-89723113D01*
X119756961Y-87723113D02*
X119756961Y-87342160D01*
X119852200Y-87163589D01*
X120042676Y-86996922D01*
X120423628Y-86949303D01*
X121090295Y-87032636D01*
X121471247Y-87175494D01*
X121661723Y-87389779D01*
X121756961Y-87592160D01*
X121756961Y-87973113D01*
X121661723Y-88151684D01*
X121471247Y-88318351D01*
X121090295Y-88365970D01*
X120423628Y-88282636D01*
X120042676Y-88139779D01*
X119852200Y-87925494D01*
X119756961Y-87723113D01*
X119852200Y-84973113D02*
X119756961Y-85151684D01*
X119756961Y-85437398D01*
X119852200Y-85735017D01*
X120042676Y-85949303D01*
X120233152Y-86068351D01*
X120614104Y-86211208D01*
X120899819Y-86246922D01*
X121280771Y-86199303D01*
X121471247Y-86127875D01*
X121661723Y-85961208D01*
X121756961Y-85687398D01*
X121756961Y-85496922D01*
X121661723Y-85199303D01*
X121566485Y-85092160D01*
X120899819Y-85008827D01*
X120899819Y-85389779D01*
X121756961Y-84258827D02*
X119756961Y-84008827D01*
X121566485Y-82139779D02*
X121661723Y-82246922D01*
X121756961Y-82544541D01*
X121756961Y-82735017D01*
X121661723Y-83008827D01*
X121471247Y-83175494D01*
X121280771Y-83246922D01*
X120899819Y-83294541D01*
X120614104Y-83258827D01*
X120233152Y-83115970D01*
X120042676Y-82996922D01*
X119852200Y-82782636D01*
X119756961Y-82485017D01*
X119756961Y-82294541D01*
X119852200Y-82020732D01*
X119947438Y-81937398D01*
D10*
X110603302Y-101372966D02*
X110650921Y-101420585D01*
X110698540Y-101563442D01*
X110698540Y-101658680D01*
X110650921Y-101801538D01*
X110555683Y-101896776D01*
X110460445Y-101944395D01*
X110269969Y-101992014D01*
X110127112Y-101992014D01*
X109936636Y-101944395D01*
X109841398Y-101896776D01*
X109746160Y-101801538D01*
X109698540Y-101658680D01*
X109698540Y-101563442D01*
X109746160Y-101420585D01*
X109793779Y-101372966D01*
X110650921Y-100992014D02*
X110698540Y-100849157D01*
X110698540Y-100611061D01*
X110650921Y-100515823D01*
X110603302Y-100468204D01*
X110508064Y-100420585D01*
X110412826Y-100420585D01*
X110317588Y-100468204D01*
X110269969Y-100515823D01*
X110222350Y-100611061D01*
X110174731Y-100801538D01*
X110127112Y-100896776D01*
X110079493Y-100944395D01*
X109984255Y-100992014D01*
X109889017Y-100992014D01*
X109793779Y-100944395D01*
X109746160Y-100896776D01*
X109698540Y-100801538D01*
X109698540Y-100563442D01*
X109746160Y-100420585D01*
X108123621Y-102039609D02*
X108171240Y-101896752D01*
X108171240Y-101658657D01*
X108123621Y-101563419D01*
X108076002Y-101515800D01*
X107980764Y-101468180D01*
X107885526Y-101468180D01*
X107790288Y-101515800D01*
X107742669Y-101563419D01*
X107695050Y-101658657D01*
X107647431Y-101849133D01*
X107599812Y-101944371D01*
X107552193Y-101991990D01*
X107456955Y-102039609D01*
X107361717Y-102039609D01*
X107266479Y-101991990D01*
X107218860Y-101944371D01*
X107171240Y-101849133D01*
X107171240Y-101611038D01*
X107218860Y-101468180D01*
X108171240Y-101039609D02*
X107171240Y-101039609D01*
X107171240Y-100801514D01*
X107218860Y-100658657D01*
X107314098Y-100563419D01*
X107409336Y-100515800D01*
X107599812Y-100468180D01*
X107742669Y-100468180D01*
X107933145Y-100515800D01*
X108028383Y-100563419D01*
X108123621Y-100658657D01*
X108171240Y-100801514D01*
X108171240Y-101039609D01*
X108171240Y-100039609D02*
X107171240Y-100039609D01*
X105568381Y-101967136D02*
X105616000Y-101824279D01*
X105616000Y-101586183D01*
X105568381Y-101490945D01*
X105520762Y-101443326D01*
X105425524Y-101395707D01*
X105330286Y-101395707D01*
X105235048Y-101443326D01*
X105187429Y-101490945D01*
X105139810Y-101586183D01*
X105092191Y-101776660D01*
X105044572Y-101871898D01*
X104996953Y-101919517D01*
X104901715Y-101967136D01*
X104806477Y-101967136D01*
X104711239Y-101919517D01*
X104663620Y-101871898D01*
X104616000Y-101776660D01*
X104616000Y-101538564D01*
X104663620Y-101395707D01*
X105520762Y-100395707D02*
X105568381Y-100443326D01*
X105616000Y-100586183D01*
X105616000Y-100681421D01*
X105568381Y-100824279D01*
X105473143Y-100919517D01*
X105377905Y-100967136D01*
X105187429Y-101014755D01*
X105044572Y-101014755D01*
X104854096Y-100967136D01*
X104758858Y-100919517D01*
X104663620Y-100824279D01*
X104616000Y-100681421D01*
X104616000Y-100586183D01*
X104663620Y-100443326D01*
X104711239Y-100395707D01*
X105616000Y-99490945D02*
X105616000Y-99967136D01*
X104616000Y-99967136D01*
X105616000Y-99157612D02*
X104616000Y-99157612D01*
X105616000Y-98586183D02*
X105044572Y-99014755D01*
X104616000Y-98586183D02*
X105187429Y-99157612D01*
X102047420Y-101170644D02*
X101999800Y-101265882D01*
X101999800Y-101408740D01*
X102047420Y-101551597D01*
X102142658Y-101646835D01*
X102237896Y-101694454D01*
X102428372Y-101742073D01*
X102571229Y-101742073D01*
X102761705Y-101694454D01*
X102856943Y-101646835D01*
X102952181Y-101551597D01*
X102999800Y-101408740D01*
X102999800Y-101313501D01*
X102952181Y-101170644D01*
X102904562Y-101123025D01*
X102571229Y-101123025D01*
X102571229Y-101313501D01*
X102999800Y-100694454D02*
X101999800Y-100694454D01*
X102999800Y-100123025D01*
X101999800Y-100123025D01*
X102999800Y-99646835D02*
X101999800Y-99646835D01*
X101999800Y-99408740D01*
X102047420Y-99265882D01*
X102142658Y-99170644D01*
X102237896Y-99123025D01*
X102428372Y-99075406D01*
X102571229Y-99075406D01*
X102761705Y-99123025D01*
X102856943Y-99170644D01*
X102952181Y-99265882D01*
X102999800Y-99408740D01*
X102999800Y-99646835D01*
X99546160Y-101718596D02*
X99546160Y-101099548D01*
X99927113Y-101432881D01*
X99927113Y-101290024D01*
X99974732Y-101194786D01*
X100022351Y-101147167D01*
X100117589Y-101099548D01*
X100355684Y-101099548D01*
X100450922Y-101147167D01*
X100498541Y-101194786D01*
X100546160Y-101290024D01*
X100546160Y-101575739D01*
X100498541Y-101670977D01*
X100450922Y-101718596D01*
X99879494Y-100766215D02*
X100546160Y-100528120D01*
X99879494Y-100290024D01*
X99546160Y-100004310D02*
X99546160Y-99385262D01*
X99927113Y-99718596D01*
X99927113Y-99575739D01*
X99974732Y-99480500D01*
X100022351Y-99432881D01*
X100117589Y-99385262D01*
X100355684Y-99385262D01*
X100450922Y-99432881D01*
X100498541Y-99480500D01*
X100546160Y-99575739D01*
X100546160Y-99861453D01*
X100498541Y-99956691D01*
X100450922Y-100004310D01*
D12*
G04 #@! TO.C,IC1*
X102786780Y-77372920D02*
X102786780Y-76172920D01*
X104686780Y-77372920D02*
X102786780Y-77372920D01*
X112386780Y-77372920D02*
X112386780Y-76172920D01*
X110286780Y-77372920D02*
X112386780Y-77372920D01*
D13*
G04 #@! TO.C,G\u002A\u002A\u002A*
G36*
X112129255Y-91266075D02*
G01*
X112189388Y-91285338D01*
X112243782Y-91315922D01*
X112291019Y-91356585D01*
X112329679Y-91406083D01*
X112358345Y-91463170D01*
X112375599Y-91526605D01*
X112376573Y-91532777D01*
X112377838Y-91542632D01*
X112378601Y-91553082D01*
X112378711Y-91565185D01*
X112378022Y-91579997D01*
X112376385Y-91598578D01*
X112373652Y-91621983D01*
X112369676Y-91651272D01*
X112364307Y-91687501D01*
X112357398Y-91731728D01*
X112348800Y-91785010D01*
X112338367Y-91848406D01*
X112325949Y-91922973D01*
X112311398Y-92009768D01*
X112301737Y-92067238D01*
X112287875Y-92149140D01*
X112274439Y-92227563D01*
X112261644Y-92301300D01*
X112249709Y-92369145D01*
X112238850Y-92429889D01*
X112229284Y-92482326D01*
X112221229Y-92525249D01*
X112214902Y-92557449D01*
X112210520Y-92577720D01*
X112208816Y-92583928D01*
X112190283Y-92616333D01*
X112161830Y-92645246D01*
X112127645Y-92667105D01*
X112099296Y-92677053D01*
X112078236Y-92681239D01*
X112063211Y-92683619D01*
X112059161Y-92683844D01*
X112049735Y-92681947D01*
X112032070Y-92678105D01*
X112024904Y-92676506D01*
X111994513Y-92663956D01*
X111964160Y-92641920D01*
X111938262Y-92614327D01*
X111921237Y-92585104D01*
X111920793Y-92583928D01*
X111917792Y-92572064D01*
X111912704Y-92547485D01*
X111905745Y-92511400D01*
X111897132Y-92465014D01*
X111887084Y-92409536D01*
X111875816Y-92346173D01*
X111863547Y-92276132D01*
X111850494Y-92200621D01*
X111836874Y-92120845D01*
X111827813Y-92067238D01*
X111811923Y-91972742D01*
X111798254Y-91891100D01*
X111786658Y-91821252D01*
X111776987Y-91762143D01*
X111769093Y-91712714D01*
X111762827Y-91671907D01*
X111758042Y-91638666D01*
X111754589Y-91611931D01*
X111752320Y-91590647D01*
X111751088Y-91573754D01*
X111750744Y-91560195D01*
X111751139Y-91548914D01*
X111752127Y-91538851D01*
X111752969Y-91532777D01*
X111769173Y-91468741D01*
X111796898Y-91410970D01*
X111834730Y-91360703D01*
X111881259Y-91319177D01*
X111935070Y-91287631D01*
X111994753Y-91267303D01*
X112058894Y-91259432D01*
X112064800Y-91259377D01*
X112129255Y-91266075D01*
G37*
X112129255Y-91266075D02*
X112189388Y-91285338D01*
X112243782Y-91315922D01*
X112291019Y-91356585D01*
X112329679Y-91406083D01*
X112358345Y-91463170D01*
X112375599Y-91526605D01*
X112376573Y-91532777D01*
X112377838Y-91542632D01*
X112378601Y-91553082D01*
X112378711Y-91565185D01*
X112378022Y-91579997D01*
X112376385Y-91598578D01*
X112373652Y-91621983D01*
X112369676Y-91651272D01*
X112364307Y-91687501D01*
X112357398Y-91731728D01*
X112348800Y-91785010D01*
X112338367Y-91848406D01*
X112325949Y-91922973D01*
X112311398Y-92009768D01*
X112301737Y-92067238D01*
X112287875Y-92149140D01*
X112274439Y-92227563D01*
X112261644Y-92301300D01*
X112249709Y-92369145D01*
X112238850Y-92429889D01*
X112229284Y-92482326D01*
X112221229Y-92525249D01*
X112214902Y-92557449D01*
X112210520Y-92577720D01*
X112208816Y-92583928D01*
X112190283Y-92616333D01*
X112161830Y-92645246D01*
X112127645Y-92667105D01*
X112099296Y-92677053D01*
X112078236Y-92681239D01*
X112063211Y-92683619D01*
X112059161Y-92683844D01*
X112049735Y-92681947D01*
X112032070Y-92678105D01*
X112024904Y-92676506D01*
X111994513Y-92663956D01*
X111964160Y-92641920D01*
X111938262Y-92614327D01*
X111921237Y-92585104D01*
X111920793Y-92583928D01*
X111917792Y-92572064D01*
X111912704Y-92547485D01*
X111905745Y-92511400D01*
X111897132Y-92465014D01*
X111887084Y-92409536D01*
X111875816Y-92346173D01*
X111863547Y-92276132D01*
X111850494Y-92200621D01*
X111836874Y-92120845D01*
X111827813Y-92067238D01*
X111811923Y-91972742D01*
X111798254Y-91891100D01*
X111786658Y-91821252D01*
X111776987Y-91762143D01*
X111769093Y-91712714D01*
X111762827Y-91671907D01*
X111758042Y-91638666D01*
X111754589Y-91611931D01*
X111752320Y-91590647D01*
X111751088Y-91573754D01*
X111750744Y-91560195D01*
X111751139Y-91548914D01*
X111752127Y-91538851D01*
X111752969Y-91532777D01*
X111769173Y-91468741D01*
X111796898Y-91410970D01*
X111834730Y-91360703D01*
X111881259Y-91319177D01*
X111935070Y-91287631D01*
X111994753Y-91267303D01*
X112058894Y-91259432D01*
X112064800Y-91259377D01*
X112129255Y-91266075D01*
G36*
X112112425Y-93008666D02*
G01*
X112175184Y-93025789D01*
X112231175Y-93053942D01*
X112279532Y-93091552D01*
X112319389Y-93137046D01*
X112349880Y-93188851D01*
X112370138Y-93245392D01*
X112379297Y-93305097D01*
X112376492Y-93366393D01*
X112360856Y-93427706D01*
X112353353Y-93446278D01*
X112321495Y-93501694D01*
X112279473Y-93548792D01*
X112229199Y-93586554D01*
X112172584Y-93613963D01*
X112111539Y-93630002D01*
X112047978Y-93633653D01*
X112009213Y-93629437D01*
X111949035Y-93612189D01*
X111894544Y-93583352D01*
X111846958Y-93544650D01*
X111807496Y-93497803D01*
X111777378Y-93444535D01*
X111757821Y-93386569D01*
X111750046Y-93325626D01*
X111754219Y-93269139D01*
X111771601Y-93207322D01*
X111800256Y-93151574D01*
X111838578Y-93103063D01*
X111884965Y-93062955D01*
X111937813Y-93032415D01*
X111995518Y-93012609D01*
X112056477Y-93004704D01*
X112112425Y-93008666D01*
G37*
X112112425Y-93008666D02*
X112175184Y-93025789D01*
X112231175Y-93053942D01*
X112279532Y-93091552D01*
X112319389Y-93137046D01*
X112349880Y-93188851D01*
X112370138Y-93245392D01*
X112379297Y-93305097D01*
X112376492Y-93366393D01*
X112360856Y-93427706D01*
X112353353Y-93446278D01*
X112321495Y-93501694D01*
X112279473Y-93548792D01*
X112229199Y-93586554D01*
X112172584Y-93613963D01*
X112111539Y-93630002D01*
X112047978Y-93633653D01*
X112009213Y-93629437D01*
X111949035Y-93612189D01*
X111894544Y-93583352D01*
X111846958Y-93544650D01*
X111807496Y-93497803D01*
X111777378Y-93444535D01*
X111757821Y-93386569D01*
X111750046Y-93325626D01*
X111754219Y-93269139D01*
X111771601Y-93207322D01*
X111800256Y-93151574D01*
X111838578Y-93103063D01*
X111884965Y-93062955D01*
X111937813Y-93032415D01*
X111995518Y-93012609D01*
X112056477Y-93004704D01*
X112112425Y-93008666D01*
G36*
X112145567Y-89520476D02*
G01*
X112223002Y-89540333D01*
X112295602Y-89572959D01*
X112361863Y-89617818D01*
X112366333Y-89621493D01*
X112393014Y-89645213D01*
X112417179Y-89670437D01*
X112440616Y-89699525D01*
X112465111Y-89734836D01*
X112492449Y-89778729D01*
X112516668Y-89820044D01*
X112531028Y-89844971D01*
X112551907Y-89881192D01*
X112578770Y-89927780D01*
X112611081Y-89983805D01*
X112648306Y-90048342D01*
X112689908Y-90120462D01*
X112735354Y-90199238D01*
X112784107Y-90283741D01*
X112835632Y-90373046D01*
X112889395Y-90466222D01*
X112944859Y-90562345D01*
X113001490Y-90660484D01*
X113058753Y-90759714D01*
X113116111Y-90859106D01*
X113173031Y-90957733D01*
X113228977Y-91054667D01*
X113283413Y-91148980D01*
X113335804Y-91239746D01*
X113373610Y-91305238D01*
X113421196Y-91387677D01*
X113471572Y-91474964D01*
X113523502Y-91564954D01*
X113575747Y-91655501D01*
X113627070Y-91744461D01*
X113676232Y-91829687D01*
X113721997Y-91909033D01*
X113763125Y-91980354D01*
X113796946Y-92039016D01*
X113832490Y-92100668D01*
X113873852Y-92172395D01*
X113919794Y-92252051D01*
X113969079Y-92337491D01*
X114020469Y-92426568D01*
X114072725Y-92517137D01*
X114124610Y-92607053D01*
X114174886Y-92694169D01*
X114220268Y-92772794D01*
X114263675Y-92847998D01*
X114306652Y-92922470D01*
X114348416Y-92994853D01*
X114388183Y-93063785D01*
X114425168Y-93127909D01*
X114458589Y-93185866D01*
X114487661Y-93236296D01*
X114511601Y-93277841D01*
X114529624Y-93309141D01*
X114535641Y-93319600D01*
X114555211Y-93353608D01*
X114580486Y-93397479D01*
X114610105Y-93448858D01*
X114642713Y-93505393D01*
X114676951Y-93564727D01*
X114711461Y-93624508D01*
X114738007Y-93670475D01*
X114769171Y-93724835D01*
X114798712Y-93777146D01*
X114825720Y-93825736D01*
X114849283Y-93868934D01*
X114868491Y-93905069D01*
X114882432Y-93932468D01*
X114890195Y-93949461D01*
X114890429Y-93950070D01*
X114911662Y-94026234D01*
X114919381Y-94105060D01*
X114913570Y-94185104D01*
X114894216Y-94264922D01*
X114893532Y-94266979D01*
X114862269Y-94338664D01*
X114819149Y-94403777D01*
X114765302Y-94461261D01*
X114701860Y-94510058D01*
X114629952Y-94549114D01*
X114565995Y-94572968D01*
X114561769Y-94574132D01*
X114556702Y-94575223D01*
X114550348Y-94576245D01*
X114542261Y-94577201D01*
X114531997Y-94578092D01*
X114519108Y-94578922D01*
X114503151Y-94579692D01*
X114483680Y-94580405D01*
X114460248Y-94581065D01*
X114432412Y-94581672D01*
X114399724Y-94582230D01*
X114361741Y-94582742D01*
X114318016Y-94583209D01*
X114268104Y-94583635D01*
X114211560Y-94584021D01*
X114147938Y-94584370D01*
X114076793Y-94584686D01*
X113997679Y-94584969D01*
X113910151Y-94585224D01*
X113813763Y-94585452D01*
X113708070Y-94585655D01*
X113592627Y-94585837D01*
X113466988Y-94586000D01*
X113330708Y-94586146D01*
X113183341Y-94586277D01*
X113024441Y-94586398D01*
X112853564Y-94586508D01*
X112670264Y-94586613D01*
X112474096Y-94586713D01*
X112264613Y-94586811D01*
X112089495Y-94586889D01*
X111904596Y-94586954D01*
X111723133Y-94586983D01*
X111545626Y-94586980D01*
X111372594Y-94586943D01*
X111204556Y-94586875D01*
X111042033Y-94586777D01*
X110885544Y-94586649D01*
X110735609Y-94586493D01*
X110592748Y-94586309D01*
X110457480Y-94586098D01*
X110330324Y-94585862D01*
X110211802Y-94585602D01*
X110102431Y-94585318D01*
X110002733Y-94585012D01*
X109913226Y-94584684D01*
X109834430Y-94584336D01*
X109766866Y-94583969D01*
X109711052Y-94583583D01*
X109667508Y-94583179D01*
X109636755Y-94582760D01*
X109619311Y-94582325D01*
X109615602Y-94582083D01*
X109559036Y-94569576D01*
X109500481Y-94549504D01*
X109447672Y-94524523D01*
X109447189Y-94524252D01*
X109418518Y-94504760D01*
X109385211Y-94476910D01*
X109350571Y-94444006D01*
X109317905Y-94409352D01*
X109290517Y-94376254D01*
X109272648Y-94349711D01*
X109239298Y-94276700D01*
X109218607Y-94199832D01*
X109210725Y-94121098D01*
X109211339Y-94111586D01*
X109682327Y-94111586D01*
X109689055Y-94111991D01*
X109709380Y-94112388D01*
X109742790Y-94112776D01*
X109788772Y-94113154D01*
X109846812Y-94113520D01*
X109916396Y-94113873D01*
X109997013Y-94114212D01*
X110088147Y-94114537D01*
X110189288Y-94114845D01*
X110299920Y-94115137D01*
X110419531Y-94115409D01*
X110547607Y-94115663D01*
X110683636Y-94115895D01*
X110827104Y-94116106D01*
X110977498Y-94116294D01*
X111134305Y-94116458D01*
X111297011Y-94116596D01*
X111465103Y-94116709D01*
X111638068Y-94116793D01*
X111815393Y-94116849D01*
X111996565Y-94116875D01*
X112060856Y-94116877D01*
X112299179Y-94116862D01*
X112523611Y-94116815D01*
X112734374Y-94116737D01*
X112931688Y-94116626D01*
X113115774Y-94116482D01*
X113286852Y-94116304D01*
X113445144Y-94116092D01*
X113590870Y-94115844D01*
X113724250Y-94115560D01*
X113845506Y-94115239D01*
X113954859Y-94114880D01*
X114052528Y-94114484D01*
X114138735Y-94114049D01*
X114213701Y-94113574D01*
X114277646Y-94113058D01*
X114330790Y-94112502D01*
X114373356Y-94111904D01*
X114405563Y-94111264D01*
X114427632Y-94110581D01*
X114439784Y-94109853D01*
X114442523Y-94109274D01*
X114439100Y-94101563D01*
X114429382Y-94083141D01*
X114414190Y-94055481D01*
X114394350Y-94020057D01*
X114370683Y-93978341D01*
X114344013Y-93931807D01*
X114323238Y-93895844D01*
X114296203Y-93849157D01*
X114262488Y-93790871D01*
X114222455Y-93721612D01*
X114176467Y-93642008D01*
X114124886Y-93552689D01*
X114068075Y-93454280D01*
X114006395Y-93347411D01*
X113940209Y-93232709D01*
X113869881Y-93110802D01*
X113795771Y-92982318D01*
X113718242Y-92847885D01*
X113637657Y-92708130D01*
X113573244Y-92596405D01*
X113547103Y-92551071D01*
X113520674Y-92505253D01*
X113495670Y-92461919D01*
X113473806Y-92424041D01*
X113456794Y-92394589D01*
X113453139Y-92388266D01*
X113438527Y-92362969D01*
X113418403Y-92328091D01*
X113394292Y-92286282D01*
X113367723Y-92240190D01*
X113340223Y-92192464D01*
X113322956Y-92162488D01*
X113289528Y-92104456D01*
X113256393Y-92046952D01*
X113222767Y-91988619D01*
X113187867Y-91928099D01*
X113150909Y-91864035D01*
X113111110Y-91795067D01*
X113067686Y-91719839D01*
X113019854Y-91636991D01*
X112966830Y-91545168D01*
X112907831Y-91443009D01*
X112883272Y-91400488D01*
X112826333Y-91301899D01*
X112774921Y-91212864D01*
X112727501Y-91130722D01*
X112682538Y-91052812D01*
X112638496Y-90976472D01*
X112593839Y-90899042D01*
X112547032Y-90817859D01*
X112496539Y-90730261D01*
X112459913Y-90666711D01*
X112433583Y-90621035D01*
X112402480Y-90567098D01*
X112368887Y-90508856D01*
X112335086Y-90450268D01*
X112303360Y-90395291D01*
X112293052Y-90377433D01*
X112263438Y-90326122D01*
X112231706Y-90271126D01*
X112199929Y-90216038D01*
X112170180Y-90164452D01*
X112144530Y-90119961D01*
X112135349Y-90104030D01*
X112114371Y-90068040D01*
X112095630Y-90036679D01*
X112080303Y-90011848D01*
X112069562Y-89995448D01*
X112064582Y-89989380D01*
X112064546Y-89989377D01*
X112060853Y-89994176D01*
X112051642Y-90008720D01*
X112036783Y-90033228D01*
X112016150Y-90067919D01*
X111989614Y-90113013D01*
X111957047Y-90168729D01*
X111918323Y-90235287D01*
X111873313Y-90312906D01*
X111821889Y-90401805D01*
X111763923Y-90502205D01*
X111699289Y-90614323D01*
X111627857Y-90738381D01*
X111591961Y-90800766D01*
X111563674Y-90849912D01*
X111532166Y-90904604D01*
X111500133Y-90960170D01*
X111470266Y-91011938D01*
X111449609Y-91047711D01*
X111429759Y-91082081D01*
X111404255Y-91126266D01*
X111374487Y-91177856D01*
X111341847Y-91234439D01*
X111307725Y-91293604D01*
X111273512Y-91352940D01*
X111250169Y-91393433D01*
X111217457Y-91450176D01*
X111184500Y-91507334D01*
X111152558Y-91562720D01*
X111122893Y-91614146D01*
X111096767Y-91659425D01*
X111075442Y-91696370D01*
X111062955Y-91717988D01*
X111044194Y-91750468D01*
X111020024Y-91792330D01*
X110992084Y-91840733D01*
X110962015Y-91892835D01*
X110931458Y-91945795D01*
X110906172Y-91989627D01*
X110842604Y-92099830D01*
X110785368Y-92199051D01*
X110733747Y-92288535D01*
X110687024Y-92369525D01*
X110644480Y-92443264D01*
X110605400Y-92510995D01*
X110569065Y-92573962D01*
X110534759Y-92633407D01*
X110501763Y-92690575D01*
X110469361Y-92746708D01*
X110466521Y-92751627D01*
X110432620Y-92810363D01*
X110395458Y-92874762D01*
X110357117Y-92941218D01*
X110319677Y-93006124D01*
X110285219Y-93065875D01*
X110256902Y-93114988D01*
X110175428Y-93256331D01*
X110100836Y-93385732D01*
X110032962Y-93503475D01*
X109971644Y-93609846D01*
X109916716Y-93705129D01*
X109868014Y-93789607D01*
X109825376Y-93863566D01*
X109788636Y-93927289D01*
X109757632Y-93981062D01*
X109732198Y-94025167D01*
X109712172Y-94059890D01*
X109697389Y-94085516D01*
X109687685Y-94102327D01*
X109682896Y-94110609D01*
X109682327Y-94111586D01*
X109211339Y-94111586D01*
X109215803Y-94042489D01*
X109233992Y-93965996D01*
X109241927Y-93944016D01*
X109248858Y-93929207D01*
X109262232Y-93903413D01*
X109281378Y-93867838D01*
X109305626Y-93823685D01*
X109334306Y-93772157D01*
X109366747Y-93714457D01*
X109402280Y-93651789D01*
X109440233Y-93585355D01*
X109479938Y-93516359D01*
X109485593Y-93506572D01*
X109529779Y-93430138D01*
X109575788Y-93350535D01*
X109622456Y-93269779D01*
X109668620Y-93189886D01*
X109713113Y-93112872D01*
X109754772Y-93040753D01*
X109792431Y-92975543D01*
X109824927Y-92919260D01*
X109842270Y-92889211D01*
X109935928Y-92726912D01*
X110022864Y-92576260D01*
X110103410Y-92436680D01*
X110177896Y-92307597D01*
X110246656Y-92188435D01*
X110310020Y-92078619D01*
X110368320Y-91977576D01*
X110421888Y-91884729D01*
X110471055Y-91799503D01*
X110516154Y-91721324D01*
X110557516Y-91649617D01*
X110595471Y-91583806D01*
X110630354Y-91523317D01*
X110662493Y-91467575D01*
X110692223Y-91416004D01*
X110719873Y-91368030D01*
X110745776Y-91323077D01*
X110770264Y-91280571D01*
X110793667Y-91239937D01*
X110816319Y-91200599D01*
X110838549Y-91161983D01*
X110849498Y-91142961D01*
X110883390Y-91084110D01*
X110921103Y-91018684D01*
X110960372Y-90950606D01*
X110998933Y-90883800D01*
X111034523Y-90822191D01*
X111059150Y-90779600D01*
X111085951Y-90733251D01*
X111118272Y-90677320D01*
X111154588Y-90614448D01*
X111193371Y-90547280D01*
X111233097Y-90478458D01*
X111272238Y-90410624D01*
X111309270Y-90346423D01*
X111309696Y-90345683D01*
X111367832Y-90244877D01*
X111419351Y-90155572D01*
X111464676Y-90077040D01*
X111504232Y-90008553D01*
X111538443Y-89949383D01*
X111567734Y-89898802D01*
X111592529Y-89856083D01*
X111613252Y-89820498D01*
X111630329Y-89791318D01*
X111644182Y-89767817D01*
X111655237Y-89749267D01*
X111663918Y-89734939D01*
X111670649Y-89724106D01*
X111675854Y-89716040D01*
X111679959Y-89710013D01*
X111682009Y-89707155D01*
X111735346Y-89645832D01*
X111797093Y-89595457D01*
X111866075Y-89556625D01*
X111941114Y-89529929D01*
X112021035Y-89515962D01*
X112064800Y-89513925D01*
X112145567Y-89520476D01*
G37*
X112145567Y-89520476D02*
X112223002Y-89540333D01*
X112295602Y-89572959D01*
X112361863Y-89617818D01*
X112366333Y-89621493D01*
X112393014Y-89645213D01*
X112417179Y-89670437D01*
X112440616Y-89699525D01*
X112465111Y-89734836D01*
X112492449Y-89778729D01*
X112516668Y-89820044D01*
X112531028Y-89844971D01*
X112551907Y-89881192D01*
X112578770Y-89927780D01*
X112611081Y-89983805D01*
X112648306Y-90048342D01*
X112689908Y-90120462D01*
X112735354Y-90199238D01*
X112784107Y-90283741D01*
X112835632Y-90373046D01*
X112889395Y-90466222D01*
X112944859Y-90562345D01*
X113001490Y-90660484D01*
X113058753Y-90759714D01*
X113116111Y-90859106D01*
X113173031Y-90957733D01*
X113228977Y-91054667D01*
X113283413Y-91148980D01*
X113335804Y-91239746D01*
X113373610Y-91305238D01*
X113421196Y-91387677D01*
X113471572Y-91474964D01*
X113523502Y-91564954D01*
X113575747Y-91655501D01*
X113627070Y-91744461D01*
X113676232Y-91829687D01*
X113721997Y-91909033D01*
X113763125Y-91980354D01*
X113796946Y-92039016D01*
X113832490Y-92100668D01*
X113873852Y-92172395D01*
X113919794Y-92252051D01*
X113969079Y-92337491D01*
X114020469Y-92426568D01*
X114072725Y-92517137D01*
X114124610Y-92607053D01*
X114174886Y-92694169D01*
X114220268Y-92772794D01*
X114263675Y-92847998D01*
X114306652Y-92922470D01*
X114348416Y-92994853D01*
X114388183Y-93063785D01*
X114425168Y-93127909D01*
X114458589Y-93185866D01*
X114487661Y-93236296D01*
X114511601Y-93277841D01*
X114529624Y-93309141D01*
X114535641Y-93319600D01*
X114555211Y-93353608D01*
X114580486Y-93397479D01*
X114610105Y-93448858D01*
X114642713Y-93505393D01*
X114676951Y-93564727D01*
X114711461Y-93624508D01*
X114738007Y-93670475D01*
X114769171Y-93724835D01*
X114798712Y-93777146D01*
X114825720Y-93825736D01*
X114849283Y-93868934D01*
X114868491Y-93905069D01*
X114882432Y-93932468D01*
X114890195Y-93949461D01*
X114890429Y-93950070D01*
X114911662Y-94026234D01*
X114919381Y-94105060D01*
X114913570Y-94185104D01*
X114894216Y-94264922D01*
X114893532Y-94266979D01*
X114862269Y-94338664D01*
X114819149Y-94403777D01*
X114765302Y-94461261D01*
X114701860Y-94510058D01*
X114629952Y-94549114D01*
X114565995Y-94572968D01*
X114561769Y-94574132D01*
X114556702Y-94575223D01*
X114550348Y-94576245D01*
X114542261Y-94577201D01*
X114531997Y-94578092D01*
X114519108Y-94578922D01*
X114503151Y-94579692D01*
X114483680Y-94580405D01*
X114460248Y-94581065D01*
X114432412Y-94581672D01*
X114399724Y-94582230D01*
X114361741Y-94582742D01*
X114318016Y-94583209D01*
X114268104Y-94583635D01*
X114211560Y-94584021D01*
X114147938Y-94584370D01*
X114076793Y-94584686D01*
X113997679Y-94584969D01*
X113910151Y-94585224D01*
X113813763Y-94585452D01*
X113708070Y-94585655D01*
X113592627Y-94585837D01*
X113466988Y-94586000D01*
X113330708Y-94586146D01*
X113183341Y-94586277D01*
X113024441Y-94586398D01*
X112853564Y-94586508D01*
X112670264Y-94586613D01*
X112474096Y-94586713D01*
X112264613Y-94586811D01*
X112089495Y-94586889D01*
X111904596Y-94586954D01*
X111723133Y-94586983D01*
X111545626Y-94586980D01*
X111372594Y-94586943D01*
X111204556Y-94586875D01*
X111042033Y-94586777D01*
X110885544Y-94586649D01*
X110735609Y-94586493D01*
X110592748Y-94586309D01*
X110457480Y-94586098D01*
X110330324Y-94585862D01*
X110211802Y-94585602D01*
X110102431Y-94585318D01*
X110002733Y-94585012D01*
X109913226Y-94584684D01*
X109834430Y-94584336D01*
X109766866Y-94583969D01*
X109711052Y-94583583D01*
X109667508Y-94583179D01*
X109636755Y-94582760D01*
X109619311Y-94582325D01*
X109615602Y-94582083D01*
X109559036Y-94569576D01*
X109500481Y-94549504D01*
X109447672Y-94524523D01*
X109447189Y-94524252D01*
X109418518Y-94504760D01*
X109385211Y-94476910D01*
X109350571Y-94444006D01*
X109317905Y-94409352D01*
X109290517Y-94376254D01*
X109272648Y-94349711D01*
X109239298Y-94276700D01*
X109218607Y-94199832D01*
X109210725Y-94121098D01*
X109211339Y-94111586D01*
X109682327Y-94111586D01*
X109689055Y-94111991D01*
X109709380Y-94112388D01*
X109742790Y-94112776D01*
X109788772Y-94113154D01*
X109846812Y-94113520D01*
X109916396Y-94113873D01*
X109997013Y-94114212D01*
X110088147Y-94114537D01*
X110189288Y-94114845D01*
X110299920Y-94115137D01*
X110419531Y-94115409D01*
X110547607Y-94115663D01*
X110683636Y-94115895D01*
X110827104Y-94116106D01*
X110977498Y-94116294D01*
X111134305Y-94116458D01*
X111297011Y-94116596D01*
X111465103Y-94116709D01*
X111638068Y-94116793D01*
X111815393Y-94116849D01*
X111996565Y-94116875D01*
X112060856Y-94116877D01*
X112299179Y-94116862D01*
X112523611Y-94116815D01*
X112734374Y-94116737D01*
X112931688Y-94116626D01*
X113115774Y-94116482D01*
X113286852Y-94116304D01*
X113445144Y-94116092D01*
X113590870Y-94115844D01*
X113724250Y-94115560D01*
X113845506Y-94115239D01*
X113954859Y-94114880D01*
X114052528Y-94114484D01*
X114138735Y-94114049D01*
X114213701Y-94113574D01*
X114277646Y-94113058D01*
X114330790Y-94112502D01*
X114373356Y-94111904D01*
X114405563Y-94111264D01*
X114427632Y-94110581D01*
X114439784Y-94109853D01*
X114442523Y-94109274D01*
X114439100Y-94101563D01*
X114429382Y-94083141D01*
X114414190Y-94055481D01*
X114394350Y-94020057D01*
X114370683Y-93978341D01*
X114344013Y-93931807D01*
X114323238Y-93895844D01*
X114296203Y-93849157D01*
X114262488Y-93790871D01*
X114222455Y-93721612D01*
X114176467Y-93642008D01*
X114124886Y-93552689D01*
X114068075Y-93454280D01*
X114006395Y-93347411D01*
X113940209Y-93232709D01*
X113869881Y-93110802D01*
X113795771Y-92982318D01*
X113718242Y-92847885D01*
X113637657Y-92708130D01*
X113573244Y-92596405D01*
X113547103Y-92551071D01*
X113520674Y-92505253D01*
X113495670Y-92461919D01*
X113473806Y-92424041D01*
X113456794Y-92394589D01*
X113453139Y-92388266D01*
X113438527Y-92362969D01*
X113418403Y-92328091D01*
X113394292Y-92286282D01*
X113367723Y-92240190D01*
X113340223Y-92192464D01*
X113322956Y-92162488D01*
X113289528Y-92104456D01*
X113256393Y-92046952D01*
X113222767Y-91988619D01*
X113187867Y-91928099D01*
X113150909Y-91864035D01*
X113111110Y-91795067D01*
X113067686Y-91719839D01*
X113019854Y-91636991D01*
X112966830Y-91545168D01*
X112907831Y-91443009D01*
X112883272Y-91400488D01*
X112826333Y-91301899D01*
X112774921Y-91212864D01*
X112727501Y-91130722D01*
X112682538Y-91052812D01*
X112638496Y-90976472D01*
X112593839Y-90899042D01*
X112547032Y-90817859D01*
X112496539Y-90730261D01*
X112459913Y-90666711D01*
X112433583Y-90621035D01*
X112402480Y-90567098D01*
X112368887Y-90508856D01*
X112335086Y-90450268D01*
X112303360Y-90395291D01*
X112293052Y-90377433D01*
X112263438Y-90326122D01*
X112231706Y-90271126D01*
X112199929Y-90216038D01*
X112170180Y-90164452D01*
X112144530Y-90119961D01*
X112135349Y-90104030D01*
X112114371Y-90068040D01*
X112095630Y-90036679D01*
X112080303Y-90011848D01*
X112069562Y-89995448D01*
X112064582Y-89989380D01*
X112064546Y-89989377D01*
X112060853Y-89994176D01*
X112051642Y-90008720D01*
X112036783Y-90033228D01*
X112016150Y-90067919D01*
X111989614Y-90113013D01*
X111957047Y-90168729D01*
X111918323Y-90235287D01*
X111873313Y-90312906D01*
X111821889Y-90401805D01*
X111763923Y-90502205D01*
X111699289Y-90614323D01*
X111627857Y-90738381D01*
X111591961Y-90800766D01*
X111563674Y-90849912D01*
X111532166Y-90904604D01*
X111500133Y-90960170D01*
X111470266Y-91011938D01*
X111449609Y-91047711D01*
X111429759Y-91082081D01*
X111404255Y-91126266D01*
X111374487Y-91177856D01*
X111341847Y-91234439D01*
X111307725Y-91293604D01*
X111273512Y-91352940D01*
X111250169Y-91393433D01*
X111217457Y-91450176D01*
X111184500Y-91507334D01*
X111152558Y-91562720D01*
X111122893Y-91614146D01*
X111096767Y-91659425D01*
X111075442Y-91696370D01*
X111062955Y-91717988D01*
X111044194Y-91750468D01*
X111020024Y-91792330D01*
X110992084Y-91840733D01*
X110962015Y-91892835D01*
X110931458Y-91945795D01*
X110906172Y-91989627D01*
X110842604Y-92099830D01*
X110785368Y-92199051D01*
X110733747Y-92288535D01*
X110687024Y-92369525D01*
X110644480Y-92443264D01*
X110605400Y-92510995D01*
X110569065Y-92573962D01*
X110534759Y-92633407D01*
X110501763Y-92690575D01*
X110469361Y-92746708D01*
X110466521Y-92751627D01*
X110432620Y-92810363D01*
X110395458Y-92874762D01*
X110357117Y-92941218D01*
X110319677Y-93006124D01*
X110285219Y-93065875D01*
X110256902Y-93114988D01*
X110175428Y-93256331D01*
X110100836Y-93385732D01*
X110032962Y-93503475D01*
X109971644Y-93609846D01*
X109916716Y-93705129D01*
X109868014Y-93789607D01*
X109825376Y-93863566D01*
X109788636Y-93927289D01*
X109757632Y-93981062D01*
X109732198Y-94025167D01*
X109712172Y-94059890D01*
X109697389Y-94085516D01*
X109687685Y-94102327D01*
X109682896Y-94110609D01*
X109682327Y-94111586D01*
X109211339Y-94111586D01*
X109215803Y-94042489D01*
X109233992Y-93965996D01*
X109241927Y-93944016D01*
X109248858Y-93929207D01*
X109262232Y-93903413D01*
X109281378Y-93867838D01*
X109305626Y-93823685D01*
X109334306Y-93772157D01*
X109366747Y-93714457D01*
X109402280Y-93651789D01*
X109440233Y-93585355D01*
X109479938Y-93516359D01*
X109485593Y-93506572D01*
X109529779Y-93430138D01*
X109575788Y-93350535D01*
X109622456Y-93269779D01*
X109668620Y-93189886D01*
X109713113Y-93112872D01*
X109754772Y-93040753D01*
X109792431Y-92975543D01*
X109824927Y-92919260D01*
X109842270Y-92889211D01*
X109935928Y-92726912D01*
X110022864Y-92576260D01*
X110103410Y-92436680D01*
X110177896Y-92307597D01*
X110246656Y-92188435D01*
X110310020Y-92078619D01*
X110368320Y-91977576D01*
X110421888Y-91884729D01*
X110471055Y-91799503D01*
X110516154Y-91721324D01*
X110557516Y-91649617D01*
X110595471Y-91583806D01*
X110630354Y-91523317D01*
X110662493Y-91467575D01*
X110692223Y-91416004D01*
X110719873Y-91368030D01*
X110745776Y-91323077D01*
X110770264Y-91280571D01*
X110793667Y-91239937D01*
X110816319Y-91200599D01*
X110838549Y-91161983D01*
X110849498Y-91142961D01*
X110883390Y-91084110D01*
X110921103Y-91018684D01*
X110960372Y-90950606D01*
X110998933Y-90883800D01*
X111034523Y-90822191D01*
X111059150Y-90779600D01*
X111085951Y-90733251D01*
X111118272Y-90677320D01*
X111154588Y-90614448D01*
X111193371Y-90547280D01*
X111233097Y-90478458D01*
X111272238Y-90410624D01*
X111309270Y-90346423D01*
X111309696Y-90345683D01*
X111367832Y-90244877D01*
X111419351Y-90155572D01*
X111464676Y-90077040D01*
X111504232Y-90008553D01*
X111538443Y-89949383D01*
X111567734Y-89898802D01*
X111592529Y-89856083D01*
X111613252Y-89820498D01*
X111630329Y-89791318D01*
X111644182Y-89767817D01*
X111655237Y-89749267D01*
X111663918Y-89734939D01*
X111670649Y-89724106D01*
X111675854Y-89716040D01*
X111679959Y-89710013D01*
X111682009Y-89707155D01*
X111735346Y-89645832D01*
X111797093Y-89595457D01*
X111866075Y-89556625D01*
X111941114Y-89529929D01*
X112021035Y-89515962D01*
X112064800Y-89513925D01*
X112145567Y-89520476D01*
D14*
G04 #@! TO.C,J1*
X119079100Y-105186100D02*
X119079100Y-102526100D01*
X98639100Y-105186100D02*
X119079100Y-105186100D01*
X98648300Y-102526100D02*
X119079100Y-102526100D01*
X98639100Y-105186100D02*
X98648300Y-102526100D01*
G04 #@! TO.C,JP1*
X106050000Y-94275000D02*
X104050000Y-94275000D01*
X106050000Y-91475000D02*
X106050000Y-94275000D01*
X104050000Y-91475000D02*
X106050000Y-91475000D01*
X104050000Y-94275000D02*
X104050000Y-91475000D01*
G04 #@! TO.C,R3*
X108172936Y-87610000D02*
X108627064Y-87610000D01*
X108172936Y-86140000D02*
X108627064Y-86140000D01*
G04 #@! TO.C,R2*
X102027064Y-78390000D02*
X101572936Y-78390000D01*
X102027064Y-79860000D02*
X101572936Y-79860000D01*
G04 #@! TO.C,R1*
X114152064Y-78240000D02*
X113697936Y-78240000D01*
X114152064Y-79710000D02*
X113697936Y-79710000D01*
G04 #@! TO.C,C4*
X99561252Y-75715000D02*
X99038748Y-75715000D01*
X99561252Y-77185000D02*
X99038748Y-77185000D01*
G04 #@! TO.C,C3*
X102638748Y-85310000D02*
X103161252Y-85310000D01*
X102638748Y-83840000D02*
X103161252Y-83840000D01*
G04 #@! TO.C,C2*
X108088748Y-85410000D02*
X108611252Y-85410000D01*
X108088748Y-83940000D02*
X108611252Y-83940000D01*
G04 #@! TO.C,C1*
X97011252Y-95315000D02*
X96488748Y-95315000D01*
X97011252Y-96785000D02*
X96488748Y-96785000D01*
G04 #@! TO.C,FB2*
X107459412Y-83054260D02*
X106936908Y-83054260D01*
X107459412Y-81634260D02*
X106936908Y-81634260D01*
G04 #@! TO.C,FB1*
X102608748Y-81776500D02*
X103131252Y-81776500D01*
X102608748Y-83196500D02*
X103131252Y-83196500D01*
G04 #@! TO.C,IC1*
D15*
X112428571Y-69972619D02*
X112904761Y-69972619D01*
X112779761Y-70972619D01*
X112136904Y-70020238D02*
X112000000Y-69972619D01*
X111761904Y-69972619D01*
X111660714Y-70020238D01*
X111607142Y-70067857D01*
X111547619Y-70163095D01*
X111535714Y-70258333D01*
X111571428Y-70353571D01*
X111613095Y-70401190D01*
X111702380Y-70448809D01*
X111886904Y-70496428D01*
X111976190Y-70544047D01*
X112017857Y-70591666D01*
X112053571Y-70686904D01*
X112041666Y-70782142D01*
X111982142Y-70877380D01*
X111928571Y-70925000D01*
X111827380Y-70972619D01*
X111589285Y-70972619D01*
X111452380Y-70925000D01*
X110827380Y-70972619D02*
X110732142Y-70972619D01*
X110642857Y-70925000D01*
X110601190Y-70877380D01*
X110565476Y-70782142D01*
X110541666Y-70591666D01*
X110571428Y-70353571D01*
X110642857Y-70163095D01*
X110702380Y-70067857D01*
X110755952Y-70020238D01*
X110857142Y-69972619D01*
X110952380Y-69972619D01*
X111041666Y-70020238D01*
X111083333Y-70067857D01*
X111119047Y-70163095D01*
X111142857Y-70353571D01*
X111113095Y-70591666D01*
X111041666Y-70782142D01*
X110982142Y-70877380D01*
X110928571Y-70925000D01*
X110827380Y-70972619D01*
X109666666Y-69972619D02*
X110238095Y-69972619D01*
X109952380Y-69972619D02*
X109827380Y-70972619D01*
X109940476Y-70829761D01*
X110047619Y-70734523D01*
X110148809Y-70686904D01*
X109208333Y-70972619D02*
X108589285Y-70972619D01*
X108970238Y-70591666D01*
X108827380Y-70591666D01*
X108738095Y-70544047D01*
X108696428Y-70496428D01*
X108660714Y-70401190D01*
X108690476Y-70163095D01*
X108750000Y-70067857D01*
X108803571Y-70020238D01*
X108904761Y-69972619D01*
X109190476Y-69972619D01*
X109279761Y-70020238D01*
X109321428Y-70067857D01*
X107886904Y-70496428D02*
X107750000Y-70448809D01*
X107708333Y-70401190D01*
X107672619Y-70305952D01*
X107690476Y-70163095D01*
X107750000Y-70067857D01*
X107803571Y-70020238D01*
X107904761Y-69972619D01*
X108285714Y-69972619D01*
X108160714Y-70972619D01*
X107827380Y-70972619D01*
X107738095Y-70925000D01*
X107696428Y-70877380D01*
X107660714Y-70782142D01*
X107672619Y-70686904D01*
X107732142Y-70591666D01*
X107785714Y-70544047D01*
X107886904Y-70496428D01*
X108220238Y-70496428D01*
X107255952Y-70972619D02*
X106589285Y-70972619D01*
X107142857Y-69972619D01*
X106333333Y-69972619D02*
X106208333Y-70972619D01*
X105970238Y-70972619D01*
X105833333Y-70925000D01*
X105750000Y-70829761D01*
X105714285Y-70734523D01*
X105690476Y-70544047D01*
X105708333Y-70401190D01*
X105779761Y-70210714D01*
X105839285Y-70115476D01*
X105946428Y-70020238D01*
X106095238Y-69972619D01*
X106333333Y-69972619D01*
X105333333Y-69972619D02*
X105208333Y-70972619D01*
X105267857Y-70496428D02*
X104696428Y-70496428D01*
X104761904Y-69972619D02*
X104636904Y-70972619D01*
X103970238Y-70972619D02*
X103875000Y-70972619D01*
X103785714Y-70925000D01*
X103744047Y-70877380D01*
X103708333Y-70782142D01*
X103684523Y-70591666D01*
X103714285Y-70353571D01*
X103785714Y-70163095D01*
X103845238Y-70067857D01*
X103898809Y-70020238D01*
X104000000Y-69972619D01*
X104095238Y-69972619D01*
X104184523Y-70020238D01*
X104226190Y-70067857D01*
X104261904Y-70163095D01*
X104285714Y-70353571D01*
X104255952Y-70591666D01*
X104184523Y-70782142D01*
X104125000Y-70877380D01*
X104071428Y-70925000D01*
X103970238Y-70972619D01*
X102732142Y-70972619D02*
X103208333Y-70972619D01*
X103315476Y-70496428D01*
X103261904Y-70544047D01*
X103160714Y-70591666D01*
X102922619Y-70591666D01*
X102833333Y-70544047D01*
X102791666Y-70496428D01*
X102755952Y-70401190D01*
X102785714Y-70163095D01*
X102845238Y-70067857D01*
X102898809Y-70020238D01*
X103000000Y-69972619D01*
X103238095Y-69972619D01*
X103327380Y-70020238D01*
X103369047Y-70067857D01*
D16*
X104003446Y-75100310D02*
X104003446Y-74600310D01*
X104170113Y-74957453D01*
X104336780Y-74600310D01*
X104336780Y-75100310D01*
X104646303Y-75100310D02*
X104598684Y-75076500D01*
X104574875Y-75052691D01*
X104551065Y-75005072D01*
X104551065Y-74862215D01*
X104574875Y-74814596D01*
X104598684Y-74790786D01*
X104646303Y-74766977D01*
X104717732Y-74766977D01*
X104765351Y-74790786D01*
X104789160Y-74814596D01*
X104812970Y-74862215D01*
X104812970Y-75005072D01*
X104789160Y-75052691D01*
X104765351Y-75076500D01*
X104717732Y-75100310D01*
X104646303Y-75100310D01*
X105098684Y-75100310D02*
X105051065Y-75076500D01*
X105027256Y-75028881D01*
X105027256Y-74600310D01*
X105479637Y-75076500D02*
X105432018Y-75100310D01*
X105336780Y-75100310D01*
X105289160Y-75076500D01*
X105265351Y-75028881D01*
X105265351Y-74838405D01*
X105289160Y-74790786D01*
X105336780Y-74766977D01*
X105432018Y-74766977D01*
X105479637Y-74790786D01*
X105503446Y-74838405D01*
X105503446Y-74886024D01*
X105265351Y-74933643D01*
X105670113Y-75100310D02*
X105932018Y-74766977D01*
X105670113Y-74766977D02*
X105932018Y-75100310D01*
X106741541Y-74600310D02*
X106503446Y-74600310D01*
X106479637Y-74838405D01*
X106503446Y-74814596D01*
X106551065Y-74790786D01*
X106670113Y-74790786D01*
X106717732Y-74814596D01*
X106741541Y-74838405D01*
X106765351Y-74886024D01*
X106765351Y-75005072D01*
X106741541Y-75052691D01*
X106717732Y-75076500D01*
X106670113Y-75100310D01*
X106551065Y-75100310D01*
X106503446Y-75076500D01*
X106479637Y-75052691D01*
X106955827Y-74647929D02*
X106979637Y-74624120D01*
X107027256Y-74600310D01*
X107146303Y-74600310D01*
X107193922Y-74624120D01*
X107217732Y-74647929D01*
X107241541Y-74695548D01*
X107241541Y-74743167D01*
X107217732Y-74814596D01*
X106932018Y-75100310D01*
X107241541Y-75100310D01*
X107527256Y-74814596D02*
X107479637Y-74790786D01*
X107455827Y-74766977D01*
X107432018Y-74719358D01*
X107432018Y-74695548D01*
X107455827Y-74647929D01*
X107479637Y-74624120D01*
X107527256Y-74600310D01*
X107622494Y-74600310D01*
X107670113Y-74624120D01*
X107693922Y-74647929D01*
X107717732Y-74695548D01*
X107717732Y-74719358D01*
X107693922Y-74766977D01*
X107670113Y-74790786D01*
X107622494Y-74814596D01*
X107527256Y-74814596D01*
X107479637Y-74838405D01*
X107455827Y-74862215D01*
X107432018Y-74909834D01*
X107432018Y-75005072D01*
X107455827Y-75052691D01*
X107479637Y-75076500D01*
X107527256Y-75100310D01*
X107622494Y-75100310D01*
X107670113Y-75076500D01*
X107693922Y-75052691D01*
X107717732Y-75005072D01*
X107717732Y-74909834D01*
X107693922Y-74862215D01*
X107670113Y-74838405D01*
X107622494Y-74814596D01*
X107955827Y-75100310D02*
X108051065Y-75100310D01*
X108098684Y-75076500D01*
X108122494Y-75052691D01*
X108170113Y-74981262D01*
X108193922Y-74886024D01*
X108193922Y-74695548D01*
X108170113Y-74647929D01*
X108146303Y-74624120D01*
X108098684Y-74600310D01*
X108003446Y-74600310D01*
X107955827Y-74624120D01*
X107932018Y-74647929D01*
X107908208Y-74695548D01*
X107908208Y-74814596D01*
X107932018Y-74862215D01*
X107955827Y-74886024D01*
X108003446Y-74909834D01*
X108098684Y-74909834D01*
X108146303Y-74886024D01*
X108170113Y-74862215D01*
X108193922Y-74814596D01*
X108384399Y-74647929D02*
X108408208Y-74624120D01*
X108455827Y-74600310D01*
X108574875Y-74600310D01*
X108622494Y-74624120D01*
X108646303Y-74647929D01*
X108670113Y-74695548D01*
X108670113Y-74743167D01*
X108646303Y-74814596D01*
X108360589Y-75100310D01*
X108670113Y-75100310D01*
X108884399Y-74909834D02*
X109265351Y-74909834D01*
X109765351Y-75100310D02*
X109479637Y-75100310D01*
X109622494Y-75100310D02*
X109622494Y-74600310D01*
X109574875Y-74671739D01*
X109527256Y-74719358D01*
X109479637Y-74743167D01*
X110074875Y-74600310D02*
X110122494Y-74600310D01*
X110170113Y-74624120D01*
X110193922Y-74647929D01*
X110217732Y-74695548D01*
X110241541Y-74790786D01*
X110241541Y-74909834D01*
X110217732Y-75005072D01*
X110193922Y-75052691D01*
X110170113Y-75076500D01*
X110122494Y-75100310D01*
X110074875Y-75100310D01*
X110027256Y-75076500D01*
X110003446Y-75052691D01*
X109979637Y-75005072D01*
X109955827Y-74909834D01*
X109955827Y-74790786D01*
X109979637Y-74695548D01*
X110003446Y-74647929D01*
X110027256Y-74624120D01*
X110074875Y-74600310D01*
X110408208Y-74600310D02*
X110717732Y-74600310D01*
X110551065Y-74790786D01*
X110622494Y-74790786D01*
X110670113Y-74814596D01*
X110693922Y-74838405D01*
X110717732Y-74886024D01*
X110717732Y-75005072D01*
X110693922Y-75052691D01*
X110670113Y-75076500D01*
X110622494Y-75100310D01*
X110479637Y-75100310D01*
X110432018Y-75076500D01*
X110408208Y-75052691D01*
X110884399Y-74600310D02*
X111193922Y-74600310D01*
X111027256Y-74790786D01*
X111098684Y-74790786D01*
X111146303Y-74814596D01*
X111170113Y-74838405D01*
X111193922Y-74886024D01*
X111193922Y-75005072D01*
X111170113Y-75052691D01*
X111146303Y-75076500D01*
X111098684Y-75100310D01*
X110955827Y-75100310D01*
X110908208Y-75076500D01*
X110884399Y-75052691D01*
G04 #@! TO.C,JP1*
D10*
X102525580Y-94978266D02*
X103239866Y-94978266D01*
X103382723Y-95025885D01*
X103477961Y-95121123D01*
X103525580Y-95263980D01*
X103525580Y-95359219D01*
X102858914Y-94073504D02*
X103525580Y-94073504D01*
X102858914Y-94502076D02*
X103382723Y-94502076D01*
X103477961Y-94454457D01*
X103525580Y-94359219D01*
X103525580Y-94216361D01*
X103477961Y-94121123D01*
X103430342Y-94073504D01*
X103525580Y-93597314D02*
X102858914Y-93597314D01*
X102954152Y-93597314D02*
X102906533Y-93549695D01*
X102858914Y-93454457D01*
X102858914Y-93311600D01*
X102906533Y-93216361D01*
X103001771Y-93168742D01*
X103525580Y-93168742D01*
X103001771Y-93168742D02*
X102906533Y-93121123D01*
X102858914Y-93025885D01*
X102858914Y-92883028D01*
X102906533Y-92787790D01*
X103001771Y-92740171D01*
X103525580Y-92740171D01*
X102858914Y-92263980D02*
X103858914Y-92263980D01*
X102906533Y-92263980D02*
X102858914Y-92168742D01*
X102858914Y-91978266D01*
X102906533Y-91883028D01*
X102954152Y-91835409D01*
X103049390Y-91787790D01*
X103335104Y-91787790D01*
X103430342Y-91835409D01*
X103477961Y-91883028D01*
X103525580Y-91978266D01*
X103525580Y-92168742D01*
X103477961Y-92263980D01*
X103477961Y-90978266D02*
X103525580Y-91073504D01*
X103525580Y-91263980D01*
X103477961Y-91359219D01*
X103382723Y-91406838D01*
X103001771Y-91406838D01*
X102906533Y-91359219D01*
X102858914Y-91263980D01*
X102858914Y-91073504D01*
X102906533Y-90978266D01*
X103001771Y-90930647D01*
X103097009Y-90930647D01*
X103192247Y-91406838D01*
X103525580Y-90502076D02*
X102858914Y-90502076D01*
X103049390Y-90502076D02*
X102954152Y-90454457D01*
X102906533Y-90406838D01*
X102858914Y-90311600D01*
X102858914Y-90216361D01*
G04 #@! TO.C,R3*
X111084523Y-87377380D02*
X110513095Y-87377380D01*
X110798809Y-87377380D02*
X110798809Y-86377380D01*
X110703571Y-86520238D01*
X110608333Y-86615476D01*
X110513095Y-86663095D01*
X111703571Y-86377380D02*
X111798809Y-86377380D01*
X111894047Y-86425000D01*
X111941666Y-86472619D01*
X111989285Y-86567857D01*
X112036904Y-86758333D01*
X112036904Y-86996428D01*
X111989285Y-87186904D01*
X111941666Y-87282142D01*
X111894047Y-87329761D01*
X111798809Y-87377380D01*
X111703571Y-87377380D01*
X111608333Y-87329761D01*
X111560714Y-87282142D01*
X111513095Y-87186904D01*
X111465476Y-86996428D01*
X111465476Y-86758333D01*
X111513095Y-86567857D01*
X111560714Y-86472619D01*
X111608333Y-86425000D01*
X111703571Y-86377380D01*
X112465476Y-87377380D02*
X112465476Y-86377380D01*
X113036904Y-87377380D02*
X112608333Y-86805952D01*
X113036904Y-86377380D02*
X112465476Y-86948809D01*
G04 #@! TO.C,R2*
X97759523Y-79577380D02*
X97188095Y-79577380D01*
X97473809Y-79577380D02*
X97473809Y-78577380D01*
X97378571Y-78720238D01*
X97283333Y-78815476D01*
X97188095Y-78863095D01*
X98378571Y-78577380D02*
X98473809Y-78577380D01*
X98569047Y-78625000D01*
X98616666Y-78672619D01*
X98664285Y-78767857D01*
X98711904Y-78958333D01*
X98711904Y-79196428D01*
X98664285Y-79386904D01*
X98616666Y-79482142D01*
X98569047Y-79529761D01*
X98473809Y-79577380D01*
X98378571Y-79577380D01*
X98283333Y-79529761D01*
X98235714Y-79482142D01*
X98188095Y-79386904D01*
X98140476Y-79196428D01*
X98140476Y-78958333D01*
X98188095Y-78767857D01*
X98235714Y-78672619D01*
X98283333Y-78625000D01*
X98378571Y-78577380D01*
X99140476Y-79577380D02*
X99140476Y-78577380D01*
X99711904Y-79577380D02*
X99283333Y-79005952D01*
X99711904Y-78577380D02*
X99140476Y-79148809D01*
G04 #@! TO.C,R1*
X113509523Y-81152380D02*
X112938095Y-81152380D01*
X113223809Y-81152380D02*
X113223809Y-80152380D01*
X113128571Y-80295238D01*
X113033333Y-80390476D01*
X112938095Y-80438095D01*
X114128571Y-80152380D02*
X114223809Y-80152380D01*
X114319047Y-80200000D01*
X114366666Y-80247619D01*
X114414285Y-80342857D01*
X114461904Y-80533333D01*
X114461904Y-80771428D01*
X114414285Y-80961904D01*
X114366666Y-81057142D01*
X114319047Y-81104761D01*
X114223809Y-81152380D01*
X114128571Y-81152380D01*
X114033333Y-81104761D01*
X113985714Y-81057142D01*
X113938095Y-80961904D01*
X113890476Y-80771428D01*
X113890476Y-80533333D01*
X113938095Y-80342857D01*
X113985714Y-80247619D01*
X114033333Y-80200000D01*
X114128571Y-80152380D01*
X114890476Y-81152380D02*
X114890476Y-80152380D01*
X115461904Y-81152380D02*
X115033333Y-80580952D01*
X115461904Y-80152380D02*
X114890476Y-80723809D01*
G04 #@! TO.C,C4*
X98847619Y-75222380D02*
X98276190Y-75222380D01*
X98561904Y-75222380D02*
X98561904Y-74222380D01*
X98466666Y-74365238D01*
X98371428Y-74460476D01*
X98276190Y-74508095D01*
X99704761Y-74555714D02*
X99704761Y-75222380D01*
X99276190Y-74555714D02*
X99276190Y-75079523D01*
X99323809Y-75174761D01*
X99419047Y-75222380D01*
X99561904Y-75222380D01*
X99657142Y-75174761D01*
X99704761Y-75127142D01*
X100038095Y-74555714D02*
X100419047Y-74555714D01*
X100180952Y-75222380D02*
X100180952Y-74365238D01*
X100228571Y-74270000D01*
X100323809Y-74222380D01*
X100419047Y-74222380D01*
G04 #@! TO.C,C3*
X102447619Y-86707380D02*
X101876190Y-86707380D01*
X102161904Y-86707380D02*
X102161904Y-85707380D01*
X102066666Y-85850238D01*
X101971428Y-85945476D01*
X101876190Y-85993095D01*
X103304761Y-86040714D02*
X103304761Y-86707380D01*
X102876190Y-86040714D02*
X102876190Y-86564523D01*
X102923809Y-86659761D01*
X103019047Y-86707380D01*
X103161904Y-86707380D01*
X103257142Y-86659761D01*
X103304761Y-86612142D01*
X103638095Y-86040714D02*
X104019047Y-86040714D01*
X103780952Y-86707380D02*
X103780952Y-85850238D01*
X103828571Y-85755000D01*
X103923809Y-85707380D01*
X104019047Y-85707380D01*
G04 #@! TO.C,C2*
X110825000Y-84077380D02*
X110920238Y-84077380D01*
X111015476Y-84125000D01*
X111063095Y-84172619D01*
X111110714Y-84267857D01*
X111158333Y-84458333D01*
X111158333Y-84696428D01*
X111110714Y-84886904D01*
X111063095Y-84982142D01*
X111015476Y-85029761D01*
X110920238Y-85077380D01*
X110825000Y-85077380D01*
X110729761Y-85029761D01*
X110682142Y-84982142D01*
X110634523Y-84886904D01*
X110586904Y-84696428D01*
X110586904Y-84458333D01*
X110634523Y-84267857D01*
X110682142Y-84172619D01*
X110729761Y-84125000D01*
X110825000Y-84077380D01*
X111586904Y-84982142D02*
X111634523Y-85029761D01*
X111586904Y-85077380D01*
X111539285Y-85029761D01*
X111586904Y-84982142D01*
X111586904Y-85077380D01*
X112586904Y-85077380D02*
X112015476Y-85077380D01*
X112301190Y-85077380D02*
X112301190Y-84077380D01*
X112205952Y-84220238D01*
X112110714Y-84315476D01*
X112015476Y-84363095D01*
X113444047Y-84410714D02*
X113444047Y-85077380D01*
X113015476Y-84410714D02*
X113015476Y-84934523D01*
X113063095Y-85029761D01*
X113158333Y-85077380D01*
X113301190Y-85077380D01*
X113396428Y-85029761D01*
X113444047Y-84982142D01*
X113777380Y-84410714D02*
X114158333Y-84410714D01*
X113920238Y-85077380D02*
X113920238Y-84220238D01*
X113967857Y-84125000D01*
X114063095Y-84077380D01*
X114158333Y-84077380D01*
G04 #@! TO.C,C1*
X95246428Y-98202380D02*
X94675000Y-98202380D01*
X94960714Y-98202380D02*
X94960714Y-97202380D01*
X94865476Y-97345238D01*
X94770238Y-97440476D01*
X94675000Y-97488095D01*
X95865476Y-97202380D02*
X95960714Y-97202380D01*
X96055952Y-97250000D01*
X96103571Y-97297619D01*
X96151190Y-97392857D01*
X96198809Y-97583333D01*
X96198809Y-97821428D01*
X96151190Y-98011904D01*
X96103571Y-98107142D01*
X96055952Y-98154761D01*
X95960714Y-98202380D01*
X95865476Y-98202380D01*
X95770238Y-98154761D01*
X95722619Y-98107142D01*
X95675000Y-98011904D01*
X95627380Y-97821428D01*
X95627380Y-97583333D01*
X95675000Y-97392857D01*
X95722619Y-97297619D01*
X95770238Y-97250000D01*
X95865476Y-97202380D01*
X97055952Y-97535714D02*
X97055952Y-98202380D01*
X96627380Y-97535714D02*
X96627380Y-98059523D01*
X96675000Y-98154761D01*
X96770238Y-98202380D01*
X96913095Y-98202380D01*
X97008333Y-98154761D01*
X97055952Y-98107142D01*
X97389285Y-97535714D02*
X97770238Y-97535714D01*
X97532142Y-98202380D02*
X97532142Y-97345238D01*
X97579761Y-97250000D01*
X97675000Y-97202380D01*
X97770238Y-97202380D01*
G04 #@! TO.C,FB2*
X106841017Y-80622831D02*
X106507683Y-80622831D01*
X106507683Y-81146640D02*
X106507683Y-80146640D01*
X106983874Y-80146640D01*
X107698160Y-80622831D02*
X107841017Y-80670450D01*
X107888636Y-80718069D01*
X107936255Y-80813307D01*
X107936255Y-80956164D01*
X107888636Y-81051402D01*
X107841017Y-81099021D01*
X107745779Y-81146640D01*
X107364826Y-81146640D01*
X107364826Y-80146640D01*
X107698160Y-80146640D01*
X107793398Y-80194260D01*
X107841017Y-80241879D01*
X107888636Y-80337117D01*
X107888636Y-80432355D01*
X107841017Y-80527593D01*
X107793398Y-80575212D01*
X107698160Y-80622831D01*
X107364826Y-80622831D01*
G04 #@! TO.C,FB1*
X102492857Y-80778571D02*
X102159523Y-80778571D01*
X102159523Y-81302380D02*
X102159523Y-80302380D01*
X102635714Y-80302380D01*
X103350000Y-80778571D02*
X103492857Y-80826190D01*
X103540476Y-80873809D01*
X103588095Y-80969047D01*
X103588095Y-81111904D01*
X103540476Y-81207142D01*
X103492857Y-81254761D01*
X103397619Y-81302380D01*
X103016666Y-81302380D01*
X103016666Y-80302380D01*
X103350000Y-80302380D01*
X103445238Y-80350000D01*
X103492857Y-80397619D01*
X103540476Y-80492857D01*
X103540476Y-80588095D01*
X103492857Y-80683333D01*
X103445238Y-80730952D01*
X103350000Y-80778571D01*
X103016666Y-80778571D01*
G04 #@! TD*
M02*
