%FSLAX45Y45*%
G04 Gerber Fmt 4.5, Leading zero omitted, Abs format (unit mm)*
G04 Created by KiCad (PCBNEW (5.1.10)-1) date 2021-09-08 10:42:04*
%MOMM*%
%LPD*%
G01*
G04 APERTURE LIST*
%TA.AperFunction,Profile*%
%ADD10C,0.050000*%
%TD*%
%ADD11C,0.200000*%
%ADD12C,0.300000*%
G04 APERTURE END LIST*
D10*
X12459970Y-10040620D02*
X12259310Y-10040620D01*
X12259310Y-7339330D02*
X12259310Y-10040620D01*
X12458700Y-7339330D02*
X12259310Y-7339330D01*
X9060180Y-6739890D02*
X12458700Y-6739890D01*
X9060180Y-10640060D02*
X12459970Y-10640060D01*
X9259570Y-7339330D02*
X9060180Y-7339330D01*
X9259570Y-10040620D02*
X9259570Y-7339330D01*
X9060180Y-10040620D02*
X9259570Y-10040620D01*
X9060180Y-10640060D02*
G75*
G02*
X9060180Y-10040620I0J299720D01*
G01*
X9060180Y-7339330D02*
G75*
G02*
X9060180Y-6739890I0J299720D01*
G01*
X12458700Y-6739890D02*
G75*
G02*
X12458700Y-7339330I0J-299720D01*
G01*
X12459970Y-10040620D02*
G75*
G02*
X12459970Y-10640060I0J-299720D01*
G01*
D11*
X9515000Y-9420000D02*
X9555000Y-9460000D01*
X9555000Y-9420000D02*
X9515000Y-9460000D01*
X9541068Y-10367584D02*
X9581068Y-10407584D01*
X9581068Y-10367584D02*
X9541068Y-10407584D01*
X9552752Y-6975668D02*
X9592752Y-7015668D01*
X9592752Y-6975668D02*
X9552752Y-7015668D01*
X10128824Y-7765100D02*
X10168824Y-7805100D01*
X10168824Y-7765100D02*
X10128824Y-7805100D01*
X10536240Y-8026720D02*
X10576240Y-8066720D01*
X10576240Y-8026720D02*
X10536240Y-8066720D01*
X10697530Y-8356920D02*
X10737530Y-8396920D01*
X10737530Y-8356920D02*
X10697530Y-8396920D01*
X11021380Y-9794560D02*
X11061380Y-9834560D01*
X11061380Y-9794560D02*
X11021380Y-9834560D01*
X11615000Y-7875000D02*
X11655000Y-7915000D01*
X11655000Y-7875000D02*
X11615000Y-7915000D01*
X11939082Y-6945696D02*
X11979082Y-6985696D01*
X11979082Y-6945696D02*
X11939082Y-6985696D01*
X11989120Y-10358440D02*
X12029120Y-10398440D01*
X12029120Y-10358440D02*
X11989120Y-10398440D01*
X10046910Y-10385610D02*
G75*
G03*
X10046910Y-10385610I-50000J0D01*
G01*
X10300910Y-10385610D02*
G75*
G03*
X10300910Y-10385610I-50000J0D01*
G01*
X10554910Y-10385610D02*
G75*
G03*
X10554910Y-10385610I-50000J0D01*
G01*
X10808910Y-10385610D02*
G75*
G03*
X10808910Y-10385610I-50000J0D01*
G01*
X11062910Y-10385610D02*
G75*
G03*
X11062910Y-10385610I-50000J0D01*
G01*
X11316910Y-10385610D02*
G75*
G03*
X11316910Y-10385610I-50000J0D01*
G01*
X11570910Y-10385610D02*
G75*
G03*
X11570910Y-10385610I-50000J0D01*
G01*
X11824910Y-10385610D02*
G75*
G03*
X11824910Y-10385610I-50000J0D01*
G01*
X9058910Y-6889610D02*
X9058910Y-7189610D01*
X8908910Y-7039610D02*
X9208910Y-7039610D01*
X9058910Y-10189610D02*
X9058910Y-10489610D01*
X8908910Y-10339610D02*
X9208910Y-10339610D01*
X12458910Y-6889610D02*
X12458910Y-7189610D01*
X12308910Y-7039610D02*
X12608910Y-7039610D01*
X12458910Y-10189610D02*
X12458910Y-10489610D01*
X12308910Y-10339610D02*
X12608910Y-10339610D01*
D12*
X9044388Y-11108275D02*
X9044388Y-10808275D01*
X9115817Y-10808275D01*
X9158674Y-10822560D01*
X9187246Y-10851132D01*
X9201531Y-10879703D01*
X9215817Y-10936846D01*
X9215817Y-10979703D01*
X9201531Y-11036846D01*
X9187246Y-11065417D01*
X9158674Y-11093989D01*
X9115817Y-11108275D01*
X9044388Y-11108275D01*
X9344388Y-11108275D02*
X9344388Y-10908275D01*
X9344388Y-10965417D02*
X9358674Y-10936846D01*
X9372960Y-10922560D01*
X9401531Y-10908275D01*
X9430103Y-10908275D01*
X9530103Y-11108275D02*
X9530103Y-10908275D01*
X9530103Y-10808275D02*
X9515817Y-10822560D01*
X9530103Y-10836846D01*
X9544388Y-10822560D01*
X9530103Y-10808275D01*
X9530103Y-10836846D01*
X9715817Y-11108275D02*
X9687246Y-11093989D01*
X9672960Y-11065417D01*
X9672960Y-10808275D01*
X9872960Y-11108275D02*
X9844388Y-11093989D01*
X9830103Y-11065417D01*
X9830103Y-10808275D01*
X10215817Y-11108275D02*
X10215817Y-10808275D01*
X10315817Y-11022560D01*
X10415817Y-10808275D01*
X10415817Y-11108275D01*
X10687246Y-11108275D02*
X10687246Y-10951132D01*
X10672960Y-10922560D01*
X10644388Y-10908275D01*
X10587246Y-10908275D01*
X10558674Y-10922560D01*
X10687246Y-11093989D02*
X10658674Y-11108275D01*
X10587246Y-11108275D01*
X10558674Y-11093989D01*
X10544388Y-11065417D01*
X10544388Y-11036846D01*
X10558674Y-11008275D01*
X10587246Y-10993989D01*
X10658674Y-10993989D01*
X10687246Y-10979703D01*
X10830103Y-10908275D02*
X10830103Y-11208274D01*
X10830103Y-10922560D02*
X10858674Y-10908275D01*
X10915817Y-10908275D01*
X10944388Y-10922560D01*
X10958674Y-10936846D01*
X10972960Y-10965417D01*
X10972960Y-11051132D01*
X10958674Y-11079703D01*
X10944388Y-11093989D01*
X10915817Y-11108275D01*
X10858674Y-11108275D01*
X10830103Y-11093989D01*
X11101531Y-11079703D02*
X11115817Y-11093989D01*
X11101531Y-11108275D01*
X11087246Y-11093989D01*
X11101531Y-11079703D01*
X11101531Y-11108275D01*
X11101531Y-10922560D02*
X11115817Y-10936846D01*
X11101531Y-10951132D01*
X11087246Y-10936846D01*
X11101531Y-10922560D01*
X11101531Y-10951132D01*
X8717960Y-11582560D02*
X8757960Y-11622560D01*
X8757960Y-11582560D02*
X8717960Y-11622560D01*
X9101531Y-11438274D02*
X9130103Y-11438274D01*
X9158674Y-11452560D01*
X9172960Y-11466846D01*
X9187246Y-11495417D01*
X9201531Y-11552560D01*
X9201531Y-11623989D01*
X9187246Y-11681132D01*
X9172960Y-11709703D01*
X9158674Y-11723989D01*
X9130103Y-11738274D01*
X9101531Y-11738274D01*
X9072960Y-11723989D01*
X9058674Y-11709703D01*
X9044388Y-11681132D01*
X9030103Y-11623989D01*
X9030103Y-11552560D01*
X9044388Y-11495417D01*
X9058674Y-11466846D01*
X9072960Y-11452560D01*
X9101531Y-11438274D01*
X9330103Y-11709703D02*
X9344388Y-11723989D01*
X9330103Y-11738274D01*
X9315817Y-11723989D01*
X9330103Y-11709703D01*
X9330103Y-11738274D01*
X9601531Y-11538274D02*
X9601531Y-11738274D01*
X9530103Y-11423989D02*
X9458674Y-11638274D01*
X9644388Y-11638274D01*
X9815817Y-11438274D02*
X9844388Y-11438274D01*
X9872960Y-11452560D01*
X9887246Y-11466846D01*
X9901531Y-11495417D01*
X9915817Y-11552560D01*
X9915817Y-11623989D01*
X9901531Y-11681132D01*
X9887246Y-11709703D01*
X9872960Y-11723989D01*
X9844388Y-11738274D01*
X9815817Y-11738274D01*
X9787246Y-11723989D01*
X9772960Y-11709703D01*
X9758674Y-11681132D01*
X9744388Y-11623989D01*
X9744388Y-11552560D01*
X9758674Y-11495417D01*
X9772960Y-11466846D01*
X9787246Y-11452560D01*
X9815817Y-11438274D01*
X10101531Y-11438274D02*
X10130103Y-11438274D01*
X10158674Y-11452560D01*
X10172960Y-11466846D01*
X10187246Y-11495417D01*
X10201531Y-11552560D01*
X10201531Y-11623989D01*
X10187246Y-11681132D01*
X10172960Y-11709703D01*
X10158674Y-11723989D01*
X10130103Y-11738274D01*
X10101531Y-11738274D01*
X10072960Y-11723989D01*
X10058674Y-11709703D01*
X10044388Y-11681132D01*
X10030103Y-11623989D01*
X10030103Y-11552560D01*
X10044388Y-11495417D01*
X10058674Y-11466846D01*
X10072960Y-11452560D01*
X10101531Y-11438274D01*
X10330103Y-11738274D02*
X10330103Y-11538274D01*
X10330103Y-11566846D02*
X10344388Y-11552560D01*
X10372960Y-11538274D01*
X10415817Y-11538274D01*
X10444388Y-11552560D01*
X10458674Y-11581132D01*
X10458674Y-11738274D01*
X10458674Y-11581132D02*
X10472960Y-11552560D01*
X10501531Y-11538274D01*
X10544388Y-11538274D01*
X10572960Y-11552560D01*
X10587246Y-11581132D01*
X10587246Y-11738274D01*
X10730103Y-11738274D02*
X10730103Y-11538274D01*
X10730103Y-11566846D02*
X10744388Y-11552560D01*
X10772960Y-11538274D01*
X10815817Y-11538274D01*
X10844388Y-11552560D01*
X10858674Y-11581132D01*
X10858674Y-11738274D01*
X10858674Y-11581132D02*
X10872960Y-11552560D01*
X10901531Y-11538274D01*
X10944388Y-11538274D01*
X10972960Y-11552560D01*
X10987246Y-11581132D01*
X10987246Y-11738274D01*
X11572960Y-11423989D02*
X11315817Y-11809703D01*
X11958674Y-11438274D02*
X11987245Y-11438274D01*
X12015817Y-11452560D01*
X12030103Y-11466846D01*
X12044388Y-11495417D01*
X12058674Y-11552560D01*
X12058674Y-11623989D01*
X12044388Y-11681132D01*
X12030103Y-11709703D01*
X12015817Y-11723989D01*
X11987245Y-11738274D01*
X11958674Y-11738274D01*
X11930103Y-11723989D01*
X11915817Y-11709703D01*
X11901531Y-11681132D01*
X11887245Y-11623989D01*
X11887245Y-11552560D01*
X11901531Y-11495417D01*
X11915817Y-11466846D01*
X11930103Y-11452560D01*
X11958674Y-11438274D01*
X12187245Y-11709703D02*
X12201531Y-11723989D01*
X12187245Y-11738274D01*
X12172960Y-11723989D01*
X12187245Y-11709703D01*
X12187245Y-11738274D01*
X12387245Y-11438274D02*
X12415817Y-11438274D01*
X12444388Y-11452560D01*
X12458674Y-11466846D01*
X12472960Y-11495417D01*
X12487245Y-11552560D01*
X12487245Y-11623989D01*
X12472960Y-11681132D01*
X12458674Y-11709703D01*
X12444388Y-11723989D01*
X12415817Y-11738274D01*
X12387245Y-11738274D01*
X12358674Y-11723989D01*
X12344388Y-11709703D01*
X12330103Y-11681132D01*
X12315817Y-11623989D01*
X12315817Y-11552560D01*
X12330103Y-11495417D01*
X12344388Y-11466846D01*
X12358674Y-11452560D01*
X12387245Y-11438274D01*
X12772960Y-11738274D02*
X12601531Y-11738274D01*
X12687245Y-11738274D02*
X12687245Y-11438274D01*
X12658674Y-11481132D01*
X12630103Y-11509703D01*
X12601531Y-11523989D01*
X13044388Y-11438274D02*
X12901531Y-11438274D01*
X12887245Y-11581132D01*
X12901531Y-11566846D01*
X12930103Y-11552560D01*
X13001531Y-11552560D01*
X13030103Y-11566846D01*
X13044388Y-11581132D01*
X13058674Y-11609703D01*
X13058674Y-11681132D01*
X13044388Y-11709703D01*
X13030103Y-11723989D01*
X13001531Y-11738274D01*
X12930103Y-11738274D01*
X12901531Y-11723989D01*
X12887245Y-11709703D01*
X13158674Y-11438274D02*
X13358674Y-11438274D01*
X13230103Y-11738274D01*
X13458674Y-11438274D02*
X13458674Y-11495417D01*
X13572960Y-11438274D02*
X13572960Y-11495417D01*
X14015817Y-11852560D02*
X14001531Y-11838274D01*
X13972960Y-11795417D01*
X13958674Y-11766846D01*
X13944388Y-11723989D01*
X13930103Y-11652560D01*
X13930103Y-11595417D01*
X13944388Y-11523989D01*
X13958674Y-11481132D01*
X13972960Y-11452560D01*
X14001531Y-11409703D01*
X14015817Y-11395417D01*
X14287245Y-11738274D02*
X14115817Y-11738274D01*
X14201531Y-11738274D02*
X14201531Y-11438274D01*
X14172960Y-11481132D01*
X14144388Y-11509703D01*
X14115817Y-11523989D01*
X14472960Y-11438274D02*
X14501531Y-11438274D01*
X14530103Y-11452560D01*
X14544388Y-11466846D01*
X14558674Y-11495417D01*
X14572960Y-11552560D01*
X14572960Y-11623989D01*
X14558674Y-11681132D01*
X14544388Y-11709703D01*
X14530103Y-11723989D01*
X14501531Y-11738274D01*
X14472960Y-11738274D01*
X14444388Y-11723989D01*
X14430103Y-11709703D01*
X14415817Y-11681132D01*
X14401531Y-11623989D01*
X14401531Y-11552560D01*
X14415817Y-11495417D01*
X14430103Y-11466846D01*
X14444388Y-11452560D01*
X14472960Y-11438274D01*
X14930103Y-11738274D02*
X14930103Y-11438274D01*
X15058674Y-11738274D02*
X15058674Y-11581132D01*
X15044388Y-11552560D01*
X15015817Y-11538274D01*
X14972960Y-11538274D01*
X14944388Y-11552560D01*
X14930103Y-11566846D01*
X15244388Y-11738274D02*
X15215817Y-11723989D01*
X15201531Y-11709703D01*
X15187245Y-11681132D01*
X15187245Y-11595417D01*
X15201531Y-11566846D01*
X15215817Y-11552560D01*
X15244388Y-11538274D01*
X15287245Y-11538274D01*
X15315817Y-11552560D01*
X15330103Y-11566846D01*
X15344388Y-11595417D01*
X15344388Y-11681132D01*
X15330103Y-11709703D01*
X15315817Y-11723989D01*
X15287245Y-11738274D01*
X15244388Y-11738274D01*
X15515817Y-11738274D02*
X15487245Y-11723989D01*
X15472960Y-11695417D01*
X15472960Y-11438274D01*
X15744388Y-11723989D02*
X15715817Y-11738274D01*
X15658674Y-11738274D01*
X15630103Y-11723989D01*
X15615817Y-11695417D01*
X15615817Y-11581132D01*
X15630103Y-11552560D01*
X15658674Y-11538274D01*
X15715817Y-11538274D01*
X15744388Y-11552560D01*
X15758674Y-11581132D01*
X15758674Y-11609703D01*
X15615817Y-11638274D01*
X15872960Y-11723989D02*
X15901531Y-11738274D01*
X15958674Y-11738274D01*
X15987245Y-11723989D01*
X16001531Y-11695417D01*
X16001531Y-11681132D01*
X15987245Y-11652560D01*
X15958674Y-11638274D01*
X15915817Y-11638274D01*
X15887245Y-11623989D01*
X15872960Y-11595417D01*
X15872960Y-11581132D01*
X15887245Y-11552560D01*
X15915817Y-11538274D01*
X15958674Y-11538274D01*
X15987245Y-11552560D01*
X16101531Y-11852560D02*
X16115817Y-11838274D01*
X16144388Y-11795417D01*
X16158674Y-11766846D01*
X16172960Y-11723989D01*
X16187245Y-11652560D01*
X16187245Y-11595417D01*
X16172960Y-11523989D01*
X16158674Y-11481132D01*
X16144388Y-11452560D01*
X16115817Y-11409703D01*
X16101531Y-11395417D01*
X8757960Y-11998560D02*
G75*
G03*
X8757960Y-11998560I-50000J0D01*
G01*
X9201531Y-12134274D02*
X9030103Y-12134274D01*
X9115817Y-12134274D02*
X9115817Y-11834274D01*
X9087246Y-11877132D01*
X9058674Y-11905703D01*
X9030103Y-11919989D01*
X9330103Y-12105703D02*
X9344388Y-12119989D01*
X9330103Y-12134274D01*
X9315817Y-12119989D01*
X9330103Y-12105703D01*
X9330103Y-12134274D01*
X9530103Y-11834274D02*
X9558674Y-11834274D01*
X9587246Y-11848560D01*
X9601531Y-11862846D01*
X9615817Y-11891417D01*
X9630103Y-11948560D01*
X9630103Y-12019989D01*
X9615817Y-12077132D01*
X9601531Y-12105703D01*
X9587246Y-12119989D01*
X9558674Y-12134274D01*
X9530103Y-12134274D01*
X9501531Y-12119989D01*
X9487246Y-12105703D01*
X9472960Y-12077132D01*
X9458674Y-12019989D01*
X9458674Y-11948560D01*
X9472960Y-11891417D01*
X9487246Y-11862846D01*
X9501531Y-11848560D01*
X9530103Y-11834274D01*
X9815817Y-11834274D02*
X9844388Y-11834274D01*
X9872960Y-11848560D01*
X9887246Y-11862846D01*
X9901531Y-11891417D01*
X9915817Y-11948560D01*
X9915817Y-12019989D01*
X9901531Y-12077132D01*
X9887246Y-12105703D01*
X9872960Y-12119989D01*
X9844388Y-12134274D01*
X9815817Y-12134274D01*
X9787246Y-12119989D01*
X9772960Y-12105703D01*
X9758674Y-12077132D01*
X9744388Y-12019989D01*
X9744388Y-11948560D01*
X9758674Y-11891417D01*
X9772960Y-11862846D01*
X9787246Y-11848560D01*
X9815817Y-11834274D01*
X10101531Y-11834274D02*
X10130103Y-11834274D01*
X10158674Y-11848560D01*
X10172960Y-11862846D01*
X10187246Y-11891417D01*
X10201531Y-11948560D01*
X10201531Y-12019989D01*
X10187246Y-12077132D01*
X10172960Y-12105703D01*
X10158674Y-12119989D01*
X10130103Y-12134274D01*
X10101531Y-12134274D01*
X10072960Y-12119989D01*
X10058674Y-12105703D01*
X10044388Y-12077132D01*
X10030103Y-12019989D01*
X10030103Y-11948560D01*
X10044388Y-11891417D01*
X10058674Y-11862846D01*
X10072960Y-11848560D01*
X10101531Y-11834274D01*
X10330103Y-12134274D02*
X10330103Y-11934274D01*
X10330103Y-11962846D02*
X10344388Y-11948560D01*
X10372960Y-11934274D01*
X10415817Y-11934274D01*
X10444388Y-11948560D01*
X10458674Y-11977132D01*
X10458674Y-12134274D01*
X10458674Y-11977132D02*
X10472960Y-11948560D01*
X10501531Y-11934274D01*
X10544388Y-11934274D01*
X10572960Y-11948560D01*
X10587246Y-11977132D01*
X10587246Y-12134274D01*
X10730103Y-12134274D02*
X10730103Y-11934274D01*
X10730103Y-11962846D02*
X10744388Y-11948560D01*
X10772960Y-11934274D01*
X10815817Y-11934274D01*
X10844388Y-11948560D01*
X10858674Y-11977132D01*
X10858674Y-12134274D01*
X10858674Y-11977132D02*
X10872960Y-11948560D01*
X10901531Y-11934274D01*
X10944388Y-11934274D01*
X10972960Y-11948560D01*
X10987246Y-11977132D01*
X10987246Y-12134274D01*
X11572960Y-11819989D02*
X11315817Y-12205703D01*
X11958674Y-11834274D02*
X11987245Y-11834274D01*
X12015817Y-11848560D01*
X12030103Y-11862846D01*
X12044388Y-11891417D01*
X12058674Y-11948560D01*
X12058674Y-12019989D01*
X12044388Y-12077132D01*
X12030103Y-12105703D01*
X12015817Y-12119989D01*
X11987245Y-12134274D01*
X11958674Y-12134274D01*
X11930103Y-12119989D01*
X11915817Y-12105703D01*
X11901531Y-12077132D01*
X11887245Y-12019989D01*
X11887245Y-11948560D01*
X11901531Y-11891417D01*
X11915817Y-11862846D01*
X11930103Y-11848560D01*
X11958674Y-11834274D01*
X12187245Y-12105703D02*
X12201531Y-12119989D01*
X12187245Y-12134274D01*
X12172960Y-12119989D01*
X12187245Y-12105703D01*
X12187245Y-12134274D01*
X12387245Y-11834274D02*
X12415817Y-11834274D01*
X12444388Y-11848560D01*
X12458674Y-11862846D01*
X12472960Y-11891417D01*
X12487245Y-11948560D01*
X12487245Y-12019989D01*
X12472960Y-12077132D01*
X12458674Y-12105703D01*
X12444388Y-12119989D01*
X12415817Y-12134274D01*
X12387245Y-12134274D01*
X12358674Y-12119989D01*
X12344388Y-12105703D01*
X12330103Y-12077132D01*
X12315817Y-12019989D01*
X12315817Y-11948560D01*
X12330103Y-11891417D01*
X12344388Y-11862846D01*
X12358674Y-11848560D01*
X12387245Y-11834274D01*
X12587245Y-11834274D02*
X12772960Y-11834274D01*
X12672960Y-11948560D01*
X12715817Y-11948560D01*
X12744388Y-11962846D01*
X12758674Y-11977132D01*
X12772960Y-12005703D01*
X12772960Y-12077132D01*
X12758674Y-12105703D01*
X12744388Y-12119989D01*
X12715817Y-12134274D01*
X12630103Y-12134274D01*
X12601531Y-12119989D01*
X12587245Y-12105703D01*
X12915817Y-12134274D02*
X12972960Y-12134274D01*
X13001531Y-12119989D01*
X13015817Y-12105703D01*
X13044388Y-12062846D01*
X13058674Y-12005703D01*
X13058674Y-11891417D01*
X13044388Y-11862846D01*
X13030103Y-11848560D01*
X13001531Y-11834274D01*
X12944388Y-11834274D01*
X12915817Y-11848560D01*
X12901531Y-11862846D01*
X12887245Y-11891417D01*
X12887245Y-11962846D01*
X12901531Y-11991417D01*
X12915817Y-12005703D01*
X12944388Y-12019989D01*
X13001531Y-12019989D01*
X13030103Y-12005703D01*
X13044388Y-11991417D01*
X13058674Y-11962846D01*
X13315817Y-11934274D02*
X13315817Y-12134274D01*
X13244388Y-11819989D02*
X13172960Y-12034274D01*
X13358674Y-12034274D01*
X13458674Y-11834274D02*
X13458674Y-11891417D01*
X13572960Y-11834274D02*
X13572960Y-11891417D01*
X14015817Y-12248560D02*
X14001531Y-12234274D01*
X13972960Y-12191417D01*
X13958674Y-12162846D01*
X13944388Y-12119989D01*
X13930103Y-12048560D01*
X13930103Y-11991417D01*
X13944388Y-11919989D01*
X13958674Y-11877132D01*
X13972960Y-11848560D01*
X14001531Y-11805703D01*
X14015817Y-11791417D01*
X14172960Y-11962846D02*
X14144388Y-11948560D01*
X14130103Y-11934274D01*
X14115817Y-11905703D01*
X14115817Y-11891417D01*
X14130103Y-11862846D01*
X14144388Y-11848560D01*
X14172960Y-11834274D01*
X14230103Y-11834274D01*
X14258674Y-11848560D01*
X14272960Y-11862846D01*
X14287245Y-11891417D01*
X14287245Y-11905703D01*
X14272960Y-11934274D01*
X14258674Y-11948560D01*
X14230103Y-11962846D01*
X14172960Y-11962846D01*
X14144388Y-11977132D01*
X14130103Y-11991417D01*
X14115817Y-12019989D01*
X14115817Y-12077132D01*
X14130103Y-12105703D01*
X14144388Y-12119989D01*
X14172960Y-12134274D01*
X14230103Y-12134274D01*
X14258674Y-12119989D01*
X14272960Y-12105703D01*
X14287245Y-12077132D01*
X14287245Y-12019989D01*
X14272960Y-11991417D01*
X14258674Y-11977132D01*
X14230103Y-11962846D01*
X14644388Y-12134274D02*
X14644388Y-11834274D01*
X14772960Y-12134274D02*
X14772960Y-11977132D01*
X14758674Y-11948560D01*
X14730103Y-11934274D01*
X14687245Y-11934274D01*
X14658674Y-11948560D01*
X14644388Y-11962846D01*
X14958674Y-12134274D02*
X14930103Y-12119989D01*
X14915817Y-12105703D01*
X14901531Y-12077132D01*
X14901531Y-11991417D01*
X14915817Y-11962846D01*
X14930103Y-11948560D01*
X14958674Y-11934274D01*
X15001531Y-11934274D01*
X15030103Y-11948560D01*
X15044388Y-11962846D01*
X15058674Y-11991417D01*
X15058674Y-12077132D01*
X15044388Y-12105703D01*
X15030103Y-12119989D01*
X15001531Y-12134274D01*
X14958674Y-12134274D01*
X15230103Y-12134274D02*
X15201531Y-12119989D01*
X15187245Y-12091417D01*
X15187245Y-11834274D01*
X15458674Y-12119989D02*
X15430103Y-12134274D01*
X15372960Y-12134274D01*
X15344388Y-12119989D01*
X15330103Y-12091417D01*
X15330103Y-11977132D01*
X15344388Y-11948560D01*
X15372960Y-11934274D01*
X15430103Y-11934274D01*
X15458674Y-11948560D01*
X15472960Y-11977132D01*
X15472960Y-12005703D01*
X15330103Y-12034274D01*
X15587245Y-12119989D02*
X15615817Y-12134274D01*
X15672960Y-12134274D01*
X15701531Y-12119989D01*
X15715817Y-12091417D01*
X15715817Y-12077132D01*
X15701531Y-12048560D01*
X15672960Y-12034274D01*
X15630103Y-12034274D01*
X15601531Y-12019989D01*
X15587245Y-11991417D01*
X15587245Y-11977132D01*
X15601531Y-11948560D01*
X15630103Y-11934274D01*
X15672960Y-11934274D01*
X15701531Y-11948560D01*
X15815817Y-12248560D02*
X15830103Y-12234274D01*
X15858674Y-12191417D01*
X15872960Y-12162846D01*
X15887245Y-12119989D01*
X15901531Y-12048560D01*
X15901531Y-11991417D01*
X15887245Y-11919989D01*
X15872960Y-11877132D01*
X15858674Y-11848560D01*
X15830103Y-11805703D01*
X15815817Y-11791417D01*
X8607960Y-12244560D02*
X8607960Y-12544560D01*
X8457960Y-12394560D02*
X8757960Y-12394560D01*
X9015817Y-12230274D02*
X9201531Y-12230274D01*
X9101531Y-12344560D01*
X9144388Y-12344560D01*
X9172960Y-12358846D01*
X9187246Y-12373132D01*
X9201531Y-12401703D01*
X9201531Y-12473132D01*
X9187246Y-12501703D01*
X9172960Y-12515989D01*
X9144388Y-12530274D01*
X9058674Y-12530274D01*
X9030103Y-12515989D01*
X9015817Y-12501703D01*
X9330103Y-12501703D02*
X9344388Y-12515989D01*
X9330103Y-12530274D01*
X9315817Y-12515989D01*
X9330103Y-12501703D01*
X9330103Y-12530274D01*
X9530103Y-12230274D02*
X9558674Y-12230274D01*
X9587246Y-12244560D01*
X9601531Y-12258846D01*
X9615817Y-12287417D01*
X9630103Y-12344560D01*
X9630103Y-12415989D01*
X9615817Y-12473132D01*
X9601531Y-12501703D01*
X9587246Y-12515989D01*
X9558674Y-12530274D01*
X9530103Y-12530274D01*
X9501531Y-12515989D01*
X9487246Y-12501703D01*
X9472960Y-12473132D01*
X9458674Y-12415989D01*
X9458674Y-12344560D01*
X9472960Y-12287417D01*
X9487246Y-12258846D01*
X9501531Y-12244560D01*
X9530103Y-12230274D01*
X9815817Y-12230274D02*
X9844388Y-12230274D01*
X9872960Y-12244560D01*
X9887246Y-12258846D01*
X9901531Y-12287417D01*
X9915817Y-12344560D01*
X9915817Y-12415989D01*
X9901531Y-12473132D01*
X9887246Y-12501703D01*
X9872960Y-12515989D01*
X9844388Y-12530274D01*
X9815817Y-12530274D01*
X9787246Y-12515989D01*
X9772960Y-12501703D01*
X9758674Y-12473132D01*
X9744388Y-12415989D01*
X9744388Y-12344560D01*
X9758674Y-12287417D01*
X9772960Y-12258846D01*
X9787246Y-12244560D01*
X9815817Y-12230274D01*
X10101531Y-12230274D02*
X10130103Y-12230274D01*
X10158674Y-12244560D01*
X10172960Y-12258846D01*
X10187246Y-12287417D01*
X10201531Y-12344560D01*
X10201531Y-12415989D01*
X10187246Y-12473132D01*
X10172960Y-12501703D01*
X10158674Y-12515989D01*
X10130103Y-12530274D01*
X10101531Y-12530274D01*
X10072960Y-12515989D01*
X10058674Y-12501703D01*
X10044388Y-12473132D01*
X10030103Y-12415989D01*
X10030103Y-12344560D01*
X10044388Y-12287417D01*
X10058674Y-12258846D01*
X10072960Y-12244560D01*
X10101531Y-12230274D01*
X10330103Y-12530274D02*
X10330103Y-12330274D01*
X10330103Y-12358846D02*
X10344388Y-12344560D01*
X10372960Y-12330274D01*
X10415817Y-12330274D01*
X10444388Y-12344560D01*
X10458674Y-12373132D01*
X10458674Y-12530274D01*
X10458674Y-12373132D02*
X10472960Y-12344560D01*
X10501531Y-12330274D01*
X10544388Y-12330274D01*
X10572960Y-12344560D01*
X10587246Y-12373132D01*
X10587246Y-12530274D01*
X10730103Y-12530274D02*
X10730103Y-12330274D01*
X10730103Y-12358846D02*
X10744388Y-12344560D01*
X10772960Y-12330274D01*
X10815817Y-12330274D01*
X10844388Y-12344560D01*
X10858674Y-12373132D01*
X10858674Y-12530274D01*
X10858674Y-12373132D02*
X10872960Y-12344560D01*
X10901531Y-12330274D01*
X10944388Y-12330274D01*
X10972960Y-12344560D01*
X10987246Y-12373132D01*
X10987246Y-12530274D01*
X11572960Y-12215989D02*
X11315817Y-12601703D01*
X11958674Y-12230274D02*
X11987245Y-12230274D01*
X12015817Y-12244560D01*
X12030103Y-12258846D01*
X12044388Y-12287417D01*
X12058674Y-12344560D01*
X12058674Y-12415989D01*
X12044388Y-12473132D01*
X12030103Y-12501703D01*
X12015817Y-12515989D01*
X11987245Y-12530274D01*
X11958674Y-12530274D01*
X11930103Y-12515989D01*
X11915817Y-12501703D01*
X11901531Y-12473132D01*
X11887245Y-12415989D01*
X11887245Y-12344560D01*
X11901531Y-12287417D01*
X11915817Y-12258846D01*
X11930103Y-12244560D01*
X11958674Y-12230274D01*
X12187245Y-12501703D02*
X12201531Y-12515989D01*
X12187245Y-12530274D01*
X12172960Y-12515989D01*
X12187245Y-12501703D01*
X12187245Y-12530274D01*
X12487245Y-12530274D02*
X12315817Y-12530274D01*
X12401531Y-12530274D02*
X12401531Y-12230274D01*
X12372960Y-12273132D01*
X12344388Y-12301703D01*
X12315817Y-12315989D01*
X12772960Y-12530274D02*
X12601531Y-12530274D01*
X12687245Y-12530274D02*
X12687245Y-12230274D01*
X12658674Y-12273132D01*
X12630103Y-12301703D01*
X12601531Y-12315989D01*
X12944388Y-12358846D02*
X12915817Y-12344560D01*
X12901531Y-12330274D01*
X12887245Y-12301703D01*
X12887245Y-12287417D01*
X12901531Y-12258846D01*
X12915817Y-12244560D01*
X12944388Y-12230274D01*
X13001531Y-12230274D01*
X13030103Y-12244560D01*
X13044388Y-12258846D01*
X13058674Y-12287417D01*
X13058674Y-12301703D01*
X13044388Y-12330274D01*
X13030103Y-12344560D01*
X13001531Y-12358846D01*
X12944388Y-12358846D01*
X12915817Y-12373132D01*
X12901531Y-12387417D01*
X12887245Y-12415989D01*
X12887245Y-12473132D01*
X12901531Y-12501703D01*
X12915817Y-12515989D01*
X12944388Y-12530274D01*
X13001531Y-12530274D01*
X13030103Y-12515989D01*
X13044388Y-12501703D01*
X13058674Y-12473132D01*
X13058674Y-12415989D01*
X13044388Y-12387417D01*
X13030103Y-12373132D01*
X13001531Y-12358846D01*
X13344388Y-12530274D02*
X13172960Y-12530274D01*
X13258674Y-12530274D02*
X13258674Y-12230274D01*
X13230103Y-12273132D01*
X13201531Y-12301703D01*
X13172960Y-12315989D01*
X13458674Y-12230274D02*
X13458674Y-12287417D01*
X13572960Y-12230274D02*
X13572960Y-12287417D01*
X14015817Y-12644560D02*
X14001531Y-12630274D01*
X13972960Y-12587417D01*
X13958674Y-12558846D01*
X13944388Y-12515989D01*
X13930103Y-12444560D01*
X13930103Y-12387417D01*
X13944388Y-12315989D01*
X13958674Y-12273132D01*
X13972960Y-12244560D01*
X14001531Y-12201703D01*
X14015817Y-12187417D01*
X14258674Y-12330274D02*
X14258674Y-12530274D01*
X14187245Y-12215989D02*
X14115817Y-12430274D01*
X14301531Y-12430274D01*
X14644388Y-12530274D02*
X14644388Y-12230274D01*
X14772960Y-12530274D02*
X14772960Y-12373132D01*
X14758674Y-12344560D01*
X14730103Y-12330274D01*
X14687245Y-12330274D01*
X14658674Y-12344560D01*
X14644388Y-12358846D01*
X14958674Y-12530274D02*
X14930103Y-12515989D01*
X14915817Y-12501703D01*
X14901531Y-12473132D01*
X14901531Y-12387417D01*
X14915817Y-12358846D01*
X14930103Y-12344560D01*
X14958674Y-12330274D01*
X15001531Y-12330274D01*
X15030103Y-12344560D01*
X15044388Y-12358846D01*
X15058674Y-12387417D01*
X15058674Y-12473132D01*
X15044388Y-12501703D01*
X15030103Y-12515989D01*
X15001531Y-12530274D01*
X14958674Y-12530274D01*
X15230103Y-12530274D02*
X15201531Y-12515989D01*
X15187245Y-12487417D01*
X15187245Y-12230274D01*
X15458674Y-12515989D02*
X15430103Y-12530274D01*
X15372960Y-12530274D01*
X15344388Y-12515989D01*
X15330103Y-12487417D01*
X15330103Y-12373132D01*
X15344388Y-12344560D01*
X15372960Y-12330274D01*
X15430103Y-12330274D01*
X15458674Y-12344560D01*
X15472960Y-12373132D01*
X15472960Y-12401703D01*
X15330103Y-12430274D01*
X15587245Y-12515989D02*
X15615817Y-12530274D01*
X15672960Y-12530274D01*
X15701531Y-12515989D01*
X15715817Y-12487417D01*
X15715817Y-12473132D01*
X15701531Y-12444560D01*
X15672960Y-12430274D01*
X15630103Y-12430274D01*
X15601531Y-12415989D01*
X15587245Y-12387417D01*
X15587245Y-12373132D01*
X15601531Y-12344560D01*
X15630103Y-12330274D01*
X15672960Y-12330274D01*
X15701531Y-12344560D01*
X15815817Y-12644560D02*
X15830103Y-12630274D01*
X15858674Y-12587417D01*
X15872960Y-12558846D01*
X15887245Y-12515989D01*
X15901531Y-12444560D01*
X15901531Y-12387417D01*
X15887245Y-12315989D01*
X15872960Y-12273132D01*
X15858674Y-12244560D01*
X15830103Y-12201703D01*
X15815817Y-12187417D01*
M02*
