G04 #@! TF.GenerationSoftware,KiCad,Pcbnew,(5.1.10)-1*
G04 #@! TF.CreationDate,2021-09-08T10:41:52-04:00*
G04 #@! TF.ProjectId,SharpDisplayPcb,53686172-7044-4697-9370-6c6179506362,rev?*
G04 #@! TF.SameCoordinates,Original*
G04 #@! TF.FileFunction,Paste,Top*
G04 #@! TF.FilePolarity,Positive*
%FSLAX46Y46*%
G04 Gerber Fmt 4.6, Leading zero omitted, Abs format (unit mm)*
G04 Created by KiCad (PCBNEW (5.1.10)-1) date 2021-09-08 10:41:52*
%MOMM*%
%LPD*%
G01*
G04 APERTURE LIST*
%ADD10R,1.600000X2.200000*%
%ADD11R,0.250000X1.400000*%
G04 APERTURE END LIST*
D10*
G04 #@! TO.C,IC1*
X102686780Y-74822920D03*
X112486780Y-74822920D03*
D11*
X105336780Y-77972920D03*
X105836780Y-77972920D03*
X106336780Y-77972920D03*
X106836780Y-77972920D03*
X107336780Y-77972920D03*
X107836780Y-77972920D03*
X108336780Y-77972920D03*
X108836780Y-77972920D03*
X109336780Y-77972920D03*
X109836780Y-77972920D03*
G04 #@! TD*
G04 #@! TO.C,R3*
G36*
G01*
X108800000Y-87325001D02*
X108800000Y-86424999D01*
G75*
G02*
X109049999Y-86175000I249999J0D01*
G01*
X109750001Y-86175000D01*
G75*
G02*
X110000000Y-86424999I0J-249999D01*
G01*
X110000000Y-87325001D01*
G75*
G02*
X109750001Y-87575000I-249999J0D01*
G01*
X109049999Y-87575000D01*
G75*
G02*
X108800000Y-87325001I0J249999D01*
G01*
G37*
G36*
G01*
X106800000Y-87325001D02*
X106800000Y-86424999D01*
G75*
G02*
X107049999Y-86175000I249999J0D01*
G01*
X107750001Y-86175000D01*
G75*
G02*
X108000000Y-86424999I0J-249999D01*
G01*
X108000000Y-87325001D01*
G75*
G02*
X107750001Y-87575000I-249999J0D01*
G01*
X107049999Y-87575000D01*
G75*
G02*
X106800000Y-87325001I0J249999D01*
G01*
G37*
G04 #@! TD*
G04 #@! TO.C,R2*
G36*
G01*
X101400000Y-78674999D02*
X101400000Y-79575001D01*
G75*
G02*
X101150001Y-79825000I-249999J0D01*
G01*
X100449999Y-79825000D01*
G75*
G02*
X100200000Y-79575001I0J249999D01*
G01*
X100200000Y-78674999D01*
G75*
G02*
X100449999Y-78425000I249999J0D01*
G01*
X101150001Y-78425000D01*
G75*
G02*
X101400000Y-78674999I0J-249999D01*
G01*
G37*
G36*
G01*
X103400000Y-78674999D02*
X103400000Y-79575001D01*
G75*
G02*
X103150001Y-79825000I-249999J0D01*
G01*
X102449999Y-79825000D01*
G75*
G02*
X102200000Y-79575001I0J249999D01*
G01*
X102200000Y-78674999D01*
G75*
G02*
X102449999Y-78425000I249999J0D01*
G01*
X103150001Y-78425000D01*
G75*
G02*
X103400000Y-78674999I0J-249999D01*
G01*
G37*
G04 #@! TD*
G04 #@! TO.C,R1*
G36*
G01*
X113525000Y-78524999D02*
X113525000Y-79425001D01*
G75*
G02*
X113275001Y-79675000I-249999J0D01*
G01*
X112574999Y-79675000D01*
G75*
G02*
X112325000Y-79425001I0J249999D01*
G01*
X112325000Y-78524999D01*
G75*
G02*
X112574999Y-78275000I249999J0D01*
G01*
X113275001Y-78275000D01*
G75*
G02*
X113525000Y-78524999I0J-249999D01*
G01*
G37*
G36*
G01*
X115525000Y-78524999D02*
X115525000Y-79425001D01*
G75*
G02*
X115275001Y-79675000I-249999J0D01*
G01*
X114574999Y-79675000D01*
G75*
G02*
X114325000Y-79425001I0J249999D01*
G01*
X114325000Y-78524999D01*
G75*
G02*
X114574999Y-78275000I249999J0D01*
G01*
X115275001Y-78275000D01*
G75*
G02*
X115525000Y-78524999I0J-249999D01*
G01*
G37*
G04 #@! TD*
G04 #@! TO.C,C4*
G36*
G01*
X98850000Y-75975000D02*
X98850000Y-76925000D01*
G75*
G02*
X98600000Y-77175000I-250000J0D01*
G01*
X97925000Y-77175000D01*
G75*
G02*
X97675000Y-76925000I0J250000D01*
G01*
X97675000Y-75975000D01*
G75*
G02*
X97925000Y-75725000I250000J0D01*
G01*
X98600000Y-75725000D01*
G75*
G02*
X98850000Y-75975000I0J-250000D01*
G01*
G37*
G36*
G01*
X100925000Y-75975000D02*
X100925000Y-76925000D01*
G75*
G02*
X100675000Y-77175000I-250000J0D01*
G01*
X100000000Y-77175000D01*
G75*
G02*
X99750000Y-76925000I0J250000D01*
G01*
X99750000Y-75975000D01*
G75*
G02*
X100000000Y-75725000I250000J0D01*
G01*
X100675000Y-75725000D01*
G75*
G02*
X100925000Y-75975000I0J-250000D01*
G01*
G37*
G04 #@! TD*
G04 #@! TO.C,C3*
G36*
G01*
X106378500Y-82024200D02*
X106378500Y-82974200D01*
G75*
G02*
X106128500Y-83224200I-250000J0D01*
G01*
X105453500Y-83224200D01*
G75*
G02*
X105203500Y-82974200I0J250000D01*
G01*
X105203500Y-82024200D01*
G75*
G02*
X105453500Y-81774200I250000J0D01*
G01*
X106128500Y-81774200D01*
G75*
G02*
X106378500Y-82024200I0J-250000D01*
G01*
G37*
G36*
G01*
X108453500Y-82024200D02*
X108453500Y-82974200D01*
G75*
G02*
X108203500Y-83224200I-250000J0D01*
G01*
X107528500Y-83224200D01*
G75*
G02*
X107278500Y-82974200I0J250000D01*
G01*
X107278500Y-82024200D01*
G75*
G02*
X107528500Y-81774200I250000J0D01*
G01*
X108203500Y-81774200D01*
G75*
G02*
X108453500Y-82024200I0J-250000D01*
G01*
G37*
G04 #@! TD*
G04 #@! TO.C,C2*
G36*
G01*
X109712000Y-85196700D02*
X109712000Y-84246700D01*
G75*
G02*
X109962000Y-83996700I250000J0D01*
G01*
X110637000Y-83996700D01*
G75*
G02*
X110887000Y-84246700I0J-250000D01*
G01*
X110887000Y-85196700D01*
G75*
G02*
X110637000Y-85446700I-250000J0D01*
G01*
X109962000Y-85446700D01*
G75*
G02*
X109712000Y-85196700I0J250000D01*
G01*
G37*
G36*
G01*
X107637000Y-85196700D02*
X107637000Y-84246700D01*
G75*
G02*
X107887000Y-83996700I250000J0D01*
G01*
X108562000Y-83996700D01*
G75*
G02*
X108812000Y-84246700I0J-250000D01*
G01*
X108812000Y-85196700D01*
G75*
G02*
X108562000Y-85446700I-250000J0D01*
G01*
X107887000Y-85446700D01*
G75*
G02*
X107637000Y-85196700I0J250000D01*
G01*
G37*
G04 #@! TD*
G04 #@! TO.C,C1*
G36*
G01*
X96300000Y-95575000D02*
X96300000Y-96525000D01*
G75*
G02*
X96050000Y-96775000I-250000J0D01*
G01*
X95375000Y-96775000D01*
G75*
G02*
X95125000Y-96525000I0J250000D01*
G01*
X95125000Y-95575000D01*
G75*
G02*
X95375000Y-95325000I250000J0D01*
G01*
X96050000Y-95325000D01*
G75*
G02*
X96300000Y-95575000I0J-250000D01*
G01*
G37*
G36*
G01*
X98375000Y-95575000D02*
X98375000Y-96525000D01*
G75*
G02*
X98125000Y-96775000I-250000J0D01*
G01*
X97450000Y-96775000D01*
G75*
G02*
X97200000Y-96525000I0J250000D01*
G01*
X97200000Y-95575000D01*
G75*
G02*
X97450000Y-95325000I250000J0D01*
G01*
X98125000Y-95325000D01*
G75*
G02*
X98375000Y-95575000I0J-250000D01*
G01*
G37*
G04 #@! TD*
G04 #@! TO.C,FB2*
G36*
G01*
X103367100Y-85082801D02*
X103367100Y-84182799D01*
G75*
G02*
X103617099Y-83932800I249999J0D01*
G01*
X104267101Y-83932800D01*
G75*
G02*
X104517100Y-84182799I0J-249999D01*
G01*
X104517100Y-85082801D01*
G75*
G02*
X104267101Y-85332800I-249999J0D01*
G01*
X103617099Y-85332800D01*
G75*
G02*
X103367100Y-85082801I0J249999D01*
G01*
G37*
G36*
G01*
X101317100Y-85082801D02*
X101317100Y-84182799D01*
G75*
G02*
X101567099Y-83932800I249999J0D01*
G01*
X102217101Y-83932800D01*
G75*
G02*
X102467100Y-84182799I0J-249999D01*
G01*
X102467100Y-85082801D01*
G75*
G02*
X102217101Y-85332800I-249999J0D01*
G01*
X101567099Y-85332800D01*
G75*
G02*
X101317100Y-85082801I0J249999D01*
G01*
G37*
G04 #@! TD*
G04 #@! TO.C,FB1*
G36*
G01*
X103320000Y-82936501D02*
X103320000Y-82036499D01*
G75*
G02*
X103569999Y-81786500I249999J0D01*
G01*
X104220001Y-81786500D01*
G75*
G02*
X104470000Y-82036499I0J-249999D01*
G01*
X104470000Y-82936501D01*
G75*
G02*
X104220001Y-83186500I-249999J0D01*
G01*
X103569999Y-83186500D01*
G75*
G02*
X103320000Y-82936501I0J249999D01*
G01*
G37*
G36*
G01*
X101270000Y-82936501D02*
X101270000Y-82036499D01*
G75*
G02*
X101519999Y-81786500I249999J0D01*
G01*
X102170001Y-81786500D01*
G75*
G02*
X102420000Y-82036499I0J-249999D01*
G01*
X102420000Y-82936501D01*
G75*
G02*
X102170001Y-83186500I-249999J0D01*
G01*
X101519999Y-83186500D01*
G75*
G02*
X101270000Y-82936501I0J249999D01*
G01*
G37*
G04 #@! TD*
M02*
