G04 #@! TF.GenerationSoftware,KiCad,Pcbnew,(5.1.10)-1*
G04 #@! TF.CreationDate,2021-09-08T01:48:55-04:00*
G04 #@! TF.ProjectId,SharpDisplayPcb,53686172-7044-4697-9370-6c6179506362,rev?*
G04 #@! TF.SameCoordinates,Original*
G04 #@! TF.FileFunction,Copper,L1,Top*
G04 #@! TF.FilePolarity,Positive*
%FSLAX46Y46*%
G04 Gerber Fmt 4.6, Leading zero omitted, Abs format (unit mm)*
G04 Created by KiCad (PCBNEW (5.1.10)-1) date 2021-09-08 01:48:55*
%MOMM*%
%LPD*%
G01*
G04 APERTURE LIST*
G04 #@! TA.AperFunction,EtchedComponent*
%ADD10C,0.100000*%
G04 #@! TD*
G04 #@! TA.AperFunction,SMDPad,CuDef*
%ADD11R,1.600000X2.200000*%
G04 #@! TD*
G04 #@! TA.AperFunction,SMDPad,CuDef*
%ADD12R,0.250000X1.400000*%
G04 #@! TD*
G04 #@! TA.AperFunction,ComponentPad*
%ADD13O,1.700000X1.700000*%
G04 #@! TD*
G04 #@! TA.AperFunction,ComponentPad*
%ADD14R,1.700000X1.700000*%
G04 #@! TD*
G04 #@! TA.AperFunction,ComponentPad*
%ADD15C,1.700000*%
G04 #@! TD*
G04 #@! TA.AperFunction,SMDPad,CuDef*
%ADD16R,1.500000X1.000000*%
G04 #@! TD*
G04 #@! TA.AperFunction,ComponentPad*
%ADD17C,4.000000*%
G04 #@! TD*
G04 #@! TA.AperFunction,ViaPad*
%ADD18C,0.800000*%
G04 #@! TD*
G04 #@! TA.AperFunction,Conductor*
%ADD19C,0.250000*%
G04 #@! TD*
G04 #@! TA.AperFunction,Conductor*
%ADD20C,0.500000*%
G04 #@! TD*
G04 #@! TA.AperFunction,Conductor*
%ADD21C,0.254000*%
G04 #@! TD*
G04 #@! TA.AperFunction,Conductor*
%ADD22C,0.100000*%
G04 #@! TD*
G04 APERTURE END LIST*
D10*
G04 #@! TO.C,JP1*
G36*
X104750000Y-93125000D02*
G01*
X104750000Y-92625000D01*
X105350000Y-92625000D01*
X105350000Y-93125000D01*
X104750000Y-93125000D01*
G37*
G04 #@! TD*
D11*
G04 #@! TO.P,IC1,SUPPORT2*
G04 #@! TO.N,GND*
X102686780Y-74822920D03*
G04 #@! TO.P,IC1,SUPPORT1*
X112486780Y-74822920D03*
D12*
G04 #@! TO.P,IC1,VSSA*
G04 #@! TO.N,GNDA*
X105336780Y-77972920D03*
G04 #@! TO.P,IC1,VSS*
G04 #@! TO.N,GND*
X105836780Y-77972920D03*
G04 #@! TO.P,IC1,EXTMODE*
G04 #@! TO.N,Net-(IC1-PadEXTMODE)*
X106336780Y-77972920D03*
G04 #@! TO.P,IC1,VDD*
G04 #@! TO.N,+3V3*
X106836780Y-77972920D03*
G04 #@! TO.P,IC1,VDDA*
G04 #@! TO.N,+3.3VA*
X107336780Y-77972920D03*
G04 #@! TO.P,IC1,DISP*
G04 #@! TO.N,BLANK*
X107836780Y-77972920D03*
G04 #@! TO.P,IC1,EXTCOMIN*
G04 #@! TO.N,Net-(IC1-PadEXTCOMIN)*
X108336780Y-77972920D03*
G04 #@! TO.P,IC1,SCS*
G04 #@! TO.N,CS*
X108836780Y-77972920D03*
G04 #@! TO.P,IC1,SI*
G04 #@! TO.N,SDI*
X109336780Y-77972920D03*
G04 #@! TO.P,IC1,SCLK*
G04 #@! TO.N,SCLK*
X109836780Y-77972920D03*
G04 #@! TD*
D13*
G04 #@! TO.P,J1,8*
G04 #@! TO.N,N/C*
X117749100Y-103856100D03*
G04 #@! TO.P,J1,7*
G04 #@! TO.N,BLANK*
X115209100Y-103856100D03*
G04 #@! TO.P,J1,6*
G04 #@! TO.N,N/C*
X112669100Y-103856100D03*
G04 #@! TO.P,J1,5*
G04 #@! TO.N,CS*
X110129100Y-103856100D03*
G04 #@! TO.P,J1,4*
G04 #@! TO.N,SDI*
X107589100Y-103856100D03*
G04 #@! TO.P,J1,3*
G04 #@! TO.N,SCLK*
X105049100Y-103856100D03*
D14*
G04 #@! TO.P,J1,2*
G04 #@! TO.N,GND*
X102509100Y-103856100D03*
D15*
G04 #@! TO.P,J1,1*
G04 #@! TO.N,+3V3*
X99969100Y-103856100D03*
G04 #@! TD*
D16*
G04 #@! TO.P,JP1,2*
G04 #@! TO.N,Net-(JP1-Pad2)*
X105050000Y-92225000D03*
G04 #@! TO.P,JP1,1*
G04 #@! TO.N,BLANK*
X105050000Y-93525000D03*
G04 #@! TD*
G04 #@! TO.P,R3,2*
G04 #@! TO.N,Net-(JP1-Pad2)*
G04 #@! TA.AperFunction,SMDPad,CuDef*
G36*
G01*
X108800000Y-87325001D02*
X108800000Y-86424999D01*
G75*
G02*
X109049999Y-86175000I249999J0D01*
G01*
X109750001Y-86175000D01*
G75*
G02*
X110000000Y-86424999I0J-249999D01*
G01*
X110000000Y-87325001D01*
G75*
G02*
X109750001Y-87575000I-249999J0D01*
G01*
X109049999Y-87575000D01*
G75*
G02*
X108800000Y-87325001I0J249999D01*
G01*
G37*
G04 #@! TD.AperFunction*
G04 #@! TO.P,R3,1*
G04 #@! TO.N,+3V3*
G04 #@! TA.AperFunction,SMDPad,CuDef*
G36*
G01*
X106800000Y-87325001D02*
X106800000Y-86424999D01*
G75*
G02*
X107049999Y-86175000I249999J0D01*
G01*
X107750001Y-86175000D01*
G75*
G02*
X108000000Y-86424999I0J-249999D01*
G01*
X108000000Y-87325001D01*
G75*
G02*
X107750001Y-87575000I-249999J0D01*
G01*
X107049999Y-87575000D01*
G75*
G02*
X106800000Y-87325001I0J249999D01*
G01*
G37*
G04 #@! TD.AperFunction*
G04 #@! TD*
G04 #@! TO.P,R2,2*
G04 #@! TO.N,GND*
G04 #@! TA.AperFunction,SMDPad,CuDef*
G36*
G01*
X101400000Y-78674999D02*
X101400000Y-79575001D01*
G75*
G02*
X101150001Y-79825000I-249999J0D01*
G01*
X100449999Y-79825000D01*
G75*
G02*
X100200000Y-79575001I0J249999D01*
G01*
X100200000Y-78674999D01*
G75*
G02*
X100449999Y-78425000I249999J0D01*
G01*
X101150001Y-78425000D01*
G75*
G02*
X101400000Y-78674999I0J-249999D01*
G01*
G37*
G04 #@! TD.AperFunction*
G04 #@! TO.P,R2,1*
G04 #@! TO.N,Net-(IC1-PadEXTMODE)*
G04 #@! TA.AperFunction,SMDPad,CuDef*
G36*
G01*
X103400000Y-78674999D02*
X103400000Y-79575001D01*
G75*
G02*
X103150001Y-79825000I-249999J0D01*
G01*
X102449999Y-79825000D01*
G75*
G02*
X102200000Y-79575001I0J249999D01*
G01*
X102200000Y-78674999D01*
G75*
G02*
X102449999Y-78425000I249999J0D01*
G01*
X103150001Y-78425000D01*
G75*
G02*
X103400000Y-78674999I0J-249999D01*
G01*
G37*
G04 #@! TD.AperFunction*
G04 #@! TD*
G04 #@! TO.P,R1,2*
G04 #@! TO.N,Net-(IC1-PadEXTCOMIN)*
G04 #@! TA.AperFunction,SMDPad,CuDef*
G36*
G01*
X113525000Y-78524999D02*
X113525000Y-79425001D01*
G75*
G02*
X113275001Y-79675000I-249999J0D01*
G01*
X112574999Y-79675000D01*
G75*
G02*
X112325000Y-79425001I0J249999D01*
G01*
X112325000Y-78524999D01*
G75*
G02*
X112574999Y-78275000I249999J0D01*
G01*
X113275001Y-78275000D01*
G75*
G02*
X113525000Y-78524999I0J-249999D01*
G01*
G37*
G04 #@! TD.AperFunction*
G04 #@! TO.P,R1,1*
G04 #@! TO.N,GND*
G04 #@! TA.AperFunction,SMDPad,CuDef*
G36*
G01*
X115525000Y-78524999D02*
X115525000Y-79425001D01*
G75*
G02*
X115275001Y-79675000I-249999J0D01*
G01*
X114574999Y-79675000D01*
G75*
G02*
X114325000Y-79425001I0J249999D01*
G01*
X114325000Y-78524999D01*
G75*
G02*
X114574999Y-78275000I249999J0D01*
G01*
X115275001Y-78275000D01*
G75*
G02*
X115525000Y-78524999I0J-249999D01*
G01*
G37*
G04 #@! TD.AperFunction*
G04 #@! TD*
G04 #@! TO.P,C4,2*
G04 #@! TO.N,GNDA*
G04 #@! TA.AperFunction,SMDPad,CuDef*
G36*
G01*
X98850000Y-75975000D02*
X98850000Y-76925000D01*
G75*
G02*
X98600000Y-77175000I-250000J0D01*
G01*
X97925000Y-77175000D01*
G75*
G02*
X97675000Y-76925000I0J250000D01*
G01*
X97675000Y-75975000D01*
G75*
G02*
X97925000Y-75725000I250000J0D01*
G01*
X98600000Y-75725000D01*
G75*
G02*
X98850000Y-75975000I0J-250000D01*
G01*
G37*
G04 #@! TD.AperFunction*
G04 #@! TO.P,C4,1*
G04 #@! TO.N,+3.3VA*
G04 #@! TA.AperFunction,SMDPad,CuDef*
G36*
G01*
X100925000Y-75975000D02*
X100925000Y-76925000D01*
G75*
G02*
X100675000Y-77175000I-250000J0D01*
G01*
X100000000Y-77175000D01*
G75*
G02*
X99750000Y-76925000I0J250000D01*
G01*
X99750000Y-75975000D01*
G75*
G02*
X100000000Y-75725000I250000J0D01*
G01*
X100675000Y-75725000D01*
G75*
G02*
X100925000Y-75975000I0J-250000D01*
G01*
G37*
G04 #@! TD.AperFunction*
G04 #@! TD*
G04 #@! TO.P,C3,2*
G04 #@! TO.N,+3V3*
G04 #@! TA.AperFunction,SMDPad,CuDef*
G36*
G01*
X103350000Y-85050000D02*
X103350000Y-84100000D01*
G75*
G02*
X103600000Y-83850000I250000J0D01*
G01*
X104275000Y-83850000D01*
G75*
G02*
X104525000Y-84100000I0J-250000D01*
G01*
X104525000Y-85050000D01*
G75*
G02*
X104275000Y-85300000I-250000J0D01*
G01*
X103600000Y-85300000D01*
G75*
G02*
X103350000Y-85050000I0J250000D01*
G01*
G37*
G04 #@! TD.AperFunction*
G04 #@! TO.P,C3,1*
G04 #@! TO.N,GND*
G04 #@! TA.AperFunction,SMDPad,CuDef*
G36*
G01*
X101275000Y-85050000D02*
X101275000Y-84100000D01*
G75*
G02*
X101525000Y-83850000I250000J0D01*
G01*
X102200000Y-83850000D01*
G75*
G02*
X102450000Y-84100000I0J-250000D01*
G01*
X102450000Y-85050000D01*
G75*
G02*
X102200000Y-85300000I-250000J0D01*
G01*
X101525000Y-85300000D01*
G75*
G02*
X101275000Y-85050000I0J250000D01*
G01*
G37*
G04 #@! TD.AperFunction*
G04 #@! TD*
G04 #@! TO.P,C2,2*
G04 #@! TO.N,BLANK*
G04 #@! TA.AperFunction,SMDPad,CuDef*
G36*
G01*
X108800000Y-85150000D02*
X108800000Y-84200000D01*
G75*
G02*
X109050000Y-83950000I250000J0D01*
G01*
X109725000Y-83950000D01*
G75*
G02*
X109975000Y-84200000I0J-250000D01*
G01*
X109975000Y-85150000D01*
G75*
G02*
X109725000Y-85400000I-250000J0D01*
G01*
X109050000Y-85400000D01*
G75*
G02*
X108800000Y-85150000I0J250000D01*
G01*
G37*
G04 #@! TD.AperFunction*
G04 #@! TO.P,C2,1*
G04 #@! TO.N,GND*
G04 #@! TA.AperFunction,SMDPad,CuDef*
G36*
G01*
X106725000Y-85150000D02*
X106725000Y-84200000D01*
G75*
G02*
X106975000Y-83950000I250000J0D01*
G01*
X107650000Y-83950000D01*
G75*
G02*
X107900000Y-84200000I0J-250000D01*
G01*
X107900000Y-85150000D01*
G75*
G02*
X107650000Y-85400000I-250000J0D01*
G01*
X106975000Y-85400000D01*
G75*
G02*
X106725000Y-85150000I0J250000D01*
G01*
G37*
G04 #@! TD.AperFunction*
G04 #@! TD*
G04 #@! TO.P,C1,2*
G04 #@! TO.N,GND*
G04 #@! TA.AperFunction,SMDPad,CuDef*
G36*
G01*
X96300000Y-95575000D02*
X96300000Y-96525000D01*
G75*
G02*
X96050000Y-96775000I-250000J0D01*
G01*
X95375000Y-96775000D01*
G75*
G02*
X95125000Y-96525000I0J250000D01*
G01*
X95125000Y-95575000D01*
G75*
G02*
X95375000Y-95325000I250000J0D01*
G01*
X96050000Y-95325000D01*
G75*
G02*
X96300000Y-95575000I0J-250000D01*
G01*
G37*
G04 #@! TD.AperFunction*
G04 #@! TO.P,C1,1*
G04 #@! TO.N,+3V3*
G04 #@! TA.AperFunction,SMDPad,CuDef*
G36*
G01*
X98375000Y-95575000D02*
X98375000Y-96525000D01*
G75*
G02*
X98125000Y-96775000I-250000J0D01*
G01*
X97450000Y-96775000D01*
G75*
G02*
X97200000Y-96525000I0J250000D01*
G01*
X97200000Y-95575000D01*
G75*
G02*
X97450000Y-95325000I250000J0D01*
G01*
X98125000Y-95325000D01*
G75*
G02*
X98375000Y-95575000I0J-250000D01*
G01*
G37*
G04 #@! TD.AperFunction*
G04 #@! TD*
G04 #@! TO.P,FB2,2*
G04 #@! TO.N,+3V3*
G04 #@! TA.AperFunction,SMDPad,CuDef*
G36*
G01*
X106748160Y-81894259D02*
X106748160Y-82794261D01*
G75*
G02*
X106498161Y-83044260I-249999J0D01*
G01*
X105848159Y-83044260D01*
G75*
G02*
X105598160Y-82794261I0J249999D01*
G01*
X105598160Y-81894259D01*
G75*
G02*
X105848159Y-81644260I249999J0D01*
G01*
X106498161Y-81644260D01*
G75*
G02*
X106748160Y-81894259I0J-249999D01*
G01*
G37*
G04 #@! TD.AperFunction*
G04 #@! TO.P,FB2,1*
G04 #@! TO.N,+3.3VA*
G04 #@! TA.AperFunction,SMDPad,CuDef*
G36*
G01*
X108798160Y-81894259D02*
X108798160Y-82794261D01*
G75*
G02*
X108548161Y-83044260I-249999J0D01*
G01*
X107898159Y-83044260D01*
G75*
G02*
X107648160Y-82794261I0J249999D01*
G01*
X107648160Y-81894259D01*
G75*
G02*
X107898159Y-81644260I249999J0D01*
G01*
X108548161Y-81644260D01*
G75*
G02*
X108798160Y-81894259I0J-249999D01*
G01*
G37*
G04 #@! TD.AperFunction*
G04 #@! TD*
G04 #@! TO.P,FB1,2*
G04 #@! TO.N,GND*
G04 #@! TA.AperFunction,SMDPad,CuDef*
G36*
G01*
X103320000Y-82936501D02*
X103320000Y-82036499D01*
G75*
G02*
X103569999Y-81786500I249999J0D01*
G01*
X104220001Y-81786500D01*
G75*
G02*
X104470000Y-82036499I0J-249999D01*
G01*
X104470000Y-82936501D01*
G75*
G02*
X104220001Y-83186500I-249999J0D01*
G01*
X103569999Y-83186500D01*
G75*
G02*
X103320000Y-82936501I0J249999D01*
G01*
G37*
G04 #@! TD.AperFunction*
G04 #@! TO.P,FB1,1*
G04 #@! TO.N,GNDA*
G04 #@! TA.AperFunction,SMDPad,CuDef*
G36*
G01*
X101270000Y-82936501D02*
X101270000Y-82036499D01*
G75*
G02*
X101519999Y-81786500I249999J0D01*
G01*
X102170001Y-81786500D01*
G75*
G02*
X102420000Y-82036499I0J-249999D01*
G01*
X102420000Y-82936501D01*
G75*
G02*
X102170001Y-83186500I-249999J0D01*
G01*
X101519999Y-83186500D01*
G75*
G02*
X101270000Y-82936501I0J249999D01*
G01*
G37*
G04 #@! TD.AperFunction*
G04 #@! TD*
D17*
G04 #@! TO.P,M3,1*
G04 #@! TO.N,N/C*
X124589100Y-103396100D03*
G04 #@! TD*
G04 #@! TO.P,M3,1*
G04 #@! TO.N,N/C*
X90589100Y-103396100D03*
G04 #@! TD*
G04 #@! TO.P,M3,1*
G04 #@! TO.N,N/C*
X90589100Y-70396100D03*
G04 #@! TD*
G04 #@! TO.P,M3,1*
G04 #@! TO.N,N/C*
X124589100Y-70396100D03*
G04 #@! TD*
D18*
G04 #@! TO.N,GND*
X95350000Y-94400000D03*
X104450000Y-74700000D03*
X110700000Y-74775000D03*
X100550000Y-84575000D03*
X95727520Y-69956680D03*
X119590820Y-69656960D03*
X120091200Y-103784400D03*
X95610680Y-103875840D03*
X116350000Y-78950000D03*
X106019600Y-84683600D03*
X101725000Y-77550000D03*
X105562400Y-80467200D03*
G04 #@! TO.N,BLANK*
X110413800Y-98145600D03*
G04 #@! TD*
D19*
G04 #@! TO.N,GND*
X105836780Y-77972920D02*
X105836780Y-77988220D01*
X105836780Y-80192820D02*
X105562400Y-80467200D01*
X105836780Y-77972920D02*
X105836780Y-80192820D01*
G04 #@! TO.N,GNDA*
X105336780Y-78994720D02*
X101845000Y-82486500D01*
X105336780Y-77972920D02*
X105336780Y-78994720D01*
D20*
X98262500Y-78904000D02*
X101845000Y-82486500D01*
X98262500Y-76450000D02*
X98262500Y-78904000D01*
D19*
G04 #@! TO.N,+3V3*
X106836780Y-77972920D02*
X106836780Y-78922920D01*
X107400000Y-86875000D02*
X107281140Y-86875000D01*
X99969100Y-98293400D02*
X100025000Y-98237500D01*
D20*
X99969100Y-103856100D02*
X99969100Y-98293400D01*
D19*
X106173160Y-81600400D02*
X106173160Y-82344260D01*
X106836780Y-80936780D02*
X106173160Y-81600400D01*
X106836780Y-77972920D02*
X106836780Y-80936780D01*
D20*
X97787500Y-96111800D02*
X99969100Y-98293400D01*
D19*
X97787500Y-96050000D02*
X97787500Y-96111800D01*
D20*
X97787500Y-88737500D02*
X97787500Y-96050000D01*
X106168240Y-82344260D02*
X103937500Y-84575000D01*
D19*
X106173160Y-82344260D02*
X106168240Y-82344260D01*
D20*
X99650000Y-86875000D02*
X97787500Y-88737500D01*
D19*
X103937500Y-86816500D02*
X103879000Y-86875000D01*
D20*
X103937500Y-84575000D02*
X103937500Y-86816500D01*
X103879000Y-86875000D02*
X99650000Y-86875000D01*
X107400000Y-86875000D02*
X103879000Y-86875000D01*
D19*
G04 #@! TO.N,+3.3VA*
X107336780Y-81457880D02*
X108223160Y-82344260D01*
X107336780Y-77972920D02*
X107336780Y-81457880D01*
X100337500Y-76450000D02*
X101600000Y-76450000D01*
X106723862Y-76450000D02*
X101600000Y-76450000D01*
X107336780Y-77062918D02*
X106723862Y-76450000D01*
X107336780Y-77972920D02*
X107336780Y-77062918D01*
G04 #@! TO.N,Net-(IC1-PadEXTMODE)*
X106221781Y-76947919D02*
X104951779Y-76947919D01*
X106336780Y-77062918D02*
X106221781Y-76947919D01*
X106336780Y-77972920D02*
X106336780Y-77062918D01*
X102800000Y-79099698D02*
X104951779Y-76947919D01*
X102800000Y-79125000D02*
X102800000Y-79099698D01*
G04 #@! TO.N,Net-(IC1-PadEXTCOMIN)*
X108765379Y-76497909D02*
X110447909Y-76497909D01*
X108336780Y-76926508D02*
X108765379Y-76497909D01*
X110447909Y-76497909D02*
X112925000Y-78975000D01*
X108336780Y-77972920D02*
X108336780Y-76926508D01*
G04 #@! TO.N,CS*
X108836780Y-77062918D02*
X108836780Y-77972920D01*
X110286781Y-80100371D02*
X110286781Y-77012919D01*
X110221781Y-76947919D02*
X108951779Y-76947919D01*
X110286781Y-77012919D02*
X110221781Y-76947919D01*
X112204120Y-82017710D02*
X110286781Y-80100371D01*
X112204120Y-98868700D02*
X112204120Y-82017710D01*
X108951779Y-76947919D02*
X108836780Y-77062918D01*
X110129100Y-100943720D02*
X112204120Y-98868700D01*
X110129100Y-103856100D02*
X110129100Y-100943720D01*
G04 #@! TO.N,SDI*
X109336780Y-80525370D02*
X109336780Y-77972920D01*
X111304101Y-82492691D02*
X109336780Y-80525370D01*
X107589100Y-103856100D02*
X107589100Y-102185900D01*
X111304101Y-98495899D02*
X111304101Y-82492691D01*
X111279101Y-98495899D02*
X107589100Y-102185900D01*
X111304101Y-98495899D02*
X111279101Y-98495899D01*
G04 #@! TO.N,SCLK*
X109836780Y-80286780D02*
X109836780Y-77972920D01*
X111754111Y-82204111D02*
X109836780Y-80286780D01*
X105049100Y-103856100D02*
X106618000Y-105425000D01*
X106618000Y-105425000D02*
X107925000Y-105425000D01*
X107925000Y-105425000D02*
X108850000Y-104500000D01*
X108850000Y-101586410D02*
X111754111Y-98682299D01*
X108850000Y-104500000D02*
X108850000Y-101586410D01*
X111754111Y-98682299D02*
X111754111Y-98479111D01*
X111754111Y-98479111D02*
X111754111Y-82204111D01*
G04 #@! TO.N,BLANK*
X109400000Y-84687500D02*
X109387500Y-84675000D01*
X109387500Y-81920410D02*
X109387500Y-84675000D01*
X107836780Y-80369690D02*
X109387500Y-81920410D01*
X107836780Y-77972920D02*
X107836780Y-80369690D01*
X110854091Y-91839319D02*
X110854091Y-91296091D01*
X110854091Y-86141591D02*
X109387500Y-84675000D01*
X110854091Y-91939509D02*
X110854091Y-86141591D01*
X109268600Y-93525000D02*
X110854091Y-91939509D01*
X105050000Y-93525000D02*
X109268600Y-93525000D01*
X110515400Y-98145600D02*
X110854091Y-97806909D01*
X110413800Y-98145600D02*
X110515400Y-98145600D01*
X110854091Y-97806909D02*
X110854091Y-91939509D01*
G04 #@! TO.N,Net-(JP1-Pad2)*
X110000000Y-86875000D02*
X110404081Y-87279081D01*
X109400000Y-86875000D02*
X110000000Y-86875000D01*
X110404081Y-87279081D02*
X110404081Y-91652919D01*
X109832000Y-92225000D02*
X105050000Y-92225000D01*
X110404081Y-91652919D02*
X109832000Y-92225000D01*
G04 #@! TD*
D21*
G04 #@! TO.N,GND*
X121818400Y-105740602D02*
X108684199Y-105740602D01*
X109321997Y-105102805D01*
X109425689Y-105172090D01*
X109695942Y-105284032D01*
X109982840Y-105341100D01*
X110275360Y-105341100D01*
X110562258Y-105284032D01*
X110832511Y-105172090D01*
X111075732Y-105009575D01*
X111282575Y-104802732D01*
X111399100Y-104628340D01*
X111515625Y-104802732D01*
X111722468Y-105009575D01*
X111965689Y-105172090D01*
X112235942Y-105284032D01*
X112522840Y-105341100D01*
X112815360Y-105341100D01*
X113102258Y-105284032D01*
X113372511Y-105172090D01*
X113615732Y-105009575D01*
X113822575Y-104802732D01*
X113939100Y-104628340D01*
X114055625Y-104802732D01*
X114262468Y-105009575D01*
X114505689Y-105172090D01*
X114775942Y-105284032D01*
X115062840Y-105341100D01*
X115355360Y-105341100D01*
X115642258Y-105284032D01*
X115912511Y-105172090D01*
X116155732Y-105009575D01*
X116362575Y-104802732D01*
X116479100Y-104628340D01*
X116595625Y-104802732D01*
X116802468Y-105009575D01*
X117045689Y-105172090D01*
X117315942Y-105284032D01*
X117602840Y-105341100D01*
X117895360Y-105341100D01*
X118182258Y-105284032D01*
X118452511Y-105172090D01*
X118695732Y-105009575D01*
X118902575Y-104802732D01*
X119065090Y-104559511D01*
X119177032Y-104289258D01*
X119234100Y-104002360D01*
X119234100Y-103709840D01*
X119177032Y-103422942D01*
X119065090Y-103152689D01*
X118902575Y-102909468D01*
X118695732Y-102702625D01*
X118452511Y-102540110D01*
X118182258Y-102428168D01*
X117895360Y-102371100D01*
X117602840Y-102371100D01*
X117315942Y-102428168D01*
X117045689Y-102540110D01*
X116802468Y-102702625D01*
X116595625Y-102909468D01*
X116479100Y-103083860D01*
X116362575Y-102909468D01*
X116155732Y-102702625D01*
X115912511Y-102540110D01*
X115642258Y-102428168D01*
X115355360Y-102371100D01*
X115062840Y-102371100D01*
X114775942Y-102428168D01*
X114505689Y-102540110D01*
X114262468Y-102702625D01*
X114055625Y-102909468D01*
X113939100Y-103083860D01*
X113822575Y-102909468D01*
X113615732Y-102702625D01*
X113372511Y-102540110D01*
X113102258Y-102428168D01*
X112815360Y-102371100D01*
X112522840Y-102371100D01*
X112235942Y-102428168D01*
X111965689Y-102540110D01*
X111722468Y-102702625D01*
X111515625Y-102909468D01*
X111399100Y-103083860D01*
X111282575Y-102909468D01*
X111075732Y-102702625D01*
X110889100Y-102577922D01*
X110889100Y-101258521D01*
X112715129Y-99432494D01*
X112744121Y-99408701D01*
X112767915Y-99379708D01*
X112767919Y-99379704D01*
X112839093Y-99292977D01*
X112839094Y-99292976D01*
X112909666Y-99160947D01*
X112953123Y-99017686D01*
X112964120Y-98906033D01*
X112964120Y-98906024D01*
X112967796Y-98868701D01*
X112964120Y-98831378D01*
X112964120Y-82055033D01*
X112967796Y-82017710D01*
X112964120Y-81980387D01*
X112964120Y-81980377D01*
X112953123Y-81868724D01*
X112909666Y-81725463D01*
X112839094Y-81593434D01*
X112744121Y-81477709D01*
X112715123Y-81453911D01*
X111046781Y-79785570D01*
X111046781Y-78171582D01*
X111686928Y-78811730D01*
X111686928Y-79425001D01*
X111703992Y-79598255D01*
X111754528Y-79764851D01*
X111836595Y-79918387D01*
X111947038Y-80052962D01*
X112081613Y-80163405D01*
X112235149Y-80245472D01*
X112401745Y-80296008D01*
X112574999Y-80313072D01*
X113275001Y-80313072D01*
X113448255Y-80296008D01*
X113614851Y-80245472D01*
X113768387Y-80163405D01*
X113902962Y-80052962D01*
X114013405Y-79918387D01*
X114095472Y-79764851D01*
X114146008Y-79598255D01*
X114163072Y-79425001D01*
X114163072Y-78524999D01*
X114146008Y-78351745D01*
X114095472Y-78185149D01*
X114013405Y-78031613D01*
X113902962Y-77897038D01*
X113768387Y-77786595D01*
X113614851Y-77704528D01*
X113448255Y-77653992D01*
X113275001Y-77636928D01*
X112661730Y-77636928D01*
X111011713Y-75986912D01*
X110987910Y-75957908D01*
X110872185Y-75862935D01*
X110740156Y-75792363D01*
X110596895Y-75748906D01*
X110485242Y-75737909D01*
X110485231Y-75737909D01*
X110447909Y-75734233D01*
X110410587Y-75737909D01*
X108802712Y-75737909D01*
X108765379Y-75734232D01*
X108728046Y-75737909D01*
X108616393Y-75748906D01*
X108473132Y-75792363D01*
X108341103Y-75862935D01*
X108225378Y-75957908D01*
X108201575Y-75986912D01*
X107825778Y-76362709D01*
X107796780Y-76386507D01*
X107772982Y-76415505D01*
X107772981Y-76415506D01*
X107769009Y-76420345D01*
X107287665Y-75939002D01*
X107263863Y-75909999D01*
X107148138Y-75815026D01*
X107016109Y-75744454D01*
X106872848Y-75700997D01*
X106761195Y-75690000D01*
X106761184Y-75690000D01*
X106723862Y-75686324D01*
X106686540Y-75690000D01*
X101512110Y-75690000D01*
X101495472Y-75635150D01*
X101413405Y-75481614D01*
X101302962Y-75347038D01*
X101168386Y-75236595D01*
X101014850Y-75154528D01*
X100848254Y-75103992D01*
X100675000Y-75086928D01*
X100000000Y-75086928D01*
X99826746Y-75103992D01*
X99660150Y-75154528D01*
X99506614Y-75236595D01*
X99372038Y-75347038D01*
X99300000Y-75434817D01*
X99227962Y-75347038D01*
X99093386Y-75236595D01*
X98939850Y-75154528D01*
X98773254Y-75103992D01*
X98600000Y-75086928D01*
X97925000Y-75086928D01*
X97751746Y-75103992D01*
X97585150Y-75154528D01*
X97431614Y-75236595D01*
X97297038Y-75347038D01*
X97186595Y-75481614D01*
X97104528Y-75635150D01*
X97053992Y-75801746D01*
X97036928Y-75975000D01*
X97036928Y-76925000D01*
X97053992Y-77098254D01*
X97104528Y-77264850D01*
X97186595Y-77418386D01*
X97297038Y-77552962D01*
X97377500Y-77618995D01*
X97377501Y-78860521D01*
X97373219Y-78904000D01*
X97390305Y-79077490D01*
X97440912Y-79244313D01*
X97523090Y-79398059D01*
X97605968Y-79499046D01*
X97605971Y-79499049D01*
X97633684Y-79532817D01*
X97667451Y-79560529D01*
X100631928Y-82525007D01*
X100631928Y-82936501D01*
X100648992Y-83109755D01*
X100699528Y-83276351D01*
X100781595Y-83429887D01*
X100892038Y-83564462D01*
X101026613Y-83674905D01*
X101180149Y-83756972D01*
X101346745Y-83807508D01*
X101519999Y-83824572D01*
X102170001Y-83824572D01*
X102343255Y-83807508D01*
X102509851Y-83756972D01*
X102663387Y-83674905D01*
X102797962Y-83564462D01*
X102908405Y-83429887D01*
X102990472Y-83276351D01*
X103041008Y-83109755D01*
X103058072Y-82936501D01*
X103058072Y-82348229D01*
X105847783Y-79558519D01*
X105876781Y-79534721D01*
X105971754Y-79418996D01*
X106042326Y-79286967D01*
X106042847Y-79285248D01*
X106076780Y-79295542D01*
X106076781Y-80621977D01*
X105675573Y-81023186D01*
X105674905Y-81023252D01*
X105508309Y-81073788D01*
X105354773Y-81155855D01*
X105220198Y-81266298D01*
X105109755Y-81400873D01*
X105027688Y-81554409D01*
X104977152Y-81721005D01*
X104960088Y-81894259D01*
X104960088Y-82300833D01*
X104048994Y-83211928D01*
X103600000Y-83211928D01*
X103426746Y-83228992D01*
X103260150Y-83279528D01*
X103106614Y-83361595D01*
X102972038Y-83472038D01*
X102861595Y-83606614D01*
X102779528Y-83760150D01*
X102728992Y-83926746D01*
X102711928Y-84100000D01*
X102711928Y-85050000D01*
X102728992Y-85223254D01*
X102779528Y-85389850D01*
X102861595Y-85543386D01*
X102972038Y-85677962D01*
X103052501Y-85743995D01*
X103052501Y-85990000D01*
X99693469Y-85990000D01*
X99650000Y-85985719D01*
X99606531Y-85990000D01*
X99606523Y-85990000D01*
X99476510Y-86002805D01*
X99309687Y-86053411D01*
X99283332Y-86067498D01*
X99155941Y-86135589D01*
X99054953Y-86218468D01*
X99054951Y-86218470D01*
X99021183Y-86246183D01*
X98993470Y-86279951D01*
X97192456Y-88080966D01*
X97158683Y-88108683D01*
X97048089Y-88243442D01*
X96965911Y-88397188D01*
X96915305Y-88564011D01*
X96902500Y-88694024D01*
X96902500Y-88694031D01*
X96898219Y-88737500D01*
X96902500Y-88780969D01*
X96902501Y-94881004D01*
X96822038Y-94947038D01*
X96711595Y-95081614D01*
X96629528Y-95235150D01*
X96578992Y-95401746D01*
X96561928Y-95575000D01*
X96561928Y-96525000D01*
X96578992Y-96698254D01*
X96629528Y-96864850D01*
X96711595Y-97018386D01*
X96822038Y-97152962D01*
X96956614Y-97263405D01*
X97110150Y-97345472D01*
X97276746Y-97396008D01*
X97450000Y-97413072D01*
X97837194Y-97413072D01*
X99084101Y-98659980D01*
X99084100Y-102661444D01*
X99022468Y-102702625D01*
X98815625Y-102909468D01*
X98653110Y-103152689D01*
X98541168Y-103422942D01*
X98484100Y-103709840D01*
X98484100Y-104002360D01*
X98541168Y-104289258D01*
X98653110Y-104559511D01*
X98815625Y-104802732D01*
X99022468Y-105009575D01*
X99265689Y-105172090D01*
X99535942Y-105284032D01*
X99822840Y-105341100D01*
X100115360Y-105341100D01*
X100402258Y-105284032D01*
X100672511Y-105172090D01*
X100915732Y-105009575D01*
X101122575Y-104802732D01*
X101285090Y-104559511D01*
X101397032Y-104289258D01*
X101454100Y-104002360D01*
X101454100Y-103709840D01*
X101397032Y-103422942D01*
X101285090Y-103152689D01*
X101122575Y-102909468D01*
X100915732Y-102702625D01*
X100854100Y-102661444D01*
X100854100Y-98336865D01*
X100858381Y-98293399D01*
X100854100Y-98249933D01*
X100854100Y-98249923D01*
X100841295Y-98119910D01*
X100790689Y-97953087D01*
X100708511Y-97799341D01*
X100653428Y-97732223D01*
X100625632Y-97698353D01*
X100625630Y-97698351D01*
X100597917Y-97664583D01*
X100564149Y-97636870D01*
X99013072Y-96085794D01*
X99013072Y-95575000D01*
X98996008Y-95401746D01*
X98945472Y-95235150D01*
X98863405Y-95081614D01*
X98752962Y-94947038D01*
X98672500Y-94881005D01*
X98672500Y-89104078D01*
X100016579Y-87760000D01*
X106280386Y-87760000D01*
X106311595Y-87818387D01*
X106422038Y-87952962D01*
X106556613Y-88063405D01*
X106710149Y-88145472D01*
X106876745Y-88196008D01*
X107049999Y-88213072D01*
X107750001Y-88213072D01*
X107923255Y-88196008D01*
X108089851Y-88145472D01*
X108243387Y-88063405D01*
X108377962Y-87952962D01*
X108400000Y-87926109D01*
X108422038Y-87952962D01*
X108556613Y-88063405D01*
X108710149Y-88145472D01*
X108876745Y-88196008D01*
X109049999Y-88213072D01*
X109644081Y-88213072D01*
X109644082Y-91338116D01*
X109517199Y-91465000D01*
X106381046Y-91465000D01*
X106330537Y-91370506D01*
X106251185Y-91273815D01*
X106154494Y-91194463D01*
X106044180Y-91135498D01*
X105924482Y-91099188D01*
X105800000Y-91086928D01*
X104300000Y-91086928D01*
X104175518Y-91099188D01*
X104055820Y-91135498D01*
X103945506Y-91194463D01*
X103848815Y-91273815D01*
X103769463Y-91370506D01*
X103710498Y-91480820D01*
X103674188Y-91600518D01*
X103661928Y-91725000D01*
X103661928Y-92725000D01*
X103674188Y-92849482D01*
X103681929Y-92875000D01*
X103674188Y-92900518D01*
X103661928Y-93025000D01*
X103661928Y-94025000D01*
X103674188Y-94149482D01*
X103710498Y-94269180D01*
X103769463Y-94379494D01*
X103848815Y-94476185D01*
X103945506Y-94555537D01*
X104055820Y-94614502D01*
X104175518Y-94650812D01*
X104300000Y-94663072D01*
X105800000Y-94663072D01*
X105924482Y-94650812D01*
X106044180Y-94614502D01*
X106154494Y-94555537D01*
X106251185Y-94476185D01*
X106330537Y-94379494D01*
X106381046Y-94285000D01*
X109231278Y-94285000D01*
X109268600Y-94288676D01*
X109305922Y-94285000D01*
X109305933Y-94285000D01*
X109417586Y-94274003D01*
X109560847Y-94230546D01*
X109692876Y-94159974D01*
X109808601Y-94065001D01*
X109832404Y-94035997D01*
X110094092Y-93774310D01*
X110094091Y-97157752D01*
X109923544Y-97228395D01*
X109754026Y-97341663D01*
X109609863Y-97485826D01*
X109496595Y-97655344D01*
X109418574Y-97843702D01*
X109378800Y-98043661D01*
X109378800Y-98247539D01*
X109418574Y-98447498D01*
X109496595Y-98635856D01*
X109609863Y-98805374D01*
X109752343Y-98947854D01*
X107078098Y-101622101D01*
X107049100Y-101645899D01*
X107025302Y-101674897D01*
X107025301Y-101674898D01*
X106954126Y-101761624D01*
X106883554Y-101893654D01*
X106840098Y-102036915D01*
X106825424Y-102185900D01*
X106829101Y-102223232D01*
X106829101Y-102577921D01*
X106642468Y-102702625D01*
X106435625Y-102909468D01*
X106319100Y-103083860D01*
X106202575Y-102909468D01*
X105995732Y-102702625D01*
X105752511Y-102540110D01*
X105482258Y-102428168D01*
X105195360Y-102371100D01*
X104902840Y-102371100D01*
X104615942Y-102428168D01*
X104345689Y-102540110D01*
X104102468Y-102702625D01*
X103895625Y-102909468D01*
X103733110Y-103152689D01*
X103621168Y-103422942D01*
X103564100Y-103709840D01*
X103564100Y-104002360D01*
X103621168Y-104289258D01*
X103733110Y-104559511D01*
X103895625Y-104802732D01*
X104102468Y-105009575D01*
X104345689Y-105172090D01*
X104615942Y-105284032D01*
X104902840Y-105341100D01*
X105195360Y-105341100D01*
X105415508Y-105297310D01*
X105858800Y-105740602D01*
X93382885Y-105740602D01*
X93370615Y-68058900D01*
X121818400Y-68058900D01*
X121818400Y-105740602D01*
G04 #@! TA.AperFunction,Conductor*
D22*
G36*
X121818400Y-105740602D02*
G01*
X108684199Y-105740602D01*
X109321997Y-105102805D01*
X109425689Y-105172090D01*
X109695942Y-105284032D01*
X109982840Y-105341100D01*
X110275360Y-105341100D01*
X110562258Y-105284032D01*
X110832511Y-105172090D01*
X111075732Y-105009575D01*
X111282575Y-104802732D01*
X111399100Y-104628340D01*
X111515625Y-104802732D01*
X111722468Y-105009575D01*
X111965689Y-105172090D01*
X112235942Y-105284032D01*
X112522840Y-105341100D01*
X112815360Y-105341100D01*
X113102258Y-105284032D01*
X113372511Y-105172090D01*
X113615732Y-105009575D01*
X113822575Y-104802732D01*
X113939100Y-104628340D01*
X114055625Y-104802732D01*
X114262468Y-105009575D01*
X114505689Y-105172090D01*
X114775942Y-105284032D01*
X115062840Y-105341100D01*
X115355360Y-105341100D01*
X115642258Y-105284032D01*
X115912511Y-105172090D01*
X116155732Y-105009575D01*
X116362575Y-104802732D01*
X116479100Y-104628340D01*
X116595625Y-104802732D01*
X116802468Y-105009575D01*
X117045689Y-105172090D01*
X117315942Y-105284032D01*
X117602840Y-105341100D01*
X117895360Y-105341100D01*
X118182258Y-105284032D01*
X118452511Y-105172090D01*
X118695732Y-105009575D01*
X118902575Y-104802732D01*
X119065090Y-104559511D01*
X119177032Y-104289258D01*
X119234100Y-104002360D01*
X119234100Y-103709840D01*
X119177032Y-103422942D01*
X119065090Y-103152689D01*
X118902575Y-102909468D01*
X118695732Y-102702625D01*
X118452511Y-102540110D01*
X118182258Y-102428168D01*
X117895360Y-102371100D01*
X117602840Y-102371100D01*
X117315942Y-102428168D01*
X117045689Y-102540110D01*
X116802468Y-102702625D01*
X116595625Y-102909468D01*
X116479100Y-103083860D01*
X116362575Y-102909468D01*
X116155732Y-102702625D01*
X115912511Y-102540110D01*
X115642258Y-102428168D01*
X115355360Y-102371100D01*
X115062840Y-102371100D01*
X114775942Y-102428168D01*
X114505689Y-102540110D01*
X114262468Y-102702625D01*
X114055625Y-102909468D01*
X113939100Y-103083860D01*
X113822575Y-102909468D01*
X113615732Y-102702625D01*
X113372511Y-102540110D01*
X113102258Y-102428168D01*
X112815360Y-102371100D01*
X112522840Y-102371100D01*
X112235942Y-102428168D01*
X111965689Y-102540110D01*
X111722468Y-102702625D01*
X111515625Y-102909468D01*
X111399100Y-103083860D01*
X111282575Y-102909468D01*
X111075732Y-102702625D01*
X110889100Y-102577922D01*
X110889100Y-101258521D01*
X112715129Y-99432494D01*
X112744121Y-99408701D01*
X112767915Y-99379708D01*
X112767919Y-99379704D01*
X112839093Y-99292977D01*
X112839094Y-99292976D01*
X112909666Y-99160947D01*
X112953123Y-99017686D01*
X112964120Y-98906033D01*
X112964120Y-98906024D01*
X112967796Y-98868701D01*
X112964120Y-98831378D01*
X112964120Y-82055033D01*
X112967796Y-82017710D01*
X112964120Y-81980387D01*
X112964120Y-81980377D01*
X112953123Y-81868724D01*
X112909666Y-81725463D01*
X112839094Y-81593434D01*
X112744121Y-81477709D01*
X112715123Y-81453911D01*
X111046781Y-79785570D01*
X111046781Y-78171582D01*
X111686928Y-78811730D01*
X111686928Y-79425001D01*
X111703992Y-79598255D01*
X111754528Y-79764851D01*
X111836595Y-79918387D01*
X111947038Y-80052962D01*
X112081613Y-80163405D01*
X112235149Y-80245472D01*
X112401745Y-80296008D01*
X112574999Y-80313072D01*
X113275001Y-80313072D01*
X113448255Y-80296008D01*
X113614851Y-80245472D01*
X113768387Y-80163405D01*
X113902962Y-80052962D01*
X114013405Y-79918387D01*
X114095472Y-79764851D01*
X114146008Y-79598255D01*
X114163072Y-79425001D01*
X114163072Y-78524999D01*
X114146008Y-78351745D01*
X114095472Y-78185149D01*
X114013405Y-78031613D01*
X113902962Y-77897038D01*
X113768387Y-77786595D01*
X113614851Y-77704528D01*
X113448255Y-77653992D01*
X113275001Y-77636928D01*
X112661730Y-77636928D01*
X111011713Y-75986912D01*
X110987910Y-75957908D01*
X110872185Y-75862935D01*
X110740156Y-75792363D01*
X110596895Y-75748906D01*
X110485242Y-75737909D01*
X110485231Y-75737909D01*
X110447909Y-75734233D01*
X110410587Y-75737909D01*
X108802712Y-75737909D01*
X108765379Y-75734232D01*
X108728046Y-75737909D01*
X108616393Y-75748906D01*
X108473132Y-75792363D01*
X108341103Y-75862935D01*
X108225378Y-75957908D01*
X108201575Y-75986912D01*
X107825778Y-76362709D01*
X107796780Y-76386507D01*
X107772982Y-76415505D01*
X107772981Y-76415506D01*
X107769009Y-76420345D01*
X107287665Y-75939002D01*
X107263863Y-75909999D01*
X107148138Y-75815026D01*
X107016109Y-75744454D01*
X106872848Y-75700997D01*
X106761195Y-75690000D01*
X106761184Y-75690000D01*
X106723862Y-75686324D01*
X106686540Y-75690000D01*
X101512110Y-75690000D01*
X101495472Y-75635150D01*
X101413405Y-75481614D01*
X101302962Y-75347038D01*
X101168386Y-75236595D01*
X101014850Y-75154528D01*
X100848254Y-75103992D01*
X100675000Y-75086928D01*
X100000000Y-75086928D01*
X99826746Y-75103992D01*
X99660150Y-75154528D01*
X99506614Y-75236595D01*
X99372038Y-75347038D01*
X99300000Y-75434817D01*
X99227962Y-75347038D01*
X99093386Y-75236595D01*
X98939850Y-75154528D01*
X98773254Y-75103992D01*
X98600000Y-75086928D01*
X97925000Y-75086928D01*
X97751746Y-75103992D01*
X97585150Y-75154528D01*
X97431614Y-75236595D01*
X97297038Y-75347038D01*
X97186595Y-75481614D01*
X97104528Y-75635150D01*
X97053992Y-75801746D01*
X97036928Y-75975000D01*
X97036928Y-76925000D01*
X97053992Y-77098254D01*
X97104528Y-77264850D01*
X97186595Y-77418386D01*
X97297038Y-77552962D01*
X97377500Y-77618995D01*
X97377501Y-78860521D01*
X97373219Y-78904000D01*
X97390305Y-79077490D01*
X97440912Y-79244313D01*
X97523090Y-79398059D01*
X97605968Y-79499046D01*
X97605971Y-79499049D01*
X97633684Y-79532817D01*
X97667451Y-79560529D01*
X100631928Y-82525007D01*
X100631928Y-82936501D01*
X100648992Y-83109755D01*
X100699528Y-83276351D01*
X100781595Y-83429887D01*
X100892038Y-83564462D01*
X101026613Y-83674905D01*
X101180149Y-83756972D01*
X101346745Y-83807508D01*
X101519999Y-83824572D01*
X102170001Y-83824572D01*
X102343255Y-83807508D01*
X102509851Y-83756972D01*
X102663387Y-83674905D01*
X102797962Y-83564462D01*
X102908405Y-83429887D01*
X102990472Y-83276351D01*
X103041008Y-83109755D01*
X103058072Y-82936501D01*
X103058072Y-82348229D01*
X105847783Y-79558519D01*
X105876781Y-79534721D01*
X105971754Y-79418996D01*
X106042326Y-79286967D01*
X106042847Y-79285248D01*
X106076780Y-79295542D01*
X106076781Y-80621977D01*
X105675573Y-81023186D01*
X105674905Y-81023252D01*
X105508309Y-81073788D01*
X105354773Y-81155855D01*
X105220198Y-81266298D01*
X105109755Y-81400873D01*
X105027688Y-81554409D01*
X104977152Y-81721005D01*
X104960088Y-81894259D01*
X104960088Y-82300833D01*
X104048994Y-83211928D01*
X103600000Y-83211928D01*
X103426746Y-83228992D01*
X103260150Y-83279528D01*
X103106614Y-83361595D01*
X102972038Y-83472038D01*
X102861595Y-83606614D01*
X102779528Y-83760150D01*
X102728992Y-83926746D01*
X102711928Y-84100000D01*
X102711928Y-85050000D01*
X102728992Y-85223254D01*
X102779528Y-85389850D01*
X102861595Y-85543386D01*
X102972038Y-85677962D01*
X103052501Y-85743995D01*
X103052501Y-85990000D01*
X99693469Y-85990000D01*
X99650000Y-85985719D01*
X99606531Y-85990000D01*
X99606523Y-85990000D01*
X99476510Y-86002805D01*
X99309687Y-86053411D01*
X99283332Y-86067498D01*
X99155941Y-86135589D01*
X99054953Y-86218468D01*
X99054951Y-86218470D01*
X99021183Y-86246183D01*
X98993470Y-86279951D01*
X97192456Y-88080966D01*
X97158683Y-88108683D01*
X97048089Y-88243442D01*
X96965911Y-88397188D01*
X96915305Y-88564011D01*
X96902500Y-88694024D01*
X96902500Y-88694031D01*
X96898219Y-88737500D01*
X96902500Y-88780969D01*
X96902501Y-94881004D01*
X96822038Y-94947038D01*
X96711595Y-95081614D01*
X96629528Y-95235150D01*
X96578992Y-95401746D01*
X96561928Y-95575000D01*
X96561928Y-96525000D01*
X96578992Y-96698254D01*
X96629528Y-96864850D01*
X96711595Y-97018386D01*
X96822038Y-97152962D01*
X96956614Y-97263405D01*
X97110150Y-97345472D01*
X97276746Y-97396008D01*
X97450000Y-97413072D01*
X97837194Y-97413072D01*
X99084101Y-98659980D01*
X99084100Y-102661444D01*
X99022468Y-102702625D01*
X98815625Y-102909468D01*
X98653110Y-103152689D01*
X98541168Y-103422942D01*
X98484100Y-103709840D01*
X98484100Y-104002360D01*
X98541168Y-104289258D01*
X98653110Y-104559511D01*
X98815625Y-104802732D01*
X99022468Y-105009575D01*
X99265689Y-105172090D01*
X99535942Y-105284032D01*
X99822840Y-105341100D01*
X100115360Y-105341100D01*
X100402258Y-105284032D01*
X100672511Y-105172090D01*
X100915732Y-105009575D01*
X101122575Y-104802732D01*
X101285090Y-104559511D01*
X101397032Y-104289258D01*
X101454100Y-104002360D01*
X101454100Y-103709840D01*
X101397032Y-103422942D01*
X101285090Y-103152689D01*
X101122575Y-102909468D01*
X100915732Y-102702625D01*
X100854100Y-102661444D01*
X100854100Y-98336865D01*
X100858381Y-98293399D01*
X100854100Y-98249933D01*
X100854100Y-98249923D01*
X100841295Y-98119910D01*
X100790689Y-97953087D01*
X100708511Y-97799341D01*
X100653428Y-97732223D01*
X100625632Y-97698353D01*
X100625630Y-97698351D01*
X100597917Y-97664583D01*
X100564149Y-97636870D01*
X99013072Y-96085794D01*
X99013072Y-95575000D01*
X98996008Y-95401746D01*
X98945472Y-95235150D01*
X98863405Y-95081614D01*
X98752962Y-94947038D01*
X98672500Y-94881005D01*
X98672500Y-89104078D01*
X100016579Y-87760000D01*
X106280386Y-87760000D01*
X106311595Y-87818387D01*
X106422038Y-87952962D01*
X106556613Y-88063405D01*
X106710149Y-88145472D01*
X106876745Y-88196008D01*
X107049999Y-88213072D01*
X107750001Y-88213072D01*
X107923255Y-88196008D01*
X108089851Y-88145472D01*
X108243387Y-88063405D01*
X108377962Y-87952962D01*
X108400000Y-87926109D01*
X108422038Y-87952962D01*
X108556613Y-88063405D01*
X108710149Y-88145472D01*
X108876745Y-88196008D01*
X109049999Y-88213072D01*
X109644081Y-88213072D01*
X109644082Y-91338116D01*
X109517199Y-91465000D01*
X106381046Y-91465000D01*
X106330537Y-91370506D01*
X106251185Y-91273815D01*
X106154494Y-91194463D01*
X106044180Y-91135498D01*
X105924482Y-91099188D01*
X105800000Y-91086928D01*
X104300000Y-91086928D01*
X104175518Y-91099188D01*
X104055820Y-91135498D01*
X103945506Y-91194463D01*
X103848815Y-91273815D01*
X103769463Y-91370506D01*
X103710498Y-91480820D01*
X103674188Y-91600518D01*
X103661928Y-91725000D01*
X103661928Y-92725000D01*
X103674188Y-92849482D01*
X103681929Y-92875000D01*
X103674188Y-92900518D01*
X103661928Y-93025000D01*
X103661928Y-94025000D01*
X103674188Y-94149482D01*
X103710498Y-94269180D01*
X103769463Y-94379494D01*
X103848815Y-94476185D01*
X103945506Y-94555537D01*
X104055820Y-94614502D01*
X104175518Y-94650812D01*
X104300000Y-94663072D01*
X105800000Y-94663072D01*
X105924482Y-94650812D01*
X106044180Y-94614502D01*
X106154494Y-94555537D01*
X106251185Y-94476185D01*
X106330537Y-94379494D01*
X106381046Y-94285000D01*
X109231278Y-94285000D01*
X109268600Y-94288676D01*
X109305922Y-94285000D01*
X109305933Y-94285000D01*
X109417586Y-94274003D01*
X109560847Y-94230546D01*
X109692876Y-94159974D01*
X109808601Y-94065001D01*
X109832404Y-94035997D01*
X110094092Y-93774310D01*
X110094091Y-97157752D01*
X109923544Y-97228395D01*
X109754026Y-97341663D01*
X109609863Y-97485826D01*
X109496595Y-97655344D01*
X109418574Y-97843702D01*
X109378800Y-98043661D01*
X109378800Y-98247539D01*
X109418574Y-98447498D01*
X109496595Y-98635856D01*
X109609863Y-98805374D01*
X109752343Y-98947854D01*
X107078098Y-101622101D01*
X107049100Y-101645899D01*
X107025302Y-101674897D01*
X107025301Y-101674898D01*
X106954126Y-101761624D01*
X106883554Y-101893654D01*
X106840098Y-102036915D01*
X106825424Y-102185900D01*
X106829101Y-102223232D01*
X106829101Y-102577921D01*
X106642468Y-102702625D01*
X106435625Y-102909468D01*
X106319100Y-103083860D01*
X106202575Y-102909468D01*
X105995732Y-102702625D01*
X105752511Y-102540110D01*
X105482258Y-102428168D01*
X105195360Y-102371100D01*
X104902840Y-102371100D01*
X104615942Y-102428168D01*
X104345689Y-102540110D01*
X104102468Y-102702625D01*
X103895625Y-102909468D01*
X103733110Y-103152689D01*
X103621168Y-103422942D01*
X103564100Y-103709840D01*
X103564100Y-104002360D01*
X103621168Y-104289258D01*
X103733110Y-104559511D01*
X103895625Y-104802732D01*
X104102468Y-105009575D01*
X104345689Y-105172090D01*
X104615942Y-105284032D01*
X104902840Y-105341100D01*
X105195360Y-105341100D01*
X105415508Y-105297310D01*
X105858800Y-105740602D01*
X93382885Y-105740602D01*
X93370615Y-68058900D01*
X121818400Y-68058900D01*
X121818400Y-105740602D01*
G37*
G04 #@! TD.AperFunction*
D21*
X107270198Y-83422222D02*
X107404773Y-83532665D01*
X107558309Y-83614732D01*
X107724905Y-83665268D01*
X107898159Y-83682332D01*
X108331523Y-83682332D01*
X108311595Y-83706614D01*
X108229528Y-83860150D01*
X108178992Y-84026746D01*
X108161928Y-84200000D01*
X108161928Y-85150000D01*
X108178992Y-85323254D01*
X108229528Y-85489850D01*
X108311595Y-85643386D01*
X108422038Y-85777962D01*
X108433660Y-85787500D01*
X108422038Y-85797038D01*
X108400000Y-85823891D01*
X108377962Y-85797038D01*
X108243387Y-85686595D01*
X108089851Y-85604528D01*
X107923255Y-85553992D01*
X107750001Y-85536928D01*
X107049999Y-85536928D01*
X106876745Y-85553992D01*
X106710149Y-85604528D01*
X106556613Y-85686595D01*
X106422038Y-85797038D01*
X106311595Y-85931613D01*
X106280386Y-85990000D01*
X104822500Y-85990000D01*
X104822500Y-85743995D01*
X104902962Y-85677962D01*
X105013405Y-85543386D01*
X105095472Y-85389850D01*
X105146008Y-85223254D01*
X105163072Y-85050000D01*
X105163072Y-84601006D01*
X106081747Y-83682332D01*
X106498161Y-83682332D01*
X106671415Y-83665268D01*
X106838011Y-83614732D01*
X106991547Y-83532665D01*
X107126122Y-83422222D01*
X107198160Y-83334444D01*
X107270198Y-83422222D01*
G04 #@! TA.AperFunction,Conductor*
D22*
G36*
X107270198Y-83422222D02*
G01*
X107404773Y-83532665D01*
X107558309Y-83614732D01*
X107724905Y-83665268D01*
X107898159Y-83682332D01*
X108331523Y-83682332D01*
X108311595Y-83706614D01*
X108229528Y-83860150D01*
X108178992Y-84026746D01*
X108161928Y-84200000D01*
X108161928Y-85150000D01*
X108178992Y-85323254D01*
X108229528Y-85489850D01*
X108311595Y-85643386D01*
X108422038Y-85777962D01*
X108433660Y-85787500D01*
X108422038Y-85797038D01*
X108400000Y-85823891D01*
X108377962Y-85797038D01*
X108243387Y-85686595D01*
X108089851Y-85604528D01*
X107923255Y-85553992D01*
X107750001Y-85536928D01*
X107049999Y-85536928D01*
X106876745Y-85553992D01*
X106710149Y-85604528D01*
X106556613Y-85686595D01*
X106422038Y-85797038D01*
X106311595Y-85931613D01*
X106280386Y-85990000D01*
X104822500Y-85990000D01*
X104822500Y-85743995D01*
X104902962Y-85677962D01*
X105013405Y-85543386D01*
X105095472Y-85389850D01*
X105146008Y-85223254D01*
X105163072Y-85050000D01*
X105163072Y-84601006D01*
X106081747Y-83682332D01*
X106498161Y-83682332D01*
X106671415Y-83665268D01*
X106838011Y-83614732D01*
X106991547Y-83532665D01*
X107126122Y-83422222D01*
X107198160Y-83334444D01*
X107270198Y-83422222D01*
G37*
G04 #@! TD.AperFunction*
D21*
X103037969Y-77786928D02*
X102449999Y-77786928D01*
X102276745Y-77803992D01*
X102110149Y-77854528D01*
X101956613Y-77936595D01*
X101822038Y-78047038D01*
X101711595Y-78181613D01*
X101629528Y-78335149D01*
X101578992Y-78501745D01*
X101561928Y-78674999D01*
X101561928Y-79575001D01*
X101578992Y-79748255D01*
X101629528Y-79914851D01*
X101711595Y-80068387D01*
X101822038Y-80202962D01*
X101956613Y-80313405D01*
X102110149Y-80395472D01*
X102276745Y-80446008D01*
X102449999Y-80463072D01*
X102793627Y-80463072D01*
X102108271Y-81148428D01*
X101758507Y-81148428D01*
X99147500Y-78537422D01*
X99147500Y-77618995D01*
X99227962Y-77552962D01*
X99300000Y-77465183D01*
X99372038Y-77552962D01*
X99506614Y-77663405D01*
X99660150Y-77745472D01*
X99826746Y-77796008D01*
X100000000Y-77813072D01*
X100675000Y-77813072D01*
X100848254Y-77796008D01*
X101014850Y-77745472D01*
X101168386Y-77663405D01*
X101302962Y-77552962D01*
X101413405Y-77418386D01*
X101495472Y-77264850D01*
X101512110Y-77210000D01*
X103614896Y-77210000D01*
X103037969Y-77786928D01*
G04 #@! TA.AperFunction,Conductor*
D22*
G36*
X103037969Y-77786928D02*
G01*
X102449999Y-77786928D01*
X102276745Y-77803992D01*
X102110149Y-77854528D01*
X101956613Y-77936595D01*
X101822038Y-78047038D01*
X101711595Y-78181613D01*
X101629528Y-78335149D01*
X101578992Y-78501745D01*
X101561928Y-78674999D01*
X101561928Y-79575001D01*
X101578992Y-79748255D01*
X101629528Y-79914851D01*
X101711595Y-80068387D01*
X101822038Y-80202962D01*
X101956613Y-80313405D01*
X102110149Y-80395472D01*
X102276745Y-80446008D01*
X102449999Y-80463072D01*
X102793627Y-80463072D01*
X102108271Y-81148428D01*
X101758507Y-81148428D01*
X99147500Y-78537422D01*
X99147500Y-77618995D01*
X99227962Y-77552962D01*
X99300000Y-77465183D01*
X99372038Y-77552962D01*
X99506614Y-77663405D01*
X99660150Y-77745472D01*
X99826746Y-77796008D01*
X100000000Y-77813072D01*
X100675000Y-77813072D01*
X100848254Y-77796008D01*
X101014850Y-77745472D01*
X101168386Y-77663405D01*
X101302962Y-77552962D01*
X101413405Y-77418386D01*
X101495472Y-77264850D01*
X101512110Y-77210000D01*
X103614896Y-77210000D01*
X103037969Y-77786928D01*
G37*
G04 #@! TD.AperFunction*
G04 #@! TD*
M02*
