%TF.GenerationSoftware,KiCad,Pcbnew,(5.1.10)-1*%
%TF.CreationDate,2021-10-19T03:26:11-04:00*%
%TF.ProjectId,SharpDisplayPcb,53686172-7044-4697-9370-6c6179506362,rev?*%
%TF.SameCoordinates,Original*%
%TF.FileFunction,Copper,L2,Bot*%
%TF.FilePolarity,Positive*%
%FSLAX46Y46*%
G04 Gerber Fmt 4.6, Leading zero omitted, Abs format (unit mm)*
G04 Created by KiCad (PCBNEW (5.1.10)-1) date 2021-10-19 03:26:11*
%MOMM*%
%LPD*%
G01*
G04 APERTURE LIST*
%TA.AperFunction,ComponentPad*%
%ADD10O,1.700000X1.700000*%
%TD*%
%TA.AperFunction,ComponentPad*%
%ADD11R,1.700000X1.700000*%
%TD*%
%TA.AperFunction,ComponentPad*%
%ADD12C,1.700000*%
%TD*%
%TA.AperFunction,ComponentPad*%
%ADD13C,4.000000*%
%TD*%
%TA.AperFunction,ViaPad*%
%ADD14C,0.800000*%
%TD*%
%TA.AperFunction,Conductor*%
%ADD15C,0.250000*%
%TD*%
%TA.AperFunction,Conductor*%
%ADD16C,0.254000*%
%TD*%
%TA.AperFunction,Conductor*%
%ADD17C,0.100000*%
%TD*%
G04 APERTURE END LIST*
D10*
%TO.P,J1,8*%
%TO.N,N/C*%
X117749100Y-103856100D03*
%TO.P,J1,7*%
%TO.N,BLANK*%
X115209100Y-103856100D03*
%TO.P,J1,6*%
%TO.N,N/C*%
X112669100Y-103856100D03*
%TO.P,J1,5*%
%TO.N,CS*%
X110129100Y-103856100D03*
%TO.P,J1,4*%
%TO.N,SDI*%
X107589100Y-103856100D03*
%TO.P,J1,3*%
%TO.N,SCLK*%
X105049100Y-103856100D03*
D11*
%TO.P,J1,2*%
%TO.N,GND*%
X102509100Y-103856100D03*
D12*
%TO.P,J1,1*%
%TO.N,+3V3*%
X99969100Y-103856100D03*
%TD*%
D13*
%TO.P,M3,1*%
%TO.N,N/C*%
X124589100Y-103396100D03*
%TD*%
%TO.P,M3,1*%
%TO.N,N/C*%
X90589100Y-103396100D03*
%TD*%
%TO.P,M3,1*%
%TO.N,N/C*%
X90589100Y-70396100D03*
%TD*%
%TO.P,M3,1*%
%TO.N,N/C*%
X124589100Y-70396100D03*
%TD*%
D14*
%TO.N,GND*%
X104208580Y-81475580D03*
X108361480Y-82339180D03*
X100284280Y-78270100D03*
X96466660Y-79519780D03*
%TO.N,BLANK*%
X110413800Y-98145600D03*
%TD*%
D15*
%TO.N,BLANK*%
X110413800Y-99060800D02*
X115209100Y-103856100D01*
X110413800Y-98145600D02*
X110413800Y-99060800D01*
%TD*%
D16*
%TO.N,GND*%
X123340959Y-68060993D02*
X122909385Y-68349362D01*
X122542362Y-68716385D01*
X122253993Y-69147959D01*
X122055361Y-69627499D01*
X121954100Y-70136575D01*
X121954100Y-70655625D01*
X122055361Y-71164701D01*
X122253993Y-71644241D01*
X122542362Y-72075815D01*
X122909385Y-72442838D01*
X123340959Y-72731207D01*
X123346017Y-72733302D01*
X122625519Y-72733302D01*
X122593100Y-72730109D01*
X122518920Y-72737415D01*
X122463717Y-72742852D01*
X122339307Y-72780592D01*
X122224650Y-72841877D01*
X122124152Y-72924354D01*
X122041675Y-73024852D01*
X121980390Y-73139509D01*
X121942650Y-73263919D01*
X121929907Y-73393302D01*
X121933100Y-73425721D01*
X121933101Y-100373769D01*
X121929907Y-100406198D01*
X121942650Y-100535581D01*
X121980390Y-100659991D01*
X122041675Y-100774648D01*
X122124152Y-100875146D01*
X122224650Y-100957623D01*
X122339307Y-101018908D01*
X122463717Y-101056648D01*
X122560681Y-101066198D01*
X122593100Y-101069391D01*
X122625519Y-101066198D01*
X123333169Y-101066198D01*
X122909385Y-101349362D01*
X122542362Y-101716385D01*
X122253993Y-102147959D01*
X122055361Y-102627499D01*
X121954100Y-103136575D01*
X121954100Y-103655625D01*
X122055361Y-104164701D01*
X122253993Y-104644241D01*
X122542362Y-105075815D01*
X122909385Y-105442838D01*
X123340959Y-105731207D01*
X123363641Y-105740602D01*
X91814559Y-105740602D01*
X91837241Y-105731207D01*
X92268815Y-105442838D01*
X92635838Y-105075815D01*
X92924207Y-104644241D01*
X93122839Y-104164701D01*
X93213316Y-103709840D01*
X98484100Y-103709840D01*
X98484100Y-104002360D01*
X98541168Y-104289258D01*
X98653110Y-104559511D01*
X98815625Y-104802732D01*
X99022468Y-105009575D01*
X99265689Y-105172090D01*
X99535942Y-105284032D01*
X99822840Y-105341100D01*
X100115360Y-105341100D01*
X100402258Y-105284032D01*
X100672511Y-105172090D01*
X100915732Y-105009575D01*
X101047587Y-104877720D01*
X101069598Y-104950280D01*
X101128563Y-105060594D01*
X101207915Y-105157285D01*
X101304606Y-105236637D01*
X101414920Y-105295602D01*
X101534618Y-105331912D01*
X101659100Y-105344172D01*
X102223350Y-105341100D01*
X102382100Y-105182350D01*
X102382100Y-103983100D01*
X102362100Y-103983100D01*
X102362100Y-103729100D01*
X102382100Y-103729100D01*
X102382100Y-102529850D01*
X102636100Y-102529850D01*
X102636100Y-103729100D01*
X102656100Y-103729100D01*
X102656100Y-103983100D01*
X102636100Y-103983100D01*
X102636100Y-105182350D01*
X102794850Y-105341100D01*
X103359100Y-105344172D01*
X103483582Y-105331912D01*
X103603280Y-105295602D01*
X103713594Y-105236637D01*
X103810285Y-105157285D01*
X103889637Y-105060594D01*
X103948602Y-104950280D01*
X103970613Y-104877720D01*
X104102468Y-105009575D01*
X104345689Y-105172090D01*
X104615942Y-105284032D01*
X104902840Y-105341100D01*
X105195360Y-105341100D01*
X105482258Y-105284032D01*
X105752511Y-105172090D01*
X105995732Y-105009575D01*
X106202575Y-104802732D01*
X106319100Y-104628340D01*
X106435625Y-104802732D01*
X106642468Y-105009575D01*
X106885689Y-105172090D01*
X107155942Y-105284032D01*
X107442840Y-105341100D01*
X107735360Y-105341100D01*
X108022258Y-105284032D01*
X108292511Y-105172090D01*
X108535732Y-105009575D01*
X108742575Y-104802732D01*
X108859100Y-104628340D01*
X108975625Y-104802732D01*
X109182468Y-105009575D01*
X109425689Y-105172090D01*
X109695942Y-105284032D01*
X109982840Y-105341100D01*
X110275360Y-105341100D01*
X110562258Y-105284032D01*
X110832511Y-105172090D01*
X111075732Y-105009575D01*
X111282575Y-104802732D01*
X111399100Y-104628340D01*
X111515625Y-104802732D01*
X111722468Y-105009575D01*
X111965689Y-105172090D01*
X112235942Y-105284032D01*
X112522840Y-105341100D01*
X112815360Y-105341100D01*
X113102258Y-105284032D01*
X113372511Y-105172090D01*
X113615732Y-105009575D01*
X113822575Y-104802732D01*
X113939100Y-104628340D01*
X114055625Y-104802732D01*
X114262468Y-105009575D01*
X114505689Y-105172090D01*
X114775942Y-105284032D01*
X115062840Y-105341100D01*
X115355360Y-105341100D01*
X115642258Y-105284032D01*
X115912511Y-105172090D01*
X116155732Y-105009575D01*
X116362575Y-104802732D01*
X116479100Y-104628340D01*
X116595625Y-104802732D01*
X116802468Y-105009575D01*
X117045689Y-105172090D01*
X117315942Y-105284032D01*
X117602840Y-105341100D01*
X117895360Y-105341100D01*
X118182258Y-105284032D01*
X118452511Y-105172090D01*
X118695732Y-105009575D01*
X118902575Y-104802732D01*
X119065090Y-104559511D01*
X119177032Y-104289258D01*
X119234100Y-104002360D01*
X119234100Y-103709840D01*
X119177032Y-103422942D01*
X119065090Y-103152689D01*
X118902575Y-102909468D01*
X118695732Y-102702625D01*
X118452511Y-102540110D01*
X118182258Y-102428168D01*
X117895360Y-102371100D01*
X117602840Y-102371100D01*
X117315942Y-102428168D01*
X117045689Y-102540110D01*
X116802468Y-102702625D01*
X116595625Y-102909468D01*
X116479100Y-103083860D01*
X116362575Y-102909468D01*
X116155732Y-102702625D01*
X115912511Y-102540110D01*
X115642258Y-102428168D01*
X115355360Y-102371100D01*
X115062840Y-102371100D01*
X114842692Y-102414890D01*
X111223921Y-98796120D01*
X111331005Y-98635856D01*
X111409026Y-98447498D01*
X111448800Y-98247539D01*
X111448800Y-98043661D01*
X111409026Y-97843702D01*
X111331005Y-97655344D01*
X111217737Y-97485826D01*
X111073574Y-97341663D01*
X110904056Y-97228395D01*
X110715698Y-97150374D01*
X110515739Y-97110600D01*
X110311861Y-97110600D01*
X110111902Y-97150374D01*
X109923544Y-97228395D01*
X109754026Y-97341663D01*
X109609863Y-97485826D01*
X109496595Y-97655344D01*
X109418574Y-97843702D01*
X109378800Y-98043661D01*
X109378800Y-98247539D01*
X109418574Y-98447498D01*
X109496595Y-98635856D01*
X109609863Y-98805374D01*
X109653801Y-98849312D01*
X109653801Y-99023468D01*
X109650124Y-99060800D01*
X109664798Y-99209785D01*
X109708254Y-99353046D01*
X109778826Y-99485076D01*
X109850001Y-99571802D01*
X109873800Y-99600801D01*
X109902798Y-99624599D01*
X112649298Y-102371100D01*
X112522840Y-102371100D01*
X112235942Y-102428168D01*
X111965689Y-102540110D01*
X111722468Y-102702625D01*
X111515625Y-102909468D01*
X111399100Y-103083860D01*
X111282575Y-102909468D01*
X111075732Y-102702625D01*
X110832511Y-102540110D01*
X110562258Y-102428168D01*
X110275360Y-102371100D01*
X109982840Y-102371100D01*
X109695942Y-102428168D01*
X109425689Y-102540110D01*
X109182468Y-102702625D01*
X108975625Y-102909468D01*
X108859100Y-103083860D01*
X108742575Y-102909468D01*
X108535732Y-102702625D01*
X108292511Y-102540110D01*
X108022258Y-102428168D01*
X107735360Y-102371100D01*
X107442840Y-102371100D01*
X107155942Y-102428168D01*
X106885689Y-102540110D01*
X106642468Y-102702625D01*
X106435625Y-102909468D01*
X106319100Y-103083860D01*
X106202575Y-102909468D01*
X105995732Y-102702625D01*
X105752511Y-102540110D01*
X105482258Y-102428168D01*
X105195360Y-102371100D01*
X104902840Y-102371100D01*
X104615942Y-102428168D01*
X104345689Y-102540110D01*
X104102468Y-102702625D01*
X103970613Y-102834480D01*
X103948602Y-102761920D01*
X103889637Y-102651606D01*
X103810285Y-102554915D01*
X103713594Y-102475563D01*
X103603280Y-102416598D01*
X103483582Y-102380288D01*
X103359100Y-102368028D01*
X102794850Y-102371100D01*
X102636100Y-102529850D01*
X102382100Y-102529850D01*
X102223350Y-102371100D01*
X101659100Y-102368028D01*
X101534618Y-102380288D01*
X101414920Y-102416598D01*
X101304606Y-102475563D01*
X101207915Y-102554915D01*
X101128563Y-102651606D01*
X101069598Y-102761920D01*
X101047587Y-102834480D01*
X100915732Y-102702625D01*
X100672511Y-102540110D01*
X100402258Y-102428168D01*
X100115360Y-102371100D01*
X99822840Y-102371100D01*
X99535942Y-102428168D01*
X99265689Y-102540110D01*
X99022468Y-102702625D01*
X98815625Y-102909468D01*
X98653110Y-103152689D01*
X98541168Y-103422942D01*
X98484100Y-103709840D01*
X93213316Y-103709840D01*
X93224100Y-103655625D01*
X93224100Y-103136575D01*
X93122839Y-102627499D01*
X92924207Y-102147959D01*
X92635838Y-101716385D01*
X92268815Y-101349362D01*
X91845034Y-101066200D01*
X92563281Y-101066200D01*
X92595700Y-101069393D01*
X92628119Y-101066200D01*
X92628282Y-101066184D01*
X92660122Y-101063048D01*
X92725083Y-101056650D01*
X92849493Y-101018910D01*
X92964150Y-100957625D01*
X93064648Y-100875148D01*
X93147125Y-100774650D01*
X93208410Y-100659993D01*
X93246150Y-100535583D01*
X93258893Y-100406200D01*
X93255700Y-100373781D01*
X93255700Y-73425712D01*
X93258892Y-73393300D01*
X93255700Y-73360891D01*
X93255700Y-73360881D01*
X93246150Y-73263917D01*
X93208410Y-73139507D01*
X93147125Y-73024850D01*
X93064648Y-72924352D01*
X92964150Y-72841875D01*
X92849493Y-72780590D01*
X92725083Y-72742850D01*
X92595700Y-72730107D01*
X92563280Y-72733300D01*
X91832185Y-72733301D01*
X91837241Y-72731207D01*
X92268815Y-72442838D01*
X92635838Y-72075815D01*
X92924207Y-71644241D01*
X93122839Y-71164701D01*
X93224100Y-70655625D01*
X93224100Y-70136575D01*
X93122839Y-69627499D01*
X92924207Y-69147959D01*
X92635838Y-68716385D01*
X92268815Y-68349362D01*
X91837241Y-68060993D01*
X91832188Y-68058900D01*
X123346012Y-68058900D01*
X123340959Y-68060993D01*
%TA.AperFunction,Conductor*%
D17*
G36*
X123340959Y-68060993D02*
G01*
X122909385Y-68349362D01*
X122542362Y-68716385D01*
X122253993Y-69147959D01*
X122055361Y-69627499D01*
X121954100Y-70136575D01*
X121954100Y-70655625D01*
X122055361Y-71164701D01*
X122253993Y-71644241D01*
X122542362Y-72075815D01*
X122909385Y-72442838D01*
X123340959Y-72731207D01*
X123346017Y-72733302D01*
X122625519Y-72733302D01*
X122593100Y-72730109D01*
X122518920Y-72737415D01*
X122463717Y-72742852D01*
X122339307Y-72780592D01*
X122224650Y-72841877D01*
X122124152Y-72924354D01*
X122041675Y-73024852D01*
X121980390Y-73139509D01*
X121942650Y-73263919D01*
X121929907Y-73393302D01*
X121933100Y-73425721D01*
X121933101Y-100373769D01*
X121929907Y-100406198D01*
X121942650Y-100535581D01*
X121980390Y-100659991D01*
X122041675Y-100774648D01*
X122124152Y-100875146D01*
X122224650Y-100957623D01*
X122339307Y-101018908D01*
X122463717Y-101056648D01*
X122560681Y-101066198D01*
X122593100Y-101069391D01*
X122625519Y-101066198D01*
X123333169Y-101066198D01*
X122909385Y-101349362D01*
X122542362Y-101716385D01*
X122253993Y-102147959D01*
X122055361Y-102627499D01*
X121954100Y-103136575D01*
X121954100Y-103655625D01*
X122055361Y-104164701D01*
X122253993Y-104644241D01*
X122542362Y-105075815D01*
X122909385Y-105442838D01*
X123340959Y-105731207D01*
X123363641Y-105740602D01*
X91814559Y-105740602D01*
X91837241Y-105731207D01*
X92268815Y-105442838D01*
X92635838Y-105075815D01*
X92924207Y-104644241D01*
X93122839Y-104164701D01*
X93213316Y-103709840D01*
X98484100Y-103709840D01*
X98484100Y-104002360D01*
X98541168Y-104289258D01*
X98653110Y-104559511D01*
X98815625Y-104802732D01*
X99022468Y-105009575D01*
X99265689Y-105172090D01*
X99535942Y-105284032D01*
X99822840Y-105341100D01*
X100115360Y-105341100D01*
X100402258Y-105284032D01*
X100672511Y-105172090D01*
X100915732Y-105009575D01*
X101047587Y-104877720D01*
X101069598Y-104950280D01*
X101128563Y-105060594D01*
X101207915Y-105157285D01*
X101304606Y-105236637D01*
X101414920Y-105295602D01*
X101534618Y-105331912D01*
X101659100Y-105344172D01*
X102223350Y-105341100D01*
X102382100Y-105182350D01*
X102382100Y-103983100D01*
X102362100Y-103983100D01*
X102362100Y-103729100D01*
X102382100Y-103729100D01*
X102382100Y-102529850D01*
X102636100Y-102529850D01*
X102636100Y-103729100D01*
X102656100Y-103729100D01*
X102656100Y-103983100D01*
X102636100Y-103983100D01*
X102636100Y-105182350D01*
X102794850Y-105341100D01*
X103359100Y-105344172D01*
X103483582Y-105331912D01*
X103603280Y-105295602D01*
X103713594Y-105236637D01*
X103810285Y-105157285D01*
X103889637Y-105060594D01*
X103948602Y-104950280D01*
X103970613Y-104877720D01*
X104102468Y-105009575D01*
X104345689Y-105172090D01*
X104615942Y-105284032D01*
X104902840Y-105341100D01*
X105195360Y-105341100D01*
X105482258Y-105284032D01*
X105752511Y-105172090D01*
X105995732Y-105009575D01*
X106202575Y-104802732D01*
X106319100Y-104628340D01*
X106435625Y-104802732D01*
X106642468Y-105009575D01*
X106885689Y-105172090D01*
X107155942Y-105284032D01*
X107442840Y-105341100D01*
X107735360Y-105341100D01*
X108022258Y-105284032D01*
X108292511Y-105172090D01*
X108535732Y-105009575D01*
X108742575Y-104802732D01*
X108859100Y-104628340D01*
X108975625Y-104802732D01*
X109182468Y-105009575D01*
X109425689Y-105172090D01*
X109695942Y-105284032D01*
X109982840Y-105341100D01*
X110275360Y-105341100D01*
X110562258Y-105284032D01*
X110832511Y-105172090D01*
X111075732Y-105009575D01*
X111282575Y-104802732D01*
X111399100Y-104628340D01*
X111515625Y-104802732D01*
X111722468Y-105009575D01*
X111965689Y-105172090D01*
X112235942Y-105284032D01*
X112522840Y-105341100D01*
X112815360Y-105341100D01*
X113102258Y-105284032D01*
X113372511Y-105172090D01*
X113615732Y-105009575D01*
X113822575Y-104802732D01*
X113939100Y-104628340D01*
X114055625Y-104802732D01*
X114262468Y-105009575D01*
X114505689Y-105172090D01*
X114775942Y-105284032D01*
X115062840Y-105341100D01*
X115355360Y-105341100D01*
X115642258Y-105284032D01*
X115912511Y-105172090D01*
X116155732Y-105009575D01*
X116362575Y-104802732D01*
X116479100Y-104628340D01*
X116595625Y-104802732D01*
X116802468Y-105009575D01*
X117045689Y-105172090D01*
X117315942Y-105284032D01*
X117602840Y-105341100D01*
X117895360Y-105341100D01*
X118182258Y-105284032D01*
X118452511Y-105172090D01*
X118695732Y-105009575D01*
X118902575Y-104802732D01*
X119065090Y-104559511D01*
X119177032Y-104289258D01*
X119234100Y-104002360D01*
X119234100Y-103709840D01*
X119177032Y-103422942D01*
X119065090Y-103152689D01*
X118902575Y-102909468D01*
X118695732Y-102702625D01*
X118452511Y-102540110D01*
X118182258Y-102428168D01*
X117895360Y-102371100D01*
X117602840Y-102371100D01*
X117315942Y-102428168D01*
X117045689Y-102540110D01*
X116802468Y-102702625D01*
X116595625Y-102909468D01*
X116479100Y-103083860D01*
X116362575Y-102909468D01*
X116155732Y-102702625D01*
X115912511Y-102540110D01*
X115642258Y-102428168D01*
X115355360Y-102371100D01*
X115062840Y-102371100D01*
X114842692Y-102414890D01*
X111223921Y-98796120D01*
X111331005Y-98635856D01*
X111409026Y-98447498D01*
X111448800Y-98247539D01*
X111448800Y-98043661D01*
X111409026Y-97843702D01*
X111331005Y-97655344D01*
X111217737Y-97485826D01*
X111073574Y-97341663D01*
X110904056Y-97228395D01*
X110715698Y-97150374D01*
X110515739Y-97110600D01*
X110311861Y-97110600D01*
X110111902Y-97150374D01*
X109923544Y-97228395D01*
X109754026Y-97341663D01*
X109609863Y-97485826D01*
X109496595Y-97655344D01*
X109418574Y-97843702D01*
X109378800Y-98043661D01*
X109378800Y-98247539D01*
X109418574Y-98447498D01*
X109496595Y-98635856D01*
X109609863Y-98805374D01*
X109653801Y-98849312D01*
X109653801Y-99023468D01*
X109650124Y-99060800D01*
X109664798Y-99209785D01*
X109708254Y-99353046D01*
X109778826Y-99485076D01*
X109850001Y-99571802D01*
X109873800Y-99600801D01*
X109902798Y-99624599D01*
X112649298Y-102371100D01*
X112522840Y-102371100D01*
X112235942Y-102428168D01*
X111965689Y-102540110D01*
X111722468Y-102702625D01*
X111515625Y-102909468D01*
X111399100Y-103083860D01*
X111282575Y-102909468D01*
X111075732Y-102702625D01*
X110832511Y-102540110D01*
X110562258Y-102428168D01*
X110275360Y-102371100D01*
X109982840Y-102371100D01*
X109695942Y-102428168D01*
X109425689Y-102540110D01*
X109182468Y-102702625D01*
X108975625Y-102909468D01*
X108859100Y-103083860D01*
X108742575Y-102909468D01*
X108535732Y-102702625D01*
X108292511Y-102540110D01*
X108022258Y-102428168D01*
X107735360Y-102371100D01*
X107442840Y-102371100D01*
X107155942Y-102428168D01*
X106885689Y-102540110D01*
X106642468Y-102702625D01*
X106435625Y-102909468D01*
X106319100Y-103083860D01*
X106202575Y-102909468D01*
X105995732Y-102702625D01*
X105752511Y-102540110D01*
X105482258Y-102428168D01*
X105195360Y-102371100D01*
X104902840Y-102371100D01*
X104615942Y-102428168D01*
X104345689Y-102540110D01*
X104102468Y-102702625D01*
X103970613Y-102834480D01*
X103948602Y-102761920D01*
X103889637Y-102651606D01*
X103810285Y-102554915D01*
X103713594Y-102475563D01*
X103603280Y-102416598D01*
X103483582Y-102380288D01*
X103359100Y-102368028D01*
X102794850Y-102371100D01*
X102636100Y-102529850D01*
X102382100Y-102529850D01*
X102223350Y-102371100D01*
X101659100Y-102368028D01*
X101534618Y-102380288D01*
X101414920Y-102416598D01*
X101304606Y-102475563D01*
X101207915Y-102554915D01*
X101128563Y-102651606D01*
X101069598Y-102761920D01*
X101047587Y-102834480D01*
X100915732Y-102702625D01*
X100672511Y-102540110D01*
X100402258Y-102428168D01*
X100115360Y-102371100D01*
X99822840Y-102371100D01*
X99535942Y-102428168D01*
X99265689Y-102540110D01*
X99022468Y-102702625D01*
X98815625Y-102909468D01*
X98653110Y-103152689D01*
X98541168Y-103422942D01*
X98484100Y-103709840D01*
X93213316Y-103709840D01*
X93224100Y-103655625D01*
X93224100Y-103136575D01*
X93122839Y-102627499D01*
X92924207Y-102147959D01*
X92635838Y-101716385D01*
X92268815Y-101349362D01*
X91845034Y-101066200D01*
X92563281Y-101066200D01*
X92595700Y-101069393D01*
X92628119Y-101066200D01*
X92628282Y-101066184D01*
X92660122Y-101063048D01*
X92725083Y-101056650D01*
X92849493Y-101018910D01*
X92964150Y-100957625D01*
X93064648Y-100875148D01*
X93147125Y-100774650D01*
X93208410Y-100659993D01*
X93246150Y-100535583D01*
X93258893Y-100406200D01*
X93255700Y-100373781D01*
X93255700Y-73425712D01*
X93258892Y-73393300D01*
X93255700Y-73360891D01*
X93255700Y-73360881D01*
X93246150Y-73263917D01*
X93208410Y-73139507D01*
X93147125Y-73024850D01*
X93064648Y-72924352D01*
X92964150Y-72841875D01*
X92849493Y-72780590D01*
X92725083Y-72742850D01*
X92595700Y-72730107D01*
X92563280Y-72733300D01*
X91832185Y-72733301D01*
X91837241Y-72731207D01*
X92268815Y-72442838D01*
X92635838Y-72075815D01*
X92924207Y-71644241D01*
X93122839Y-71164701D01*
X93224100Y-70655625D01*
X93224100Y-70136575D01*
X93122839Y-69627499D01*
X92924207Y-69147959D01*
X92635838Y-68716385D01*
X92268815Y-68349362D01*
X91837241Y-68060993D01*
X91832188Y-68058900D01*
X123346012Y-68058900D01*
X123340959Y-68060993D01*
G37*
%TD.AperFunction*%
%TD*%
M02*
