M48
; DRILL file {KiCad (5.1.10)-1} date 09/08/21 10:42:03
; FORMAT={-:-/ absolute / metric / decimal}
; #@! TF.CreationDate,2021-09-08T10:42:03-04:00
; #@! TF.GenerationSoftware,Kicad,Pcbnew,(5.1.10)-1
; #@! TF.FileFunction,Plated,1,2,PTH
FMAT,2
METRIC
T1C0.400
T2C1.000
T3C3.000
%
G90
G05
T1
X95.35Y-94.4
X95.611Y-103.876
X95.728Y-69.957
X101.488Y-77.851
X105.562Y-80.467
X107.175Y-83.769
X110.414Y-98.146
X116.35Y-78.95
X119.591Y-69.657
X120.091Y-103.784
T2
X99.969Y-103.856
X102.509Y-103.856
X105.049Y-103.856
X107.589Y-103.856
X110.129Y-103.856
X112.669Y-103.856
X115.209Y-103.856
X117.749Y-103.856
T3
X90.589Y-70.396
X90.589Y-103.396
X124.589Y-70.396
X124.589Y-103.396
T0
M30
