%TF.GenerationSoftware,KiCad,Pcbnew,(5.1.10)-1*%
%TF.CreationDate,2021-10-19T03:26:11-04:00*%
%TF.ProjectId,SharpDisplayPcb,53686172-7044-4697-9370-6c6179506362,rev?*%
%TF.SameCoordinates,Original*%
%TF.FileFunction,Soldermask,Top*%
%TF.FilePolarity,Negative*%
%FSLAX46Y46*%
G04 Gerber Fmt 4.6, Leading zero omitted, Abs format (unit mm)*
G04 Created by KiCad (PCBNEW (5.1.10)-1) date 2021-10-19 03:26:11*
%MOMM*%
%LPD*%
G01*
G04 APERTURE LIST*
%ADD10C,0.100000*%
%ADD11O,1.800000X1.800000*%
%ADD12C,1.800000*%
%ADD13C,4.100000*%
G04 APERTURE END LIST*
D10*
G36*
X105351580Y-93027500D02*
G01*
X104749600Y-93027500D01*
X104749600Y-92722700D01*
X105351580Y-92722700D01*
X105351580Y-93027500D01*
G37*
X105351580Y-93027500D02*
X104749600Y-93027500D01*
X104749600Y-92722700D01*
X105351580Y-92722700D01*
X105351580Y-93027500D01*
%TO.C,J2*%
G36*
G01*
X102035700Y-74755800D02*
X104035700Y-74755800D01*
G75*
G02*
X104085700Y-74805800I0J-50000D01*
G01*
X104085700Y-76105800D01*
G75*
G02*
X104035700Y-76155800I-50000J0D01*
G01*
X102035700Y-76155800D01*
G75*
G02*
X101985700Y-76105800I0J50000D01*
G01*
X101985700Y-74805800D01*
G75*
G02*
X102035700Y-74755800I50000J0D01*
G01*
G37*
G36*
G01*
X111135700Y-74755800D02*
X113135700Y-74755800D01*
G75*
G02*
X113185700Y-74805800I0J-50000D01*
G01*
X113185700Y-76105800D01*
G75*
G02*
X113135700Y-76155800I-50000J0D01*
G01*
X111135700Y-76155800D01*
G75*
G02*
X111085700Y-76105800I0J50000D01*
G01*
X111085700Y-74805800D01*
G75*
G02*
X111135700Y-74755800I50000J0D01*
G01*
G37*
G36*
G01*
X105535700Y-77655800D02*
X105535700Y-78655800D01*
G75*
G02*
X105485700Y-78705800I-50000J0D01*
G01*
X105185700Y-78705800D01*
G75*
G02*
X105135700Y-78655800I0J50000D01*
G01*
X105135700Y-77655800D01*
G75*
G02*
X105185700Y-77605800I50000J0D01*
G01*
X105485700Y-77605800D01*
G75*
G02*
X105535700Y-77655800I0J-50000D01*
G01*
G37*
G36*
G01*
X106035700Y-77655800D02*
X106035700Y-78655800D01*
G75*
G02*
X105985700Y-78705800I-50000J0D01*
G01*
X105685700Y-78705800D01*
G75*
G02*
X105635700Y-78655800I0J50000D01*
G01*
X105635700Y-77655800D01*
G75*
G02*
X105685700Y-77605800I50000J0D01*
G01*
X105985700Y-77605800D01*
G75*
G02*
X106035700Y-77655800I0J-50000D01*
G01*
G37*
G36*
G01*
X106535700Y-77655800D02*
X106535700Y-78655800D01*
G75*
G02*
X106485700Y-78705800I-50000J0D01*
G01*
X106185700Y-78705800D01*
G75*
G02*
X106135700Y-78655800I0J50000D01*
G01*
X106135700Y-77655800D01*
G75*
G02*
X106185700Y-77605800I50000J0D01*
G01*
X106485700Y-77605800D01*
G75*
G02*
X106535700Y-77655800I0J-50000D01*
G01*
G37*
G36*
G01*
X107035700Y-77655800D02*
X107035700Y-78655800D01*
G75*
G02*
X106985700Y-78705800I-50000J0D01*
G01*
X106685700Y-78705800D01*
G75*
G02*
X106635700Y-78655800I0J50000D01*
G01*
X106635700Y-77655800D01*
G75*
G02*
X106685700Y-77605800I50000J0D01*
G01*
X106985700Y-77605800D01*
G75*
G02*
X107035700Y-77655800I0J-50000D01*
G01*
G37*
G36*
G01*
X107535700Y-77655800D02*
X107535700Y-78655800D01*
G75*
G02*
X107485700Y-78705800I-50000J0D01*
G01*
X107185700Y-78705800D01*
G75*
G02*
X107135700Y-78655800I0J50000D01*
G01*
X107135700Y-77655800D01*
G75*
G02*
X107185700Y-77605800I50000J0D01*
G01*
X107485700Y-77605800D01*
G75*
G02*
X107535700Y-77655800I0J-50000D01*
G01*
G37*
G36*
G01*
X108035700Y-77655800D02*
X108035700Y-78655800D01*
G75*
G02*
X107985700Y-78705800I-50000J0D01*
G01*
X107685700Y-78705800D01*
G75*
G02*
X107635700Y-78655800I0J50000D01*
G01*
X107635700Y-77655800D01*
G75*
G02*
X107685700Y-77605800I50000J0D01*
G01*
X107985700Y-77605800D01*
G75*
G02*
X108035700Y-77655800I0J-50000D01*
G01*
G37*
G36*
G01*
X108535700Y-77655800D02*
X108535700Y-78655800D01*
G75*
G02*
X108485700Y-78705800I-50000J0D01*
G01*
X108185700Y-78705800D01*
G75*
G02*
X108135700Y-78655800I0J50000D01*
G01*
X108135700Y-77655800D01*
G75*
G02*
X108185700Y-77605800I50000J0D01*
G01*
X108485700Y-77605800D01*
G75*
G02*
X108535700Y-77655800I0J-50000D01*
G01*
G37*
G36*
G01*
X109035700Y-77655800D02*
X109035700Y-78655800D01*
G75*
G02*
X108985700Y-78705800I-50000J0D01*
G01*
X108685700Y-78705800D01*
G75*
G02*
X108635700Y-78655800I0J50000D01*
G01*
X108635700Y-77655800D01*
G75*
G02*
X108685700Y-77605800I50000J0D01*
G01*
X108985700Y-77605800D01*
G75*
G02*
X109035700Y-77655800I0J-50000D01*
G01*
G37*
G36*
G01*
X109535700Y-77655800D02*
X109535700Y-78655800D01*
G75*
G02*
X109485700Y-78705800I-50000J0D01*
G01*
X109185700Y-78705800D01*
G75*
G02*
X109135700Y-78655800I0J50000D01*
G01*
X109135700Y-77655800D01*
G75*
G02*
X109185700Y-77605800I50000J0D01*
G01*
X109485700Y-77605800D01*
G75*
G02*
X109535700Y-77655800I0J-50000D01*
G01*
G37*
G36*
G01*
X110035700Y-77655800D02*
X110035700Y-78655800D01*
G75*
G02*
X109985700Y-78705800I-50000J0D01*
G01*
X109685700Y-78705800D01*
G75*
G02*
X109635700Y-78655800I0J50000D01*
G01*
X109635700Y-77655800D01*
G75*
G02*
X109685700Y-77605800I50000J0D01*
G01*
X109985700Y-77605800D01*
G75*
G02*
X110035700Y-77655800I0J-50000D01*
G01*
G37*
%TD*%
D11*
%TO.C,J1*%
X117749100Y-103856100D03*
X115209100Y-103856100D03*
X112669100Y-103856100D03*
X110129100Y-103856100D03*
X107589100Y-103856100D03*
X105049100Y-103856100D03*
G36*
G01*
X103359100Y-104756100D02*
X101659100Y-104756100D01*
G75*
G02*
X101609100Y-104706100I0J50000D01*
G01*
X101609100Y-103006100D01*
G75*
G02*
X101659100Y-102956100I50000J0D01*
G01*
X103359100Y-102956100D01*
G75*
G02*
X103409100Y-103006100I0J-50000D01*
G01*
X103409100Y-104706100D01*
G75*
G02*
X103359100Y-104756100I-50000J0D01*
G01*
G37*
D12*
X99969100Y-103856100D03*
%TD*%
%TO.C,JP1*%
G36*
G01*
X105800000Y-92775000D02*
X104300000Y-92775000D01*
G75*
G02*
X104250000Y-92725000I0J50000D01*
G01*
X104250000Y-91725000D01*
G75*
G02*
X104300000Y-91675000I50000J0D01*
G01*
X105800000Y-91675000D01*
G75*
G02*
X105850000Y-91725000I0J-50000D01*
G01*
X105850000Y-92725000D01*
G75*
G02*
X105800000Y-92775000I-50000J0D01*
G01*
G37*
G36*
G01*
X105800000Y-94075000D02*
X104300000Y-94075000D01*
G75*
G02*
X104250000Y-94025000I0J50000D01*
G01*
X104250000Y-93025000D01*
G75*
G02*
X104300000Y-92975000I50000J0D01*
G01*
X105800000Y-92975000D01*
G75*
G02*
X105850000Y-93025000I0J-50000D01*
G01*
X105850000Y-94025000D01*
G75*
G02*
X105800000Y-94075000I-50000J0D01*
G01*
G37*
%TD*%
%TO.C,R1*%
G36*
G01*
X108750000Y-87354168D02*
X108750000Y-86395832D01*
G75*
G02*
X109020832Y-86125000I270832J0D01*
G01*
X109779168Y-86125000D01*
G75*
G02*
X110050000Y-86395832I0J-270832D01*
G01*
X110050000Y-87354168D01*
G75*
G02*
X109779168Y-87625000I-270832J0D01*
G01*
X109020832Y-87625000D01*
G75*
G02*
X108750000Y-87354168I0J270832D01*
G01*
G37*
G36*
G01*
X106750000Y-87354168D02*
X106750000Y-86395832D01*
G75*
G02*
X107020832Y-86125000I270832J0D01*
G01*
X107779168Y-86125000D01*
G75*
G02*
X108050000Y-86395832I0J-270832D01*
G01*
X108050000Y-87354168D01*
G75*
G02*
X107779168Y-87625000I-270832J0D01*
G01*
X107020832Y-87625000D01*
G75*
G02*
X106750000Y-87354168I0J270832D01*
G01*
G37*
%TD*%
%TO.C,C4*%
G36*
G01*
X97574140Y-77130444D02*
X97574140Y-76122996D01*
G75*
G02*
X97845416Y-75851720I271276J0D01*
G01*
X98577864Y-75851720D01*
G75*
G02*
X98849140Y-76122996I0J-271276D01*
G01*
X98849140Y-77130444D01*
G75*
G02*
X98577864Y-77401720I-271276J0D01*
G01*
X97845416Y-77401720D01*
G75*
G02*
X97574140Y-77130444I0J271276D01*
G01*
G37*
G36*
G01*
X95499140Y-77130444D02*
X95499140Y-76122996D01*
G75*
G02*
X95770416Y-75851720I271276J0D01*
G01*
X96502864Y-75851720D01*
G75*
G02*
X96774140Y-76122996I0J-271276D01*
G01*
X96774140Y-77130444D01*
G75*
G02*
X96502864Y-77401720I-271276J0D01*
G01*
X95770416Y-77401720D01*
G75*
G02*
X95499140Y-77130444I0J271276D01*
G01*
G37*
%TD*%
%TO.C,C3*%
G36*
G01*
X101230896Y-83426160D02*
X102238344Y-83426160D01*
G75*
G02*
X102509620Y-83697436I0J-271276D01*
G01*
X102509620Y-84429884D01*
G75*
G02*
X102238344Y-84701160I-271276J0D01*
G01*
X101230896Y-84701160D01*
G75*
G02*
X100959620Y-84429884I0J271276D01*
G01*
X100959620Y-83697436D01*
G75*
G02*
X101230896Y-83426160I271276J0D01*
G01*
G37*
G36*
G01*
X101230896Y-81351160D02*
X102238344Y-81351160D01*
G75*
G02*
X102509620Y-81622436I0J-271276D01*
G01*
X102509620Y-82354884D01*
G75*
G02*
X102238344Y-82626160I-271276J0D01*
G01*
X101230896Y-82626160D01*
G75*
G02*
X100959620Y-82354884I0J271276D01*
G01*
X100959620Y-81622436D01*
G75*
G02*
X101230896Y-81351160I271276J0D01*
G01*
G37*
%TD*%
%TO.C,C2*%
G36*
G01*
X109662000Y-85225424D02*
X109662000Y-84217976D01*
G75*
G02*
X109933276Y-83946700I271276J0D01*
G01*
X110665724Y-83946700D01*
G75*
G02*
X110937000Y-84217976I0J-271276D01*
G01*
X110937000Y-85225424D01*
G75*
G02*
X110665724Y-85496700I-271276J0D01*
G01*
X109933276Y-85496700D01*
G75*
G02*
X109662000Y-85225424I0J271276D01*
G01*
G37*
G36*
G01*
X107587000Y-85225424D02*
X107587000Y-84217976D01*
G75*
G02*
X107858276Y-83946700I271276J0D01*
G01*
X108590724Y-83946700D01*
G75*
G02*
X108862000Y-84217976I0J-271276D01*
G01*
X108862000Y-85225424D01*
G75*
G02*
X108590724Y-85496700I-271276J0D01*
G01*
X107858276Y-85496700D01*
G75*
G02*
X107587000Y-85225424I0J271276D01*
G01*
G37*
%TD*%
%TO.C,C1*%
G36*
G01*
X96042520Y-98359764D02*
X96042520Y-97352316D01*
G75*
G02*
X96313796Y-97081040I271276J0D01*
G01*
X97046244Y-97081040D01*
G75*
G02*
X97317520Y-97352316I0J-271276D01*
G01*
X97317520Y-98359764D01*
G75*
G02*
X97046244Y-98631040I-271276J0D01*
G01*
X96313796Y-98631040D01*
G75*
G02*
X96042520Y-98359764I0J271276D01*
G01*
G37*
G36*
G01*
X93967520Y-98359764D02*
X93967520Y-97352316D01*
G75*
G02*
X94238796Y-97081040I271276J0D01*
G01*
X94971244Y-97081040D01*
G75*
G02*
X95242520Y-97352316I0J-271276D01*
G01*
X95242520Y-98359764D01*
G75*
G02*
X94971244Y-98631040I-271276J0D01*
G01*
X94238796Y-98631040D01*
G75*
G02*
X93967520Y-98359764I0J271276D01*
G01*
G37*
%TD*%
%TO.C,FB2*%
G36*
G01*
X97784980Y-84534482D02*
X97784980Y-83577958D01*
G75*
G02*
X98056718Y-83306220I271738J0D01*
G01*
X98763242Y-83306220D01*
G75*
G02*
X99034980Y-83577958I0J-271738D01*
G01*
X99034980Y-84534482D01*
G75*
G02*
X98763242Y-84806220I-271738J0D01*
G01*
X98056718Y-84806220D01*
G75*
G02*
X97784980Y-84534482I0J271738D01*
G01*
G37*
G36*
G01*
X95734980Y-84534482D02*
X95734980Y-83577958D01*
G75*
G02*
X96006718Y-83306220I271738J0D01*
G01*
X96713242Y-83306220D01*
G75*
G02*
X96984980Y-83577958I0J-271738D01*
G01*
X96984980Y-84534482D01*
G75*
G02*
X96713242Y-84806220I-271738J0D01*
G01*
X96006718Y-84806220D01*
G75*
G02*
X95734980Y-84534482I0J271738D01*
G01*
G37*
%TD*%
%TO.C,FB1*%
G36*
G01*
X97754500Y-82258642D02*
X97754500Y-81302118D01*
G75*
G02*
X98026238Y-81030380I271738J0D01*
G01*
X98732762Y-81030380D01*
G75*
G02*
X99004500Y-81302118I0J-271738D01*
G01*
X99004500Y-82258642D01*
G75*
G02*
X98732762Y-82530380I-271738J0D01*
G01*
X98026238Y-82530380D01*
G75*
G02*
X97754500Y-82258642I0J271738D01*
G01*
G37*
G36*
G01*
X95704500Y-82258642D02*
X95704500Y-81302118D01*
G75*
G02*
X95976238Y-81030380I271738J0D01*
G01*
X96682762Y-81030380D01*
G75*
G02*
X96954500Y-81302118I0J-271738D01*
G01*
X96954500Y-82258642D01*
G75*
G02*
X96682762Y-82530380I-271738J0D01*
G01*
X95976238Y-82530380D01*
G75*
G02*
X95704500Y-82258642I0J271738D01*
G01*
G37*
%TD*%
D13*
%TO.C,M3*%
X124589100Y-103396100D03*
%TD*%
%TO.C,M3*%
X90589100Y-103396100D03*
%TD*%
%TO.C,M3*%
X90589100Y-70396100D03*
%TD*%
%TO.C,M3*%
X124589100Y-70396100D03*
%TD*%
M02*
