G04 #@! TF.GenerationSoftware,KiCad,Pcbnew,(5.1.10)-1*
G04 #@! TF.CreationDate,2021-09-08T10:41:52-04:00*
G04 #@! TF.ProjectId,SharpDisplayPcb,53686172-7044-4697-9370-6c6179506362,rev?*
G04 #@! TF.SameCoordinates,Original*
G04 #@! TF.FileFunction,Copper,L2,Bot*
G04 #@! TF.FilePolarity,Positive*
%FSLAX46Y46*%
G04 Gerber Fmt 4.6, Leading zero omitted, Abs format (unit mm)*
G04 Created by KiCad (PCBNEW (5.1.10)-1) date 2021-09-08 10:41:52*
%MOMM*%
%LPD*%
G01*
G04 APERTURE LIST*
G04 #@! TA.AperFunction,ComponentPad*
%ADD10O,1.700000X1.700000*%
G04 #@! TD*
G04 #@! TA.AperFunction,ComponentPad*
%ADD11R,1.700000X1.700000*%
G04 #@! TD*
G04 #@! TA.AperFunction,ComponentPad*
%ADD12C,1.700000*%
G04 #@! TD*
G04 #@! TA.AperFunction,ComponentPad*
%ADD13C,4.000000*%
G04 #@! TD*
G04 #@! TA.AperFunction,ViaPad*
%ADD14C,0.800000*%
G04 #@! TD*
G04 #@! TA.AperFunction,Conductor*
%ADD15C,0.250000*%
G04 #@! TD*
G04 #@! TA.AperFunction,Conductor*
%ADD16C,0.254000*%
G04 #@! TD*
G04 #@! TA.AperFunction,Conductor*
%ADD17C,0.100000*%
G04 #@! TD*
G04 APERTURE END LIST*
D10*
G04 #@! TO.P,J1,8*
G04 #@! TO.N,N/C*
X117749100Y-103856100D03*
G04 #@! TO.P,J1,7*
G04 #@! TO.N,BLANK*
X115209100Y-103856100D03*
G04 #@! TO.P,J1,6*
G04 #@! TO.N,N/C*
X112669100Y-103856100D03*
G04 #@! TO.P,J1,5*
G04 #@! TO.N,CS*
X110129100Y-103856100D03*
G04 #@! TO.P,J1,4*
G04 #@! TO.N,SDI*
X107589100Y-103856100D03*
G04 #@! TO.P,J1,3*
G04 #@! TO.N,SCLK*
X105049100Y-103856100D03*
D11*
G04 #@! TO.P,J1,2*
G04 #@! TO.N,GND*
X102509100Y-103856100D03*
D12*
G04 #@! TO.P,J1,1*
G04 #@! TO.N,+3V3*
X99969100Y-103856100D03*
G04 #@! TD*
D13*
G04 #@! TO.P,M3,1*
G04 #@! TO.N,N/C*
X124589100Y-103396100D03*
G04 #@! TD*
G04 #@! TO.P,M3,1*
G04 #@! TO.N,N/C*
X90589100Y-103396100D03*
G04 #@! TD*
G04 #@! TO.P,M3,1*
G04 #@! TO.N,N/C*
X90589100Y-70396100D03*
G04 #@! TD*
G04 #@! TO.P,M3,1*
G04 #@! TO.N,N/C*
X124589100Y-70396100D03*
G04 #@! TD*
D14*
G04 #@! TO.N,GND*
X95350000Y-94400000D03*
X95727520Y-69956680D03*
X119590820Y-69656960D03*
X120091200Y-103784400D03*
X95610680Y-103875840D03*
X116350000Y-78950000D03*
X101488240Y-77851000D03*
X105562400Y-80467200D03*
X107175300Y-83769200D03*
G04 #@! TO.N,BLANK*
X110413800Y-98145600D03*
G04 #@! TD*
D15*
G04 #@! TO.N,BLANK*
X110413800Y-99060800D02*
X115209100Y-103856100D01*
X110413800Y-98145600D02*
X110413800Y-99060800D01*
G04 #@! TD*
D16*
G04 #@! TO.N,GND*
X121818400Y-105740602D02*
X93357915Y-105740602D01*
X93358576Y-103709840D01*
X98484100Y-103709840D01*
X98484100Y-104002360D01*
X98541168Y-104289258D01*
X98653110Y-104559511D01*
X98815625Y-104802732D01*
X99022468Y-105009575D01*
X99265689Y-105172090D01*
X99535942Y-105284032D01*
X99822840Y-105341100D01*
X100115360Y-105341100D01*
X100402258Y-105284032D01*
X100672511Y-105172090D01*
X100915732Y-105009575D01*
X101122575Y-104802732D01*
X101285090Y-104559511D01*
X101397032Y-104289258D01*
X101454100Y-104002360D01*
X101454100Y-103709840D01*
X103564100Y-103709840D01*
X103564100Y-104002360D01*
X103621168Y-104289258D01*
X103733110Y-104559511D01*
X103895625Y-104802732D01*
X104102468Y-105009575D01*
X104345689Y-105172090D01*
X104615942Y-105284032D01*
X104902840Y-105341100D01*
X105195360Y-105341100D01*
X105482258Y-105284032D01*
X105752511Y-105172090D01*
X105995732Y-105009575D01*
X106202575Y-104802732D01*
X106319100Y-104628340D01*
X106435625Y-104802732D01*
X106642468Y-105009575D01*
X106885689Y-105172090D01*
X107155942Y-105284032D01*
X107442840Y-105341100D01*
X107735360Y-105341100D01*
X108022258Y-105284032D01*
X108292511Y-105172090D01*
X108535732Y-105009575D01*
X108742575Y-104802732D01*
X108859100Y-104628340D01*
X108975625Y-104802732D01*
X109182468Y-105009575D01*
X109425689Y-105172090D01*
X109695942Y-105284032D01*
X109982840Y-105341100D01*
X110275360Y-105341100D01*
X110562258Y-105284032D01*
X110832511Y-105172090D01*
X111075732Y-105009575D01*
X111282575Y-104802732D01*
X111399100Y-104628340D01*
X111515625Y-104802732D01*
X111722468Y-105009575D01*
X111965689Y-105172090D01*
X112235942Y-105284032D01*
X112522840Y-105341100D01*
X112815360Y-105341100D01*
X113102258Y-105284032D01*
X113372511Y-105172090D01*
X113615732Y-105009575D01*
X113822575Y-104802732D01*
X113939100Y-104628340D01*
X114055625Y-104802732D01*
X114262468Y-105009575D01*
X114505689Y-105172090D01*
X114775942Y-105284032D01*
X115062840Y-105341100D01*
X115355360Y-105341100D01*
X115642258Y-105284032D01*
X115912511Y-105172090D01*
X116155732Y-105009575D01*
X116362575Y-104802732D01*
X116479100Y-104628340D01*
X116595625Y-104802732D01*
X116802468Y-105009575D01*
X117045689Y-105172090D01*
X117315942Y-105284032D01*
X117602840Y-105341100D01*
X117895360Y-105341100D01*
X118182258Y-105284032D01*
X118452511Y-105172090D01*
X118695732Y-105009575D01*
X118902575Y-104802732D01*
X119065090Y-104559511D01*
X119177032Y-104289258D01*
X119234100Y-104002360D01*
X119234100Y-103709840D01*
X119177032Y-103422942D01*
X119065090Y-103152689D01*
X118902575Y-102909468D01*
X118695732Y-102702625D01*
X118452511Y-102540110D01*
X118182258Y-102428168D01*
X117895360Y-102371100D01*
X117602840Y-102371100D01*
X117315942Y-102428168D01*
X117045689Y-102540110D01*
X116802468Y-102702625D01*
X116595625Y-102909468D01*
X116479100Y-103083860D01*
X116362575Y-102909468D01*
X116155732Y-102702625D01*
X115912511Y-102540110D01*
X115642258Y-102428168D01*
X115355360Y-102371100D01*
X115062840Y-102371100D01*
X114842692Y-102414890D01*
X111223921Y-98796120D01*
X111331005Y-98635856D01*
X111409026Y-98447498D01*
X111448800Y-98247539D01*
X111448800Y-98043661D01*
X111409026Y-97843702D01*
X111331005Y-97655344D01*
X111217737Y-97485826D01*
X111073574Y-97341663D01*
X110904056Y-97228395D01*
X110715698Y-97150374D01*
X110515739Y-97110600D01*
X110311861Y-97110600D01*
X110111902Y-97150374D01*
X109923544Y-97228395D01*
X109754026Y-97341663D01*
X109609863Y-97485826D01*
X109496595Y-97655344D01*
X109418574Y-97843702D01*
X109378800Y-98043661D01*
X109378800Y-98247539D01*
X109418574Y-98447498D01*
X109496595Y-98635856D01*
X109609863Y-98805374D01*
X109653801Y-98849312D01*
X109653801Y-99023468D01*
X109650124Y-99060800D01*
X109664798Y-99209785D01*
X109708254Y-99353046D01*
X109778826Y-99485076D01*
X109850001Y-99571802D01*
X109873800Y-99600801D01*
X109902798Y-99624599D01*
X112649298Y-102371100D01*
X112522840Y-102371100D01*
X112235942Y-102428168D01*
X111965689Y-102540110D01*
X111722468Y-102702625D01*
X111515625Y-102909468D01*
X111399100Y-103083860D01*
X111282575Y-102909468D01*
X111075732Y-102702625D01*
X110832511Y-102540110D01*
X110562258Y-102428168D01*
X110275360Y-102371100D01*
X109982840Y-102371100D01*
X109695942Y-102428168D01*
X109425689Y-102540110D01*
X109182468Y-102702625D01*
X108975625Y-102909468D01*
X108859100Y-103083860D01*
X108742575Y-102909468D01*
X108535732Y-102702625D01*
X108292511Y-102540110D01*
X108022258Y-102428168D01*
X107735360Y-102371100D01*
X107442840Y-102371100D01*
X107155942Y-102428168D01*
X106885689Y-102540110D01*
X106642468Y-102702625D01*
X106435625Y-102909468D01*
X106319100Y-103083860D01*
X106202575Y-102909468D01*
X105995732Y-102702625D01*
X105752511Y-102540110D01*
X105482258Y-102428168D01*
X105195360Y-102371100D01*
X104902840Y-102371100D01*
X104615942Y-102428168D01*
X104345689Y-102540110D01*
X104102468Y-102702625D01*
X103895625Y-102909468D01*
X103733110Y-103152689D01*
X103621168Y-103422942D01*
X103564100Y-103709840D01*
X101454100Y-103709840D01*
X101397032Y-103422942D01*
X101285090Y-103152689D01*
X101122575Y-102909468D01*
X100915732Y-102702625D01*
X100672511Y-102540110D01*
X100402258Y-102428168D01*
X100115360Y-102371100D01*
X99822840Y-102371100D01*
X99535942Y-102428168D01*
X99265689Y-102540110D01*
X99022468Y-102702625D01*
X98815625Y-102909468D01*
X98653110Y-103152689D01*
X98541168Y-103422942D01*
X98484100Y-103709840D01*
X93358576Y-103709840D01*
X93370185Y-68058900D01*
X121818400Y-68058900D01*
X121818400Y-105740602D01*
G04 #@! TA.AperFunction,Conductor*
D17*
G36*
X121818400Y-105740602D02*
G01*
X93357915Y-105740602D01*
X93358576Y-103709840D01*
X98484100Y-103709840D01*
X98484100Y-104002360D01*
X98541168Y-104289258D01*
X98653110Y-104559511D01*
X98815625Y-104802732D01*
X99022468Y-105009575D01*
X99265689Y-105172090D01*
X99535942Y-105284032D01*
X99822840Y-105341100D01*
X100115360Y-105341100D01*
X100402258Y-105284032D01*
X100672511Y-105172090D01*
X100915732Y-105009575D01*
X101122575Y-104802732D01*
X101285090Y-104559511D01*
X101397032Y-104289258D01*
X101454100Y-104002360D01*
X101454100Y-103709840D01*
X103564100Y-103709840D01*
X103564100Y-104002360D01*
X103621168Y-104289258D01*
X103733110Y-104559511D01*
X103895625Y-104802732D01*
X104102468Y-105009575D01*
X104345689Y-105172090D01*
X104615942Y-105284032D01*
X104902840Y-105341100D01*
X105195360Y-105341100D01*
X105482258Y-105284032D01*
X105752511Y-105172090D01*
X105995732Y-105009575D01*
X106202575Y-104802732D01*
X106319100Y-104628340D01*
X106435625Y-104802732D01*
X106642468Y-105009575D01*
X106885689Y-105172090D01*
X107155942Y-105284032D01*
X107442840Y-105341100D01*
X107735360Y-105341100D01*
X108022258Y-105284032D01*
X108292511Y-105172090D01*
X108535732Y-105009575D01*
X108742575Y-104802732D01*
X108859100Y-104628340D01*
X108975625Y-104802732D01*
X109182468Y-105009575D01*
X109425689Y-105172090D01*
X109695942Y-105284032D01*
X109982840Y-105341100D01*
X110275360Y-105341100D01*
X110562258Y-105284032D01*
X110832511Y-105172090D01*
X111075732Y-105009575D01*
X111282575Y-104802732D01*
X111399100Y-104628340D01*
X111515625Y-104802732D01*
X111722468Y-105009575D01*
X111965689Y-105172090D01*
X112235942Y-105284032D01*
X112522840Y-105341100D01*
X112815360Y-105341100D01*
X113102258Y-105284032D01*
X113372511Y-105172090D01*
X113615732Y-105009575D01*
X113822575Y-104802732D01*
X113939100Y-104628340D01*
X114055625Y-104802732D01*
X114262468Y-105009575D01*
X114505689Y-105172090D01*
X114775942Y-105284032D01*
X115062840Y-105341100D01*
X115355360Y-105341100D01*
X115642258Y-105284032D01*
X115912511Y-105172090D01*
X116155732Y-105009575D01*
X116362575Y-104802732D01*
X116479100Y-104628340D01*
X116595625Y-104802732D01*
X116802468Y-105009575D01*
X117045689Y-105172090D01*
X117315942Y-105284032D01*
X117602840Y-105341100D01*
X117895360Y-105341100D01*
X118182258Y-105284032D01*
X118452511Y-105172090D01*
X118695732Y-105009575D01*
X118902575Y-104802732D01*
X119065090Y-104559511D01*
X119177032Y-104289258D01*
X119234100Y-104002360D01*
X119234100Y-103709840D01*
X119177032Y-103422942D01*
X119065090Y-103152689D01*
X118902575Y-102909468D01*
X118695732Y-102702625D01*
X118452511Y-102540110D01*
X118182258Y-102428168D01*
X117895360Y-102371100D01*
X117602840Y-102371100D01*
X117315942Y-102428168D01*
X117045689Y-102540110D01*
X116802468Y-102702625D01*
X116595625Y-102909468D01*
X116479100Y-103083860D01*
X116362575Y-102909468D01*
X116155732Y-102702625D01*
X115912511Y-102540110D01*
X115642258Y-102428168D01*
X115355360Y-102371100D01*
X115062840Y-102371100D01*
X114842692Y-102414890D01*
X111223921Y-98796120D01*
X111331005Y-98635856D01*
X111409026Y-98447498D01*
X111448800Y-98247539D01*
X111448800Y-98043661D01*
X111409026Y-97843702D01*
X111331005Y-97655344D01*
X111217737Y-97485826D01*
X111073574Y-97341663D01*
X110904056Y-97228395D01*
X110715698Y-97150374D01*
X110515739Y-97110600D01*
X110311861Y-97110600D01*
X110111902Y-97150374D01*
X109923544Y-97228395D01*
X109754026Y-97341663D01*
X109609863Y-97485826D01*
X109496595Y-97655344D01*
X109418574Y-97843702D01*
X109378800Y-98043661D01*
X109378800Y-98247539D01*
X109418574Y-98447498D01*
X109496595Y-98635856D01*
X109609863Y-98805374D01*
X109653801Y-98849312D01*
X109653801Y-99023468D01*
X109650124Y-99060800D01*
X109664798Y-99209785D01*
X109708254Y-99353046D01*
X109778826Y-99485076D01*
X109850001Y-99571802D01*
X109873800Y-99600801D01*
X109902798Y-99624599D01*
X112649298Y-102371100D01*
X112522840Y-102371100D01*
X112235942Y-102428168D01*
X111965689Y-102540110D01*
X111722468Y-102702625D01*
X111515625Y-102909468D01*
X111399100Y-103083860D01*
X111282575Y-102909468D01*
X111075732Y-102702625D01*
X110832511Y-102540110D01*
X110562258Y-102428168D01*
X110275360Y-102371100D01*
X109982840Y-102371100D01*
X109695942Y-102428168D01*
X109425689Y-102540110D01*
X109182468Y-102702625D01*
X108975625Y-102909468D01*
X108859100Y-103083860D01*
X108742575Y-102909468D01*
X108535732Y-102702625D01*
X108292511Y-102540110D01*
X108022258Y-102428168D01*
X107735360Y-102371100D01*
X107442840Y-102371100D01*
X107155942Y-102428168D01*
X106885689Y-102540110D01*
X106642468Y-102702625D01*
X106435625Y-102909468D01*
X106319100Y-103083860D01*
X106202575Y-102909468D01*
X105995732Y-102702625D01*
X105752511Y-102540110D01*
X105482258Y-102428168D01*
X105195360Y-102371100D01*
X104902840Y-102371100D01*
X104615942Y-102428168D01*
X104345689Y-102540110D01*
X104102468Y-102702625D01*
X103895625Y-102909468D01*
X103733110Y-103152689D01*
X103621168Y-103422942D01*
X103564100Y-103709840D01*
X101454100Y-103709840D01*
X101397032Y-103422942D01*
X101285090Y-103152689D01*
X101122575Y-102909468D01*
X100915732Y-102702625D01*
X100672511Y-102540110D01*
X100402258Y-102428168D01*
X100115360Y-102371100D01*
X99822840Y-102371100D01*
X99535942Y-102428168D01*
X99265689Y-102540110D01*
X99022468Y-102702625D01*
X98815625Y-102909468D01*
X98653110Y-103152689D01*
X98541168Y-103422942D01*
X98484100Y-103709840D01*
X93358576Y-103709840D01*
X93370185Y-68058900D01*
X121818400Y-68058900D01*
X121818400Y-105740602D01*
G37*
G04 #@! TD.AperFunction*
G04 #@! TD*
M02*
