%TF.GenerationSoftware,KiCad,Pcbnew,(5.1.10)-1*%
%TF.CreationDate,2021-10-19T03:26:11-04:00*%
%TF.ProjectId,SharpDisplayPcb,53686172-7044-4697-9370-6c6179506362,rev?*%
%TF.SameCoordinates,Original*%
%TF.FileFunction,Paste,Top*%
%TF.FilePolarity,Positive*%
%FSLAX46Y46*%
G04 Gerber Fmt 4.6, Leading zero omitted, Abs format (unit mm)*
G04 Created by KiCad (PCBNEW (5.1.10)-1) date 2021-10-19 03:26:11*
%MOMM*%
%LPD*%
G01*
G04 APERTURE LIST*
%ADD10R,2.000000X1.300000*%
%ADD11R,0.300000X1.000000*%
G04 APERTURE END LIST*
D10*
%TO.C,J2*%
X103035700Y-75455800D03*
X112135700Y-75455800D03*
D11*
X105335700Y-78155800D03*
X105835700Y-78155800D03*
X106335700Y-78155800D03*
X106835700Y-78155800D03*
X107335700Y-78155800D03*
X107835700Y-78155800D03*
X108335700Y-78155800D03*
X108835700Y-78155800D03*
X109335700Y-78155800D03*
X109835700Y-78155800D03*
%TD*%
%TO.C,R1*%
G36*
G01*
X108800000Y-87325001D02*
X108800000Y-86424999D01*
G75*
G02*
X109049999Y-86175000I249999J0D01*
G01*
X109750001Y-86175000D01*
G75*
G02*
X110000000Y-86424999I0J-249999D01*
G01*
X110000000Y-87325001D01*
G75*
G02*
X109750001Y-87575000I-249999J0D01*
G01*
X109049999Y-87575000D01*
G75*
G02*
X108800000Y-87325001I0J249999D01*
G01*
G37*
G36*
G01*
X106800000Y-87325001D02*
X106800000Y-86424999D01*
G75*
G02*
X107049999Y-86175000I249999J0D01*
G01*
X107750001Y-86175000D01*
G75*
G02*
X108000000Y-86424999I0J-249999D01*
G01*
X108000000Y-87325001D01*
G75*
G02*
X107750001Y-87575000I-249999J0D01*
G01*
X107049999Y-87575000D01*
G75*
G02*
X106800000Y-87325001I0J249999D01*
G01*
G37*
%TD*%
%TO.C,C4*%
G36*
G01*
X97624140Y-77101720D02*
X97624140Y-76151720D01*
G75*
G02*
X97874140Y-75901720I250000J0D01*
G01*
X98549140Y-75901720D01*
G75*
G02*
X98799140Y-76151720I0J-250000D01*
G01*
X98799140Y-77101720D01*
G75*
G02*
X98549140Y-77351720I-250000J0D01*
G01*
X97874140Y-77351720D01*
G75*
G02*
X97624140Y-77101720I0J250000D01*
G01*
G37*
G36*
G01*
X95549140Y-77101720D02*
X95549140Y-76151720D01*
G75*
G02*
X95799140Y-75901720I250000J0D01*
G01*
X96474140Y-75901720D01*
G75*
G02*
X96724140Y-76151720I0J-250000D01*
G01*
X96724140Y-77101720D01*
G75*
G02*
X96474140Y-77351720I-250000J0D01*
G01*
X95799140Y-77351720D01*
G75*
G02*
X95549140Y-77101720I0J250000D01*
G01*
G37*
%TD*%
%TO.C,C3*%
G36*
G01*
X101259620Y-83476160D02*
X102209620Y-83476160D01*
G75*
G02*
X102459620Y-83726160I0J-250000D01*
G01*
X102459620Y-84401160D01*
G75*
G02*
X102209620Y-84651160I-250000J0D01*
G01*
X101259620Y-84651160D01*
G75*
G02*
X101009620Y-84401160I0J250000D01*
G01*
X101009620Y-83726160D01*
G75*
G02*
X101259620Y-83476160I250000J0D01*
G01*
G37*
G36*
G01*
X101259620Y-81401160D02*
X102209620Y-81401160D01*
G75*
G02*
X102459620Y-81651160I0J-250000D01*
G01*
X102459620Y-82326160D01*
G75*
G02*
X102209620Y-82576160I-250000J0D01*
G01*
X101259620Y-82576160D01*
G75*
G02*
X101009620Y-82326160I0J250000D01*
G01*
X101009620Y-81651160D01*
G75*
G02*
X101259620Y-81401160I250000J0D01*
G01*
G37*
%TD*%
%TO.C,C2*%
G36*
G01*
X109712000Y-85196700D02*
X109712000Y-84246700D01*
G75*
G02*
X109962000Y-83996700I250000J0D01*
G01*
X110637000Y-83996700D01*
G75*
G02*
X110887000Y-84246700I0J-250000D01*
G01*
X110887000Y-85196700D01*
G75*
G02*
X110637000Y-85446700I-250000J0D01*
G01*
X109962000Y-85446700D01*
G75*
G02*
X109712000Y-85196700I0J250000D01*
G01*
G37*
G36*
G01*
X107637000Y-85196700D02*
X107637000Y-84246700D01*
G75*
G02*
X107887000Y-83996700I250000J0D01*
G01*
X108562000Y-83996700D01*
G75*
G02*
X108812000Y-84246700I0J-250000D01*
G01*
X108812000Y-85196700D01*
G75*
G02*
X108562000Y-85446700I-250000J0D01*
G01*
X107887000Y-85446700D01*
G75*
G02*
X107637000Y-85196700I0J250000D01*
G01*
G37*
%TD*%
%TO.C,C1*%
G36*
G01*
X96092520Y-98331040D02*
X96092520Y-97381040D01*
G75*
G02*
X96342520Y-97131040I250000J0D01*
G01*
X97017520Y-97131040D01*
G75*
G02*
X97267520Y-97381040I0J-250000D01*
G01*
X97267520Y-98331040D01*
G75*
G02*
X97017520Y-98581040I-250000J0D01*
G01*
X96342520Y-98581040D01*
G75*
G02*
X96092520Y-98331040I0J250000D01*
G01*
G37*
G36*
G01*
X94017520Y-98331040D02*
X94017520Y-97381040D01*
G75*
G02*
X94267520Y-97131040I250000J0D01*
G01*
X94942520Y-97131040D01*
G75*
G02*
X95192520Y-97381040I0J-250000D01*
G01*
X95192520Y-98331040D01*
G75*
G02*
X94942520Y-98581040I-250000J0D01*
G01*
X94267520Y-98581040D01*
G75*
G02*
X94017520Y-98331040I0J250000D01*
G01*
G37*
%TD*%
%TO.C,FB2*%
G36*
G01*
X97834980Y-84506221D02*
X97834980Y-83606219D01*
G75*
G02*
X98084979Y-83356220I249999J0D01*
G01*
X98734981Y-83356220D01*
G75*
G02*
X98984980Y-83606219I0J-249999D01*
G01*
X98984980Y-84506221D01*
G75*
G02*
X98734981Y-84756220I-249999J0D01*
G01*
X98084979Y-84756220D01*
G75*
G02*
X97834980Y-84506221I0J249999D01*
G01*
G37*
G36*
G01*
X95784980Y-84506221D02*
X95784980Y-83606219D01*
G75*
G02*
X96034979Y-83356220I249999J0D01*
G01*
X96684981Y-83356220D01*
G75*
G02*
X96934980Y-83606219I0J-249999D01*
G01*
X96934980Y-84506221D01*
G75*
G02*
X96684981Y-84756220I-249999J0D01*
G01*
X96034979Y-84756220D01*
G75*
G02*
X95784980Y-84506221I0J249999D01*
G01*
G37*
%TD*%
%TO.C,FB1*%
G36*
G01*
X97804500Y-82230381D02*
X97804500Y-81330379D01*
G75*
G02*
X98054499Y-81080380I249999J0D01*
G01*
X98704501Y-81080380D01*
G75*
G02*
X98954500Y-81330379I0J-249999D01*
G01*
X98954500Y-82230381D01*
G75*
G02*
X98704501Y-82480380I-249999J0D01*
G01*
X98054499Y-82480380D01*
G75*
G02*
X97804500Y-82230381I0J249999D01*
G01*
G37*
G36*
G01*
X95754500Y-82230381D02*
X95754500Y-81330379D01*
G75*
G02*
X96004499Y-81080380I249999J0D01*
G01*
X96654501Y-81080380D01*
G75*
G02*
X96904500Y-81330379I0J-249999D01*
G01*
X96904500Y-82230381D01*
G75*
G02*
X96654501Y-82480380I-249999J0D01*
G01*
X96004499Y-82480380D01*
G75*
G02*
X95754500Y-82230381I0J249999D01*
G01*
G37*
%TD*%
M02*
